<svg width="17" height="17" viewBox="0 0 17 17" fill="none" xmlns="http://www.w3.org/2000/svg">
<path d="M17 4.99375C16.9863 4.28939 16.8534 3.59245 16.6069 2.9325C16.3948 2.36442 16.0612 1.84951 15.6294 1.42375C15.2038 0.991704 14.6889 0.65806 14.1206 0.44625C13.4471 0.175813 12.7316 0.0248049 12.0063 0L4.99375 0C4.28942 0.0138907 3.5925 0.146807 2.9325 0.393125C2.36254 0.617293 1.8464 0.959409 1.41792 1.39704C0.989448 1.83467 0.65832 2.35793 0.44625 2.9325C0.181567 3.58927 0.0306604 4.28632 0 4.99375L0 12.0063C0.0136867 12.7106 0.146609 13.4075 0.393125 14.0675C0.611464 14.6323 0.945416 15.1452 1.37357 15.5733C1.80172 16.0015 2.31462 16.3354 2.87937 16.5537C3.55283 16.8244 4.26836 16.9754 4.99375 17H12.0063C12.7106 16.9863 13.4075 16.8534 14.0675 16.6069C14.6323 16.3885 15.1452 16.0546 15.5733 15.6264C16.0015 15.1983 16.3354 14.6854 16.5537 14.1206C16.8244 13.4472 16.9754 12.7316 17 12.0063V8.5V4.99375ZM15.47 11.9319C15.4625 12.4728 15.3619 13.0083 15.1725 13.515C15.0311 13.8821 14.8143 14.2154 14.5361 14.4936C14.2579 14.7718 13.9246 14.9886 13.5575 15.13C13.0507 15.319 12.5152 15.4196 11.9744 15.4275H5.11062C4.56981 15.4194 4.03436 15.3188 3.5275 15.13C3.16042 14.9886 2.82706 14.7718 2.54889 14.4936C2.27073 14.2154 2.05394 13.8821 1.9125 13.515C1.7231 13.0083 1.62246 12.4728 1.615 11.9319V8.5V5.06812C1.62246 4.52724 1.7231 3.99169 1.9125 3.485C2.04923 3.12201 2.25949 2.79118 2.53008 2.51327C2.80068 2.23536 3.12578 2.01636 3.485 1.87C3.99169 1.6806 4.52724 1.57996 5.06812 1.5725H11.9319C12.4728 1.57996 13.0083 1.6806 13.515 1.87C13.8821 2.01144 14.2154 2.22823 14.4936 2.50639C14.7718 2.78456 14.9886 3.11792 15.13 3.485C15.3194 3.99169 15.42 4.52724 15.4275 5.06812V8.5C15.4275 8.5 15.4594 11.0394 15.4169 11.9319H15.47ZM8.5 4.13313C7.63631 4.13313 6.79202 4.38924 6.07389 4.86908C5.35577 5.34891 4.79605 6.03093 4.46553 6.82887C4.13502 7.62681 4.04854 8.50484 4.21703 9.35193C4.38553 10.199 4.80143 10.9771 5.41215 11.5878C6.02287 12.1986 6.80097 12.6145 7.64807 12.783C8.49516 12.9515 9.37319 12.865 10.1711 12.5345C10.9691 12.2039 11.6511 11.6442 12.1309 10.9261C12.6108 10.208 12.8669 9.36369 12.8669 8.5C12.8669 7.34183 12.4068 6.2311 11.5878 5.41215C10.7689 4.5932 9.65817 4.13313 8.5 4.13313ZM8.5 11.3263C7.93847 11.3262 7.38957 11.1596 6.92282 10.8474C6.45607 10.5352 6.09247 10.0915 5.87807 9.57253C5.66367 9.05354 5.60811 8.4826 5.71844 7.93201C5.82876 7.38142 6.10001 6.87596 6.49781 6.47964C6.89562 6.08332 7.4021 5.81398 7.95309 5.70572C8.50409 5.59746 9.07483 5.65516 9.59301 5.87151C10.1112 6.08785 10.5535 6.45311 10.8639 6.92103C11.1744 7.38895 11.339 7.93847 11.3369 8.5C11.3369 9.25239 11.038 9.97396 10.506 10.506C9.97396 11.038 9.25239 11.3369 8.5 11.3369V11.3263ZM13.0369 2.9325C12.8267 2.9325 12.6213 2.99481 12.4466 3.11156C12.2719 3.22831 12.1357 3.39425 12.0553 3.5884C11.9748 3.78255 11.9538 3.99618 11.9948 4.20228C12.0358 4.40839 12.137 4.59771 12.2856 4.7463C12.4342 4.89489 12.6235 4.99609 12.8296 5.03708C13.0357 5.07808 13.2493 5.05704 13.4435 4.97662C13.6376 4.8962 13.8036 4.76002 13.9203 4.58529C14.0371 4.41057 14.0994 4.20514 14.0994 3.995C14.0966 3.71505 13.9834 3.44752 13.7844 3.25056C13.5855 3.05359 13.3168 2.94311 13.0369 2.94313V2.9325Z" fill="#2A393A"/>
</svg>
