<svg width="20" height="26" viewBox="0 0 20 26" fill="none" xmlns="http://www.w3.org/2000/svg">
<g clip-path="url(#clip0_1471_2477)">
<path d="M0.34375 22.0003H4.49222V8.65234H0.34375V22.0003Z" fill="#2A393A"/>
<path d="M0 4.407C0 5.71991 1.0917 6.814 2.40175 6.814C3.75546 6.814 4.80349 5.76368 4.80349 4.407C4.80349 3.09409 3.71179 2 2.40175 2C1.0917 2 0 3.09409 0 4.407Z" fill="#2A393A"/>
<path d="M15.8554 22H20.0039V14.6915C20.0039 11.1028 19.2179 8.3457 15.0257 8.3457C13.017 8.3457 11.6633 9.4398 11.0956 10.4902H11.0519V8.65205H7.07812V22H11.2266V15.3917C11.2266 13.6849 11.576 11.9781 13.7157 11.9781C15.8118 11.9781 15.8554 13.9912 15.8554 15.523V22Z" fill="#2A393A"/>
</g>
<defs>
<clipPath id="clip0_1471_2477">
<rect width="20" height="26" fill="white"/>
</clipPath>
</defs>
</svg>
