<svg width="18" height="23" viewBox="0 0 18 23" fill="none" xmlns="http://www.w3.org/2000/svg">
<path d="M9 5C8.18415 5 7.38663 5.24193 6.70827 5.69519C6.02992 6.14845 5.50121 6.79269 5.189 7.54643C4.87679 8.30018 4.7951 9.12958 4.95426 9.92975C5.11343 10.7299 5.50629 11.4649 6.08318 12.0418C6.66008 12.6187 7.39508 13.0116 8.19525 13.1707C8.99542 13.3299 9.82482 13.2482 10.5786 12.936C11.3323 12.6238 11.9766 12.0951 12.4298 11.4167C12.8831 10.7384 13.125 9.94085 13.125 9.125C13.1238 8.03136 12.6888 6.98287 11.9154 6.20955C11.1421 5.43624 10.0936 5.00124 9 5ZM9 11C8.62916 11 8.26665 10.89 7.95831 10.684C7.64996 10.478 7.40964 10.1851 7.26773 9.84253C7.12581 9.49992 7.08868 9.12292 7.16103 8.7592C7.23337 8.39549 7.41195 8.0614 7.67417 7.79917C7.9364 7.53695 8.27049 7.35837 8.6342 7.28603C8.99792 7.21368 9.37492 7.25081 9.71753 7.39272C10.0601 7.53464 10.353 7.77496 10.559 8.08331C10.765 8.39165 10.875 8.75416 10.875 9.125C10.875 9.62228 10.6775 10.0992 10.3258 10.4508C9.97419 10.8025 9.49728 11 9 11ZM9 0.5C6.71327 0.502482 4.52091 1.41198 2.90394 3.02894C1.28698 4.64591 0.377482 6.83827 0.375 9.125C0.375 16.3775 8.02875 21.8187 8.355 22.0466C8.54407 22.1789 8.76924 22.2498 9 22.2498C9.23076 22.2498 9.45594 22.1789 9.645 22.0466C11.0946 20.9782 12.4209 19.7519 13.5994 18.3903C16.2328 15.3659 17.625 12.1597 17.625 9.125C17.6225 6.83827 16.713 4.64591 15.0961 3.02894C13.4791 1.41198 11.2867 0.502482 9 0.5ZM11.9344 16.8791C11.0405 17.9058 10.0586 18.8526 9 19.7084C7.94136 18.8526 6.9595 17.9058 6.06562 16.8791C4.5 15.0659 2.625 12.2478 2.625 9.125C2.625 7.43424 3.29665 5.81274 4.49219 4.61719C5.68774 3.42165 7.30925 2.75 9 2.75C10.6908 2.75 12.3123 3.42165 13.5078 4.61719C14.7034 5.81274 15.375 7.43424 15.375 9.125C15.375 12.2478 13.5 15.0659 11.9344 16.8791Z" fill="white"/>
</svg>
