<svg width="22" height="17" viewBox="0 0 22 17" fill="none" xmlns="http://www.w3.org/2000/svg">
<path d="M20 0.5H2C1.70163 0.5 1.41548 0.618526 1.2045 0.829505C0.993526 1.04048 0.875 1.32663 0.875 1.625V14.375C0.875 14.8723 1.07254 15.3492 1.42417 15.7008C1.77581 16.0525 2.25272 16.25 2.75 16.25H19.25C19.7473 16.25 20.2242 16.0525 20.5758 15.7008C20.9275 15.3492 21.125 14.8723 21.125 14.375V1.625C21.125 1.32663 21.0065 1.04048 20.7955 0.829505C20.5845 0.618526 20.2984 0.5 20 0.5ZM17.1078 2.75L11 8.34875L4.89219 2.75H17.1078ZM3.125 14V4.1825L10.2397 10.7047C10.4472 10.895 10.7185 11.0005 11 11.0005C11.2815 11.0005 11.5528 10.895 11.7603 10.7047L18.875 4.1825V14H3.125Z" fill="white"/>
</svg>
