<svg width="21" height="20" viewBox="0 0 21 20" fill="none" xmlns="http://www.w3.org/2000/svg">
<path d="M19 12.8871L14.5853 10.908L14.5684 10.9005C14.2815 10.7768 13.9681 10.727 13.6569 10.7557C13.3458 10.7843 13.0467 10.8905 12.7872 11.0646C12.7508 11.0889 12.7158 11.1152 12.6822 11.1433L10.5906 12.9246C9.37188 12.2636 8.11282 11.0149 7.45094 9.81115L9.23782 7.68678C9.26654 7.65249 9.29316 7.61648 9.31751 7.57896C9.48699 7.32036 9.58989 7.02385 9.61704 6.71585C9.64419 6.40785 9.59476 6.09792 9.47313 5.81365C9.47024 5.80821 9.46774 5.80257 9.46563 5.79678L7.48751 1.37459C7.32513 1.00477 7.04801 0.697046 6.69716 0.496966C6.3463 0.296886 5.94035 0.215079 5.53938 0.263651C4.17848 0.442426 2.92918 1.11047 2.02482 2.14301C1.12046 3.17556 0.62288 4.502 0.625007 5.87459C0.625007 13.5255 6.84907 19.7496 14.5 19.7496C15.8726 19.7517 17.199 19.2541 18.2316 18.3498C19.2641 17.4454 19.9322 16.1961 20.1109 14.8352C20.1595 14.4342 20.0777 14.0283 19.8776 13.6774C19.6775 13.3266 19.3698 13.0495 19 12.8871ZM14.5 17.4996C11.418 17.4959 8.4633 16.2699 6.284 14.0906C4.1047 11.9113 2.87873 8.95659 2.87501 5.87459C2.87286 5.09786 3.13655 4.34379 3.62227 3.73767C4.10799 3.13154 4.78648 2.70987 5.54501 2.54271L7.30938 6.48021L5.51313 8.61959C5.4841 8.65419 5.45717 8.6905 5.43251 8.72834C5.25546 8.99886 5.15137 9.31056 5.13034 9.63318C5.10932 9.9558 5.17207 10.2784 5.31251 10.5696C6.19563 12.3771 8.01532 14.1846 9.84157 15.0696C10.1347 15.2086 10.4589 15.2691 10.7825 15.2453C11.106 15.2214 11.4179 15.1141 11.6875 14.9337C11.7238 14.9092 11.7585 14.8826 11.7916 14.854L13.8944 13.0662L17.8319 14.8296C17.6647 15.5881 17.243 16.2666 16.6369 16.7523C16.0308 17.238 15.2767 17.5017 14.5 17.4996Z" fill="white"/>
</svg>
