<svg width="25" height="26" viewBox="0 0 25 26" fill="none" xmlns="http://www.w3.org/2000/svg">
<path d="M24.7656 8.15632C24.7656 8.15632 24.5312 6.49778 23.7891 5.7439C22.8516 4.80155 21.7578 4.76386 21.2891 4.72616C17.7344 4.5 12.5 4.5 12.5 4.5C12.5 4.5 7.26563 4.5 3.75 4.72616C3.24219 4.76386 2.1875 4.80155 1.25 5.7439C0.507812 6.46009 0.273438 8.15632 0.273438 8.15632C0.273438 8.15632 0 10.1164 0 12.0765V13.9235C0 15.8836 0.234375 17.8437 0.234375 17.8437C0.234375 17.8437 0.46875 19.5022 1.21094 20.2561C2.14844 21.1984 3.39844 21.1984 3.98438 21.2738C5.97656 21.4623 12.5 21.5 12.5 21.5C12.5 21.5 17.7344 21.5 21.25 21.2361C21.7578 21.1984 22.8125 21.1608 23.75 20.2184C24.4922 19.5022 24.7266 17.806 24.7266 17.806C24.7266 17.806 25 15.8459 25 13.8858V12.0388C25 10.1164 24.7656 8.15632 24.7656 8.15632ZM9.92188 16.1098V9.32483L16.6797 12.7173L9.92188 16.1098Z" fill="#2A393A"/>
</svg>
