<svg width="34" height="29" viewBox="0 0 34 29" fill="none" xmlns="http://www.w3.org/2000/svg">
<path d="M14.5 13.25C14.5 13.7445 14.3534 14.2278 14.0787 14.6389C13.804 15.05 13.4135 15.3705 12.9567 15.5597C12.4999 15.7489 11.9972 15.7984 11.5123 15.702C11.0273 15.6055 10.5819 15.3674 10.2322 15.0178C9.8826 14.6681 9.6445 14.2227 9.54804 13.7377C9.45157 13.2528 9.50108 12.7501 9.6903 12.2933C9.87952 11.8365 10.2 11.446 10.6111 11.1713C11.0222 10.8966 11.5055 10.75 12 10.75C12.663 10.75 13.2989 11.0134 13.7678 11.4822C14.2366 11.9511 14.5 12.587 14.5 13.25ZM33.25 3.25V25.75C33.25 26.413 32.9866 27.0489 32.5178 27.5178C32.0489 27.9866 31.413 28.25 30.75 28.25H3.25C2.58696 28.25 1.95107 27.9866 1.48223 27.5178C1.01339 27.0489 0.75 26.413 0.75 25.75V3.25C0.75 2.58696 1.01339 1.95107 1.48223 1.48223C1.95107 1.01339 2.58696 0.75 3.25 0.75H30.75C31.413 0.75 32.0489 1.01339 32.5178 1.48223C32.9866 1.95107 33.25 2.58696 33.25 3.25ZM18.2109 20.4375C17.8064 18.9272 16.8473 17.6249 15.525 16.7906C16.2272 16.0926 16.7064 15.2017 16.9017 14.231C17.0971 13.2603 16.9998 12.2534 16.6222 11.338C16.2447 10.4227 15.6038 9.64003 14.7809 9.08931C13.9581 8.53858 12.9902 8.24459 12 8.24459C11.0098 8.24459 10.0419 8.53858 9.21906 9.08931C8.39617 9.64003 7.75532 10.4227 7.37776 11.338C7.0002 12.2534 6.90292 13.2603 7.09826 14.231C7.2936 15.2017 7.77276 16.0926 8.475 16.7906C7.15352 17.6259 6.19469 18.9277 5.78906 20.4375C5.70618 20.7587 5.75428 21.0996 5.92277 21.3853C6.09126 21.671 6.36634 21.8781 6.6875 21.9609C7.00866 22.0438 7.34959 21.9957 7.63529 21.8272C7.92099 21.6587 8.12806 21.3837 8.21094 21.0625C8.62344 19.4609 10.2516 18.25 12 18.25C13.7484 18.25 15.3781 19.4578 15.7891 21.0625C15.8719 21.3837 16.079 21.6587 16.3647 21.8272C16.6504 21.9957 16.9913 22.0438 17.3125 21.9609C17.6337 21.8781 17.9087 21.671 18.0772 21.3853C18.2457 21.0996 18.2938 20.7587 18.2109 20.4375ZM28.25 17C28.25 16.6685 28.1183 16.3505 27.8839 16.1161C27.6495 15.8817 27.3315 15.75 27 15.75H20.75C20.4185 15.75 20.1005 15.8817 19.8661 16.1161C19.6317 16.3505 19.5 16.6685 19.5 17C19.5 17.3315 19.6317 17.6495 19.8661 17.8839C20.1005 18.1183 20.4185 18.25 20.75 18.25H27C27.3315 18.25 27.6495 18.1183 27.8839 17.8839C28.1183 17.6495 28.25 17.3315 28.25 17ZM28.25 12C28.25 11.6685 28.1183 11.3505 27.8839 11.1161C27.6495 10.8817 27.3315 10.75 27 10.75H20.75C20.4185 10.75 20.1005 10.8817 19.8661 11.1161C19.6317 11.3505 19.5 11.6685 19.5 12C19.5 12.3315 19.6317 12.6495 19.8661 12.8839C20.1005 13.1183 20.4185 13.25 20.75 13.25H27C27.3315 13.25 27.6495 13.1183 27.8839 12.8839C28.1183 12.6495 28.25 12.3315 28.25 12Z" fill="#006CFC"/>
</svg>
