<svg width="34" height="28" viewBox="0 0 34 28" fill="none" xmlns="http://www.w3.org/2000/svg">
<path d="M14.5 12.75C14.5 13.2445 14.3534 13.7278 14.0787 14.1389C13.804 14.55 13.4135 14.8705 12.9567 15.0597C12.4999 15.2489 11.9972 15.2984 11.5123 15.202C11.0273 15.1055 10.5819 14.8674 10.2322 14.5178C9.8826 14.1681 9.6445 13.7227 9.54804 13.2377C9.45157 12.7528 9.50108 12.2501 9.6903 11.7933C9.87952 11.3365 10.2 10.946 10.6111 10.6713C11.0222 10.3966 11.5055 10.25 12 10.25C12.663 10.25 13.2989 10.5134 13.7678 10.9822C14.2366 11.4511 14.5 12.087 14.5 12.75ZM33.25 2.75V25.25C33.25 25.913 32.9866 26.5489 32.5178 27.0178C32.0489 27.4866 31.413 27.75 30.75 27.75H3.25C2.58696 27.75 1.95107 27.4866 1.48223 27.0178C1.01339 26.5489 0.75 25.913 0.75 25.25V2.75C0.75 2.08696 1.01339 1.45107 1.48223 0.982233C1.95107 0.513392 2.58696 0.25 3.25 0.25H30.75C31.413 0.25 32.0489 0.513392 32.5178 0.982233C32.9866 1.45107 33.25 2.08696 33.25 2.75ZM18.2109 19.9375C17.8064 18.4272 16.8473 17.1249 15.525 16.2906C16.2272 15.5926 16.7064 14.7017 16.9017 13.731C17.0971 12.7603 16.9998 11.7534 16.6222 10.838C16.2447 9.92268 15.6038 9.14003 14.7809 8.58931C13.9581 8.03858 12.9902 7.74459 12 7.74459C11.0098 7.74459 10.0419 8.03858 9.21906 8.58931C8.39617 9.14003 7.75532 9.92268 7.37776 10.838C7.0002 11.7534 6.90292 12.7603 7.09826 13.731C7.2936 14.7017 7.77276 15.5926 8.475 16.2906C7.15352 17.1259 6.19469 18.4277 5.78906 19.9375C5.70618 20.2587 5.75428 20.5996 5.92277 20.8853C6.09126 21.171 6.36634 21.3781 6.6875 21.4609C7.00866 21.5438 7.34959 21.4957 7.63529 21.3272C7.92099 21.1587 8.12806 20.8837 8.21094 20.5625C8.62344 18.9609 10.2516 17.75 12 17.75C13.7484 17.75 15.3781 18.9578 15.7891 20.5625C15.8719 20.8837 16.079 21.1587 16.3647 21.3272C16.6504 21.4957 16.9913 21.5438 17.3125 21.4609C17.6337 21.3781 17.9087 21.171 18.0772 20.8853C18.2457 20.5996 18.2938 20.2587 18.2109 19.9375ZM28.25 16.5C28.25 16.1685 28.1183 15.8505 27.8839 15.6161C27.6495 15.3817 27.3315 15.25 27 15.25H20.75C20.4185 15.25 20.1005 15.3817 19.8661 15.6161C19.6317 15.8505 19.5 16.1685 19.5 16.5C19.5 16.8315 19.6317 17.1495 19.8661 17.3839C20.1005 17.6183 20.4185 17.75 20.75 17.75H27C27.3315 17.75 27.6495 17.6183 27.8839 17.3839C28.1183 17.1495 28.25 16.8315 28.25 16.5ZM28.25 11.5C28.25 11.1685 28.1183 10.8505 27.8839 10.6161C27.6495 10.3817 27.3315 10.25 27 10.25H20.75C20.4185 10.25 20.1005 10.3817 19.8661 10.6161C19.6317 10.8505 19.5 11.1685 19.5 11.5C19.5 11.8315 19.6317 12.1495 19.8661 12.3839C20.1005 12.6183 20.4185 12.75 20.75 12.75H27C27.3315 12.75 27.6495 12.6183 27.8839 12.3839C28.1183 12.1495 28.25 11.8315 28.25 11.5Z" fill="#435369"/>
</svg>
