<svg width="28" height="30" viewBox="0 0 28 30" fill="none" xmlns="http://www.w3.org/2000/svg">
<path d="M26 0.125H1.99375C0.89375 0.125 0 1.08789 0 2.26992V27.7301C0 28.9121 0.89375 29.875 1.99375 29.875H26C27.1 29.875 28 28.9121 28 27.7301V2.26992C28 1.08789 27.1 0.125 26 0.125ZM8.4625 25.625H4.3125V11.4273H8.46875V25.625H8.4625ZM6.3875 9.48828C5.05625 9.48828 3.98125 8.33945 3.98125 6.93164C3.98125 5.52383 5.05625 4.375 6.3875 4.375C7.7125 4.375 8.79375 5.52383 8.79375 6.93164C8.79375 8.34609 7.71875 9.48828 6.3875 9.48828ZM24.0187 25.625H19.8687V18.7188C19.8687 17.0719 19.8375 14.9535 17.7125 14.9535C15.55 14.9535 15.2188 16.7465 15.2188 18.5992V25.625H11.0688V11.4273H15.05V13.3664H15.1062C15.6625 12.2508 17.0188 11.0754 19.0375 11.0754C23.2375 11.0754 24.0187 14.0172 24.0187 17.8422V25.625Z" fill="#435369"/>
</svg>
