<svg width="25" height="24" viewBox="0 0 25 24" fill="none" xmlns="http://www.w3.org/2000/svg">
<path d="M22.7806 9.96997L15.2806 2.46997C15.1757 2.36501 15.0421 2.29351 14.8967 2.26449C14.7512 2.23547 14.6004 2.25025 14.4633 2.30694C14.3262 2.36364 14.209 2.45972 14.1265 2.58302C14.0441 2.70632 14 2.85131 13.9999 2.99965V6.78246C11.5681 6.99059 8.88213 8.18122 6.67244 10.0553C4.01182 12.3128 2.35526 15.2218 2.00744 18.2462C1.98026 18.4813 2.02794 18.7191 2.14368 18.9255C2.25943 19.132 2.43735 19.2967 2.65212 19.3962C2.86689 19.4957 3.10757 19.5249 3.33991 19.4797C3.57225 19.4345 3.78441 19.3171 3.94619 19.1443C4.97744 18.0465 8.64682 14.575 13.9999 14.2693V17.9997C14 18.148 14.0441 18.293 14.1265 18.4163C14.209 18.5396 14.3262 18.6357 14.4633 18.6924C14.6004 18.7491 14.7512 18.7638 14.8967 18.7348C15.0421 18.7058 15.1757 18.6343 15.2806 18.5293L22.7806 11.0293C22.9208 10.8887 22.9996 10.6983 22.9996 10.4997C22.9996 10.3011 22.9208 10.1106 22.7806 9.96997ZM15.4999 16.1893V13.4997C15.4999 13.3007 15.4209 13.11 15.2803 12.9693C15.1396 12.8287 14.9489 12.7497 14.7499 12.7497C12.1174 12.7497 9.55338 13.4368 7.129 14.7934C5.89427 15.4874 4.74383 16.3216 3.70057 17.2797C4.24432 15.0447 5.61494 12.9193 7.64276 11.199C9.81963 9.35309 12.4765 8.24965 14.7499 8.24965C14.9489 8.24965 15.1396 8.17063 15.2803 8.02998C15.4209 7.88933 15.4999 7.69857 15.4999 7.49965V4.8109L21.1896 10.4997L15.4999 16.1893Z" fill="#006CFC"/>
</svg>
