<svg width="80" height="80" viewBox="0 0 80 80" fill="none" xmlns="http://www.w3.org/2000/svg">
<path d="M49.3594 64.6094C49.3594 65.4219 49.0625 66.1719 48.5469 66.7344H20.9219C19.0937 64.7656 20.6094 61.3281 23.3281 61.3906H46.1406C47.9219 61.3906 49.3594 62.8281 49.3594 64.6094ZM20.9219 68.9062C19.0937 70.875 20.6094 74.3125 23.3281 74.25H46.1406C48.8594 74.3125 50.375 70.8594 48.5312 68.9062H20.9219ZM30 79.8438H39.4844C41.5156 79.8438 43.1875 78.3594 43.5156 76.4219H25.9687C26.2969 78.3594 27.9687 79.8438 30 79.8438ZM50.5156 47.8438C47.1719 50.75 45.125 54.8438 44.7031 59.2188H37.7812V15.4688C37.7812 14.5469 38.5625 13.8125 39.4844 13.8906C56.5781 15.4062 63.25 36.8594 50.5156 47.8438ZM53.5469 33.2188C53.5937 26.6562 49.2812 20.5 43.0625 18.3594C42.4219 18.125 41.6875 18.4688 41.4687 19.125C41.2344 19.7812 41.5625 20.4844 42.2187 20.7188C47.4375 22.5156 51.0781 27.6875 51.0312 33.2188C51.0625 34.8594 53.5312 34.8594 53.5469 33.2188ZM21.75 51.7812C22.5625 50.9375 24.4062 49.8438 25.0937 51.3906C25.3437 52.0312 25.0156 52.7656 24.3594 53.0156C21.5469 54.2969 23 58.0938 24.75 59.2188H30.3594C31.5625 58.3438 32.3437 56.9375 32.3437 55.3438V19.9219C32.3125 14.8125 25.3125 13.3125 23.2187 17.9531C24.9062 18.2812 29.8906 22.5312 26.3125 23.3281C25.125 23.2812 24.8594 21.7031 23.9219 21.1719C19.2187 17.4531 12.5312 22.5469 14.5625 27.9688C16.6875 27.5781 19.4844 28.625 20.9062 30.4219C21.6094 31.1875 20.9687 32.5156 19.9531 32.4844C19.5937 32.4844 19.25 32.3281 19 32.0312C18.6719 31.6406 17.9375 30.9219 16.7812 30.5938C15.9687 30.3281 14.8437 30.3906 14.1875 30.6094C7.70311 32.5 7.17186 41.7188 13.3594 44.3594C14.2031 43 19.1406 39.2344 20.0312 41.875C20.2031 42.5469 19.7812 43.2344 19.125 43.3906C12 45.1563 12.9844 55.1562 20.3281 55.3594C20.3437 54.1406 20.7344 52.7969 21.75 51.7812ZM54.6094 17.8281C54.9375 17.8281 55.25 17.7031 55.5 17.4688L61.2969 11.6719C62.4375 10.4844 60.7031 8.75 59.5312 9.90625L53.7344 15.7031C52.9219 16.4375 53.5312 17.8594 54.6094 17.8281ZM69.7656 32.1406H61.5781C59.9219 32.1719 59.9375 34.625 61.5781 34.6406H69.7656C71.4219 34.625 71.4062 32.1719 69.7656 32.1406ZM55.4844 49.3438C54.2969 48.2031 52.5625 49.9375 53.7187 51.1094L59.5156 56.9062C60.6875 58.0625 62.4375 56.2969 61.2812 55.1406C61.2812 55.125 55.4844 49.3438 55.4844 49.3438ZM37.7812 10.8594C38.4687 10.8594 39.0312 10.2969 39.0312 9.60938V1.40625C39.0312 0.71875 38.4687 0.15625 37.7812 0.15625C37.0937 0.15625 36.5312 0.71875 36.5312 1.40625V9.59375C36.5312 10.2969 37.0937 10.8594 37.7812 10.8594Z" fill="#006CFC"/>
</svg>
