<svg width="80" height="80" viewBox="0 0 80 80" fill="none" xmlns="http://www.w3.org/2000/svg">
<g clip-path="url(#clip0_491_567)">
<path d="M2.34375 80H23.5938V72.9688C23.5938 66.4966 18.3472 61.0938 11.875 61.0938C5.40281 61.0938 0 66.4966 0 72.9688V77.6562C0 78.9508 1.04922 80 2.34375 80ZM18.9062 54.0625C18.9062 50.1794 15.7581 47.0312 11.875 47.0312C7.99188 47.0312 4.6875 50.1794 4.6875 54.0625C4.6875 57.9456 7.99188 61.0938 11.875 61.0938C15.7581 61.0938 18.9062 57.9456 18.9062 54.0625ZM28.2812 72.9688V80H51.875V72.9688C51.875 66.4966 46.4722 61.0938 40 61.0938C33.5278 61.0938 28.2812 66.4966 28.2812 72.9688ZM47.1875 54.0625C47.1875 50.1794 43.8831 47.0312 40 47.0312C36.1169 47.0312 32.9688 50.1794 32.9688 54.0625C32.9688 57.9456 36.1169 61.0938 40 61.0938C43.8831 61.0938 47.1875 57.9456 47.1875 54.0625ZM68.2812 61.0938C61.8091 61.0938 56.5625 66.4966 56.5625 72.9688V80H77.6562C78.9508 80 80 78.9508 80 77.6562V72.9688C80 66.4966 74.7534 61.0938 68.2812 61.0938ZM75.3125 54.0625C75.3125 57.9456 72.1644 61.0938 68.2812 61.0938C64.3981 61.0938 61.25 57.9456 61.25 54.0625C61.25 50.1794 64.3981 47.0312 68.2812 47.0312C72.1644 47.0312 75.3125 50.1794 75.3125 54.0625ZM75.3125 16.5625C75.3125 20.4456 72.1644 23.5938 68.2812 23.5938C64.3981 23.5938 61.25 20.4456 61.25 16.5625C61.25 12.6794 64.3981 9.53125 68.2812 9.53125C72.1644 9.53125 75.3125 12.6794 75.3125 16.5625Z" fill="#006CFC"/>
<path d="M68.2812 23.5938C61.8091 23.5938 56.5625 28.8403 56.5625 35.3125V54.0625C56.5625 47.6012 61.82 42.3438 68.2812 42.3438C74.7425 42.3438 80 47.6012 80 54.0625V35.3125C80 28.8403 74.7534 23.5938 68.2812 23.5938ZM2.34375 37.6562H51.875V35.3125C51.875 30.8594 53.6719 26.8261 56.5625 23.8672V2.34375C56.5625 1.04844 55.5141 0 54.2188 0H2.34375C1.04844 0 0 1.04844 0 2.34375V35.3125C0 36.6078 1.04844 37.6562 2.34375 37.6562ZM28.2812 11.875C28.2812 10.5797 29.3297 9.53125 30.625 9.53125C31.9203 9.53125 32.9688 10.5797 32.9688 11.875V25.9375C32.9688 27.2328 31.9203 28.2812 30.625 28.2812C29.3297 28.2812 28.2812 27.2328 28.2812 25.9375V11.875ZM18.9062 16.5625C18.9062 15.2672 19.9547 14.2188 21.25 14.2188C22.5453 14.2188 23.5938 15.2672 23.5938 16.5625V25.9375C23.5938 27.2328 22.5453 28.2812 21.25 28.2812C19.9547 28.2812 18.9062 27.2328 18.9062 25.9375V16.5625ZM9.53125 21.25C9.53125 19.9547 10.5797 18.9062 11.875 18.9062C13.1703 18.9062 14.2188 19.9547 14.2188 21.25V25.9375C14.2188 27.2328 13.1703 28.2812 11.875 28.2812C10.5797 28.2812 9.53125 27.2328 9.53125 25.9375V21.25Z" fill="#006CFC"/>
</g>
<defs>
<clipPath id="clip0_491_567">
<rect width="80" height="80" fill="white"/>
</clipPath>
</defs>
</svg>
