<svg width="80" height="80" viewBox="0 0 80 80" fill="none" xmlns="http://www.w3.org/2000/svg">
<path d="M75 39.9995C75.0008 37.2354 73.9538 34.5736 72.07 32.5508C71.4341 31.9085 70.9517 31.1308 70.6589 30.2757C70.366 29.4207 70.2702 28.5105 70.3787 27.6133C70.3847 27.5644 70.3877 27.5151 70.3875 27.4658C70.3807 24.77 69.3835 22.1706 67.5854 20.1621C65.7872 18.1535 63.3136 16.8759 60.635 16.572C60.3008 13.9133 59.0382 11.458 57.07 9.63954C55.9724 8.62899 54.6772 7.85711 53.2661 7.37269C51.8551 6.88827 50.3588 6.70184 48.872 6.82519C47.3852 6.94855 45.9402 7.37899 44.6283 8.08933C43.3163 8.79966 42.166 9.77444 41.25 10.952V28.7495H46.6525C47.6467 28.7486 48.6 28.3531 49.303 27.6501C50.0061 26.9471 50.4015 25.9938 50.4025 24.9995V21.7745C49.5685 21.4797 48.8655 20.8995 48.4179 20.1364C47.9703 19.3734 47.8069 18.4767 47.9565 17.6049C48.1061 16.733 48.5591 15.9421 49.2354 15.3719C49.9117 14.8017 50.7679 14.489 51.6525 14.489C52.5371 14.489 53.3932 14.8017 54.0696 15.3719C54.7459 15.9421 55.1989 16.733 55.3485 17.6049C55.4981 18.4767 55.3346 19.3734 54.887 20.1364C54.4394 20.8995 53.7365 21.4797 52.9025 21.7745V24.9995C52.9005 26.6565 52.2414 28.2451 51.0697 29.4168C49.898 30.5884 48.3095 31.2476 46.6525 31.2495H41.25V35.4945H55.395C56.3892 35.4936 57.3425 35.0981 58.0455 34.3951C58.7486 33.6921 59.144 32.7388 59.145 31.7445V28.5195C58.311 28.2247 57.608 27.6445 57.1604 26.8814C56.7128 26.1184 56.5494 25.2217 56.699 24.3499C56.8486 23.478 57.3016 22.6871 57.9779 22.1169C58.6542 21.5467 59.5104 21.234 60.395 21.234C61.2796 21.234 62.1357 21.5467 62.8121 22.1169C63.4884 22.6871 63.9414 23.478 64.091 24.3499C64.2406 25.2217 64.0771 26.1184 63.6295 26.8814C63.1819 27.6445 62.479 28.2247 61.645 28.5195V31.7445C61.643 33.4015 60.9839 34.9901 59.8122 36.1618C58.6405 37.3334 57.052 37.9926 55.395 37.9945H41.25V42.0045H55.395C57.052 42.0065 58.6405 42.6656 59.8122 43.8373C60.9839 45.009 61.643 46.5976 61.645 48.2545V51.4795C62.479 51.7744 63.1819 52.3546 63.6295 53.1176C64.0771 53.8807 64.2406 54.7773 64.091 55.6492C63.9414 56.5211 63.4884 57.312 62.8121 57.8822C62.1357 58.4524 61.2796 58.7651 60.395 58.7651C59.5104 58.7651 58.6542 58.4524 57.9779 57.8822C57.3016 57.312 56.8486 56.5211 56.699 55.6492C56.5494 54.7773 56.7128 53.8807 57.1604 53.1176C57.608 52.3546 58.311 51.7744 59.145 51.4795V48.2545C59.144 47.2603 58.7486 46.307 58.0455 45.604C57.3425 44.9009 56.3892 44.5055 55.395 44.5045H41.25V48.7495H46.6525C48.3095 48.7515 49.898 49.4106 51.0697 50.5823C52.2414 51.754 52.9005 53.3426 52.9025 54.9995V58.2245C53.7365 58.5194 54.4394 59.0996 54.887 59.8626C55.3346 60.6257 55.4981 61.5223 55.3485 62.3942C55.1989 63.2661 54.7459 64.057 54.0696 64.6272C53.3932 65.1974 52.5371 65.5101 51.6525 65.5101C50.7679 65.5101 49.9117 65.1974 49.2354 64.6272C48.5591 64.057 48.1061 63.2661 47.9565 62.3942C47.8069 61.5223 47.9703 60.6257 48.4179 59.8626C48.8655 59.0996 49.5685 58.5194 50.4025 58.2245V54.9995C50.4015 54.0053 50.0061 53.052 49.303 52.349C48.6 51.6459 47.6467 51.2505 46.6525 51.2495H41.25V69.0458C42.1814 70.2475 43.3571 71.238 44.6995 71.9519C46.0418 72.6657 47.5204 73.0867 49.0375 73.187C49.2666 73.2012 49.495 73.2083 49.7225 73.2083C52.5026 73.2157 55.1797 72.1568 57.2025 70.2495C59.1056 68.4619 60.3119 66.0564 60.6062 63.462C63.2942 63.1574 65.7763 61.8749 67.58 59.8587C69.3837 57.8426 70.3829 55.2335 70.3875 52.5283C70.387 52.4807 70.3841 52.4331 70.3787 52.3858C70.271 51.4848 70.3686 50.571 70.6643 49.7131C70.9601 48.8552 71.4462 48.0753 72.0862 47.432C73.9618 45.4118 75.0028 42.7562 75 39.9995ZM30.9662 6.81204C29.5042 6.71456 28.0376 6.91526 26.6555 7.40196C25.2734 7.88866 24.0046 8.65121 22.9262 9.64329C21.6634 10.8089 20.6842 12.2482 20.0637 13.8508C20.6123 15.6925 21.6433 17.354 23.05 18.6633C24.0999 19.508 25.3197 20.1162 26.6261 20.4465C27.9325 20.7768 29.2948 20.8213 30.62 20.577C30.9493 20.5383 31.2806 20.6319 31.541 20.8374C31.8013 21.0428 31.9693 21.3433 32.0081 21.6727C32.0469 22.002 31.9533 22.3333 31.7478 22.5936C31.5423 22.854 31.2418 23.022 30.9125 23.0608C30.2554 23.1396 29.5943 23.1797 28.9325 23.1808C26.1788 23.2682 23.4913 22.326 21.395 20.5383C20.1952 19.463 19.2214 18.1598 18.53 16.7045C16.0256 17.185 13.7663 18.5215 12.1393 20.4851C10.5124 22.4487 9.61904 24.917 9.61248 27.467C9.73943 28.391 9.65214 29.3317 9.35735 30.2165C9.06257 31.1013 8.5682 31.9064 7.91248 32.5695C6.03715 34.5943 4.99676 37.2532 5.00001 40.013C5.00325 42.7728 6.0499 45.4292 7.92998 47.4495C8.58075 48.1109 9.0709 48.9129 9.36262 49.7937C9.65434 50.6745 9.73982 51.6105 9.61248 52.5295C9.60778 55.0548 10.4752 57.5042 12.0682 59.4637C13.6612 61.4231 15.8819 62.7724 18.355 63.2833C18.9108 62.3329 19.6156 61.4778 20.4425 60.7508C22.9512 58.5683 26.4212 57.7708 30.7525 58.3733C31.0744 58.4264 31.3629 58.6034 31.5561 58.8663C31.7494 59.1292 31.8322 59.4573 31.7868 59.7804C31.7414 60.1036 31.5715 60.3961 31.3133 60.5957C31.0551 60.7952 30.7291 60.8859 30.405 60.8483C26.8275 60.3495 24.0362 60.9458 22.0975 62.6245C21.1379 63.4808 20.39 64.5479 19.9125 65.7421C20.4874 67.458 21.4771 69.0055 22.7937 70.247C24.8176 72.1568 27.4973 73.2168 30.28 73.2083C31.9152 73.2048 33.5281 72.8282 34.9958 72.1073C36.4636 71.3865 37.7476 70.3402 38.75 69.0483V36.677C37.7171 36.8859 36.6663 36.9935 35.6125 36.9983C34.4807 37.0033 33.3531 36.8621 32.2575 36.5783C31.5825 36.5608 26.8762 36.5158 25.255 39.3058C25.1754 39.4532 25.067 39.583 24.9363 39.6877C24.8055 39.7923 24.6551 39.8696 24.4939 39.915C24.3327 39.9604 24.164 39.9729 23.9978 39.9519C23.8317 39.9308 23.6715 39.8765 23.5267 39.7923C23.3819 39.7081 23.2555 39.5957 23.1551 39.4617C23.0546 39.3277 22.9821 39.1749 22.9418 39.0124C22.9015 38.8498 22.8943 38.6808 22.9207 38.5154C22.947 38.35 23.0063 38.1916 23.095 38.0495C23.6894 37.1342 24.4628 36.3485 25.3686 35.7397C26.2745 35.1309 27.2941 34.7116 28.3662 34.507C27.2144 33.4325 26.3586 32.0795 25.8812 30.5783C25.7755 30.2638 25.799 29.9203 25.9465 29.6231C26.0941 29.326 26.3537 29.0997 26.6681 28.9939C26.9826 28.8882 27.3261 28.9117 27.6233 29.0592C27.9204 29.2068 28.1467 29.4663 28.2525 29.7808C30.1775 35.512 36.4375 34.6545 38.75 34.1208V10.952C37.8189 9.75111 36.6437 8.76128 35.302 8.04787C33.9603 7.33445 32.4825 6.91367 30.9662 6.81329V6.81204Z" fill="#006CFC"/>
</svg>
