<svg width="80" height="80" viewBox="0 0 80 80" fill="none" xmlns="http://www.w3.org/2000/svg">
<g clip-path="url(#clip0_491_581)">
<path d="M75.4506 34.0886C74.2194 33.1808 72.6681 32.0469 72.4803 31.3061C72.5592 29.8721 72.9687 28.4757 73.6768 27.2263C74.762 24.7359 75.8819 22.1552 74.6368 20.0091C73.3917 17.8631 70.5604 17.5153 67.837 17.2266C66.4255 17.2171 65.0347 16.8852 63.771 16.2562C63.1411 14.9881 62.8103 13.5924 62.8041 12.1764C62.4981 9.45301 62.1814 6.63574 60.0215 5.37661C57.8616 4.11748 55.2773 5.22009 52.7871 6.31912C51.5362 7.02684 50.1389 7.4363 48.7039 7.51565C47.9526 7.31397 46.8223 5.77654 45.9213 4.54529C44.3423 2.41668 42.5649 0.00292969 39.998 0.00292969C37.4312 0.00292969 35.6539 2.41668 34.0852 4.54529C33.174 5.77996 32.0435 7.32783 31.3027 7.51907C29.8689 7.43272 28.4731 7.0237 27.2194 6.32255C24.7152 5.21993 22.1345 4.1209 19.9954 5.35916C17.8564 6.59743 17.4982 9.43556 17.192 12.1762C17.1821 13.5873 16.8514 14.9777 16.2251 16.2422C14.9639 16.8622 13.5784 17.188 12.1731 17.1951C9.44633 17.5011 6.62547 17.8178 5.36993 19.9777C4.11439 22.1376 5.21716 24.7186 6.31619 27.2124C7.02652 28.466 7.43611 29.8673 7.51272 31.3061C7.31104 32.0574 5.77361 33.1913 4.54236 34.0886C2.41375 35.6538 0 37.4346 0 40.0015C0 42.5683 2.41375 44.3492 4.54594 45.9143C5.77719 46.8221 7.32849 47.956 7.5163 48.6968C7.43739 50.1309 7.02787 51.5272 6.31978 52.7767C5.23461 55.2671 4.11471 57.8478 5.35982 59.9938C6.60493 62.1399 9.43622 62.4876 12.1596 62.7763C13.5711 62.7858 14.9619 63.1177 16.2255 63.7467C16.8555 65.0149 17.1863 66.4106 17.1925 67.8266C17.4985 70.5499 17.8152 73.3672 19.9751 74.6263C22.135 75.8855 24.6984 74.7515 27.1922 73.6664C28.4555 72.9664 29.8612 72.5621 31.3033 72.4839C32.0546 72.6855 33.1849 74.223 34.0859 75.4542C35.6544 77.5828 37.4319 79.9966 39.9987 79.9966C42.5655 79.9966 44.3428 77.5828 45.9115 75.4542C46.8228 74.2196 47.9532 72.6717 48.6941 72.4804C50.1288 72.5616 51.5257 72.9709 52.7773 73.677C55.2677 74.7621 57.8484 75.8752 59.9909 74.6404C62.1333 73.4057 62.4881 70.5639 62.7943 67.8372C62.8042 66.4261 63.1349 65.0357 63.7613 63.7712C65.0248 63.1461 66.414 62.8167 67.8236 62.8078C70.5504 62.5018 73.3713 62.1852 74.6268 60.0253C75.8824 57.8654 74.7486 55.3019 73.6669 52.8081C72.9588 51.5482 72.554 50.1406 72.4844 48.697C72.686 47.9457 74.2235 46.8118 75.4547 45.9145C77.5833 44.3459 80.0007 42.5651 80.0007 40.0016C80.0007 37.4382 77.5827 35.6538 75.4506 34.0886Z" fill="#006CFC"/>
<path d="M29.5641 48.6963C29.2941 48.6963 29.0278 48.6334 28.7864 48.5126C28.5449 48.3919 28.3348 48.2166 28.1729 48.0006L20.8688 38.2619V46.9572C20.8688 47.9176 20.0902 48.6963 19.1297 48.6963C18.1693 48.6963 17.3906 47.9176 17.3906 46.9572V33.0448C17.3906 32.0843 18.1693 31.3057 19.1297 31.3057C19.677 31.3057 20.1926 31.5634 20.5209 32.0013L27.825 41.74V33.0448C27.825 32.0843 28.6036 31.3057 29.5641 31.3057C30.5245 31.3057 31.3032 32.0843 31.3032 33.0448V46.9572C31.3029 47.322 31.1879 47.6775 30.9744 47.9734C30.7609 48.2693 30.4598 48.4905 30.1137 48.6058C29.9366 48.6657 29.751 48.6963 29.5641 48.6963ZM43.4766 48.6963H36.5203C35.5599 48.6963 34.7812 47.9176 34.7812 46.9572V33.0448C34.7812 32.0843 35.5599 31.3057 36.5203 31.3057H43.4766C44.4371 31.3057 45.2157 32.0843 45.2157 33.0448C45.2157 34.0052 44.4371 34.7839 43.4766 34.7839H38.2594V45.2182H43.4766C44.4371 45.2182 45.2157 45.9969 45.2157 46.9573C45.2157 47.9178 44.4371 48.6963 43.4766 48.6963Z" fill="#FAFAFA"/>
<path d="M43.4766 41.7406H36.5204C35.5599 41.7406 34.7812 40.9619 34.7812 40.0015C34.7812 39.041 35.5599 38.2623 36.5204 38.2623H43.4766C44.4371 38.2623 45.2157 39.041 45.2157 40.0015C45.2157 40.9619 44.4371 41.7406 43.4766 41.7406ZM60.8671 48.6968C60.5016 48.6973 60.1453 48.5826 59.8488 48.3691C59.5522 48.1556 59.3305 47.854 59.215 47.5073L57.389 42.0223L55.563 47.5073C55.4552 47.8716 55.2259 48.1879 54.9133 48.4037C54.6007 48.6195 54.2236 48.7217 53.8448 48.6934C53.4687 48.6792 53.1075 48.5433 52.8152 48.3062C52.523 48.0692 52.3155 47.7437 52.224 47.3787L48.746 33.4663C48.5135 32.5337 49.0812 31.5893 50.0137 31.3568C50.9463 31.1243 51.8908 31.692 52.1233 32.6245L54.151 40.7425L55.7404 35.974C56.1537 35.0624 57.2276 34.6586 58.1392 35.0719C58.5392 35.2533 58.8598 35.5739 59.0412 35.974L60.6307 40.7425L62.6584 32.6245C62.8908 31.692 63.8352 31.1243 64.7679 31.3568C65.7005 31.5893 66.2681 32.5336 66.0357 33.4663L62.5576 47.3787C62.4661 47.7437 62.2586 48.0691 61.9664 48.3062C61.6741 48.5433 61.3129 48.6791 60.9369 48.6934L60.8671 48.6968Z" fill="#FAFAFA"/>
</g>
<defs>
<clipPath id="clip0_491_581">
<rect width="80" height="80" fill="white"/>
</clipPath>
</defs>
</svg>
