<svg width="80" height="80" viewBox="0 0 80 80" fill="none" xmlns="http://www.w3.org/2000/svg">
<path d="M30.8422 63.4158V68.8502C30.8422 69.8018 30.0625 70.5815 29.1109 70.5815H24.1141V65.8065C24.1141 65.0971 23.5375 64.5221 22.825 64.5221C22.1156 64.5221 21.5359 65.0971 21.5359 65.8065V70.5815H9.38281V65.8065C9.38281 65.0971 8.80625 64.5221 8.09375 64.5221C7.75311 64.5221 7.42643 64.6574 7.18556 64.8983C6.94469 65.1391 6.80938 65.4658 6.80938 65.8065V70.5815H1.80938C0.857812 70.5815 0.078125 69.8018 0.078125 68.8502V63.4158C0.078125 58.5971 2.86406 54.3987 6.89844 52.3424C9.01094 54.6768 12.0672 56.1424 15.4594 56.1424C18.8563 56.1424 21.9125 54.6768 24.025 52.3424C28.0609 54.3987 30.8422 58.5971 30.8422 63.4158ZM73.1062 52.344C70.9938 54.6783 67.9375 56.144 64.5453 56.144C61.1484 56.144 58.0922 54.6783 55.9797 52.344C51.9453 54.3987 49.1641 58.5987 49.1641 63.4174V68.8518C49.1641 69.8033 49.9438 70.583 50.8953 70.583H55.8906V65.808C55.8906 65.0987 56.4672 64.5237 57.1797 64.5237C57.5203 64.5237 57.847 64.659 58.0879 64.8998C58.3287 65.1407 58.4641 65.4674 58.4641 65.808V70.583H70.6219V65.808C70.6219 65.0987 71.1984 64.5237 71.9062 64.5237C72.6188 64.5237 73.1953 65.0987 73.1953 65.808V70.583H78.1953C79.1469 70.583 79.9234 69.8033 79.9234 68.8518V63.4174C79.9219 58.5971 77.1406 54.3987 73.1062 52.344ZM15.4609 53.5658C20.4031 53.5658 24.4344 49.5346 24.4344 44.5924C24.4344 39.6502 20.4031 35.619 15.4609 35.619C10.5187 35.619 6.4875 39.6502 6.4875 44.5924C6.4875 49.5346 10.5172 53.5658 15.4609 53.5658ZM64.5437 53.5658C69.4828 53.5658 73.5172 49.5346 73.5172 44.5924C73.5172 39.6502 69.4828 35.619 64.5437 35.619C59.6016 35.619 55.5703 39.6502 55.5703 44.5924C55.5703 49.5346 59.6016 53.5658 64.5437 53.5658ZM46.7609 17.0877C48.1687 22.3502 46.3094 27.7533 42.4422 31.1143C42.8406 31.2737 43.2531 31.4112 43.6828 31.5268C45.5389 32.0291 47.4934 32.0426 49.3563 31.5658C49.6172 31.4987 49.875 31.5533 50.0875 31.7205L53.7062 34.569C53.9859 34.7862 54.3484 34.8127 54.6578 34.6362C54.9641 34.4596 55.1234 34.1315 55.0734 33.7815L54.4172 29.2237C54.3766 28.9533 54.4562 28.7049 54.6469 28.5112C55.9484 27.1783 56.9328 25.5033 57.45 23.5768C59.0578 17.5799 55.4969 11.4096 49.5 9.80647C47.0641 9.15022 44.6063 9.35022 42.4313 10.219C44.4719 11.9627 46.0219 14.3143 46.7609 17.0877ZM22.5516 23.5768C20.9438 17.5799 24.5047 11.4096 30.5016 9.80647C36.5031 8.19866 42.6688 11.7549 44.2766 17.7565C45.8797 23.7533 42.3234 29.919 36.3219 31.5268C34.4658 32.0291 32.5113 32.0426 30.6484 31.5658C30.3875 31.4987 30.1297 31.5533 29.9125 31.7205L26.2984 34.569C26.0187 34.7862 25.6516 34.8127 25.3469 34.6362C25.0422 34.4596 24.8813 34.1315 24.9312 33.7815L25.5875 29.2237C25.6281 28.9533 25.5484 28.7049 25.3578 28.5112C24.0531 27.1768 23.0703 25.5033 22.5516 23.5768ZM27.0641 20.9143L31.1297 24.9799C31.6344 25.4799 32.45 25.4799 32.95 24.9799L39.7625 18.1721C40.2625 17.6674 40.2625 16.8518 39.7625 16.3518C39.6428 16.2318 39.5005 16.1366 39.344 16.0716C39.1874 16.0067 39.0195 15.9732 38.85 15.9732C38.6805 15.9732 38.5126 16.0067 38.356 16.0716C38.1995 16.1366 38.0572 16.2318 37.9375 16.3518L32.0422 22.2471L28.8844 19.0893C28.3844 18.5893 27.5641 18.5893 27.0641 19.0893C26.9441 19.209 26.8489 19.3512 26.7839 19.5078C26.7189 19.6644 26.6855 19.8323 26.6855 20.0018C26.6855 20.1713 26.7189 20.3392 26.7839 20.4957C26.8489 20.6523 26.9441 20.7945 27.0641 20.9143ZM46.5969 50.8112H36.5156L38.3359 48.9955C38.4559 48.8758 38.5511 48.7336 38.6161 48.577C38.6811 48.4204 38.7145 48.2526 38.7145 48.083C38.7145 47.9135 38.6811 47.7457 38.6161 47.5891C38.5511 47.4325 38.4559 47.2903 38.3359 47.1705C37.8359 46.6705 37.0156 46.6705 36.5156 47.1705L32.5 51.1924C31.9953 51.6924 31.9953 52.508 32.5 53.0127L36.5172 57.0299C37.0172 57.5346 37.8375 57.5346 38.3375 57.0299C38.8422 56.5299 38.8422 55.7096 38.3375 55.2096L36.5172 53.3893H46.5984C47.3078 53.3893 47.8828 52.8127 47.8828 52.1002C47.8813 51.3908 47.3063 50.8112 46.5969 50.8112ZM43.4875 35.9643C42.9828 35.4596 42.1672 35.4596 41.6672 35.9643C41.1625 36.4643 41.1625 37.2799 41.6672 37.7846L43.4875 39.6049H33.4062C32.6969 39.6049 32.1172 40.1815 32.1172 40.894C32.1172 41.6033 32.6969 42.1783 33.4062 42.1783H43.4875L41.6672 43.9987C41.1625 44.5033 41.1625 45.319 41.6672 45.819C42.1672 46.3237 42.9828 46.3237 43.4875 45.819L47.5047 41.8018C48.0094 41.3018 48.0094 40.4862 47.5047 39.9815L43.4875 35.9643Z" fill="#006CFC"/>
</svg>
