<svg width="458" height="402" viewBox="0 0 458 402" fill="none" xmlns="http://www.w3.org/2000/svg">
<path d="M84.45 217.6C81.2167 217.6 78.25 216.85 75.55 215.35C72.8833 213.85 70.7667 211.8 69.2 209.2C67.6667 206.567 66.9 203.667 66.9 200.5C66.9 197.333 67.6833 194.45 69.25 191.85C70.8167 189.217 72.9333 187.15 75.6 185.65C78.3 184.15 81.2667 183.4 84.5 183.4C87.6333 183.4 90.4667 184.133 93 185.6C95.5667 187.033 97.5833 189.033 99.05 191.6L93.95 195.2C91.6167 191.5 88.4667 189.65 84.5 189.65C82.4667 189.65 80.6333 190.117 79 191.05C77.4 191.983 76.1333 193.283 75.2 194.95C74.3 196.583 73.85 198.45 73.85 200.55C73.85 202.65 74.3 204.517 75.2 206.15C76.1333 207.783 77.4 209.067 79 210C80.6333 210.9 82.4667 211.35 84.5 211.35C88.4667 211.35 91.6167 209.5 93.95 205.8L99.05 209.4C97.6167 211.967 95.6167 213.983 93.05 215.45C90.4833 216.883 87.6167 217.6 84.45 217.6ZM115.536 217.6C113.37 217.6 111.403 217.133 109.636 216.2C107.903 215.233 106.536 213.883 105.536 212.15C104.57 210.417 104.086 208.4 104.086 206.1V192.25H110.836V206.65C110.836 208.083 111.27 209.233 112.136 210.1C113.036 210.967 114.17 211.4 115.536 211.4C116.836 211.4 117.92 210.967 118.786 210.1C119.686 209.233 120.136 208.083 120.136 206.65V192.25H126.886V206.1C126.886 208.4 126.386 210.417 125.386 212.15C124.42 213.883 123.07 215.233 121.336 216.2C119.603 217.133 117.67 217.6 115.536 217.6ZM149.24 211.35V217C147.64 217.4 146.09 217.6 144.59 217.6C141.457 217.6 139.024 216.833 137.29 215.3C135.557 213.733 134.69 211.4 134.69 208.3V197.95H130.79V192.25H134.69V186H141.44V192.25H148.44V197.95H141.44V207.7C141.44 209.1 141.807 210.1 142.54 210.7C143.274 211.267 144.44 211.55 146.04 211.55C146.44 211.55 147.507 211.483 149.24 211.35ZM168.527 211.35V217C166.927 217.4 165.377 217.6 163.877 217.6C160.744 217.6 158.311 216.833 156.577 215.3C154.844 213.733 153.977 211.4 153.977 208.3V197.95H150.077V192.25H153.977V186H160.727V192.25H167.727V197.95H160.727V207.7C160.727 209.1 161.094 210.1 161.827 210.7C162.561 211.267 163.727 211.55 165.327 211.55C165.727 211.55 166.794 211.483 168.527 211.35ZM173.428 192.25H180.178V217H173.428V192.25ZM176.778 187.4C175.578 187.4 174.561 187 173.728 186.2C172.895 185.4 172.478 184.417 172.478 183.25C172.478 182.05 172.895 181.05 173.728 180.25C174.561 179.45 175.578 179.05 176.778 179.05C177.978 179.05 178.995 179.45 179.828 180.25C180.695 181.05 181.128 182.05 181.128 183.25C181.128 184.417 180.695 185.4 179.828 186.2C178.995 187 177.978 187.4 176.778 187.4ZM200.306 191.7C203.173 191.7 205.439 192.617 207.106 194.45C208.773 196.25 209.606 198.65 209.606 201.65V217H202.906V202.55C202.906 201.117 202.473 199.967 201.606 199.1C200.773 198.2 199.673 197.75 198.306 197.75C196.939 197.75 195.806 198.2 194.906 199.1C194.039 199.967 193.606 201.117 193.606 202.55V217H186.856V192.25H193.056V194.5C193.923 193.633 194.973 192.95 196.206 192.45C197.473 191.95 198.839 191.7 200.306 191.7ZM240.954 192.25V214.25C240.954 218.283 239.787 221.35 237.454 223.45C235.121 225.55 232.021 226.6 228.154 226.6C223.487 226.6 219.437 225.067 216.004 222L219.554 217.3C220.921 218.333 222.221 219.117 223.454 219.65C224.721 220.217 226.104 220.5 227.604 220.5C229.604 220.5 231.204 220 232.404 219C233.604 218.033 234.204 216.583 234.204 214.65V213.3C233.304 214.267 232.204 215 230.904 215.5C229.637 216 228.221 216.25 226.654 216.25C224.387 216.25 222.354 215.733 220.554 214.7C218.754 213.667 217.337 212.217 216.304 210.35C215.304 208.483 214.804 206.35 214.804 203.95C214.804 201.517 215.321 199.383 216.354 197.55C217.387 195.683 218.804 194.25 220.604 193.25C222.404 192.217 224.421 191.7 226.654 191.7C228.421 191.7 229.987 192.017 231.354 192.65C232.754 193.283 233.887 194.183 234.754 195.35V192.25H240.954ZM228.054 210.55C229.754 210.55 231.221 209.967 232.454 208.8C233.687 207.633 234.304 205.983 234.304 203.85C234.304 201.717 233.687 200.117 232.454 199.05C231.254 197.983 229.787 197.45 228.054 197.45C226.221 197.45 224.687 198.033 223.454 199.2C222.254 200.333 221.654 201.9 221.654 203.9C221.654 205.9 222.271 207.517 223.504 208.75C224.737 209.95 226.254 210.55 228.054 210.55ZM262.111 184H284.311V190.1H268.861V196.8H280.211V202.55H268.861V210.9H284.911V217H262.111V184ZM314.584 179.5V217H308.384V213.95C307.551 215.117 306.434 216.017 305.034 216.65C303.668 217.283 302.134 217.6 300.434 217.6C298.134 217.6 296.068 217.05 294.234 215.95C292.434 214.817 291.018 213.267 289.984 211.3C288.951 209.333 288.434 207.117 288.434 204.65C288.434 202.183 288.951 199.967 289.984 198C291.018 196.033 292.434 194.5 294.234 193.4C296.068 192.267 298.134 191.7 300.434 191.7C303.568 191.7 306.034 192.683 307.834 194.65V179.5H314.584ZM301.684 211.45C303.384 211.45 304.851 210.883 306.084 209.75C307.318 208.583 307.934 206.883 307.934 204.65C307.934 202.45 307.318 200.767 306.084 199.6C304.851 198.4 303.384 197.8 301.684 197.8C299.884 197.8 298.368 198.433 297.134 199.7C295.901 200.933 295.284 202.567 295.284 204.6C295.284 206.667 295.884 208.333 297.084 209.6C298.318 210.833 299.851 211.45 301.684 211.45ZM346.13 192.25V214.25C346.13 218.283 344.963 221.35 342.63 223.45C340.296 225.55 337.196 226.6 333.33 226.6C328.663 226.6 324.613 225.067 321.18 222L324.73 217.3C326.096 218.333 327.396 219.117 328.63 219.65C329.896 220.217 331.28 220.5 332.78 220.5C334.78 220.5 336.38 220 337.58 219C338.78 218.033 339.38 216.583 339.38 214.65V213.3C338.48 214.267 337.38 215 336.08 215.5C334.813 216 333.396 216.25 331.83 216.25C329.563 216.25 327.53 215.733 325.73 214.7C323.93 213.667 322.513 212.217 321.48 210.35C320.48 208.483 319.98 206.35 319.98 203.95C319.98 201.517 320.496 199.383 321.53 197.55C322.563 195.683 323.98 194.25 325.78 193.25C327.58 192.217 329.596 191.7 331.83 191.7C333.596 191.7 335.163 192.017 336.53 192.65C337.93 193.283 339.063 194.183 339.93 195.35V192.25H346.13ZM333.23 210.55C334.93 210.55 336.396 209.967 337.63 208.8C338.863 207.633 339.48 205.983 339.48 203.85C339.48 201.717 338.863 200.117 337.63 199.05C336.43 197.983 334.963 197.45 333.23 197.45C331.396 197.45 329.863 198.033 328.63 199.2C327.43 200.333 326.83 201.9 326.83 203.9C326.83 205.9 327.446 207.517 328.68 208.75C329.913 209.95 331.43 210.55 333.23 210.55ZM375.573 206.9H358.223C358.623 208.467 359.423 209.683 360.623 210.55C361.856 211.383 363.373 211.8 365.173 211.8C367.606 211.8 369.906 210.967 372.073 209.3L374.873 213.9C371.939 216.367 368.639 217.6 364.973 217.6C362.406 217.6 360.089 217.033 358.023 215.9C355.956 214.767 354.339 213.217 353.173 211.25C352.006 209.25 351.423 207.05 351.423 204.65C351.423 202.25 351.989 200.067 353.123 198.1C354.256 196.1 355.806 194.533 357.773 193.4C359.773 192.267 361.973 191.7 364.373 191.7C366.639 191.7 368.656 192.217 370.423 193.25C372.189 194.25 373.556 195.633 374.523 197.4C375.523 199.133 376.023 201.067 376.023 203.2C376.023 204.4 375.873 205.633 375.573 206.9ZM364.123 197.15C362.689 197.15 361.439 197.6 360.373 198.5C359.306 199.4 358.589 200.617 358.223 202.15H369.473C369.439 200.617 368.906 199.4 367.873 198.5C366.839 197.6 365.589 197.15 364.123 197.15Z" fill="#006CFC"/>
<path d="M332.3 209.118C411.3 288.018 330.15 361.268 226.9 361.268C123.65 361.268 40 289.368 40 200.719C40 93.8185 123.75 36.4685 226.9 40.1685C293.35 42.5185 325.5 79.1685 333.2 102.369C350.2 153.519 297.2 174.068 332.3 209.118Z" fill="#006CFC"/>
<mask id="mask0_603_176" style="mask-type:alpha" maskUnits="userSpaceOnUse" x="0" y="0" width="405" height="402">
<path d="M332.3 209.118C411.3 288.018 330.15 361.268 226.9 361.268C123.65 361.268 40 289.368 40 200.719C40 93.8185 123.75 36.4685 226.9 40.1685C293.35 42.5185 325.5 79.1685 333.2 102.369C350.2 153.519 297.2 174.068 332.3 209.118Z" fill="#006CFC"/>
</mask>
<g mask="url(#mask0_603_176)">
<path d="M84.45 217.6C81.2167 217.6 78.25 216.85 75.55 215.35C72.8833 213.85 70.7667 211.8 69.2 209.2C67.6667 206.567 66.9 203.667 66.9 200.5C66.9 197.333 67.6833 194.45 69.25 191.85C70.8167 189.217 72.9333 187.15 75.6 185.65C78.3 184.15 81.2667 183.4 84.5 183.4C87.6333 183.4 90.4667 184.133 93 185.6C95.5667 187.033 97.5833 189.033 99.05 191.6L93.95 195.2C91.6167 191.5 88.4667 189.65 84.5 189.65C82.4667 189.65 80.6333 190.117 79 191.05C77.4 191.983 76.1333 193.283 75.2 194.95C74.3 196.583 73.85 198.45 73.85 200.55C73.85 202.65 74.3 204.517 75.2 206.15C76.1333 207.783 77.4 209.067 79 210C80.6333 210.9 82.4667 211.35 84.5 211.35C88.4667 211.35 91.6167 209.5 93.95 205.8L99.05 209.4C97.6167 211.967 95.6167 213.983 93.05 215.45C90.4833 216.883 87.6167 217.6 84.45 217.6ZM115.536 217.6C113.37 217.6 111.403 217.133 109.636 216.2C107.903 215.233 106.536 213.883 105.536 212.15C104.57 210.417 104.086 208.4 104.086 206.1V192.25H110.836V206.65C110.836 208.083 111.27 209.233 112.136 210.1C113.036 210.967 114.17 211.4 115.536 211.4C116.836 211.4 117.92 210.967 118.786 210.1C119.686 209.233 120.136 208.083 120.136 206.65V192.25H126.886V206.1C126.886 208.4 126.386 210.417 125.386 212.15C124.42 213.883 123.07 215.233 121.336 216.2C119.603 217.133 117.67 217.6 115.536 217.6ZM149.24 211.35V217C147.64 217.4 146.09 217.6 144.59 217.6C141.457 217.6 139.024 216.833 137.29 215.3C135.557 213.733 134.69 211.4 134.69 208.3V197.95H130.79V192.25H134.69V186H141.44V192.25H148.44V197.95H141.44V207.7C141.44 209.1 141.807 210.1 142.54 210.7C143.274 211.267 144.44 211.55 146.04 211.55C146.44 211.55 147.507 211.483 149.24 211.35ZM168.527 211.35V217C166.927 217.4 165.377 217.6 163.877 217.6C160.744 217.6 158.311 216.833 156.577 215.3C154.844 213.733 153.977 211.4 153.977 208.3V197.95H150.077V192.25H153.977V186H160.727V192.25H167.727V197.95H160.727V207.7C160.727 209.1 161.094 210.1 161.827 210.7C162.561 211.267 163.727 211.55 165.327 211.55C165.727 211.55 166.794 211.483 168.527 211.35ZM173.428 192.25H180.178V217H173.428V192.25ZM176.778 187.4C175.578 187.4 174.561 187 173.728 186.2C172.895 185.4 172.478 184.417 172.478 183.25C172.478 182.05 172.895 181.05 173.728 180.25C174.561 179.45 175.578 179.05 176.778 179.05C177.978 179.05 178.995 179.45 179.828 180.25C180.695 181.05 181.128 182.05 181.128 183.25C181.128 184.417 180.695 185.4 179.828 186.2C178.995 187 177.978 187.4 176.778 187.4ZM200.306 191.7C203.173 191.7 205.439 192.617 207.106 194.45C208.773 196.25 209.606 198.65 209.606 201.65V217H202.906V202.55C202.906 201.117 202.473 199.967 201.606 199.1C200.773 198.2 199.673 197.75 198.306 197.75C196.939 197.75 195.806 198.2 194.906 199.1C194.039 199.967 193.606 201.117 193.606 202.55V217H186.856V192.25H193.056V194.5C193.923 193.633 194.973 192.95 196.206 192.45C197.473 191.95 198.839 191.7 200.306 191.7ZM240.954 192.25V214.25C240.954 218.283 239.787 221.35 237.454 223.45C235.121 225.55 232.021 226.6 228.154 226.6C223.487 226.6 219.437 225.067 216.004 222L219.554 217.3C220.921 218.333 222.221 219.117 223.454 219.65C224.721 220.217 226.104 220.5 227.604 220.5C229.604 220.5 231.204 220 232.404 219C233.604 218.033 234.204 216.583 234.204 214.65V213.3C233.304 214.267 232.204 215 230.904 215.5C229.637 216 228.221 216.25 226.654 216.25C224.387 216.25 222.354 215.733 220.554 214.7C218.754 213.667 217.337 212.217 216.304 210.35C215.304 208.483 214.804 206.35 214.804 203.95C214.804 201.517 215.321 199.383 216.354 197.55C217.387 195.683 218.804 194.25 220.604 193.25C222.404 192.217 224.421 191.7 226.654 191.7C228.421 191.7 229.987 192.017 231.354 192.65C232.754 193.283 233.887 194.183 234.754 195.35V192.25H240.954ZM228.054 210.55C229.754 210.55 231.221 209.967 232.454 208.8C233.687 207.633 234.304 205.983 234.304 203.85C234.304 201.717 233.687 200.117 232.454 199.05C231.254 197.983 229.787 197.45 228.054 197.45C226.221 197.45 224.687 198.033 223.454 199.2C222.254 200.333 221.654 201.9 221.654 203.9C221.654 205.9 222.271 207.517 223.504 208.75C224.737 209.95 226.254 210.55 228.054 210.55ZM262.111 184H284.311V190.1H268.861V196.8H280.211V202.55H268.861V210.9H284.911V217H262.111V184ZM314.584 179.5V217H308.384V213.95C307.551 215.117 306.434 216.017 305.034 216.65C303.668 217.283 302.134 217.6 300.434 217.6C298.134 217.6 296.068 217.05 294.234 215.95C292.434 214.817 291.018 213.267 289.984 211.3C288.951 209.333 288.434 207.117 288.434 204.65C288.434 202.183 288.951 199.967 289.984 198C291.018 196.033 292.434 194.5 294.234 193.4C296.068 192.267 298.134 191.7 300.434 191.7C303.568 191.7 306.034 192.683 307.834 194.65V179.5H314.584ZM301.684 211.45C303.384 211.45 304.851 210.883 306.084 209.75C307.318 208.583 307.934 206.883 307.934 204.65C307.934 202.45 307.318 200.767 306.084 199.6C304.851 198.4 303.384 197.8 301.684 197.8C299.884 197.8 298.368 198.433 297.134 199.7C295.901 200.933 295.284 202.567 295.284 204.6C295.284 206.667 295.884 208.333 297.084 209.6C298.318 210.833 299.851 211.45 301.684 211.45ZM346.13 192.25V214.25C346.13 218.283 344.963 221.35 342.63 223.45C340.296 225.55 337.196 226.6 333.33 226.6C328.663 226.6 324.613 225.067 321.18 222L324.73 217.3C326.096 218.333 327.396 219.117 328.63 219.65C329.896 220.217 331.28 220.5 332.78 220.5C334.78 220.5 336.38 220 337.58 219C338.78 218.033 339.38 216.583 339.38 214.65V213.3C338.48 214.267 337.38 215 336.08 215.5C334.813 216 333.396 216.25 331.83 216.25C329.563 216.25 327.53 215.733 325.73 214.7C323.93 213.667 322.513 212.217 321.48 210.35C320.48 208.483 319.98 206.35 319.98 203.95C319.98 201.517 320.496 199.383 321.53 197.55C322.563 195.683 323.98 194.25 325.78 193.25C327.58 192.217 329.596 191.7 331.83 191.7C333.596 191.7 335.163 192.017 336.53 192.65C337.93 193.283 339.063 194.183 339.93 195.35V192.25H346.13ZM333.23 210.55C334.93 210.55 336.396 209.967 337.63 208.8C338.863 207.633 339.48 205.983 339.48 203.85C339.48 201.717 338.863 200.117 337.63 199.05C336.43 197.983 334.963 197.45 333.23 197.45C331.396 197.45 329.863 198.033 328.63 199.2C327.43 200.333 326.83 201.9 326.83 203.9C326.83 205.9 327.446 207.517 328.68 208.75C329.913 209.95 331.43 210.55 333.23 210.55ZM375.573 206.9H358.223C358.623 208.467 359.423 209.683 360.623 210.55C361.856 211.383 363.373 211.8 365.173 211.8C367.606 211.8 369.906 210.967 372.073 209.3L374.873 213.9C371.939 216.367 368.639 217.6 364.973 217.6C362.406 217.6 360.089 217.033 358.023 215.9C355.956 214.767 354.339 213.217 353.173 211.25C352.006 209.25 351.423 207.05 351.423 204.65C351.423 202.25 351.989 200.067 353.123 198.1C354.256 196.1 355.806 194.533 357.773 193.4C359.773 192.267 361.973 191.7 364.373 191.7C366.639 191.7 368.656 192.217 370.423 193.25C372.189 194.25 373.556 195.633 374.523 197.4C375.523 199.133 376.023 201.067 376.023 203.2C376.023 204.4 375.873 205.633 375.573 206.9ZM364.123 197.15C362.689 197.15 361.439 197.6 360.373 198.5C359.306 199.4 358.589 200.617 358.223 202.15H369.473C369.439 200.617 368.906 199.4 367.873 198.5C366.839 197.6 365.589 197.15 364.123 197.15Z" fill="white"/>
</g>
</svg>
