<svg width="533" height="27" viewBox="0 0 533 27" fill="none" xmlns="http://www.w3.org/2000/svg">
<path d="M10.1706 6.01218C11.578 3.48746 12.2817 2.2251 13.3338 2.2251C14.3858 2.2251 15.0895 3.48746 16.4969 6.01218L16.861 6.66536C17.261 7.3828 17.4609 7.74153 17.7727 7.97822C18.0845 8.21491 18.4728 8.30277 19.2494 8.47848L19.9565 8.63846C22.6895 9.25683 24.056 9.56601 24.3811 10.6115C24.7062 11.6569 23.7746 12.7463 21.9114 14.925L21.4294 15.4887C20.9 16.1078 20.6352 16.4174 20.5161 16.8003C20.3971 17.1833 20.4371 17.5963 20.5171 18.4224L20.59 19.1744C20.8717 22.0813 21.0125 23.5348 20.1614 24.1809C19.3102 24.827 18.0308 24.2379 15.4719 23.0597L14.8099 22.7549C14.0827 22.4201 13.7192 22.2527 13.3338 22.2527C12.9484 22.2527 12.5848 22.4201 11.8576 22.7549L11.1956 23.0597C8.63674 24.2379 7.3573 24.827 6.50615 24.1809C5.65501 23.5348 5.79586 22.0813 6.07754 19.1744L6.15042 18.4224C6.23046 17.5963 6.27049 17.1833 6.15139 16.8003C6.0323 16.4174 5.76757 16.1078 5.23812 15.4887L4.7561 14.925C2.89293 12.7463 1.96135 11.6569 2.28646 10.6115C2.61156 9.56601 3.97805 9.25683 6.71103 8.63846L7.41809 8.47849C8.19471 8.30277 8.58303 8.21491 8.89482 7.97822C9.20661 7.74153 9.40657 7.3828 9.80651 6.66536L10.1706 6.01218Z" fill="#EEAC44"/>
<path d="M52.8386 6.01218C54.246 3.48746 54.9497 2.2251 56.0017 2.2251C57.0538 2.2251 57.7575 3.48746 59.1649 6.01218L59.529 6.66536C59.9289 7.3828 60.1289 7.74153 60.4407 7.97822C60.7525 8.21491 61.1408 8.30277 61.9174 8.47848L62.6245 8.63846C65.3575 9.25683 66.7239 9.56601 67.049 10.6115C67.3742 11.6569 66.4426 12.7463 64.5794 14.925L64.0974 15.4887C63.5679 16.1078 63.3032 16.4174 63.1841 16.8003C63.065 17.1833 63.105 17.5963 63.1851 18.4224L63.258 19.1744C63.5396 22.0813 63.6805 23.5348 62.8293 24.1809C61.9782 24.827 60.6988 24.2379 58.1399 23.0597L57.4779 22.7549C56.7507 22.4201 56.3871 22.2527 56.0017 22.2527C55.6163 22.2527 55.2528 22.4201 54.5256 22.7549L53.8636 23.0597C51.3047 24.2379 50.0253 24.827 49.1741 24.1809C48.323 23.5348 48.4638 22.0813 48.7455 19.1744L48.8184 18.4224C48.8984 17.5963 48.9385 17.1833 48.8194 16.8003C48.7003 16.4174 48.4355 16.1078 47.9061 15.4887L47.4241 14.925C45.5609 12.7463 44.6293 11.6569 44.9544 10.6115C45.2795 9.56601 46.646 9.25683 49.379 8.63846L50.0861 8.47849C50.8627 8.30277 51.251 8.21491 51.5628 7.97822C51.8746 7.74153 52.0745 7.3828 52.4745 6.66536L52.8386 6.01218Z" fill="#EEAC44"/>
<path d="M95.5026 6.01218C96.91 3.48746 97.6137 2.2251 98.6658 2.2251C99.7179 2.2251 100.422 3.48746 101.829 6.01218L102.193 6.66536C102.593 7.3828 102.793 7.74153 103.105 7.97822C103.417 8.21491 103.805 8.30277 104.581 8.47848L105.289 8.63846C108.022 9.25683 109.388 9.56601 109.713 10.6115C110.038 11.6569 109.107 12.7463 107.243 14.925L106.761 15.4887C106.232 16.1078 105.967 16.4174 105.848 16.8003C105.729 17.1833 105.769 17.5963 105.849 18.4224L105.922 19.1744C106.204 22.0813 106.345 23.5348 105.493 24.1809C104.642 24.827 103.363 24.2379 100.804 23.0597L100.142 22.7549C99.4148 22.4201 99.0512 22.2527 98.6658 22.2527C98.2804 22.2527 97.9168 22.4201 97.1897 22.7549L96.5277 23.0597C93.9688 24.2379 92.6893 24.827 91.8382 24.1809C90.987 23.5348 91.1279 22.0813 91.4096 19.1744L91.4824 18.4224C91.5625 17.5963 91.6025 17.1833 91.4834 16.8003C91.3643 16.4174 91.0996 16.1078 90.5702 15.4887L90.0881 14.925C88.225 12.7463 87.2934 11.6569 87.6185 10.6115C87.9436 9.56601 89.3101 9.25683 92.0431 8.63846L92.7501 8.47849C93.5267 8.30277 93.9151 8.21491 94.2268 7.97822C94.5386 7.74153 94.7386 7.3828 95.1385 6.66536L95.5026 6.01218Z" fill="#EEAC44"/>
<path d="M138.171 6.01218C139.578 3.48746 140.282 2.2251 141.334 2.2251C142.386 2.2251 143.09 3.48746 144.497 6.01218L144.861 6.66536C145.261 7.3828 145.461 7.74153 145.773 7.97822C146.085 8.21491 146.473 8.30277 147.249 8.47848L147.957 8.63846C150.689 9.25683 152.056 9.56601 152.381 10.6115C152.706 11.6569 151.775 12.7463 149.911 14.925L149.429 15.4887C148.9 16.1078 148.635 16.4174 148.516 16.8003C148.397 17.1833 148.437 17.5963 148.517 18.4224L148.59 19.1744C148.872 22.0813 149.013 23.5348 148.161 24.1809C147.31 24.827 146.031 24.2379 143.472 23.0597L142.81 22.7549C142.083 22.4201 141.719 22.2527 141.334 22.2527C140.948 22.2527 140.585 22.4201 139.858 22.7549L139.196 23.0597C136.637 24.2379 135.357 24.827 134.506 24.1809C133.655 23.5348 133.796 22.0813 134.078 19.1744L134.15 18.4224C134.23 17.5963 134.27 17.1833 134.151 16.8003C134.032 16.4174 133.768 16.1078 133.238 15.4887L132.756 14.925C130.893 12.7463 129.961 11.6569 130.286 10.6115C130.612 9.56601 131.978 9.25683 134.711 8.63846L135.418 8.47849C136.195 8.30277 136.583 8.21491 136.895 7.97822C137.207 7.74153 137.407 7.3828 137.807 6.66536L138.171 6.01218Z" fill="#EEAC44"/>
<path d="M180.839 6.01218C182.246 3.48746 182.95 2.2251 184.002 2.2251C185.054 2.2251 185.758 3.48746 187.165 6.01218L187.529 6.66536C187.929 7.3828 188.129 7.74153 188.441 7.97822C188.752 8.21491 189.141 8.30277 189.917 8.47848L190.624 8.63846C193.357 9.25683 194.724 9.56601 195.049 10.6115C195.374 11.6569 194.443 12.7463 192.579 14.925L192.097 15.4887C191.568 16.1078 191.303 16.4174 191.184 16.8003C191.065 17.1833 191.105 17.5963 191.185 18.4224L191.258 19.1744C191.54 22.0813 191.68 23.5348 190.829 24.1809C189.978 24.827 188.699 24.2379 186.14 23.0597L185.478 22.7549C184.751 22.4201 184.387 22.2527 184.002 22.2527C183.616 22.2527 183.253 22.4201 182.526 22.7549L181.864 23.0597C179.305 24.2379 178.025 24.827 177.174 24.1809C176.323 23.5348 176.464 22.0813 176.746 19.1744L176.818 18.4224C176.898 17.5963 176.938 17.1833 176.819 16.8003C176.7 16.4174 176.436 16.1078 175.906 15.4887L175.424 14.925C173.561 12.7463 172.629 11.6569 172.954 10.6115C173.28 9.56601 174.646 9.25683 177.379 8.63846L178.086 8.47849C178.863 8.30277 179.251 8.21491 179.563 7.97822C179.875 7.74153 180.075 7.3828 180.474 6.66536L180.839 6.01218Z" fill="#EEAC44"/>
</svg>
