<svg width="198" height="161" viewBox="0 0 198 161" fill="none" xmlns="http://www.w3.org/2000/svg">
<path opacity="0.2" fill-rule="evenodd" clip-rule="evenodd" d="M99 161C97.7286 161 96.6977 159.97 96.6977 158.7L96.6977 2.30004C96.6977 1.02973 97.7286 3.23462e-05 99 3.25685e-05C100.271 3.27908e-05 101.302 1.02973 101.302 2.30004L101.302 158.7C101.302 159.97 100.271 161 99 161ZM82.8837 138C81.6123 138 80.5814 136.97 80.5814 135.7L80.5814 2.30003C80.5814 1.02972 81.6123 2.95283e-05 82.8838 2.97506e-05C84.1552 2.99729e-05 85.1861 1.02972 85.1861 2.30003L85.1861 135.7C85.1861 136.97 84.1552 138 82.8837 138ZM66.7675 115C65.496 115 64.4651 113.97 64.4651 112.7L64.4651 2.30003C64.4651 1.02972 65.496 2.67105e-05 66.7675 2.69328e-05C68.0389 2.71551e-05 69.0698 1.02972 69.0698 2.30003L69.0698 112.7C69.0698 113.97 68.0389 115 66.7675 115ZM50.6512 92C49.3797 92 48.3489 90.9703 48.3489 89.7L48.3489 2.30003C48.3489 1.02972 49.3797 2.38926e-05 50.6512 2.41149e-05C51.9226 2.43372e-05 52.9535 1.02972 52.9535 2.30003L52.9535 89.7C52.9535 90.9703 51.9226 92 50.6512 92ZM34.5349 69C33.2635 69 32.2326 67.9703 32.2326 66.7L32.2326 2.30002C32.2326 1.02971 33.2635 2.10748e-05 34.5349 2.12971e-05C35.8064 2.15194e-05 36.8372 1.02972 36.8372 2.30002L36.8372 66.7C36.8372 67.9703 35.8064 69 34.5349 69ZM18.4186 46C17.1472 46 16.1163 44.9703 16.1163 43.7L16.1163 2.30002C16.1163 1.02971 17.1472 1.82569e-05 18.4186 1.84792e-05C19.6901 1.87015e-05 20.721 1.02971 20.721 2.30002L20.721 43.7C20.721 44.9703 19.6901 46 18.4186 46ZM2.45308e-05 20.7C2.43087e-05 21.9703 1.0309 23 2.30235 23C3.5738 23 4.60468 21.9703 4.60468 20.7L4.60468 2.30002C4.60468 1.02971 3.5738 1.58836e-05 2.30235 1.56613e-05C1.0309 1.5439e-05 2.79701e-05 1.02971 2.7748e-05 2.30002L2.45308e-05 20.7ZM198 20.7C198 21.9704 196.969 23 195.698 23C194.426 23 193.395 21.9704 193.395 20.7L193.395 2.30005C193.395 1.02974 194.426 4.92534e-05 195.698 4.94757e-05C196.969 4.9698e-05 198 1.02974 198 2.30005L198 20.7ZM181.884 43.7C181.884 44.9704 180.853 46 179.581 46C178.31 46 177.279 44.9704 177.279 43.7L177.279 2.30005C177.279 1.02974 178.31 4.64355e-05 179.581 4.66578e-05C180.853 4.68801e-05 181.884 1.02974 181.884 2.30005L181.884 43.7ZM165.767 66.7C165.767 67.9704 164.737 69 163.465 69C162.194 69 161.163 67.9703 161.163 66.7L161.163 2.30005C161.163 1.02974 162.194 4.36176e-05 163.465 4.38399e-05C164.737 4.40622e-05 165.767 1.02974 165.767 2.30005L165.767 66.7ZM149.651 89.7C149.651 90.9703 148.62 92 147.349 92C146.077 92 145.047 90.9703 145.047 89.7L145.047 2.30004C145.047 1.02973 146.077 4.07998e-05 147.349 4.10221e-05C148.62 4.12444e-05 149.651 1.02974 149.651 2.30004L149.651 89.7ZM133.535 112.7C133.535 113.97 132.504 115 131.233 115C129.961 115 128.93 113.97 128.93 112.7L128.93 2.30004C128.93 1.02973 129.961 3.79819e-05 131.233 3.82042e-05C132.504 3.84265e-05 133.535 1.02973 133.535 2.30004L133.535 112.7ZM117.419 135.7C117.419 136.97 116.388 138 115.116 138C113.845 138 112.814 136.97 112.814 135.7L112.814 2.30004C112.814 1.02973 113.845 3.51641e-05 115.116 3.53864e-05C116.388 3.56087e-05 117.419 1.02973 117.419 2.30004L117.419 135.7Z" fill="#006CFC"/>
</svg>
