<svg width="81" height="132" viewBox="0 0 81 132" fill="none" xmlns="http://www.w3.org/2000/svg">
<circle cx="39.3333" cy="110" r="21.3333" fill="#E63C2B"/>
<path d="M43 40.6241H63.6744L59.5557 44.8995H47.2803V64.1796L72.0734 39.3333L43.0808 10.2116V4L55.1947 15.9391V22.312H61.4939L78.3727 39.3333L43 74.6667V40.6241Z" fill="#222222" stroke="#222222" stroke-width="3"/>
<path d="M16.6484 46.6747L19.6365 55.7903L3 39.4144L21.4939 20.8604L34.1732 58.9365V8.19521L38.3727 4.08105V74.5057L33.0426 69.2622L19.7172 28.9273L9.38 39.4144L16.6484 46.6747Z" fill="#006CFC" stroke="#006CFC" stroke-width="3"/>
<path d="M65 10H67.7458V12.7428H65V10Z" fill="#222222"/>
<rect x="63" y="8" width="1.61519" height="1.61339" fill="#006CFC"/>
<path d="M59 13.0304H64.9762V19H59V13.0304Z" fill="#006CFC"/>
</svg>
