<svg width="74" height="128" viewBox="0 0 74 128" fill="none" xmlns="http://www.w3.org/2000/svg">
<circle cx="37.3333" cy="106" r="21.3333" fill="#E63C2B"/>
<path d="M37.7969 36.625H58.4713L54.3526 40.9005H42.0771V60.1806L66.8703 35.3343L37.8776 6.21254V0.000976562L49.9916 11.9401V18.313H56.2908L73.1696 35.3343L37.7969 70.6676V36.625Z" fill="#222222"/>
<path d="M13.6484 42.6747L16.6365 51.7903L0 35.4144L18.4939 16.8604L31.1732 54.9365V4.19521L35.3727 0.0810547V70.5057L30.0426 65.2622L16.7172 24.9273L6.38 35.4144L13.6484 42.6747Z" fill="#006CFC"/>
<rect x="57.8242" y="8.14746" width="2.74582" height="2.74277" fill="#222222"/>
<rect x="56.5312" y="6.85742" width="1.61519" height="1.61339" fill="#006CFC"/>
<rect x="51.8477" y="10.7295" width="5.97621" height="5.96956" fill="#006CFC"/>
</svg>
