<svg width="73" height="72" viewBox="0 0 73 72" fill="none" xmlns="http://www.w3.org/2000/svg">
<path d="M47.9325 37.1099H62.0025C61.7625 51.1199 59.0025 53.4299 50.3925 58.5299C49.4025 59.1299 49.0725 60.3899 49.6725 61.4099C50.2725 62.3999 51.5325 62.7299 52.5525 62.1299C62.6925 56.1299 66.2325 52.4699 66.2325 35.0099V18.8399C66.2325 13.7099 62.0625 9.56995 56.9625 9.56995H47.9625C42.6825 9.56995 38.6925 13.5599 38.6925 18.8399V27.8399C38.6625 33.1199 42.6525 37.1099 47.9325 37.1099Z" fill="#006CFC" fill-opacity="0.12"/>
<path d="M15.4717 37.1099H29.5417C29.3017 51.1199 26.5417 53.4299 17.9317 58.5299C16.9417 59.1299 16.6117 60.3899 17.2117 61.4099C17.8117 62.3999 19.0717 62.7299 20.0917 62.1299C30.2317 56.1299 33.7717 52.4699 33.7717 35.0099V18.8399C33.7717 13.7099 29.6017 9.56995 24.5017 9.56995H15.5017C10.1917 9.56995 6.20172 13.5599 6.20172 18.8399V27.8399C6.20172 33.1199 10.1917 37.1099 15.4717 37.1099Z" fill="#006CFC" fill-opacity="0.12"/>
</svg>
