<svg width="17" height="18" viewBox="0 0 17 18" fill="none" xmlns="http://www.w3.org/2000/svg">
<path d="M17 5.49375C16.9863 4.78939 16.8534 4.09245 16.6069 3.4325C16.3948 2.86442 16.0612 2.34951 15.6294 1.92375C15.2038 1.4917 14.6889 1.15806 14.1206 0.94625C13.4471 0.675813 12.7316 0.524805 12.0063 0.5L4.99375 0.5C4.28942 0.513891 3.5925 0.646807 2.9325 0.893125C2.36254 1.11729 1.8464 1.45941 1.41792 1.89704C0.989448 2.33467 0.65832 2.85793 0.44625 3.4325C0.181567 4.08927 0.0306604 4.78632 0 5.49375L0 12.5063C0.0136867 13.2106 0.146609 13.9075 0.393125 14.5675C0.611464 15.1323 0.945416 15.6452 1.37357 16.0733C1.80172 16.5015 2.31462 16.8354 2.87937 17.0537C3.55283 17.3244 4.26836 17.4754 4.99375 17.5H12.0063C12.7106 17.4863 13.4075 17.3534 14.0675 17.1069C14.6323 16.8885 15.1452 16.5546 15.5733 16.1264C16.0015 15.6983 16.3354 15.1854 16.5537 14.6206C16.8244 13.9472 16.9754 13.2316 17 12.5063V9V5.49375ZM15.47 12.4319C15.4625 12.9728 15.3619 13.5083 15.1725 14.015C15.0311 14.3821 14.8143 14.7154 14.5361 14.9936C14.2579 15.2718 13.9246 15.4886 13.5575 15.63C13.0507 15.819 12.5152 15.9196 11.9744 15.9275H5.11062C4.56981 15.9194 4.03436 15.8188 3.5275 15.63C3.16042 15.4886 2.82706 15.2718 2.54889 14.9936C2.27073 14.7154 2.05394 14.3821 1.9125 14.015C1.7231 13.5083 1.62246 12.9728 1.615 12.4319V9V5.56812C1.62246 5.02724 1.7231 4.49169 1.9125 3.985C2.04923 3.62201 2.25949 3.29118 2.53008 3.01327C2.80068 2.73536 3.12578 2.51636 3.485 2.37C3.99169 2.1806 4.52724 2.07996 5.06812 2.0725H11.9319C12.4728 2.07996 13.0083 2.1806 13.515 2.37C13.8821 2.51144 14.2154 2.72823 14.4936 3.00639C14.7718 3.28456 14.9886 3.61792 15.13 3.985C15.3194 4.49169 15.42 5.02724 15.4275 5.56812V9C15.4275 9 15.4594 11.5394 15.4169 12.4319H15.47ZM8.5 4.63313C7.63631 4.63313 6.79202 4.88924 6.07389 5.36908C5.35577 5.84891 4.79605 6.53093 4.46553 7.32887C4.13502 8.12681 4.04854 9.00484 4.21703 9.85193C4.38553 10.699 4.80143 11.4771 5.41215 12.0878C6.02287 12.6986 6.80097 13.1145 7.64807 13.283C8.49516 13.4515 9.37319 13.365 10.1711 13.0345C10.9691 12.7039 11.6511 12.1442 12.1309 11.4261C12.6108 10.708 12.8669 9.86369 12.8669 9C12.8669 7.84183 12.4068 6.7311 11.5878 5.91215C10.7689 5.0932 9.65817 4.63313 8.5 4.63313ZM8.5 11.8263C7.93847 11.8262 7.38957 11.6596 6.92282 11.3474C6.45607 11.0352 6.09247 10.5915 5.87807 10.0725C5.66367 9.55354 5.60811 8.9826 5.71844 8.43201C5.82876 7.88142 6.10001 7.37596 6.49781 6.97964C6.89562 6.58332 7.4021 6.31398 7.95309 6.20572C8.50409 6.09746 9.07483 6.15516 9.59301 6.37151C10.1112 6.58785 10.5535 6.95311 10.8639 7.42103C11.1744 7.88895 11.339 8.43847 11.3369 9C11.3369 9.75239 11.038 10.474 10.506 11.006C9.97396 11.538 9.25239 11.8369 8.5 11.8369V11.8263ZM13.0369 3.4325C12.8267 3.4325 12.6213 3.49481 12.4466 3.61156C12.2719 3.72831 12.1357 3.89425 12.0553 4.0884C11.9748 4.28255 11.9538 4.49618 11.9948 4.70228C12.0358 4.90839 12.137 5.09771 12.2856 5.2463C12.4342 5.39489 12.6235 5.49609 12.8296 5.53708C13.0357 5.57808 13.2493 5.55704 13.4435 5.47662C13.6376 5.3962 13.8036 5.26002 13.9203 5.08529C14.0371 4.91057 14.0994 4.70514 14.0994 4.495C14.0966 4.21505 13.9834 3.94752 13.7844 3.75056C13.5855 3.55359 13.3168 3.44311 13.0369 3.44313V3.4325Z" fill="white"/>
</svg>
