<svg width="192" height="185" viewBox="0 0 192 185" fill="none" xmlns="http://www.w3.org/2000/svg">
<path d="M94.5859 78.0852H138.665L129.884 87.2009H103.712V128.307L156.573 75.3333L94.7581 13.2435V0L120.586 25.4551V39.0426H134.016L170.003 75.3333L94.5859 150.667V78.0852Z" fill="white"/>
<path d="M43.0993 90.9847L49.4702 110.42L14 75.5052L53.4305 35.9466L80.4636 117.128V8.94356L89.4172 0.171875V150.323L78.053 139.143L49.6424 53.146L27.6026 75.5052L43.0993 90.9847Z" fill="#006CFC"/>
<rect x="137.281" y="17.3711" width="5.8543" height="5.84779" fill="white"/>
<rect x="134.531" y="14.6191" width="3.44371" height="3.43988" fill="#006CFC"/>
<rect x="124.543" y="22.875" width="12.7417" height="12.7275" fill="#006CFC"/>
<path d="M18.75 177.559V166.738H21.1523V179.98H17.9688L3.76953 169.16V179.98H1.36719V166.738H4.57031L18.75 177.559ZM25.6867 179.98V166.738H44.2609V169.141H28.0891V172.148H40.7648V174.57H28.0891V177.578H44.2609V179.98H25.6867ZM66.2172 166.738H70.182L61.4711 173.398L70.1234 179.98H66.1586L59.4984 174.902L52.8187 179.98H48.8539L57.5062 173.398L48.7953 166.738H52.7602L59.4984 171.875L66.2172 166.738ZM84.5992 166.738H92.0797V169.16H84.5992V179.98H82.1969V169.16H74.7164V166.738H82.1969H84.5992ZM94.9148 173.359C94.9148 172.448 95.0906 171.589 95.4422 170.781C95.7937 169.974 96.269 169.271 96.868 168.672C97.4669 168.073 98.17 167.604 98.9773 167.266C99.7846 166.914 100.644 166.738 101.555 166.738H113.509V169.141H101.555C100.97 169.141 100.423 169.251 99.9148 169.473C99.407 169.694 98.9578 170 98.5672 170.391C98.1896 170.768 97.8901 171.211 97.6687 171.719C97.4474 172.227 97.3367 172.773 97.3367 173.359C97.3367 173.945 97.4474 174.492 97.6687 175C97.8901 175.508 98.1896 175.957 98.5672 176.348C98.9578 176.725 99.407 177.025 99.9148 177.246C100.423 177.467 100.97 177.578 101.555 177.578H111.106V174.57H104.817V172.148H113.509V179.98H101.555C100.644 179.98 99.7846 179.811 98.9773 179.473C98.17 179.121 97.4669 178.646 96.868 178.047C96.269 177.448 95.7937 176.745 95.4422 175.938C95.0906 175.13 94.9148 174.271 94.9148 173.359ZM118.043 179.98V166.738H136.617V169.141H120.445V172.148H133.121V174.57H120.445V177.578H136.617V179.98H118.043ZM158.534 177.559V166.738H160.937V179.98H157.753L143.554 169.16V179.98H141.152V166.738H144.355L158.534 177.559ZM165.471 179.98V166.738H167.873V179.98H165.471ZM182.291 166.738H189.771V169.16H182.291V179.98H179.888V169.16H172.408V166.738H179.888H182.291Z" fill="white"/>
<path d="M18.75 177.559L18.295 178.155L19.5 179.074V177.559H18.75ZM18.75 166.738V165.988H18V166.738H18.75ZM21.1523 166.738H21.9023V165.988H21.1523V166.738ZM21.1523 179.98V180.73H21.9023V179.98H21.1523ZM17.9688 179.98L17.5142 180.577L17.7156 180.73H17.9688V179.98ZM3.76953 169.16L4.22411 168.564L3.01953 167.646V169.16H3.76953ZM3.76953 179.98V180.73H4.51953V179.98H3.76953ZM1.36719 179.98H0.617188V180.73H1.36719V179.98ZM1.36719 166.738V165.988H0.617188V166.738H1.36719ZM4.57031 166.738L5.02529 166.142L4.82378 165.988H4.57031V166.738ZM19.5 177.559V166.738H18V177.559H19.5ZM18.75 167.488H21.1523V165.988H18.75V167.488ZM20.4023 166.738V179.98H21.9023V166.738H20.4023ZM21.1523 179.23H17.9688V180.73H21.1523V179.23ZM18.4233 179.384L4.22411 168.564L3.31495 169.757L17.5142 180.577L18.4233 179.384ZM3.01953 169.16V179.98H4.51953V169.16H3.01953ZM3.76953 179.23H1.36719V180.73H3.76953V179.23ZM2.11719 179.98V166.738H0.617188V179.98H2.11719ZM1.36719 167.488H4.57031V165.988H1.36719V167.488ZM4.11533 167.335L18.295 178.155L19.205 176.962L5.02529 166.142L4.11533 167.335ZM25.6867 179.98H24.9367V180.73H25.6867V179.98ZM25.6867 166.738V165.988H24.9367V166.738H25.6867ZM44.2609 166.738H45.0109V165.988H44.2609V166.738ZM44.2609 169.141V169.891H45.0109V169.141H44.2609ZM28.0891 169.141V168.391H27.3391V169.141H28.0891ZM28.0891 172.148H27.3391V172.898H28.0891V172.148ZM40.7648 172.148H41.5148V171.398H40.7648V172.148ZM40.7648 174.57V175.32H41.5148V174.57H40.7648ZM28.0891 174.57V173.82H27.3391V174.57H28.0891ZM28.0891 177.578H27.3391V178.328H28.0891V177.578ZM44.2609 177.578H45.0109V176.828H44.2609V177.578ZM44.2609 179.98V180.73H45.0109V179.98H44.2609ZM26.4367 179.98V166.738H24.9367V179.98H26.4367ZM25.6867 167.488H44.2609V165.988H25.6867V167.488ZM43.5109 166.738V169.141H45.0109V166.738H43.5109ZM44.2609 168.391H28.0891V169.891H44.2609V168.391ZM27.3391 169.141V172.148H28.8391V169.141H27.3391ZM28.0891 172.898H40.7648V171.398H28.0891V172.898ZM40.0148 172.148V174.57H41.5148V172.148H40.0148ZM40.7648 173.82H28.0891V175.32H40.7648V173.82ZM27.3391 174.57V177.578H28.8391V174.57H27.3391ZM28.0891 178.328H44.2609V176.828H28.0891V178.328ZM43.5109 177.578V179.98H45.0109V177.578H43.5109ZM44.2609 179.23H25.6867V180.73H44.2609V179.23ZM66.2172 166.738V165.988H65.9633L65.7617 166.142L66.2172 166.738ZM70.182 166.738L70.6376 167.334L72.3978 165.988H70.182V166.738ZM61.4711 173.398L61.0156 172.803L60.2343 173.4L61.017 173.995L61.4711 173.398ZM70.1234 179.98V180.73H72.3481L70.5775 179.384L70.1234 179.98ZM66.1586 179.98L65.7038 180.577L65.9053 180.73H66.1586V179.98ZM59.4984 174.902L59.9532 174.306L59.4991 173.96L59.0445 174.305L59.4984 174.902ZM52.8187 179.98V180.73H53.0715L53.2726 180.578L52.8187 179.98ZM48.8539 179.98L48.3998 179.384L46.6292 180.73H48.8539V179.98ZM57.5062 173.398L57.9603 173.995L58.743 173.4L57.9618 172.803L57.5062 173.398ZM48.7953 166.738V165.988H46.5796L48.3398 167.334L48.7953 166.738ZM52.7602 166.738L53.2148 166.142L53.0134 165.988H52.7602V166.738ZM59.4984 171.875L59.0437 172.471L59.4991 172.819L59.954 172.471L59.4984 171.875ZM66.2172 167.488H70.182V165.988H66.2172V167.488ZM69.7265 166.142L61.0156 172.803L61.9266 173.994L70.6376 167.334L69.7265 166.142ZM61.017 173.995L69.6694 180.577L70.5775 179.384L61.9252 172.802L61.017 173.995ZM70.1234 179.23H66.1586V180.73H70.1234V179.23ZM66.6133 179.384L59.9532 174.306L59.0437 175.499L65.7038 180.577L66.6133 179.384ZM59.0445 174.305L52.3648 179.383L53.2726 180.578L59.9523 175.499L59.0445 174.305ZM52.8187 179.23H48.8539V180.73H52.8187V179.23ZM49.308 180.577L57.9603 173.995L57.0522 172.802L48.3998 179.384L49.308 180.577ZM57.9618 172.803L49.2508 166.142L48.3398 167.334L57.0507 173.994L57.9618 172.803ZM48.7953 167.488H52.7602V165.988H48.7953V167.488ZM52.3055 167.335L59.0437 172.471L59.9531 171.279L53.2148 166.142L52.3055 167.335ZM59.954 172.471L66.6727 167.334L65.7617 166.142L59.0429 171.279L59.954 172.471ZM92.0797 166.738H92.8297V165.988H92.0797V166.738ZM92.0797 169.16V169.91H92.8297V169.16H92.0797ZM84.5992 169.16V168.41H83.8492V169.16H84.5992ZM84.5992 179.98V180.73H85.3492V179.98H84.5992ZM82.1969 179.98H81.4469V180.73H82.1969V179.98ZM82.1969 169.16H82.9469V168.41H82.1969V169.16ZM74.7164 169.16H73.9664V169.91H74.7164V169.16ZM74.7164 166.738V165.988H73.9664V166.738H74.7164ZM84.5992 167.488H92.0797V165.988H84.5992V167.488ZM91.3297 166.738V169.16H92.8297V166.738H91.3297ZM92.0797 168.41H84.5992V169.91H92.0797V168.41ZM83.8492 169.16V179.98H85.3492V169.16H83.8492ZM84.5992 179.23H82.1969V180.73H84.5992V179.23ZM82.9469 179.98V169.16H81.4469V179.98H82.9469ZM82.1969 168.41H74.7164V169.91H82.1969V168.41ZM75.4664 169.16V166.738H73.9664V169.16H75.4664ZM74.7164 167.488H82.1969V165.988H74.7164V167.488ZM82.1969 167.488H84.5992V165.988H82.1969V167.488ZM95.4422 170.781L96.1298 171.081L95.4422 170.781ZM98.9773 167.266L99.2674 167.957L99.2768 167.953L98.9773 167.266ZM113.509 166.738H114.259V165.988H113.509V166.738ZM113.509 169.141V169.891H114.259V169.141H113.509ZM98.5672 170.391L99.0975 170.921L98.5672 170.391ZM98.5672 176.348L98.0279 176.869L98.0368 176.878L98.0459 176.887L98.5672 176.348ZM111.106 177.578V178.328H111.856V177.578H111.106ZM111.106 174.57H111.856V173.82H111.106V174.57ZM104.817 174.57H104.067V175.32H104.817V174.57ZM104.817 172.148V171.398H104.067V172.148H104.817ZM113.509 172.148H114.259V171.398H113.509V172.148ZM113.509 179.98V180.73H114.259V179.98H113.509ZM98.9773 179.473L98.6779 180.16L98.6873 180.164L98.9773 179.473ZM95.6648 173.359C95.6648 172.547 95.8208 171.79 96.1298 171.081L94.7546 170.482C94.3604 171.387 94.1648 172.349 94.1648 173.359H95.6648ZM96.1298 171.081C96.4454 170.356 96.8684 169.732 97.3983 169.202L96.3376 168.142C95.6696 168.81 95.1421 169.592 94.7546 170.482L96.1298 171.081ZM97.3983 169.202C97.9261 168.674 98.5468 168.259 99.2674 167.957L98.6873 166.574C97.7933 166.949 97.0078 167.471 96.3376 168.142L97.3983 169.202ZM99.2768 167.953C99.9863 167.644 100.743 167.488 101.555 167.488V165.988C100.545 165.988 99.583 166.184 98.6779 166.578L99.2768 167.953ZM101.555 167.488H113.509V165.988H101.555V167.488ZM112.759 166.738V169.141H114.259V166.738H112.759ZM113.509 168.391H101.555V169.891H113.509V168.391ZM101.555 168.391C100.872 168.391 100.223 168.52 99.6152 168.785L100.215 170.16C100.622 169.982 101.067 169.891 101.555 169.891V168.391ZM99.6152 168.785C99.0215 169.044 98.494 169.403 98.0369 169.86L99.0975 170.921C99.4216 170.597 99.7925 170.344 100.215 170.16L99.6152 168.785ZM98.0369 169.86C97.5904 170.307 97.2387 170.828 96.9812 171.419L98.3563 172.018C98.5415 171.593 98.7888 171.23 99.0975 170.921L98.0369 169.86ZM96.9812 171.419C96.7163 172.027 96.5867 172.676 96.5867 173.359H98.0867C98.0867 172.871 98.1785 172.426 98.3563 172.018L96.9812 171.419ZM96.5867 173.359C96.5867 174.042 96.7163 174.692 96.9812 175.3L98.3563 174.7C98.1785 174.292 98.0867 173.848 98.0867 173.359H96.5867ZM96.9812 175.3C97.2377 175.888 97.5868 176.413 98.0279 176.869L99.1064 175.826C98.7923 175.501 98.5425 175.128 98.3563 174.7L96.9812 175.3ZM98.0459 176.887C98.5022 177.328 99.0269 177.677 99.6152 177.934L100.215 176.559C99.7872 176.372 99.4134 176.123 99.0885 175.808L98.0459 176.887ZM99.6152 177.934C100.223 178.199 100.872 178.328 101.555 178.328V176.828C101.067 176.828 100.622 176.736 100.215 176.559L99.6152 177.934ZM101.555 178.328H111.106V176.828H101.555V178.328ZM111.856 177.578V174.57H110.356V177.578H111.856ZM111.106 173.82H104.817V175.32H111.106V173.82ZM105.567 174.57V172.148H104.067V174.57H105.567ZM104.817 172.898H113.509V171.398H104.817V172.898ZM112.759 172.148V179.98H114.259V172.148H112.759ZM113.509 179.23H101.555V180.73H113.509V179.23ZM101.555 179.23C100.739 179.23 99.979 179.079 99.2674 178.781L98.6873 180.164C99.5902 180.543 100.549 180.73 101.555 180.73V179.23ZM99.2768 178.785C98.5522 178.469 97.9282 178.046 97.3983 177.517L96.3376 178.577C97.0056 179.245 97.7879 179.773 98.6779 180.16L99.2768 178.785ZM97.3983 177.517C96.8684 176.987 96.4454 176.363 96.1298 175.638L94.7546 176.237C95.1421 177.127 95.6696 177.909 96.3376 178.577L97.3983 177.517ZM96.1298 175.638C95.8208 174.929 95.6648 174.171 95.6648 173.359H94.1648C94.1648 174.37 94.3604 175.332 94.7546 176.237L96.1298 175.638ZM118.043 179.98H117.293V180.73H118.043V179.98ZM118.043 166.738V165.988H117.293V166.738H118.043ZM136.617 166.738H137.367V165.988H136.617V166.738ZM136.617 169.141V169.891H137.367V169.141H136.617ZM120.445 169.141V168.391H119.695V169.141H120.445ZM120.445 172.148H119.695V172.898H120.445V172.148ZM133.121 172.148H133.871V171.398H133.121V172.148ZM133.121 174.57V175.32H133.871V174.57H133.121ZM120.445 174.57V173.82H119.695V174.57H120.445ZM120.445 177.578H119.695V178.328H120.445V177.578ZM136.617 177.578H137.367V176.828H136.617V177.578ZM136.617 179.98V180.73H137.367V179.98H136.617ZM118.793 179.98V166.738H117.293V179.98H118.793ZM118.043 167.488H136.617V165.988H118.043V167.488ZM135.867 166.738V169.141H137.367V166.738H135.867ZM136.617 168.391H120.445V169.891H136.617V168.391ZM119.695 169.141V172.148H121.195V169.141H119.695ZM120.445 172.898H133.121V171.398H120.445V172.898ZM132.371 172.148V174.57H133.871V172.148H132.371ZM133.121 173.82H120.445V175.32H133.121V173.82ZM119.695 174.57V177.578H121.195V174.57H119.695ZM120.445 178.328H136.617V176.828H120.445V178.328ZM135.867 177.578V179.98H137.367V177.578H135.867ZM136.617 179.23H118.043V180.73H136.617V179.23ZM158.534 177.559L158.079 178.155L159.284 179.074V177.559H158.534ZM158.534 166.738V165.988H157.784V166.738H158.534ZM160.937 166.738H161.687V165.988H160.937V166.738ZM160.937 179.98V180.73H161.687V179.98H160.937ZM157.753 179.98L157.299 180.577L157.5 180.73H157.753V179.98ZM143.554 169.16L144.008 168.564L142.804 167.646V169.16H143.554ZM143.554 179.98V180.73H144.304V179.98H143.554ZM141.152 179.98H140.402V180.73H141.152V179.98ZM141.152 166.738V165.988H140.402V166.738H141.152ZM144.355 166.738L144.81 166.142L144.608 165.988H144.355V166.738ZM159.284 177.559V166.738H157.784V177.559H159.284ZM158.534 167.488H160.937V165.988H158.534V167.488ZM160.187 166.738V179.98H161.687V166.738H160.187ZM160.937 179.23H157.753V180.73H160.937V179.23ZM158.208 179.384L144.008 168.564L143.099 169.757L157.299 180.577L158.208 179.384ZM142.804 169.16V179.98H144.304V169.16H142.804ZM143.554 179.23H141.152V180.73H143.554V179.23ZM141.902 179.98V166.738H140.402V179.98H141.902ZM141.152 167.488H144.355V165.988H141.152V167.488ZM143.9 167.335L158.079 178.155L158.989 176.962L144.81 166.142L143.9 167.335ZM165.471 179.98H164.721V180.73H165.471V179.98ZM165.471 166.738V165.988H164.721V166.738H165.471ZM167.873 166.738H168.623V165.988H167.873V166.738ZM167.873 179.98V180.73H168.623V179.98H167.873ZM166.221 179.98V166.738H164.721V179.98H166.221ZM165.471 167.488H167.873V165.988H165.471V167.488ZM167.123 166.738V179.98H168.623V166.738H167.123ZM167.873 179.23H165.471V180.73H167.873V179.23ZM189.771 166.738H190.521V165.988H189.771V166.738ZM189.771 169.16V169.91H190.521V169.16H189.771ZM182.291 169.16V168.41H181.541V169.16H182.291ZM182.291 179.98V180.73H183.041V179.98H182.291ZM179.888 179.98H179.138V180.73H179.888V179.98ZM179.888 169.16H180.638V168.41H179.888V169.16ZM172.408 169.16H171.658V169.91H172.408V169.16ZM172.408 166.738V165.988H171.658V166.738H172.408ZM182.291 167.488H189.771V165.988H182.291V167.488ZM189.021 166.738V169.16H190.521V166.738H189.021ZM189.771 168.41H182.291V169.91H189.771V168.41ZM181.541 169.16V179.98H183.041V169.16H181.541ZM182.291 179.23H179.888V180.73H182.291V179.23ZM180.638 179.98V169.16H179.138V179.98H180.638ZM179.888 168.41H172.408V169.91H179.888V168.41ZM173.158 169.16V166.738H171.658V169.16H173.158ZM172.408 167.488H179.888V165.988H172.408V167.488ZM179.888 167.488H182.291V165.988H179.888V167.488Z" fill="white"/>
</svg>
