<svg width="192" height="182" viewBox="0 0 192 182" fill="none" xmlns="http://www.w3.org/2000/svg">
<path d="M95.9141 78.0852H139.994L131.212 87.2009H105.04V128.307L157.901 75.3333L96.0862 13.2435V0L121.914 25.4551V39.0426H135.345L171.331 75.3333L95.9141 150.667V78.0852Z" fill="#222222"/>
<path d="M44.4314 90.9847L50.8022 110.42L15.332 75.5052L54.7625 35.9466L81.7956 117.128V8.94356L90.7493 0.171875V150.323L79.385 139.143L50.9744 53.146L28.9347 75.5052L44.4314 90.9847Z" fill="#006CFC"/>
<rect x="138.613" y="17.3711" width="5.8543" height="5.84779" fill="#222222"/>
<rect x="135.863" y="14.6191" width="3.44371" height="3.43988" fill="#006CFC"/>
<rect x="125.875" y="22.875" width="12.7417" height="12.7275" fill="#006CFC"/>
<path d="M18.75 174.559V163.738H21.1523V176.98H17.9688L3.76953 166.16V176.98H1.36719V163.738H4.57031L18.75 174.559ZM25.6867 176.98V163.738H44.2609V166.141H28.0891V169.148H40.7648V171.57H28.0891V174.578H44.2609V176.98H25.6867ZM66.2172 163.738H70.182L61.4711 170.398L70.1234 176.98H66.1586L59.4984 171.902L52.8187 176.98H48.8539L57.5062 170.398L48.7953 163.738H52.7602L59.4984 168.875L66.2172 163.738ZM84.5992 163.738H92.0797V166.16H84.5992V176.98H82.1969V166.16H74.7164V163.738H82.1969H84.5992ZM94.9148 170.359C94.9148 169.448 95.0906 168.589 95.4422 167.781C95.7937 166.974 96.269 166.271 96.868 165.672C97.4669 165.073 98.17 164.604 98.9773 164.266C99.7846 163.914 100.644 163.738 101.555 163.738H113.509V166.141H101.555C100.97 166.141 100.423 166.251 99.9148 166.473C99.407 166.694 98.9578 167 98.5672 167.391C98.1896 167.768 97.8901 168.211 97.6687 168.719C97.4474 169.227 97.3367 169.773 97.3367 170.359C97.3367 170.945 97.4474 171.492 97.6687 172C97.8901 172.508 98.1896 172.957 98.5672 173.348C98.9578 173.725 99.407 174.025 99.9148 174.246C100.423 174.467 100.97 174.578 101.555 174.578H111.106V171.57H104.817V169.148H113.509V176.98H101.555C100.644 176.98 99.7846 176.811 98.9773 176.473C98.17 176.121 97.4669 175.646 96.868 175.047C96.269 174.448 95.7937 173.745 95.4422 172.938C95.0906 172.13 94.9148 171.271 94.9148 170.359ZM118.043 176.98V163.738H136.617V166.141H120.445V169.148H133.121V171.57H120.445V174.578H136.617V176.98H118.043ZM158.534 174.559V163.738H160.937V176.98H157.753L143.554 166.16V176.98H141.152V163.738H144.355L158.534 174.559ZM165.471 176.98V163.738H167.873V176.98H165.471ZM182.291 163.738H189.771V166.16H182.291V176.98H179.888V166.16H172.408V163.738H179.888H182.291Z" fill="#222222"/>
<path d="M18.75 174.559L18.295 175.155L19.5 176.074V174.559H18.75ZM18.75 163.738V162.988H18V163.738H18.75ZM21.1523 163.738H21.9023V162.988H21.1523V163.738ZM21.1523 176.98V177.73H21.9023V176.98H21.1523ZM17.9688 176.98L17.5142 177.577L17.7156 177.73H17.9688V176.98ZM3.76953 166.16L4.22411 165.564L3.01953 164.646V166.16H3.76953ZM3.76953 176.98V177.73H4.51953V176.98H3.76953ZM1.36719 176.98H0.617188V177.73H1.36719V176.98ZM1.36719 163.738V162.988H0.617188V163.738H1.36719ZM4.57031 163.738L5.02529 163.142L4.82378 162.988H4.57031V163.738ZM19.5 174.559V163.738H18V174.559H19.5ZM18.75 164.488H21.1523V162.988H18.75V164.488ZM20.4023 163.738V176.98H21.9023V163.738H20.4023ZM21.1523 176.23H17.9688V177.73H21.1523V176.23ZM18.4233 176.384L4.22411 165.564L3.31495 166.757L17.5142 177.577L18.4233 176.384ZM3.01953 166.16V176.98H4.51953V166.16H3.01953ZM3.76953 176.23H1.36719V177.73H3.76953V176.23ZM2.11719 176.98V163.738H0.617188V176.98H2.11719ZM1.36719 164.488H4.57031V162.988H1.36719V164.488ZM4.11533 164.335L18.295 175.155L19.205 173.962L5.02529 163.142L4.11533 164.335ZM25.6867 176.98H24.9367V177.73H25.6867V176.98ZM25.6867 163.738V162.988H24.9367V163.738H25.6867ZM44.2609 163.738H45.0109V162.988H44.2609V163.738ZM44.2609 166.141V166.891H45.0109V166.141H44.2609ZM28.0891 166.141V165.391H27.3391V166.141H28.0891ZM28.0891 169.148H27.3391V169.898H28.0891V169.148ZM40.7648 169.148H41.5148V168.398H40.7648V169.148ZM40.7648 171.57V172.32H41.5148V171.57H40.7648ZM28.0891 171.57V170.82H27.3391V171.57H28.0891ZM28.0891 174.578H27.3391V175.328H28.0891V174.578ZM44.2609 174.578H45.0109V173.828H44.2609V174.578ZM44.2609 176.98V177.73H45.0109V176.98H44.2609ZM26.4367 176.98V163.738H24.9367V176.98H26.4367ZM25.6867 164.488H44.2609V162.988H25.6867V164.488ZM43.5109 163.738V166.141H45.0109V163.738H43.5109ZM44.2609 165.391H28.0891V166.891H44.2609V165.391ZM27.3391 166.141V169.148H28.8391V166.141H27.3391ZM28.0891 169.898H40.7648V168.398H28.0891V169.898ZM40.0148 169.148V171.57H41.5148V169.148H40.0148ZM40.7648 170.82H28.0891V172.32H40.7648V170.82ZM27.3391 171.57V174.578H28.8391V171.57H27.3391ZM28.0891 175.328H44.2609V173.828H28.0891V175.328ZM43.5109 174.578V176.98H45.0109V174.578H43.5109ZM44.2609 176.23H25.6867V177.73H44.2609V176.23ZM66.2172 163.738V162.988H65.9633L65.7617 163.142L66.2172 163.738ZM70.182 163.738L70.6376 164.334L72.3978 162.988H70.182V163.738ZM61.4711 170.398L61.0156 169.803L60.2343 170.4L61.017 170.995L61.4711 170.398ZM70.1234 176.98V177.73H72.3481L70.5775 176.384L70.1234 176.98ZM66.1586 176.98L65.7038 177.577L65.9053 177.73H66.1586V176.98ZM59.4984 171.902L59.9532 171.306L59.4991 170.96L59.0445 171.305L59.4984 171.902ZM52.8187 176.98V177.73H53.0715L53.2726 177.578L52.8187 176.98ZM48.8539 176.98L48.3998 176.384L46.6292 177.73H48.8539V176.98ZM57.5062 170.398L57.9603 170.995L58.743 170.4L57.9618 169.803L57.5062 170.398ZM48.7953 163.738V162.988H46.5796L48.3398 164.334L48.7953 163.738ZM52.7602 163.738L53.2148 163.142L53.0134 162.988H52.7602V163.738ZM59.4984 168.875L59.0437 169.471L59.4991 169.819L59.954 169.471L59.4984 168.875ZM66.2172 164.488H70.182V162.988H66.2172V164.488ZM69.7265 163.142L61.0156 169.803L61.9266 170.994L70.6376 164.334L69.7265 163.142ZM61.017 170.995L69.6694 177.577L70.5775 176.384L61.9252 169.802L61.017 170.995ZM70.1234 176.23H66.1586V177.73H70.1234V176.23ZM66.6133 176.384L59.9532 171.306L59.0437 172.499L65.7038 177.577L66.6133 176.384ZM59.0445 171.305L52.3648 176.383L53.2726 177.578L59.9523 172.499L59.0445 171.305ZM52.8187 176.23H48.8539V177.73H52.8187V176.23ZM49.308 177.577L57.9603 170.995L57.0522 169.802L48.3998 176.384L49.308 177.577ZM57.9618 169.803L49.2508 163.142L48.3398 164.334L57.0507 170.994L57.9618 169.803ZM48.7953 164.488H52.7602V162.988H48.7953V164.488ZM52.3055 164.335L59.0437 169.471L59.9531 168.279L53.2148 163.142L52.3055 164.335ZM59.954 169.471L66.6727 164.334L65.7617 163.142L59.0429 168.279L59.954 169.471ZM92.0797 163.738H92.8297V162.988H92.0797V163.738ZM92.0797 166.16V166.91H92.8297V166.16H92.0797ZM84.5992 166.16V165.41H83.8492V166.16H84.5992ZM84.5992 176.98V177.73H85.3492V176.98H84.5992ZM82.1969 176.98H81.4469V177.73H82.1969V176.98ZM82.1969 166.16H82.9469V165.41H82.1969V166.16ZM74.7164 166.16H73.9664V166.91H74.7164V166.16ZM74.7164 163.738V162.988H73.9664V163.738H74.7164ZM84.5992 164.488H92.0797V162.988H84.5992V164.488ZM91.3297 163.738V166.16H92.8297V163.738H91.3297ZM92.0797 165.41H84.5992V166.91H92.0797V165.41ZM83.8492 166.16V176.98H85.3492V166.16H83.8492ZM84.5992 176.23H82.1969V177.73H84.5992V176.23ZM82.9469 176.98V166.16H81.4469V176.98H82.9469ZM82.1969 165.41H74.7164V166.91H82.1969V165.41ZM75.4664 166.16V163.738H73.9664V166.16H75.4664ZM74.7164 164.488H82.1969V162.988H74.7164V164.488ZM82.1969 164.488H84.5992V162.988H82.1969V164.488ZM95.4422 167.781L96.1298 168.081L95.4422 167.781ZM98.9773 164.266L99.2674 164.957L99.2768 164.953L98.9773 164.266ZM113.509 163.738H114.259V162.988H113.509V163.738ZM113.509 166.141V166.891H114.259V166.141H113.509ZM98.5672 167.391L99.0975 167.921L98.5672 167.391ZM98.5672 173.348L98.0279 173.869L98.0368 173.878L98.0459 173.887L98.5672 173.348ZM111.106 174.578V175.328H111.856V174.578H111.106ZM111.106 171.57H111.856V170.82H111.106V171.57ZM104.817 171.57H104.067V172.32H104.817V171.57ZM104.817 169.148V168.398H104.067V169.148H104.817ZM113.509 169.148H114.259V168.398H113.509V169.148ZM113.509 176.98V177.73H114.259V176.98H113.509ZM98.9773 176.473L98.6779 177.16L98.6873 177.164L98.9773 176.473ZM95.6648 170.359C95.6648 169.547 95.8208 168.79 96.1298 168.081L94.7546 167.482C94.3604 168.387 94.1648 169.349 94.1648 170.359H95.6648ZM96.1298 168.081C96.4454 167.356 96.8684 166.732 97.3983 166.202L96.3376 165.142C95.6696 165.81 95.1421 166.592 94.7546 167.482L96.1298 168.081ZM97.3983 166.202C97.9261 165.674 98.5468 165.259 99.2674 164.957L98.6873 163.574C97.7933 163.949 97.0078 164.471 96.3376 165.142L97.3983 166.202ZM99.2768 164.953C99.9863 164.644 100.743 164.488 101.555 164.488V162.988C100.545 162.988 99.583 163.184 98.6779 163.578L99.2768 164.953ZM101.555 164.488H113.509V162.988H101.555V164.488ZM112.759 163.738V166.141H114.259V163.738H112.759ZM113.509 165.391H101.555V166.891H113.509V165.391ZM101.555 165.391C100.872 165.391 100.223 165.52 99.6152 165.785L100.215 167.16C100.622 166.982 101.067 166.891 101.555 166.891V165.391ZM99.6152 165.785C99.0215 166.044 98.494 166.403 98.0369 166.86L99.0975 167.921C99.4216 167.597 99.7925 167.344 100.215 167.16L99.6152 165.785ZM98.0369 166.86C97.5904 167.307 97.2387 167.828 96.9812 168.419L98.3563 169.018C98.5415 168.593 98.7888 168.23 99.0975 167.921L98.0369 166.86ZM96.9812 168.419C96.7163 169.027 96.5867 169.676 96.5867 170.359H98.0867C98.0867 169.871 98.1785 169.426 98.3563 169.018L96.9812 168.419ZM96.5867 170.359C96.5867 171.042 96.7163 171.692 96.9812 172.3L98.3563 171.7C98.1785 171.292 98.0867 170.848 98.0867 170.359H96.5867ZM96.9812 172.3C97.2377 172.888 97.5868 173.413 98.0279 173.869L99.1064 172.826C98.7923 172.501 98.5425 172.128 98.3563 171.7L96.9812 172.3ZM98.0459 173.887C98.5022 174.328 99.0269 174.677 99.6152 174.934L100.215 173.559C99.7872 173.372 99.4134 173.123 99.0885 172.808L98.0459 173.887ZM99.6152 174.934C100.223 175.199 100.872 175.328 101.555 175.328V173.828C101.067 173.828 100.622 173.736 100.215 173.559L99.6152 174.934ZM101.555 175.328H111.106V173.828H101.555V175.328ZM111.856 174.578V171.57H110.356V174.578H111.856ZM111.106 170.82H104.817V172.32H111.106V170.82ZM105.567 171.57V169.148H104.067V171.57H105.567ZM104.817 169.898H113.509V168.398H104.817V169.898ZM112.759 169.148V176.98H114.259V169.148H112.759ZM113.509 176.23H101.555V177.73H113.509V176.23ZM101.555 176.23C100.739 176.23 99.979 176.079 99.2674 175.781L98.6873 177.164C99.5902 177.543 100.549 177.73 101.555 177.73V176.23ZM99.2768 175.785C98.5522 175.469 97.9282 175.046 97.3983 174.517L96.3376 175.577C97.0056 176.245 97.7879 176.773 98.6779 177.16L99.2768 175.785ZM97.3983 174.517C96.8684 173.987 96.4454 173.363 96.1298 172.638L94.7546 173.237C95.1421 174.127 95.6696 174.909 96.3376 175.577L97.3983 174.517ZM96.1298 172.638C95.8208 171.929 95.6648 171.171 95.6648 170.359H94.1648C94.1648 171.37 94.3604 172.332 94.7546 173.237L96.1298 172.638ZM118.043 176.98H117.293V177.73H118.043V176.98ZM118.043 163.738V162.988H117.293V163.738H118.043ZM136.617 163.738H137.367V162.988H136.617V163.738ZM136.617 166.141V166.891H137.367V166.141H136.617ZM120.445 166.141V165.391H119.695V166.141H120.445ZM120.445 169.148H119.695V169.898H120.445V169.148ZM133.121 169.148H133.871V168.398H133.121V169.148ZM133.121 171.57V172.32H133.871V171.57H133.121ZM120.445 171.57V170.82H119.695V171.57H120.445ZM120.445 174.578H119.695V175.328H120.445V174.578ZM136.617 174.578H137.367V173.828H136.617V174.578ZM136.617 176.98V177.73H137.367V176.98H136.617ZM118.793 176.98V163.738H117.293V176.98H118.793ZM118.043 164.488H136.617V162.988H118.043V164.488ZM135.867 163.738V166.141H137.367V163.738H135.867ZM136.617 165.391H120.445V166.891H136.617V165.391ZM119.695 166.141V169.148H121.195V166.141H119.695ZM120.445 169.898H133.121V168.398H120.445V169.898ZM132.371 169.148V171.57H133.871V169.148H132.371ZM133.121 170.82H120.445V172.32H133.121V170.82ZM119.695 171.57V174.578H121.195V171.57H119.695ZM120.445 175.328H136.617V173.828H120.445V175.328ZM135.867 174.578V176.98H137.367V174.578H135.867ZM136.617 176.23H118.043V177.73H136.617V176.23ZM158.534 174.559L158.079 175.155L159.284 176.074V174.559H158.534ZM158.534 163.738V162.988H157.784V163.738H158.534ZM160.937 163.738H161.687V162.988H160.937V163.738ZM160.937 176.98V177.73H161.687V176.98H160.937ZM157.753 176.98L157.299 177.577L157.5 177.73H157.753V176.98ZM143.554 166.16L144.008 165.564L142.804 164.646V166.16H143.554ZM143.554 176.98V177.73H144.304V176.98H143.554ZM141.152 176.98H140.402V177.73H141.152V176.98ZM141.152 163.738V162.988H140.402V163.738H141.152ZM144.355 163.738L144.81 163.142L144.608 162.988H144.355V163.738ZM159.284 174.559V163.738H157.784V174.559H159.284ZM158.534 164.488H160.937V162.988H158.534V164.488ZM160.187 163.738V176.98H161.687V163.738H160.187ZM160.937 176.23H157.753V177.73H160.937V176.23ZM158.208 176.384L144.008 165.564L143.099 166.757L157.299 177.577L158.208 176.384ZM142.804 166.16V176.98H144.304V166.16H142.804ZM143.554 176.23H141.152V177.73H143.554V176.23ZM141.902 176.98V163.738H140.402V176.98H141.902ZM141.152 164.488H144.355V162.988H141.152V164.488ZM143.9 164.335L158.079 175.155L158.989 173.962L144.81 163.142L143.9 164.335ZM165.471 176.98H164.721V177.73H165.471V176.98ZM165.471 163.738V162.988H164.721V163.738H165.471ZM167.873 163.738H168.623V162.988H167.873V163.738ZM167.873 176.98V177.73H168.623V176.98H167.873ZM166.221 176.98V163.738H164.721V176.98H166.221ZM165.471 164.488H167.873V162.988H165.471V164.488ZM167.123 163.738V176.98H168.623V163.738H167.123ZM167.873 176.23H165.471V177.73H167.873V176.23ZM189.771 163.738H190.521V162.988H189.771V163.738ZM189.771 166.16V166.91H190.521V166.16H189.771ZM182.291 166.16V165.41H181.541V166.16H182.291ZM182.291 176.98V177.73H183.041V176.98H182.291ZM179.888 176.98H179.138V177.73H179.888V176.98ZM179.888 166.16H180.638V165.41H179.888V166.16ZM172.408 166.16H171.658V166.91H172.408V166.16ZM172.408 163.738V162.988H171.658V163.738H172.408ZM182.291 164.488H189.771V162.988H182.291V164.488ZM189.021 163.738V166.16H190.521V163.738H189.021ZM189.771 165.41H182.291V166.91H189.771V165.41ZM181.541 166.16V176.98H183.041V166.16H181.541ZM182.291 176.23H179.888V177.73H182.291V176.23ZM180.638 176.98V166.16H179.138V176.98H180.638ZM179.888 165.41H172.408V166.91H179.888V165.41ZM173.158 166.16V163.738H171.658V166.16H173.158ZM172.408 164.488H179.888V162.988H172.408V164.488ZM179.888 164.488H182.291V162.988H179.888V164.488Z" fill="#222222"/>
</svg>
