<svg width="25" height="98" viewBox="0 0 25 98" fill="none" xmlns="http://www.w3.org/2000/svg">
<path d="M19.22 46.3C19.22 47.38 18.9667 48.3533 18.46 49.22C17.9533 50.0867 17.2533 50.7733 16.36 51.28L15.22 49.78C15.86 49.34 16.3733 48.8467 16.76 48.3C17.1333 47.74 17.32 47.08 17.32 46.32C17.32 45.64 17.1533 45.0933 16.82 44.68C16.4867 44.2533 16.04 44.04 15.48 44.04C15.0133 44.04 14.6467 44.1933 14.38 44.5C14.1133 44.7933 13.82 45.2867 13.5 45.98L12.82 47.44C12.38 48.4 11.88 49.1533 11.32 49.7C10.76 50.2467 10.04 50.52 9.16 50.52C8.45333 50.52 7.82667 50.3333 7.28 49.96C6.73333 49.5867 6.31333 49.0867 6.02 48.46C5.72667 47.82 5.58 47.12 5.58 46.36C5.58 45.4267 5.8 44.5867 6.24 43.84C6.66667 43.0933 7.23333 42.5133 7.94 42.1L9.08 43.58C8.56 43.9267 8.16667 44.34 7.9 44.82C7.62 45.2867 7.48 45.8 7.48 46.36C7.48 46.92 7.62 47.3933 7.9 47.78C8.16667 48.1667 8.56 48.36 9.08 48.36C9.4 48.36 9.66667 48.2867 9.88 48.14C10.0933 47.9933 10.2733 47.8 10.42 47.56C10.5533 47.32 10.7333 46.9733 10.96 46.52L11.64 45.04C12.1333 43.9733 12.6667 43.18 13.24 42.66C13.8133 42.14 14.5333 41.88 15.4 41.88C16.16 41.88 16.8333 42.0733 17.42 42.46C17.9933 42.8333 18.44 43.36 18.76 44.04C19.0667 44.7067 19.22 45.46 19.22 46.3ZM19.22 34.7281C19.22 35.6881 18.9933 36.5681 18.54 37.3681C18.0867 38.1548 17.4667 38.7815 16.68 39.2481C15.8933 39.7015 15.0267 39.9281 14.08 39.9281C13.1333 39.9281 12.2733 39.7015 11.5 39.2481C10.7133 38.7815 10.0933 38.1481 9.64 37.3481C9.18667 36.5481 8.96 35.6748 8.96 34.7281C8.96 33.8215 9.16667 33.0148 9.58 32.3081C9.98 31.5881 10.5333 31.0148 11.24 30.5881L12.4 32.0681C11.4 32.7748 10.9 33.6548 10.9 34.7081C10.9 35.2948 11.04 35.8215 11.32 36.2881C11.6 36.7548 11.9867 37.1215 12.48 37.3881C12.96 37.6548 13.4933 37.7881 14.08 37.7881C14.68 37.7881 15.2267 37.6548 15.72 37.3881C16.2 37.1215 16.58 36.7548 16.86 36.2881C17.14 35.8215 17.28 35.2948 17.28 34.7081C17.28 33.6681 16.7867 32.7881 15.8 32.0681L16.94 30.5881C17.6467 31.0281 18.2067 31.6081 18.62 32.3281C19.02 33.0348 19.22 33.8348 19.22 34.7281ZM9.18 22.653H11.04V23.293C11.04 24.1196 11.28 24.8063 11.76 25.353C12.2267 25.8996 12.8933 26.173 13.76 26.173H19V28.273H9.18V26.313H10.46C10.02 25.9663 9.68 25.5463 9.44 25.053C9.2 24.5463 9.08 24.013 9.08 23.453C9.08 23.1596 9.11333 22.893 9.18 22.653ZM19.22 16.4083C19.22 17.3549 18.9933 18.2283 18.54 19.0283C18.0733 19.8149 17.4467 20.4416 16.66 20.9083C15.8733 21.3616 15.0133 21.5883 14.08 21.5883C13.1333 21.5883 12.2733 21.3616 11.5 20.9083C10.7133 20.4416 10.0933 19.8149 9.64 19.0283C9.18667 18.2283 8.96 17.3549 8.96 16.4083C8.96 15.4483 9.18667 14.5683 9.64 13.7683C10.0933 12.9683 10.7133 12.3416 11.5 11.8883C12.2867 11.4216 13.1467 11.1883 14.08 11.1883C15.0133 11.1883 15.8733 11.4216 16.66 11.8883C17.4467 12.3416 18.0733 12.9683 18.54 13.7683C18.9933 14.5683 19.22 15.4483 19.22 16.4083ZM17.28 16.4083C17.28 15.8349 17.14 15.3149 16.86 14.8483C16.58 14.3816 16.2 14.0149 15.72 13.7483C15.2267 13.4816 14.6867 13.3483 14.1 13.3483C13.5 13.3483 12.9533 13.4816 12.46 13.7483C11.9667 14.0149 11.58 14.3816 11.3 14.8483C11.02 15.3149 10.88 15.8283 10.88 16.3883C10.88 16.9616 11.02 17.4816 11.3 17.9483C11.58 18.4149 11.9667 18.7816 12.46 19.0483C12.9533 19.3149 13.5 19.4483 14.1 19.4483C14.7 19.4483 15.2467 19.3149 15.74 19.0483C16.22 18.7816 16.6 18.4216 16.88 17.9683C17.1467 17.5016 17.28 16.9816 17.28 16.4083ZM4 8.78078V6.68078H19V8.78078H4ZM4 3.64406V1.54406H19V3.64406H4Z" fill="white"/>
<rect x="5.25" y="64.75" width="14.5" height="32.5" rx="7.25" stroke="white" stroke-width="1.5"/>
<path d="M12.5 72L12.5 84" stroke="white" stroke-width="2" stroke-linecap="round"/>
</svg>
