<svg width="128" height="128" viewBox="0 0 128 128" fill="none" xmlns="http://www.w3.org/2000/svg">
<path d="M64 0C28.7082 0 0 28.711 0 64C0 99.289 28.7082 128 64 128C99.2917 128 128 99.289 128 64C128 28.711 99.2917 0 64 0ZM89.4427 66.2422L52.1095 90.2422C51.6796 90.5198 51.1785 90.6673 50.6668 90.6667C50.2293 90.6667 49.7865 90.5573 49.3908 90.3412C48.9697 90.1123 48.6183 89.7739 48.3735 89.3618C48.1287 88.9498 47.9997 88.4793 48 88V40C48 39.0235 48.5312 38.1275 49.3908 37.6587C50.2345 37.1952 51.2918 37.2238 52.1095 37.7578L89.4427 61.7578C90.2032 62.2472 90.6667 63.0938 90.6667 64C90.6667 64.9062 90.2032 65.7525 89.4427 66.2422Z" fill="#006CFC"/>
</svg>
