<svg width="19" height="14" viewBox="0 0 19 14" fill="none" xmlns="http://www.w3.org/2000/svg">
<path d="M18.3 3.3999C18.3 3.3999 18.1 2.1499 17.6 1.5999C16.9 0.899902 16.15 0.899902 15.8 0.849902C13.3 0.649902 9.5 0.649902 9.5 0.649902C9.5 0.649902 5.7 0.649902 3.2 0.849902C2.85 0.899902 2.1 0.899902 1.4 1.5999C0.85 2.1499 0.7 3.3999 0.7 3.3999C0.7 3.3999 0.5 4.8499 0.5 6.2999V7.6499C0.5 9.0999 0.7 10.5499 0.7 10.5499C0.7 10.5499 0.9 11.7999 1.4 12.3499C2.1 13.0499 3 13.0499 3.4 13.0999C4.85 13.2499 9.5 13.2999 9.5 13.2999C9.5 13.2999 13.3 13.2999 15.8 13.0999C16.15 13.0499 16.9 13.0499 17.6 12.3499C18.15 11.7999 18.3 10.5499 18.3 10.5499C18.3 10.5499 18.5 9.0999 18.5 7.6499V6.2999C18.5 4.8499 18.3 3.3999 18.3 3.3999ZM7.65 9.3499V4.2999L12.5 6.8499L7.65 9.3499Z" fill="white"/>
</svg>
