<svg width="446" height="600" viewBox="0 0 446 600" fill="none" xmlns="http://www.w3.org/2000/svg">
<path d="M409.422 74.1723C382.097 26.3776 332.913 6 245.012 6C195.735 6 158.685 9.70502 128.489 17.4855C95.1437 26.1923 69.7643 40.2714 50.9614 60.5563C28.4534 84.9168 15.208 117.706 9.46523 163.834C4.55609 203.199 4.83396 252.939 10.4841 324.909C19.2835 437.356 25.7673 502.935 57.0747 543.227C73.3767 564.16 95.7921 577.499 127.655 585.001C154.239 591.3 188.232 593.986 241.214 593.986C288.638 593.986 323.65 588.521 351.253 576.85C379.874 564.716 400.437 545.635 414.238 518.589C438.784 470.238 439.988 401.51 439.988 293.509C439.895 185.878 434.986 119.003 409.422 74.1723Z" stroke="#006CFF" stroke-width="12" stroke-miterlimit="10"/>
</svg>
