<svg width="24" height="18" viewBox="0 0 24 18" fill="none" xmlns="http://www.w3.org/2000/svg">
<path d="M20.9492 5.49375C20.9355 4.78939 20.8026 4.09245 20.5561 3.4325C20.344 2.86442 20.0104 2.34951 19.5786 1.92375C19.153 1.4917 18.6381 1.15806 18.0698 0.94625C17.3963 0.675813 16.6808 0.524805 15.9555 0.5L8.94297 0.5C8.23864 0.513891 7.54172 0.646807 6.88172 0.893125C6.31176 1.11729 5.79561 1.45941 5.36714 1.89704C4.93867 2.33467 4.60754 2.85793 4.39547 3.4325C4.13079 4.08927 3.97988 4.78632 3.94922 5.49375L3.94922 12.5063C3.96291 13.2106 4.09583 13.9075 4.34234 14.5675C4.56068 15.1323 4.89463 15.6452 5.32278 16.0733C5.75093 16.5015 6.26383 16.8354 6.82859 17.0537C7.50205 17.3244 8.21758 17.4754 8.94297 17.5H15.9555C16.6598 17.4863 17.3568 17.3534 18.0167 17.1069C18.5815 16.8885 19.0944 16.5546 19.5225 16.1264C19.9507 15.6983 20.2846 15.1854 20.503 14.6206C20.7736 13.9472 20.9246 13.2316 20.9492 12.5063V9V5.49375ZM19.4192 12.4319C19.4118 12.9728 19.3111 13.5083 19.1217 14.015C18.9803 14.3821 18.7635 14.7154 18.4853 14.9936C18.2072 15.2718 17.8738 15.4886 17.5067 15.63C16.9999 15.819 16.4644 15.9196 15.9236 15.9275H9.05984C8.51902 15.9194 7.98358 15.8188 7.47672 15.63C7.10964 15.4886 6.77628 15.2718 6.49811 14.9936C6.21995 14.7154 6.00316 14.3821 5.86172 14.015C5.67232 13.5083 5.57168 12.9728 5.56422 12.4319V9V5.56812C5.57168 5.02724 5.67232 4.49169 5.86172 3.985C5.99845 3.62201 6.20871 3.29118 6.4793 3.01327C6.7499 2.73536 7.075 2.51636 7.43422 2.37C7.94091 2.1806 8.47646 2.07996 9.01734 2.0725H15.8811C16.422 2.07996 16.9575 2.1806 17.4642 2.37C17.8313 2.51144 18.1647 2.72823 18.4428 3.00639C18.721 3.28456 18.9378 3.61792 19.0792 3.985C19.2686 4.49169 19.3693 5.02724 19.3767 5.56812V9C19.3767 9 19.4086 11.5394 19.3661 12.4319H19.4192ZM12.4492 4.63313C11.5855 4.63313 10.7412 4.88924 10.0231 5.36908C9.30498 5.84891 8.74527 6.53093 8.41475 7.32887C8.08423 8.12681 7.99776 9.00484 8.16625 9.85193C8.33475 10.699 8.75065 11.4771 9.36137 12.0878C9.97209 12.6986 10.7502 13.1145 11.5973 13.283C12.4444 13.4515 13.3224 13.365 14.1203 13.0345C14.9183 12.7039 15.6003 12.1442 16.0801 11.4261C16.56 10.708 16.8161 9.86369 16.8161 9C16.8161 7.84183 16.356 6.7311 15.5371 5.91215C14.7181 5.0932 13.6074 4.63313 12.4492 4.63313ZM12.4492 11.8263C11.8877 11.8262 11.3388 11.6596 10.872 11.3474C10.4053 11.0352 10.0417 10.5915 9.82729 10.0725C9.61289 9.55354 9.55733 8.9826 9.66766 8.43201C9.77798 7.88142 10.0492 7.37596 10.447 6.97964C10.8448 6.58332 11.3513 6.31398 11.9023 6.20572C12.4533 6.09746 13.024 6.15516 13.5422 6.37151C14.0604 6.58785 14.5027 6.95311 14.8132 7.42103C15.1236 7.88895 15.2882 8.43847 15.2861 9C15.2861 9.75239 14.9872 10.474 14.4552 11.006C13.9232 11.538 13.2016 11.8369 12.4492 11.8369V11.8263ZM16.9861 3.4325C16.776 3.4325 16.5705 3.49481 16.3958 3.61156C16.2211 3.72831 16.0849 3.89425 16.0045 4.0884C15.9241 4.28255 15.903 4.49618 15.944 4.70228C15.985 4.90839 16.0862 5.09771 16.2348 5.2463C16.3834 5.39489 16.5727 5.49609 16.7788 5.53708C16.9849 5.57808 17.1985 5.55704 17.3927 5.47662C17.5868 5.3962 17.7528 5.26002 17.8695 5.08529C17.9863 4.91057 18.0486 4.70514 18.0486 4.495C18.0458 4.21505 17.9326 3.94752 17.7337 3.75056C17.5347 3.55359 17.2661 3.44311 16.9861 3.44313V3.4325Z" fill="black"/>
</svg>
