<svg width="24" height="18" viewBox="0 0 24 18" fill="none" xmlns="http://www.w3.org/2000/svg">
<path d="M20.7687 5.40039C20.7687 5.40039 20.5688 4.15039 20.0688 3.60039C19.3687 2.90039 18.6187 2.90039 18.2687 2.85039C15.7687 2.65039 11.9688 2.65039 11.9688 2.65039C11.9688 2.65039 8.16875 2.65039 5.66875 2.85039C5.31875 2.90039 4.56875 2.90039 3.86875 3.60039C3.31875 4.15039 3.16875 5.40039 3.16875 5.40039C3.16875 5.40039 2.96875 6.85039 2.96875 8.30039V9.65039C2.96875 11.1004 3.16875 12.5504 3.16875 12.5504C3.16875 12.5504 3.36875 13.8004 3.86875 14.3504C4.56875 15.0504 5.46875 15.0504 5.86875 15.1004C7.31875 15.2504 11.9688 15.3004 11.9688 15.3004C11.9688 15.3004 15.7687 15.3004 18.2687 15.1004C18.6187 15.0504 19.3687 15.0504 20.0688 14.3504C20.6187 13.8004 20.7687 12.5504 20.7687 12.5504C20.7687 12.5504 20.9688 11.1004 20.9688 9.65039V8.30039C20.9688 6.85039 20.7687 5.40039 20.7687 5.40039ZM10.1187 11.3504V6.30039L14.9688 8.85039L10.1187 11.3504Z" fill="black"/>
</svg>
