<svg width="186" height="33" viewBox="0 0 186 33" fill="none" xmlns="http://www.w3.org/2000/svg">
<g clip-path="url(#clip0_1800_271)">
<path d="M22.0346 0.5L32.1575 32.0636H26.477L16.3541 0.5H22.0346ZM0.550781 32.0636H6.23125L16.3541 0.5H10.6737L0.550781 32.0636ZM55.9718 20.6455C55.9718 27.0455 52.549 32.5 46.3587 32.5C42.863 32.5 40.2413 30.3909 39.1489 27.2636H39.0032V32.0636H34.1238V0.5H39.0032V13.9545H39.1489C40.2413 10.8273 42.9358 8.71818 46.3587 8.71818C52.4761 8.71818 55.9718 14.2455 55.9718 20.6455ZM50.7283 20.6455C50.7283 15.7727 48.5435 12.4273 44.7565 12.4273C40.8967 12.4273 38.7847 15.7 38.7847 20.6455C38.7847 25.5182 40.8967 28.8636 44.7565 28.8636C48.5435 28.7909 50.7283 25.4455 50.7283 20.6455ZM70.173 8.71818C66.823 8.71818 64.4197 10.4636 63.4729 13.6636H63.4001V9.15455H58.5207V31.9909H63.5458V18.3182C63.5458 14.5364 65.0751 12.5 68.1338 12.5C71.1926 12.5 72.7219 14.3909 72.7219 18.6818V32.0636H77.7469V17.1545C77.6741 12.1364 75.198 8.71818 70.173 8.71818ZM102.581 20.5727C102.581 26.7545 98.3569 32.4273 91.3655 32.4273C84.3742 32.4273 80.1502 26.7545 80.1502 20.5727C80.1502 14.3909 84.3742 8.71818 91.3655 8.71818C98.3569 8.71818 102.581 14.4636 102.581 20.5727ZM97.4101 20.5727C97.4101 15.7 95.2253 12.3545 91.4383 12.3545C87.6514 12.3545 85.4666 15.6273 85.4666 20.5727C85.4666 25.4455 87.6514 28.7909 91.4383 28.7909C95.2253 28.7909 97.4101 25.4455 97.4101 20.5727ZM144.82 8.71818C141.47 8.71818 139.067 10.4636 138.12 13.6636H138.047C137.101 10.6818 134.77 8.71818 130.983 8.71818C127.706 8.71818 125.521 10.4636 124.574 13.6636H124.502V9.15455H119.622V31.9909H124.647V18.3182C124.647 14.5364 126.031 12.5 129.163 12.5C132.148 12.5 133.605 14.3909 133.605 18.6818V32.0636H138.63V18.3182C138.63 14.5364 139.941 12.5 143.072 12.5C146.058 12.5 147.515 14.3909 147.515 18.6818V32.0636H152.54V17.1545C152.394 12.1364 149.918 8.71818 144.82 8.71818ZM171.912 9.15455H176.791V31.9909H171.912V27.1909H171.766C170.674 30.3182 167.979 32.4273 164.556 32.4273C158.366 32.4273 154.943 26.9727 154.943 20.5727C154.943 14.1727 158.439 8.71818 164.556 8.71818C168.052 8.71818 170.674 10.7545 171.766 13.9545H171.912V9.15455ZM172.13 20.6455C172.13 15.7727 169.8 12.4273 166.158 12.4273C162.517 12.4273 160.259 15.7 160.259 20.6455C160.259 25.5182 162.517 28.8636 166.158 28.8636C169.8 28.7909 172.13 25.4455 172.13 20.6455ZM180.214 0.5V32.0636H185.239V0.5H180.214ZM105.13 32.0636H110.155V12.8636H117V9.15455H105.203V32.0636H105.13Z" fill="black"/>
</g>
<defs>
<clipPath id="clip0_1800_271">
<rect width="184.615" height="32" fill="white" transform="translate(0.550781 0.5)"/>
</clipPath>
</defs>
</svg>
