<svg width="68" height="33" viewBox="0 0 68 33" fill="none" xmlns="http://www.w3.org/2000/svg">
<g clip-path="url(#clip0_1800_275)">
<path fill-rule="evenodd" clip-rule="evenodd" d="M0.915669 30.0924C0.915669 30.516 1.24677 30.8112 1.66433 30.8112C2.13091 30.8112 2.43795 30.4549 2.43795 29.9328C2.43795 29.3978 2.13091 29.0487 1.67057 29.0487C1.30203 29.0487 1.04401 29.2382 0.915669 29.54V30.0924ZM0.915669 31.0319C0.915669 31.3453 0.755687 31.4434 0.535099 31.4434H0.442407C0.203548 31.4434 0.0498047 31.3516 0.0498047 31.0319V27.2482C0.0498047 27.2179 0.203548 27.1501 0.375562 27.1501C0.633584 27.1501 0.915669 27.2861 0.915669 27.8439V28.8453C1.13046 28.5448 1.46202 28.354 1.88581 28.354C2.68973 28.354 3.27262 28.9622 3.27262 29.9203C3.27262 30.8535 2.70756 31.4992 1.87333 31.4992C1.41255 31.4992 1.08144 31.2713 0.915669 30.9828" fill="#00A650"/>
<path fill-rule="evenodd" clip-rule="evenodd" d="M3.50219 31.5294C3.64301 31.591 3.77892 31.6338 3.9135 31.6579C4.14033 31.7007 4.39211 31.7007 4.55789 31.5294C4.65014 31.4242 4.69292 31.3444 4.71163 31.2963C4.72411 31.265 4.73035 31.241 4.72411 31.2222C4.58284 31.2044 4.49639 31.1549 4.44113 31.031L3.41039 28.6362C3.39167 28.5871 3.61894 28.3843 3.88231 28.3843C4.08507 28.3843 4.25085 28.4703 4.3676 28.8145L5.01867 30.5285L5.59488 28.8208C5.6996 28.477 5.88409 28.3843 6.07438 28.3843C6.31992 28.3843 6.55299 28.5814 6.54096 28.6246L5.44782 31.4857C5.31903 31.8063 5.08641 32.2295 4.50887 32.3766C4.03605 32.5001 2.88186 32.2295 3.50219 31.5294Z" fill="#00A650"/>
<path d="M11.5879 30.211C11.5879 30.4705 11.5215 30.6943 11.3891 30.8847C11.2568 31.0733 11.0709 31.2182 10.8343 31.3194C10.5963 31.4202 10.3245 31.4701 10.0183 31.4701C9.93189 31.4701 9.82672 31.4647 9.70195 31.4536C9.57717 31.442 9.41229 31.4121 9.20551 31.3626C8.99918 31.3127 8.78483 31.2391 8.56202 31.1419V30.1236C8.77102 30.2538 8.97557 30.3612 9.17744 30.4482C9.37931 30.5338 9.59544 30.5766 9.82672 30.5766C10.0393 30.5766 10.1765 30.5414 10.2398 30.4705C10.3022 30.3987 10.3334 30.3327 10.3334 30.2712C10.3334 30.1588 10.2795 30.0643 10.1725 29.9871C10.0651 29.91 9.90917 29.8306 9.70462 29.7486C9.47779 29.6527 9.27904 29.5484 9.10747 29.4351C8.93679 29.3215 8.79642 29.1801 8.68813 29.0102C8.57984 28.8404 8.52637 28.6393 8.52637 28.407C8.52637 28.1823 8.58073 27.9798 8.69081 27.7997C8.79954 27.6178 8.9671 27.4738 9.19259 27.3663C9.41763 27.2571 9.69259 27.2031 10.0175 27.2031C10.2483 27.2031 10.4626 27.2259 10.6592 27.27C10.8544 27.3155 11.0166 27.3663 11.1454 27.4229C11.2724 27.4782 11.3601 27.5228 11.4078 27.5549V28.53C11.238 28.4083 11.0495 28.2995 10.8405 28.2037C10.6315 28.1073 10.4087 28.0592 10.1721 28.0592C10.0161 28.0592 9.90337 28.0895 9.83296 28.1497C9.76344 28.2095 9.72868 28.2839 9.72868 28.3709C9.72868 28.4538 9.763 28.5247 9.83207 28.5849C9.90248 28.6446 10.0264 28.7173 10.2055 28.8038C10.525 28.9532 10.7813 29.0892 10.9729 29.2091C11.1645 29.329 11.3151 29.4673 11.4239 29.6246C11.5331 29.7811 11.5879 29.9773 11.5879 30.211Z" fill="#373535"/>
<path d="M14.8786 31.2761C14.7881 31.3104 14.6932 31.3412 14.5934 31.3701C14.4936 31.4 14.3813 31.4232 14.257 31.4419C14.1313 31.4616 13.9949 31.4709 13.847 31.4709C13.5136 31.4709 13.2316 31.4147 12.9998 31.3015C12.7699 31.1878 12.5916 31.0469 12.4668 30.8752C12.3425 30.7045 12.2561 30.5306 12.2075 30.3518C12.1598 30.1743 12.1357 30.0174 12.1357 29.8818C12.1357 29.7463 12.1598 29.5893 12.2093 29.411C12.2583 29.2331 12.3434 29.061 12.4655 28.8956C12.5872 28.7297 12.7641 28.5901 12.9945 28.4787C13.2253 28.3672 13.5096 28.311 13.847 28.311C14.0729 28.311 14.257 28.3275 14.3987 28.3592C14.5404 28.3913 14.6848 28.4332 14.8305 28.488V29.3352C14.4789 29.2233 14.2039 29.1671 14.0061 29.1671C13.8144 29.1671 13.6438 29.2255 13.4949 29.3414C13.347 29.4569 13.2721 29.6379 13.2721 29.8818C13.2721 30.0441 13.3095 30.1806 13.3826 30.292C13.4566 30.4026 13.5502 30.4838 13.6647 30.5368C13.7783 30.5881 13.892 30.6148 14.0061 30.6148C14.1144 30.6148 14.2365 30.5983 14.3755 30.5662C14.5123 30.5346 14.6799 30.4882 14.8786 30.4285" fill="#373535"/>
<path d="M18.6632 31.4188H17.5861V29.8347C17.5861 29.8226 17.5861 29.811 17.5879 29.7999C17.5888 29.7892 17.5897 29.766 17.5897 29.7299C17.5897 29.5841 17.5576 29.4503 17.4961 29.3277C17.4341 29.2051 17.316 29.1445 17.1431 29.1445C17.0068 29.1445 16.8865 29.1904 16.7831 29.2818C16.6792 29.3719 16.5803 29.4869 16.4867 29.6247V31.4188H15.4092V27.2625H16.4867V28.8029C16.6645 28.613 16.8397 28.4832 17.0135 28.4141C17.1873 28.3455 17.3722 28.3111 17.5678 28.3111C18.2987 28.3111 18.6632 28.7218 18.6632 29.5435" fill="#373535"/>
<path d="M22.5621 31.4187H21.4854V29.7717C21.4854 29.6036 21.4574 29.4578 21.403 29.3321C21.3477 29.2077 21.2274 29.1444 21.0411 29.1444C20.9533 29.1444 20.8762 29.1613 20.8098 29.1943C20.7421 29.2269 20.6819 29.2701 20.6298 29.3223C20.5768 29.3735 20.5322 29.4235 20.4966 29.4716C20.4609 29.5193 20.4235 29.5706 20.3852 29.6246V31.4187H19.3076V28.3623H20.3852V28.8028C20.5549 28.6205 20.7252 28.4934 20.8954 28.4198C21.0661 28.3467 21.2564 28.311 21.4658 28.311C22.1967 28.311 22.5621 28.7484 22.5621 29.6246" fill="#373535"/>
<path d="M25.3315 29.6174C25.3315 29.4226 25.2825 29.2665 25.1853 29.1506C25.0877 29.0338 24.9474 28.9754 24.7651 28.9754C24.5833 28.9754 24.4371 29.0342 24.3257 29.1528C24.2143 29.2714 24.159 29.4266 24.159 29.6174H25.3315ZM26.3422 30.1494H24.1885C24.2303 30.3357 24.3333 30.4882 24.4977 30.6064C24.6622 30.7245 24.8484 30.7838 25.0565 30.7838C25.4211 30.7838 25.8239 30.6817 26.2642 30.4766V31.1463C26.1069 31.2284 25.9144 31.3033 25.6902 31.3701C25.4647 31.4375 25.1791 31.4709 24.8297 31.4709C24.4549 31.4709 24.1341 31.4 23.8698 31.2609C23.6065 31.1209 23.4086 30.9314 23.2776 30.6911C23.1466 30.4517 23.0811 30.1797 23.0811 29.8756C23.0811 29.5764 23.1466 29.3071 23.2776 29.0712C23.4086 28.834 23.6065 28.6477 23.8698 28.513C24.1341 28.3779 24.454 28.311 24.8297 28.311C25.0784 28.311 25.3177 28.365 25.549 28.4707C25.7798 28.5786 25.9696 28.752 26.1185 28.9954C26.2673 29.2371 26.3422 29.5497 26.3422 29.9331" fill="#373535"/>
<path d="M27.915 27.6584C27.915 27.785 27.87 27.8915 27.7809 27.9789C27.6917 28.0668 27.5848 28.1114 27.4618 28.1114C27.3776 28.1114 27.3018 28.0913 27.2341 28.0516C27.1646 28.0115 27.1102 27.9571 27.0705 27.8875C27.0313 27.8189 27.0113 27.7426 27.0113 27.6584C27.0113 27.5344 27.0549 27.4278 27.1427 27.3382C27.2301 27.2482 27.3361 27.2031 27.4618 27.2031C27.5848 27.2031 27.6917 27.2482 27.7809 27.3382C27.87 27.4278 27.915 27.5344 27.915 27.6584ZM28.0015 31.4188H26.9248V28.3624H28.0015V31.4188Z" fill="#373535"/>
<path d="M30.9 30.4496V29.281C30.7739 29.2114 30.674 29.161 30.6032 29.1312C30.5332 29.1017 30.449 29.0861 30.3523 29.0861C30.1816 29.0861 30.0399 29.1584 29.9258 29.3028C29.8131 29.4469 29.756 29.6426 29.756 29.8905C29.756 30.1611 29.8162 30.3587 29.9352 30.4817C30.0546 30.6048 30.1941 30.6663 30.3523 30.6663C30.4824 30.6663 30.5876 30.6462 30.6678 30.6039C30.748 30.5633 30.826 30.512 30.9 30.4496ZM31.9771 31.4194H30.9V31.1434C30.7863 31.2379 30.6656 31.3164 30.5377 31.3784C30.4107 31.4399 30.2355 31.4711 30.0109 31.4711C29.7881 31.4711 29.5702 31.4158 29.3554 31.3066C29.1415 31.1956 28.965 31.0248 28.8273 30.792C28.6892 30.5589 28.6201 30.2655 28.6201 29.9119C28.6201 29.6341 28.6723 29.3746 28.7765 29.1312C28.8813 28.8882 29.0439 28.6907 29.2663 28.5386C29.4891 28.3875 29.7609 28.3112 30.0836 28.3112C30.2828 28.3112 30.445 28.3335 30.5698 28.3768C30.6936 28.4209 30.8033 28.4771 30.9 28.5457V27.2634H31.9771" fill="#373535"/>
<path d="M34.7846 29.6174C34.7846 29.4226 34.7352 29.2665 34.638 29.1506C34.5404 29.0338 34.4 28.9754 34.2178 28.9754C34.0364 28.9754 33.8898 29.0342 33.7784 29.1528C33.667 29.2714 33.6117 29.4266 33.6117 29.6174H34.7846ZM35.7953 30.1494H33.6416C33.6835 30.3357 33.7869 30.4882 33.9508 30.6064C34.1153 30.7245 34.3011 30.7838 34.5092 30.7838C34.8742 30.7838 35.277 30.6817 35.7173 30.4766V31.1463C35.5596 31.2284 35.3675 31.3033 35.1429 31.3701C34.9179 31.4375 34.6318 31.4709 34.2828 31.4709C33.9081 31.4709 33.5868 31.4 33.3225 31.2609C33.0591 31.1209 32.8613 30.9314 32.7303 30.6911C32.5992 30.4517 32.5342 30.1797 32.5342 29.8756C32.5342 29.5764 32.5992 29.3071 32.7303 29.0712C32.8613 28.834 33.0591 28.6477 33.3225 28.513C33.5868 28.3779 33.9072 28.311 34.2828 28.311C34.5311 28.311 34.7704 28.365 35.0016 28.4707C35.2325 28.5786 35.4228 28.752 35.5716 28.9954C35.7205 29.2371 35.7953 29.5497 35.7953 29.9331" fill="#373535"/>
<path d="M39.01 28.5286L38.612 29.6076C38.4476 29.4516 38.2822 29.3735 38.1142 29.3735C37.9623 29.3735 37.8313 29.4253 37.7199 29.5287C37.6093 29.6321 37.5033 29.8225 37.4012 30.1012V31.4187H36.3232V28.3623H37.4012V29.0984C37.4681 28.9174 37.5879 28.7413 37.7604 28.5692C37.9315 28.3975 38.1343 28.311 38.3656 28.311C38.4881 28.311 38.5942 28.3289 38.6851 28.3641C38.7756 28.4007 38.8847 28.4551 39.01 28.5286Z" fill="#373535"/>
<path d="M41.9248 27.875H43.9319V28.3258H42.4337V29.4101H43.8874V29.8685H42.4337V30.9689H43.9832V31.4188H41.9248" fill="#373535"/>
<path d="M45.4639 31.4188H45.9282V27.875H45.4639V31.4188Z" fill="#373535"/>
<path d="M47.9358 30.0162H49.1087C49.0967 29.8299 49.0423 29.6854 48.9443 29.5842C48.8462 29.4839 48.7143 29.433 48.549 29.433C48.3841 29.433 48.2482 29.4839 48.1421 29.5842C48.037 29.6854 47.9679 29.8299 47.9358 30.0162ZM49.5668 30.2891H47.9282C47.9398 30.5152 48.0147 30.6944 48.1524 30.8277C48.2887 30.961 48.4665 31.0275 48.684 31.0275C48.987 31.0275 49.266 30.9338 49.5222 30.7466V31.1942C49.3805 31.2878 49.2402 31.3547 49.1007 31.3953C48.9612 31.435 48.7976 31.4564 48.6105 31.4564C48.3542 31.4564 48.1461 31.4024 47.9879 31.2954C47.8293 31.1889 47.7023 31.0453 47.6069 30.8643C47.5111 30.6837 47.4639 30.4746 47.4639 30.2374C47.4639 29.8811 47.5641 29.5922 47.766 29.3693C47.9661 29.1463 48.2281 29.0344 48.549 29.0344C48.8583 29.0344 49.106 29.1428 49.2892 29.3599C49.4741 29.5766 49.5668 29.8664 49.5668 30.2307" fill="#373535"/>
<path d="M52.806 30.8799V31.3347C52.573 31.4203 52.3457 31.4631 52.1229 31.4631C51.7557 31.4631 51.4633 31.3547 51.2445 31.1371C51.0262 30.9205 50.917 30.6289 50.917 30.2641C50.917 29.8963 51.0239 29.5989 51.2374 29.3737C51.45 29.1477 51.7307 29.0344 52.0788 29.0344C52.2 29.0344 52.3083 29.0465 52.4045 29.0688C52.5012 29.0915 52.6198 29.1343 52.7615 29.1967V29.6912C52.5248 29.5391 52.3056 29.4625 52.1042 29.4625C51.8934 29.4625 51.7205 29.5365 51.585 29.6841C51.4495 29.8312 51.3818 30.0202 51.3818 30.2485C51.3818 30.4902 51.4549 30.6801 51.6006 30.8224C51.7463 30.9641 51.9428 31.035 52.1897 31.035C52.3689 31.035 52.5739 30.9838 52.806 30.8799Z" fill="#373535"/>
<path d="M53.9873 29.4538L54.8576 28.5986V29.0869H55.5885V29.4997H54.8576V30.6474C54.8576 30.9163 54.9673 31.0496 55.1865 31.0496C55.3509 31.0496 55.5238 30.9961 55.7061 30.8877V31.314C55.5292 31.4139 55.3362 31.4629 55.1281 31.4629C54.9178 31.4629 54.7431 31.4014 54.6027 31.2774C54.5591 31.24 54.5225 31.1981 54.4935 31.1521C54.4655 31.1053 54.4414 31.0433 54.4218 30.9689C54.4026 30.8931 54.3933 30.7495 54.3933 30.5377V29.4997H53.9873" fill="#373535"/>
<path d="M57.522 29.0861V29.6172L57.5474 29.5757C57.772 29.2146 57.9966 29.0344 58.2198 29.0344C58.3963 29.0344 58.5786 29.1227 58.7684 29.2988L58.5237 29.7068C58.3629 29.5539 58.2131 29.4776 58.075 29.4776C57.9257 29.4776 57.7951 29.5485 57.6864 29.6912C57.5763 29.833 57.522 30.0015 57.522 30.1973V31.4189H57.0576V29.0861" fill="#373535"/>
<path d="M60.0872 29.0861H60.5516V31.4188H60.0872V29.0861ZM60.3194 28.1042C60.3961 28.1042 60.4607 28.131 60.515 28.1832C60.569 28.2353 60.5962 28.2995 60.5962 28.3758C60.5962 28.4507 60.569 28.5144 60.515 28.5693C60.4607 28.6237 60.3961 28.6504 60.3194 28.6504C60.2486 28.6504 60.1857 28.6228 60.1318 28.5675C60.077 28.5131 60.0498 28.448 60.0498 28.3758C60.0498 28.3049 60.077 28.2416 60.1318 28.1872C60.1857 28.1319 60.2486 28.1042 60.3194 28.1042Z" fill="#373535"/>
<path d="M63.954 30.8799V31.3347C63.7214 31.4203 63.4937 31.4631 63.2709 31.4631C62.9037 31.4631 62.6113 31.3547 62.3925 31.1371C62.1746 30.9205 62.0654 30.6289 62.0654 30.2641C62.0654 29.8963 62.1719 29.5989 62.3858 29.3737C62.5984 29.1477 62.8787 29.0344 63.2272 29.0344C63.348 29.0344 63.4562 29.0465 63.553 29.0688C63.6497 29.0915 63.7682 29.1343 63.9099 29.1967V29.6912C63.6728 29.5391 63.454 29.4625 63.2521 29.4625C63.0418 29.4625 62.8689 29.5365 62.733 29.6841C62.5975 29.8312 62.5298 30.0202 62.5298 30.2485C62.5298 30.4902 62.6029 30.6801 62.7486 30.8224C62.8943 30.9641 63.0908 31.035 63.3377 31.035C63.5169 31.035 63.7218 30.9838 63.954 30.8799Z" fill="#373535"/>
<path d="M0.299805 22.7936H63.9495V22.4404H0.299805V22.7936Z" fill="#373535"/>
<path fill-rule="evenodd" clip-rule="evenodd" d="M11.5517 17.9553L9.28747 13.9144H17.4706L13.361 5.20433L7.33559 17.9553H0.12793L9.5651 0.743408H17.1569L26.5245 17.9553" fill="#ED1C24"/>
<path fill-rule="evenodd" clip-rule="evenodd" d="M26.5595 7.95624H35.543C37.8082 7.95624 38.7119 7.81624 38.7119 6.21378C38.7119 4.67955 37.9811 4.50566 35.6469 4.50566H26.5243L24.5029 0.743408H37.1794C43.1709 0.743408 45.3978 3.35799 45.3978 6.14378C45.3978 8.82747 43.3447 11.788 36.7632 11.788H33.7663V17.9553H26.5243V7.95624" fill="#ED1C24"/>
<path fill-rule="evenodd" clip-rule="evenodd" d="M64.1707 16.6663C62.0112 17.6767 59.3302 18.1658 56.4742 18.1658C47.8374 18.1658 44.8779 13.3562 44.8779 9.38484C44.8779 4.36836 49.2656 0.5 56.8236 0.5C59.574 0.5 61.9764 0.916888 63.9951 1.68423V6.66682C61.9069 5.55259 60.0954 5.06392 57.9711 5.06392C54.3494 5.06392 51.3891 6.70026 51.3891 9.31395C51.3891 11.8929 54.4189 13.5658 58.0406 13.5658C60.1311 13.5658 61.8369 13.1489 64.1707 12.0676" fill="#ED1C24"/>
<path d="M66.144 3.09368C66.3045 3.09368 66.448 3.08208 66.448 2.88858C66.448 2.73341 66.3067 2.70443 66.1748 2.70443H65.9159V3.09368H66.144ZM65.9159 3.79815H65.7265V2.54392H66.2046C66.5001 2.54392 66.6458 2.65316 66.6458 2.90106C66.6458 3.12489 66.5055 3.22253 66.3205 3.24572L66.677 3.79815H66.4658L66.1351 3.25374H65.9159V3.79815ZM66.1472 4.07682C66.6369 4.07682 67.0264 3.6907 67.0264 3.16769C67.0264 2.65316 66.6369 2.26525 66.1472 2.26525C65.6476 2.26525 65.2612 2.65316 65.2612 3.16769C65.2612 3.6907 65.6476 4.07682 66.1472 4.07682ZM65.042 3.16769C65.042 2.54392 65.5491 2.08423 66.1472 2.08423C66.7376 2.08423 67.2439 2.54392 67.2439 3.16769C67.2439 3.79815 66.7376 4.25784 66.1472 4.25784C65.5491 4.25784 65.042 3.79815 65.042 3.16769Z" fill="#231F20"/>
</g>
<defs>
<clipPath id="clip0_1800_275">
<rect width="67.0802" height="32" fill="white" transform="translate(0.166992 0.5)"/>
</clipPath>
</defs>
</svg>
