<svg width="155" height="33" viewBox="0 0 155 33" fill="none" xmlns="http://www.w3.org/2000/svg">
<g clip-path="url(#clip0_1800_10)">
<path d="M43.0382 20.5106L41.5226 25.9014H36.5859L43.0382 4.94189H49.2739L55.7695 25.8583H50.6597L49.0574 20.4675L43.0382 20.5106ZM48.3646 16.9742L47.0654 12.5322C46.6757 11.2815 46.3293 9.72896 46.0261 8.47829H45.9828C45.6796 9.72896 45.3765 11.3246 45.0301 12.5322L43.731 16.9742H48.3646Z" fill="#282827"/>
<path d="M57.9346 15.8099C57.9346 13.8261 57.8913 12.1011 57.8047 10.721H61.9185L62.1351 12.8342H62.1784C63.3043 11.2385 65.0365 10.376 67.245 10.376C70.5794 10.376 73.5673 13.2654 73.5673 18.0956C73.5673 23.6158 70.0597 26.2466 66.6387 26.2466C64.82 26.2466 63.3476 25.5135 62.6981 24.5216H62.6547V32.0687H57.9346L57.9346 15.8099ZM62.6547 19.3894C62.6547 19.7776 62.6981 20.1226 62.7413 20.3814C63.0444 21.6752 64.127 22.6239 65.5127 22.6239C67.5913 22.6239 68.8038 20.8989 68.8038 18.3544C68.8038 15.9393 67.7212 14.0849 65.5994 14.0849C64.2569 14.0849 63.0877 15.0768 62.7413 16.4568C62.6979 16.7156 62.6547 17.0175 62.6547 17.2763V19.3894Z" fill="#282827"/>
<path d="M76.255 15.8099C76.255 13.8261 76.2116 12.1011 76.125 10.721H80.2388L80.4554 12.8342H80.4987C81.6246 11.2385 83.3568 10.376 85.5653 10.376C88.8996 10.376 91.8876 13.2654 91.8876 18.0956C91.8876 23.6158 88.38 26.2466 84.959 26.2466C83.1403 26.2466 81.6679 25.5135 81.0184 24.5216H80.975V32.0687H76.2549L76.255 15.8099ZM81.0184 19.3894C81.0184 19.7776 81.0617 20.1226 81.105 20.3814C81.4081 21.6752 82.4907 22.6239 83.8764 22.6239C85.955 22.6239 87.1675 20.8989 87.1675 18.3544C87.1675 15.9393 86.0849 14.0849 83.963 14.0849C82.6206 14.0849 81.4514 15.0768 81.105 16.4568C81.0617 16.7156 81.0184 17.0175 81.0184 17.2763V19.3894Z" fill="#282827"/>
<path d="M95.0469 25.9015V4.94199H97.9915L104.747 15.5511C106.306 18.0094 107.518 20.2088 108.514 22.3652L108.558 22.322C108.298 19.5187 108.255 16.9743 108.255 13.7398V4.94189H110.81V25.8584H108.081L101.413 15.2923C99.9403 12.9635 98.5545 10.5915 97.4719 8.30578L97.3854 8.34901C97.5586 10.9797 97.6019 13.5242 97.6019 16.9743V25.9015H95.0469Z" fill="#282827"/>
<path d="M116.7 18.8719C116.743 22.5808 119.125 24.0903 121.896 24.0903C123.845 24.0903 125.057 23.7453 126.053 23.314L126.53 25.2547C125.577 25.6859 123.932 26.2035 121.507 26.2035C116.873 26.2035 114.102 23.1415 114.102 18.6132C114.102 14.0849 116.786 10.5054 121.16 10.5054C126.097 10.5054 127.396 14.8181 127.396 17.5782C127.396 18.1388 127.352 18.5701 127.309 18.8719H116.7ZM124.754 16.9312C124.798 15.2062 124.018 12.4892 120.944 12.4892C118.172 12.4892 116.96 15.0337 116.743 16.9312H124.754Z" fill="#282827"/>
<path d="M133.804 6.5376V10.8503H137.744V12.9203H133.804V21.0282C133.804 22.8826 134.323 23.9608 135.882 23.9608C136.619 23.9608 137.138 23.8746 137.485 23.7883L137.615 25.8584C137.095 26.074 136.229 26.2465 135.19 26.2465C133.89 26.2465 132.894 25.8583 132.245 25.0821C131.465 24.2627 131.206 22.9258 131.206 21.1576V12.9635H128.867V10.8934H131.206V7.27076L133.804 6.5376Z" fill="#282827"/>
<path d="M148.836 25.9016L148.619 24.004H148.533C147.71 25.1684 146.064 26.2466 143.899 26.2466C140.825 26.2466 139.266 24.0903 139.266 21.934C139.266 18.3113 142.513 16.3275 148.359 16.3275V16.0256C148.359 14.7749 148.013 12.5323 144.938 12.5323C143.553 12.5323 142.08 12.9636 140.998 13.6536L140.392 11.8423C141.647 11.0229 143.466 10.5054 145.328 10.5054C149.962 10.5054 151.044 13.6536 151.044 16.6725V22.2789C151.044 23.5727 151.088 24.8665 151.304 25.9016H148.836ZM148.446 18.2251C145.458 18.1819 142.037 18.6995 142.037 21.589C142.037 23.3571 143.206 24.1765 144.635 24.1765C146.584 24.1765 147.84 22.9259 148.273 21.6752C148.359 21.4164 148.446 21.0714 148.446 20.8127V18.2251Z" fill="#282827"/>
<path d="M154.374 8.65099C154.374 9.4704 153.725 10.0741 152.902 10.0741C152.079 10.0741 151.43 9.42727 151.43 8.65099C151.43 7.87471 152.079 7.22778 152.902 7.22778C153.768 7.22778 154.374 7.87471 154.374 8.65099ZM151.819 8.65099C151.819 9.29788 152.296 9.77225 152.945 9.77225C153.552 9.77225 154.028 9.25477 154.028 8.65099C154.028 8.00408 153.552 7.52967 152.945 7.52967C152.296 7.52967 151.819 8.04721 151.819 8.65099ZM152.729 9.3841H152.382V7.96095C152.512 7.91775 152.685 7.91772 152.945 7.91772C153.205 7.91772 153.335 7.96094 153.422 8.00398C153.508 8.04717 153.552 8.1765 153.552 8.30587C153.552 8.47839 153.422 8.56463 153.248 8.65089C153.378 8.69408 153.465 8.82339 153.508 8.99591C153.552 9.21154 153.595 9.29779 153.595 9.34092H153.292C153.248 9.29773 153.205 9.16841 153.162 8.99591C153.118 8.82339 153.032 8.78027 152.859 8.78027H152.685V9.38405L152.729 9.3841ZM152.729 8.60781H152.902C153.075 8.60781 153.248 8.56466 153.248 8.39222C153.248 8.2628 153.162 8.17659 152.945 8.17659H152.772L152.729 8.60781Z" fill="#282827"/>
<path d="M9.60938 20.9851V27.2816L15.0657 30.4298L20.5219 20.9851" fill="#28BDC0"/>
<path d="M9.60938 20.9852L15.0657 24.1334L20.5219 20.9852L15.0657 17.8369" fill="#5AC6D6"/>
<mask id="mask0_1800_10" style="mask-type:luminance" maskUnits="userSpaceOnUse" x="-21" y="-20" width="197" height="73">
<path d="M-20.2266 -19.9421H175.376V52.942H-20.2266V-19.9421Z" fill="white"/>
</mask>
<g mask="url(#mask0_1800_10)">
<path d="M20.5188 20.9851L15.0625 24.1334V30.4299L20.5188 27.2816" fill="#2CA4BA"/>
</g>
<mask id="mask1_1800_10" style="mask-type:luminance" maskUnits="userSpaceOnUse" x="-21" y="-20" width="197" height="73">
<path d="M-20.2266 -19.9421H175.376V52.942H-20.2266V-19.9421Z" fill="white"/>
</mask>
<g mask="url(#mask1_1800_10)">
<path d="M15.0625 11.5403V17.8368L20.5188 20.985L26.0183 11.5403" fill="#CC2D2D"/>
</g>
<mask id="mask2_1800_10" style="mask-type:luminance" maskUnits="userSpaceOnUse" x="-21" y="-20" width="197" height="73">
<path d="M-20.2266 -19.9421H175.376V52.942H-20.2266V-19.9421Z" fill="white"/>
</mask>
<g mask="url(#mask2_1800_10)">
<path d="M15.0625 11.5403L20.5188 14.6886L26.0183 11.5403L20.5188 8.39209" fill="#E12226"/>
</g>
<mask id="mask3_1800_10" style="mask-type:luminance" maskUnits="userSpaceOnUse" x="-21" y="-20" width="197" height="73">
<path d="M-20.2266 -19.9421H175.376V52.942H-20.2266V-19.9421Z" fill="white"/>
</mask>
<g mask="url(#mask3_1800_10)">
<path d="M26.023 11.5403L20.5234 14.6885V20.985L26.023 17.8368" fill="#AD2C2C"/>
</g>
<mask id="mask4_1800_10" style="mask-type:luminance" maskUnits="userSpaceOnUse" x="-21" y="-20" width="197" height="73">
<path d="M-20.2266 -19.9421H175.376V52.942H-20.2266V-19.9421Z" fill="white"/>
</mask>
<g mask="url(#mask4_1800_10)">
<path d="M4.10938 11.5403V17.8368L9.60895 20.985L15.0652 11.5403" fill="#A8B94D"/>
</g>
<mask id="mask5_1800_10" style="mask-type:luminance" maskUnits="userSpaceOnUse" x="-21" y="-20" width="197" height="73">
<path d="M-20.2266 -19.9421H175.376V52.942H-20.2266V-19.9421Z" fill="white"/>
</mask>
<g mask="url(#mask5_1800_10)">
<path d="M4.10938 11.5403L9.60895 14.6886L15.0652 11.5403L9.60895 8.39209" fill="#BAC83C"/>
</g>
<mask id="mask6_1800_10" style="mask-type:luminance" maskUnits="userSpaceOnUse" x="-21" y="-20" width="197" height="73">
<path d="M-20.2266 -19.9421H175.376V52.942H-20.2266V-19.9421Z" fill="white"/>
</mask>
<g mask="url(#mask6_1800_10)">
<path d="M15.0656 11.5403L9.60938 14.6885V20.985L15.0656 17.8368" fill="#819E5D"/>
</g>
<mask id="mask7_1800_10" style="mask-type:luminance" maskUnits="userSpaceOnUse" x="-21" y="-20" width="197" height="73">
<path d="M-20.2266 -19.9421H175.376V52.942H-20.2266V-19.9421Z" fill="white"/>
</mask>
<g mask="url(#mask7_1800_10)">
<path d="M9.60938 14.6885V20.985L15.0656 24.1332L20.5219 14.6885" fill="#FFCE00"/>
</g>
<mask id="mask8_1800_10" style="mask-type:luminance" maskUnits="userSpaceOnUse" x="-21" y="-20" width="197" height="73">
<path d="M-20.2266 -19.9421H175.376V52.942H-20.2266V-19.9421Z" fill="white"/>
</mask>
<g mask="url(#mask8_1800_10)">
<path d="M9.60938 14.6885L15.0656 17.8368L20.5219 14.6885L15.0656 11.5403" fill="#FFE000"/>
</g>
<mask id="mask9_1800_10" style="mask-type:luminance" maskUnits="userSpaceOnUse" x="-21" y="-20" width="197" height="73">
<path d="M-20.2266 -19.9421H175.376V52.942H-20.2266V-19.9421Z" fill="white"/>
</mask>
<g mask="url(#mask9_1800_10)">
<path d="M20.5188 14.6887L15.0625 17.837V24.1335L20.5188 20.9852" fill="#E4BE44"/>
</g>
<mask id="mask10_1800_10" style="mask-type:luminance" maskUnits="userSpaceOnUse" x="-21" y="-20" width="197" height="73">
<path d="M-20.2266 -19.9421H175.376V52.942H-20.2266V-19.9421Z" fill="white"/>
</mask>
<g mask="url(#mask10_1800_10)">
<path d="M11.6875 2.87183V6.75323L15.0652 8.6508L18.3996 2.87183" fill="#28BDC0"/>
</g>
<mask id="mask11_1800_10" style="mask-type:luminance" maskUnits="userSpaceOnUse" x="-21" y="-20" width="197" height="73">
<path d="M-20.2266 -19.9421H175.376V52.942H-20.2266V-19.9421Z" fill="white"/>
</mask>
<g mask="url(#mask11_1800_10)">
<path d="M11.6875 2.87185L15.0652 4.81255L18.3996 2.87185L15.0652 0.931152" fill="#5AC6D6"/>
</g>
<mask id="mask12_1800_10" style="mask-type:luminance" maskUnits="userSpaceOnUse" x="-21" y="-20" width="197" height="73">
<path d="M-20.2266 -19.9421H175.376V52.942H-20.2266V-19.9421Z" fill="white"/>
</mask>
<g mask="url(#mask12_1800_10)">
<path d="M18.3969 2.87183L15.0625 4.81253V8.6508L18.3969 6.75323" fill="#2CA4BA"/>
</g>
<mask id="mask13_1800_10" style="mask-type:luminance" maskUnits="userSpaceOnUse" x="-21" y="-20" width="197" height="73">
<path d="M-20.2266 -19.9421H175.376V52.942H-20.2266V-19.9421Z" fill="white"/>
</mask>
<g mask="url(#mask13_1800_10)">
<path d="M22.9922 22.322V26.2034L26.3699 28.1441L29.7043 22.322" fill="#A8B94D"/>
</g>
<mask id="mask14_1800_10" style="mask-type:luminance" maskUnits="userSpaceOnUse" x="-21" y="-20" width="197" height="73">
<path d="M-20.2266 -19.9421H175.376V52.942H-20.2266V-19.9421Z" fill="white"/>
</mask>
<g mask="url(#mask14_1800_10)">
<path d="M22.9922 22.3221L26.3699 24.2628L29.7043 22.3221L26.3699 20.4246" fill="#BAC83C"/>
</g>
<mask id="mask15_1800_10" style="mask-type:luminance" maskUnits="userSpaceOnUse" x="-21" y="-20" width="197" height="73">
<path d="M-20.2266 -19.9421H175.376V52.942H-20.2266V-19.9421Z" fill="white"/>
</mask>
<g mask="url(#mask15_1800_10)">
<path d="M29.7016 22.322L26.3672 24.2627V28.1441L29.7016 26.2034" fill="#819E5D"/>
</g>
<mask id="mask16_1800_10" style="mask-type:luminance" maskUnits="userSpaceOnUse" x="-21" y="-20" width="197" height="73">
<path d="M-20.2266 -19.9421H175.376V52.942H-20.2266V-19.9421Z" fill="white"/>
</mask>
<g mask="url(#mask16_1800_10)">
<path d="M0.429688 22.322V26.2034L3.76407 28.1441L7.14177 22.322" fill="#CC2D2D"/>
</g>
<mask id="mask17_1800_10" style="mask-type:luminance" maskUnits="userSpaceOnUse" x="-21" y="-20" width="197" height="73">
<path d="M-20.2266 -19.9421H175.376V52.942H-20.2266V-19.9421Z" fill="white"/>
</mask>
<g mask="url(#mask17_1800_10)">
<path d="M0.429688 22.3221L3.76407 24.2628L7.14177 22.3221L3.76407 20.4246" fill="#E12226"/>
</g>
<mask id="mask18_1800_10" style="mask-type:luminance" maskUnits="userSpaceOnUse" x="-21" y="-20" width="197" height="73">
<path d="M-20.2266 -19.9421H175.376V52.942H-20.2266V-19.9421Z" fill="white"/>
</mask>
<g mask="url(#mask18_1800_10)">
<path d="M7.14332 22.322L3.76562 24.2627V28.1441L7.14332 26.2034" fill="#AD2C2C"/>
</g>
</g>
<defs>
<clipPath id="clip0_1800_10">
<rect width="154.811" height="32" fill="white" transform="translate(0 0.5)"/>
</clipPath>
</defs>
</svg>
