<svg width="33" height="33" viewBox="0 0 33 33" fill="none" xmlns="http://www.w3.org/2000/svg">
<g clip-path="url(#clip0_1800_346)">
<path d="M15.1789 12.5444L11.2234 15.6111C10.8234 14.1 9.49004 12.9444 7.84559 12.9444H5.00115V19.9667H7.84559C9.49004 19.9667 10.9123 18.8556 11.2234 17.3L15.1789 20.3667L19.1345 17.3V19.9667H23.6234V18.5444H20.69V12.9444H19.0456V15.6111L15.2678 18.6778L14.4678 17.9667L16.29 16.5L18.2456 14.9889L17.1345 14.0556L13.3567 16.9889L12.5567 16.2778L16.3345 13.4333L15.1789 12.5444ZM6.51226 14.3667H7.75671C8.02337 14.3667 8.24559 14.4111 8.46782 14.5444C8.69004 14.6333 8.91226 14.8111 9.09004 14.9889C9.26782 15.1667 9.40115 15.3889 9.53448 15.6556C9.66782 15.9222 9.71226 16.1889 9.71226 16.5C9.71226 16.7667 9.66782 17.0333 9.57893 17.3C9.49004 17.5667 9.35671 17.7889 9.17893 17.9667C9.00115 18.1444 8.77893 18.3222 8.55671 18.4556C8.33448 18.5889 8.06782 18.6333 7.80115 18.6333H6.51226V14.3667ZM28.7345 18.5444V19.9667H24.2456V12.9444H25.89V18.5444H28.7345ZM16.29 0.5C7.53448 0.5 0.290039 7.74444 0.290039 16.5C0.290039 25.2556 7.44559 32.5 16.29 32.5C25.1345 32.5 32.29 25.3444 32.29 16.5C32.29 7.65556 25.0456 0.5 16.29 0.5ZM16.29 2.14444C17.2678 2.14444 18.2456 2.23333 19.1789 2.45556C20.1123 2.63333 21.0012 2.94444 21.89 3.3C22.7345 3.65556 23.5789 4.1 24.3345 4.63333C25.09 5.16667 25.8012 5.74444 26.4678 6.36667C27.1345 6.98889 27.7123 7.74444 28.2012 8.5C28.7345 9.25556 29.1789 10.1 29.5345 10.9444C29.89 11.7889 30.2011 12.7222 30.3789 13.6556C30.5567 14.5889 30.69 15.5667 30.69 16.5444C30.69 17.5222 30.6011 18.5 30.3789 19.4333C30.2011 20.3667 29.89 21.2556 29.5345 22.1444C29.1789 22.9889 28.7345 23.8333 28.2012 24.5889C27.6678 25.3444 27.09 26.0556 26.4678 26.7222C25.8456 27.3889 25.09 27.9667 24.3345 28.4556C23.5789 28.9889 22.7345 29.4333 21.89 29.7889C21.0456 30.1444 20.1123 30.4556 19.1789 30.6333C18.2456 30.8111 17.2678 30.9444 16.29 30.9444C15.3123 30.9444 14.3345 30.8556 13.4012 30.6333C12.4678 30.4556 11.5789 30.1444 10.69 29.7889C9.84559 29.4333 9.00115 28.9889 8.24559 28.4556C7.49004 27.9222 6.77893 27.3444 6.11226 26.7222C5.44559 26.1 4.86782 25.3444 4.37893 24.5889C3.84559 23.8333 3.40115 22.9889 3.04559 22.1444C2.69004 21.3 2.37893 20.3667 2.20115 19.4333C2.02337 18.5 1.89004 17.5222 1.89004 16.5444C1.89004 15.5667 1.97893 14.5889 2.20115 13.6556C2.37893 12.7222 2.69004 11.8333 3.04559 10.9444C3.40115 10.1 3.84559 9.25556 4.37893 8.5C4.91226 7.74444 5.49004 7.03333 6.11226 6.36667C6.73448 5.7 7.49004 5.12222 8.24559 4.63333C9.00115 4.1 9.84559 3.65556 10.69 3.3C11.5345 2.94444 12.4678 2.63333 13.4012 2.45556C14.3345 2.23333 15.3123 2.14444 16.29 2.14444Z" fill="#0076CE"/>
</g>
<defs>
<clipPath id="clip0_1800_346">
<rect width="32" height="32" fill="white" transform="translate(0.290039 0.5)"/>
</clipPath>
</defs>
</svg>
