<svg width="81" height="81" viewBox="0 0 81 81" fill="none" xmlns="http://www.w3.org/2000/svg">
<path d="M37.7222 30.5867L27.8333 38.2534C26.8333 34.4756 23.5 31.5867 19.3889 31.5867H12.2778V49.1423H19.3889C23.5 49.1423 27.0556 46.3645 27.8333 42.4756L37.7222 50.1423L47.6111 42.4756V49.1423H58.8333V45.5867H51.5V31.5867H47.3889V38.2534L37.9444 45.92L35.9444 44.1423L40.5 40.4756L45.3889 36.6978L42.6111 34.3645L33.1667 41.6978L31.1667 39.92L40.6111 32.8089L37.7222 30.5867ZM16.0556 35.1423H19.1667C19.8333 35.1423 20.3889 35.2534 20.9444 35.5867C21.5 35.8089 22.0556 36.2534 22.5 36.6978C22.9444 37.1423 23.2778 37.6978 23.6111 38.3645C23.9444 39.0311 24.0556 39.6978 24.0556 40.4756C24.0556 41.1423 23.9444 41.8089 23.7222 42.4756C23.5 43.1423 23.1667 43.6978 22.7222 44.1423C22.2778 44.5867 21.7222 45.0311 21.1667 45.3645C20.6111 45.6978 19.9444 45.8089 19.2778 45.8089H16.0556V35.1423ZM71.6111 45.5867V49.1423H60.3889V31.5867H64.5V45.5867H71.6111ZM40.5 0.475586C18.6111 0.475586 0.5 18.5867 0.5 40.4756C0.5 62.3645 18.3889 80.4756 40.5 80.4756C62.6111 80.4756 80.5 62.5867 80.5 40.4756C80.5 18.3645 62.3889 0.475586 40.5 0.475586ZM40.5 4.5867C42.9444 4.5867 45.3889 4.80892 47.7222 5.36448C50.0556 5.80892 52.2778 6.5867 54.5 7.47559C56.6111 8.36448 58.7222 9.47559 60.6111 10.8089C62.5 12.1423 64.2778 13.5867 65.9445 15.1423C67.6111 16.6978 69.0556 18.5867 70.2778 20.4756C71.6111 22.3645 72.7222 24.4756 73.6111 26.5867C74.5 28.6978 75.2778 31.0311 75.7222 33.3645C76.1667 35.6978 76.5 38.1423 76.5 40.5867C76.5 43.0311 76.2778 45.4756 75.7222 47.8089C75.2778 50.1423 74.5 52.3645 73.6111 54.5867C72.7222 56.6978 71.6111 58.8089 70.2778 60.6978C68.9445 62.5867 67.5 64.3645 65.9445 66.0311C64.3889 67.6978 62.5 69.1423 60.6111 70.3645C58.7222 71.6978 56.6111 72.8089 54.5 73.6978C52.3889 74.5867 50.0556 75.3645 47.7222 75.8089C45.3889 76.2534 42.9444 76.5867 40.5 76.5867C38.0556 76.5867 35.6111 76.3645 33.2778 75.8089C30.9444 75.3645 28.7222 74.5867 26.5 73.6978C24.3889 72.8089 22.2778 71.6978 20.3889 70.3645C18.5 69.0311 16.7222 67.5867 15.0556 66.0311C13.3889 64.4756 11.9444 62.5867 10.7222 60.6978C9.38889 58.8089 8.27778 56.6978 7.38889 54.5867C6.5 52.4756 5.72222 50.1423 5.27778 47.8089C4.83333 45.4756 4.5 43.0311 4.5 40.5867C4.5 38.1423 4.72222 35.6978 5.27778 33.3645C5.72222 31.0311 6.5 28.8089 7.38889 26.5867C8.27778 24.4756 9.38889 22.3645 10.7222 20.4756C12.0556 18.5867 13.5 16.8089 15.0556 15.1423C16.6111 13.4756 18.5 12.0311 20.3889 10.8089C22.2778 9.47559 24.3889 8.36448 26.5 7.47559C28.6111 6.5867 30.9444 5.80892 33.2778 5.36448C35.6111 4.80892 38.0556 4.5867 40.5 4.5867Z" fill="#0076CE"/>
</svg>
