<svg width="115" height="33" viewBox="0 0 115 33" fill="none" xmlns="http://www.w3.org/2000/svg">
<g clip-path="url(#clip0_1800_163)">
<path d="M2.33279 30.3251C2.49391 30.3242 2.65504 30.3233 2.82105 30.3224C2.99886 30.3231 3.17668 30.3237 3.35987 30.3244C3.54893 30.3239 3.73798 30.3233 3.93276 30.3227C4.4607 30.3214 4.98861 30.3216 5.51654 30.3225C6.08969 30.323 6.66283 30.3216 7.23598 30.3205C8.24155 30.3188 9.24711 30.3184 10.2527 30.3187C11.748 30.3192 13.2433 30.3178 14.7385 30.3161C17.5641 30.3129 20.3896 30.312 23.2152 30.3118C25.3966 30.3117 27.5779 30.311 29.7593 30.31C30.3865 30.3097 31.0137 30.3094 31.6409 30.3091C31.7968 30.309 31.9527 30.3089 32.1134 30.3089C36.5006 30.3068 40.8877 30.3055 45.2749 30.3057C45.4404 30.3057 45.6059 30.3057 45.7765 30.3057C46.6153 30.3057 47.4542 30.3058 48.2931 30.3058C48.4597 30.3058 48.6264 30.3058 48.798 30.3058C49.135 30.3058 49.4719 30.3058 49.8088 30.3059C55.0528 30.3061 60.2968 30.3036 65.5408 30.2991C71.428 30.2941 77.3152 30.2912 83.2025 30.2915C83.8297 30.2916 84.457 30.2916 85.0843 30.2916C85.3159 30.2916 85.3159 30.2916 85.5523 30.2916C88.0422 30.2916 90.5322 30.2895 93.0221 30.2867C95.5227 30.2839 98.0232 30.2836 100.524 30.2857C102.011 30.287 103.498 30.2864 104.985 30.2831C105.977 30.2812 106.969 30.2816 107.961 30.284C108.527 30.2852 109.093 30.2855 109.659 30.2828C110.268 30.2805 110.876 30.2822 111.485 30.285C111.662 30.2833 111.84 30.2817 112.023 30.28C113.197 30.2914 113.197 30.2914 113.753 30.6621C113.966 31.0231 113.966 31.0231 113.946 31.6282C113.898 31.8076 113.851 31.987 113.802 32.1718C113.405 32.37 113.158 32.3565 112.715 32.3566C112.553 32.3571 112.392 32.3576 112.226 32.358C111.958 32.3575 111.958 32.3575 111.684 32.357C111.494 32.3573 111.305 32.3576 111.11 32.3579C110.58 32.3585 110.05 32.3584 109.52 32.358C108.945 32.3577 108.369 32.3584 107.794 32.359C106.785 32.3598 105.776 32.36 104.767 32.3599C103.266 32.3596 101.765 32.3603 100.265 32.3612C97.4288 32.3627 94.5931 32.3632 91.7575 32.3633C89.5684 32.3634 87.3794 32.3637 85.1903 32.3642C84.5611 32.3644 83.9318 32.3645 83.3025 32.3647C83.146 32.3647 82.9896 32.3647 82.8285 32.3648C78.4266 32.3658 74.0247 32.3664 69.6228 32.3664C69.4567 32.3664 69.2906 32.3664 69.1195 32.3664C68.2777 32.3663 67.4359 32.3663 66.5941 32.3663C66.3433 32.3663 66.3433 32.3663 66.0875 32.3663C65.7493 32.3663 65.4112 32.3663 65.0731 32.3663C59.8104 32.3662 54.5478 32.3674 49.2851 32.3697C43.3777 32.3722 37.4704 32.3736 31.563 32.3734C30.9337 32.3734 30.3044 32.3734 29.6752 32.3734C29.5202 32.3734 29.3652 32.3734 29.2056 32.3734C26.7066 32.3734 24.2076 32.3745 21.7086 32.3759C19.1994 32.3773 16.6901 32.3774 14.1809 32.3763C12.6883 32.3757 11.1957 32.376 9.70307 32.3776C8.70774 32.3786 7.7124 32.3784 6.71706 32.3772C6.14884 32.3766 5.58063 32.3765 5.01241 32.3778C4.40214 32.379 3.7919 32.3781 3.18162 32.3767C3.00276 32.3775 2.8239 32.3784 2.63961 32.3792C2.4783 32.3784 2.31699 32.3776 2.15078 32.3768C1.94118 32.3769 1.94118 32.3769 1.72734 32.3769C1.39173 32.3359 1.39173 32.3359 1.06352 32.0077C1.01416 31.7 1.01416 31.7 1.01224 31.3513C1.00949 31.2362 1.00674 31.1211 1.00391 31.0026C1.02358 30.901 1.04325 30.7995 1.06352 30.6949C1.59126 30.343 1.72607 30.3256 2.33279 30.3251Z" fill="#FCD338"/>
<path d="M14.6437 7.34092C16.8524 8.96195 18.0885 11.1187 18.6232 13.7922C18.6232 14.9294 18.6232 16.0667 18.6232 17.2384C14.0201 17.2384 9.41706 17.2384 4.6745 17.2384C5.55454 19.5265 6.15195 20.7979 8.29053 21.8608C9.60563 22.4177 11.3473 22.3521 12.6848 21.905C13.8935 21.3981 14.9276 20.6408 15.8335 19.6999C16.4733 19.965 16.9351 20.4021 17.4335 20.8691C17.5166 20.9459 17.5997 21.0227 17.6854 21.1018C17.8892 21.2903 18.0922 21.4796 18.295 21.6691C17.0584 23.6615 14.9867 24.8798 12.736 25.423C9.86259 25.959 7.15626 25.5205 4.72578 23.864C3.23254 22.7155 2.19067 21.3063 1.55655 19.5358C1.5043 19.3919 1.45205 19.2481 1.39822 19.0999C0.617758 16.5391 0.87813 13.5424 1.99758 11.1358C3.09655 9.09137 4.75318 7.38806 6.97194 6.57169C9.46838 5.82438 12.398 5.96043 14.6437 7.34092ZM6.31553 10.8384C5.39641 12.0447 5.093 12.9141 4.6745 14.4486C8.08619 14.4486 11.4979 14.4486 15.013 14.4486C14.7585 12.6677 14.2465 11.3953 12.8796 10.1819C10.8839 8.87316 7.94775 8.95331 6.31553 10.8384Z" fill="black"/>
<path d="M47.0362 6.22312C49.3168 6.15604 51.5616 6.59068 53.3233 8.10004C55.1112 9.8363 55.4426 11.6946 55.549 14.1206C55.5594 14.9975 55.5462 15.8733 55.5291 16.75C55.5251 16.9933 55.5212 17.2365 55.5174 17.4797C55.5072 18.1115 55.4958 18.7433 55.4842 19.3751C55.4725 20.0232 55.4619 20.6712 55.4512 21.3193C55.4302 22.5847 55.4079 23.8501 55.3849 25.1154C54.2476 25.1154 53.1104 25.1154 51.9387 25.1154C51.8575 24.3843 51.8575 24.3843 51.7746 23.6385C51.6672 23.7138 51.5597 23.7891 51.449 23.8667C49.9712 24.8603 48.4739 25.4906 46.6874 25.6077C46.5793 25.6162 46.4713 25.6247 46.3599 25.6334C44.3316 25.7227 42.3525 25.12 40.7644 23.8577C39.69 22.8608 39.0565 21.5331 38.9381 20.0686C38.8856 18.2827 39.2869 16.8129 40.4515 15.4334C42.3582 13.5566 45.0533 13.2498 47.5976 13.2486C49.0153 13.2741 50.3875 13.5139 51.7746 13.7923C51.8101 12.6711 51.643 11.7777 50.8958 10.9077C49.7387 9.87784 48.3396 9.63431 46.8458 9.65453C45.2466 9.77041 43.7719 10.1684 42.3208 10.8404C41.9285 11.0026 41.9285 11.0026 41.4362 11.0026C41.2714 10.5447 41.1074 10.0866 40.9439 9.62825C40.8969 9.49794 40.8499 9.36763 40.8015 9.23337C40.7571 9.10857 40.7127 8.98376 40.6669 8.85517C40.6257 8.74001 40.5844 8.62486 40.5419 8.50621C40.4515 8.21286 40.4515 8.21286 40.4515 7.88466C42.6096 6.96234 44.6797 6.36173 47.0362 6.22312ZM43.0772 17.7308C42.6351 18.5152 42.4749 19.1326 42.5849 20.0282C42.9123 21.0475 43.4478 21.6643 44.39 22.1616C45.75 22.7445 47.4384 22.6823 48.8208 22.2026C50.0941 21.6676 51.1552 20.9458 51.7817 19.6834C52.1296 18.7588 52.158 17.8894 52.1028 16.9103C50.6428 16.2898 49.1379 16.2195 47.5695 16.2026C47.4267 16.1997 47.2839 16.1968 47.1368 16.1939C45.5851 16.1953 44.1149 16.4999 43.0772 17.7308Z" fill="black"/>
<path d="M92.3066 8.21278C93.6993 9.80015 94.1409 11.5238 94.1304 13.6021C94.1304 13.7271 94.1304 13.8521 94.1304 13.9809C94.1303 14.3911 94.129 14.8013 94.1278 15.2115C94.1274 15.4971 94.1272 15.7826 94.127 16.0682C94.1264 16.8177 94.1248 17.5671 94.123 18.3165C94.1213 19.0822 94.1206 19.8478 94.1197 20.6134C94.118 22.1141 94.1151 23.6147 94.1117 25.1153C92.9745 25.1153 91.8373 25.1153 90.6656 25.1153C90.5843 24.3843 90.5843 24.3843 90.5015 23.6384C90.4139 23.7019 90.3263 23.7653 90.2361 23.8307C88.0729 25.3427 85.676 25.8705 83.0656 25.5051C81.431 25.1795 79.7885 24.3411 78.7745 22.991C77.8261 21.5491 77.5506 19.9893 77.804 18.2846C78.1107 16.8587 78.839 15.6676 79.9989 14.7769C83.224 12.7095 87.0855 13.1188 90.6656 13.7923C90.4735 12.3719 90.2022 11.2907 89.0169 10.3628C87.0506 9.25383 84.6912 9.63217 82.6245 10.182C82.0871 10.3876 81.5672 10.6094 81.0476 10.8564C80.6553 11.0025 80.6553 11.0025 80.163 10.8384C79.9651 10.4036 79.7971 9.98496 79.6399 9.53585C79.5952 9.41411 79.5505 9.29237 79.5044 9.16694C79.1784 8.26585 79.1784 8.26585 79.1784 7.88457C83.22 6.15723 88.6265 5.02425 92.3066 8.21278ZM81.9681 17.5666C81.4651 18.2133 81.2907 18.8869 81.3117 19.7C81.4751 20.6262 81.8934 21.2261 82.6361 21.7916C83.8658 22.5907 85.1191 22.6305 86.563 22.4897C88.1504 22.1428 89.4394 21.5311 90.3374 20.1487C90.9377 19.1076 90.8637 18.0792 90.8297 16.9102C88.3534 15.8744 84.002 15.4692 81.9681 17.5666Z" fill="black"/>
<path d="M58.832 0.828125C60.0234 0.828125 61.2148 0.828125 62.4423 0.828125C62.4964 3.3192 62.5506 5.81028 62.6064 8.37684C63.0396 7.99777 63.4729 7.61869 63.9192 7.22812C65.9334 6.08157 68.1748 5.95401 70.4378 6.35056C71.5575 6.68719 72.4235 7.25323 73.2731 8.04864C73.3657 8.13452 73.4584 8.22041 73.5538 8.30889C74.8451 9.65263 75.2698 11.4793 75.2609 13.2854C75.2609 13.4135 75.261 13.5417 75.261 13.6738C75.2609 14.0955 75.2596 14.5173 75.2583 14.939C75.258 15.2322 75.2578 15.5254 75.2576 15.8185C75.257 16.5887 75.2554 17.359 75.2536 18.1292C75.2519 18.9157 75.2511 19.7022 75.2503 20.4887C75.2485 22.0309 75.2457 23.5731 75.2423 25.1153C74.0509 25.1153 72.8595 25.1153 71.632 25.1153C71.6337 24.7859 71.6355 24.4564 71.6372 24.117C71.6427 23.0232 71.6463 21.9293 71.649 20.8355C71.6507 20.1729 71.6531 19.5103 71.6568 18.8478C71.6604 18.2072 71.6623 17.5667 71.6632 16.9261C71.6638 16.6829 71.6649 16.4397 71.6667 16.1964C71.6906 13.1213 71.6906 13.1213 70.1961 10.5409C68.9085 9.67424 67.7482 9.52767 66.2166 9.68966C65.0404 9.96412 64.1448 10.5191 63.4269 11.4948C62.8489 12.5221 62.5913 13.4995 62.5753 14.6774C62.5726 14.8507 62.5698 15.0239 62.567 15.2024C62.5648 15.3883 62.5625 15.5743 62.5602 15.7659C62.5572 15.9597 62.5542 16.1534 62.5511 16.353C62.5415 16.9729 62.5328 17.5928 62.5243 18.2127C62.4566 23.1189 62.4566 23.1189 62.2782 25.1153C61.141 25.1153 60.0037 25.1153 58.832 25.1153C58.832 17.1005 58.832 9.08577 58.832 0.828125Z" fill="black"/>
<path d="M21.582 6.24365C22.7734 6.24365 23.9648 6.24365 25.1923 6.24365C25.2464 9.33042 25.3006 12.4172 25.3564 15.5975C26.1687 14.731 26.981 13.8646 27.8179 12.9719C28.9666 11.8231 28.9666 11.8231 29.459 11.3411C29.8243 10.9767 30.1647 10.5975 30.5013 10.2065C31.1247 9.4856 31.7945 8.81866 32.4743 8.15134C32.7085 7.92138 32.9423 7.69106 33.1756 7.46032C33.2775 7.36039 33.3793 7.26047 33.4842 7.15751C33.7411 6.90807 33.7411 6.90807 33.8897 6.57186C35.4602 6.57186 37.0306 6.57186 38.6487 6.57186C37.9064 7.43789 37.1547 8.2432 36.342 9.03628C35.8721 9.49941 35.4252 9.97051 34.9968 10.4725C34.5369 11.0054 34.0515 11.4997 33.5461 11.9898C33.401 12.1307 33.2559 12.2716 33.1064 12.4167C32.8042 12.7086 32.5007 12.9991 32.1961 13.2885C32.0527 13.4286 31.9093 13.5686 31.7615 13.7129C31.6305 13.8386 31.4994 13.9643 31.3644 14.0938C31.0656 14.4189 31.0656 14.4189 31.1074 14.7769C31.2974 15.1749 31.525 15.4945 31.7968 15.8424C31.961 16.0546 31.961 16.0546 32.1285 16.2712C32.246 16.4212 32.3635 16.5712 32.4846 16.7257C32.7274 17.0396 32.9699 17.3537 33.2122 17.668C33.3298 17.8205 33.4473 17.9729 33.5685 18.13C33.9615 18.6455 34.3376 19.1696 34.7102 19.7001C35.5289 20.863 36.394 21.989 37.2631 23.1145C37.3715 23.2555 37.4799 23.3965 37.5916 23.5417C37.7371 23.7299 37.7371 23.7299 37.8855 23.9219C38.1654 24.3073 38.4097 24.7037 38.6487 25.1154C34.9881 25.5789 34.9881 25.5789 33.8196 24.8758C33.1245 24.2196 32.6519 23.4163 32.1783 22.5927C31.7397 21.8593 31.2151 21.191 30.7 20.5103C30.5186 20.2625 30.3376 20.0145 30.157 19.7661C29.6849 19.1197 29.1905 18.4931 28.6878 17.8703C28.4743 17.5667 28.4743 17.5667 28.4743 17.2385C27.5659 17.986 26.7701 18.7942 25.9936 19.6776C25.7884 19.9105 25.5758 20.137 25.3564 20.3565C25.2952 20.8504 25.2952 20.8504 25.2884 21.4295C25.2821 21.6432 25.2757 21.8569 25.2692 22.077C25.264 22.3035 25.2589 22.53 25.2538 22.7565C25.2476 22.9843 25.2412 23.212 25.2346 23.4398C25.2191 23.9983 25.2055 24.5569 25.1923 25.1154C24.0009 25.1154 22.8095 25.1154 21.582 25.1154C21.582 18.8878 21.582 12.6601 21.582 6.24365Z" fill="black"/>
<path d="M97.5618 6.57178C98.7531 6.57178 99.9445 6.57178 101.172 6.57178C101.174 6.93191 101.177 7.29204 101.179 7.66308C101.188 8.85716 101.198 10.0512 101.211 11.2452C101.218 11.9687 101.224 12.6922 101.229 13.4156C101.233 14.1147 101.24 14.8138 101.248 15.5128C101.251 15.7786 101.253 16.0445 101.254 16.3103C101.249 18.9063 101.249 18.9063 102.523 21.0936C103.594 22.0063 104.75 22.1223 106.128 22.0808C107.392 21.9118 108.484 21.3873 109.305 20.3974C110.269 18.8297 110.274 17.1745 110.282 15.3859C110.284 15.1307 110.287 14.8755 110.291 14.6203C110.298 13.9539 110.303 13.2876 110.308 12.6213C110.312 11.9391 110.32 11.2571 110.327 10.575C110.342 9.24059 110.352 7.90621 110.362 6.57178C111.553 6.57178 112.745 6.57178 113.972 6.57178C113.972 12.6912 113.972 18.8105 113.972 25.1154C112.781 25.1154 111.589 25.1154 110.362 25.1154C110.308 24.5197 110.253 23.924 110.198 23.3102C109.878 23.6149 109.878 23.6149 109.551 23.9256C107.987 25.3068 106.206 25.6901 104.146 25.5974C102.062 25.4509 100.446 24.7117 99.0387 23.1461C97.9133 21.7279 97.5342 20.0314 97.5431 18.2527C97.5431 18.1261 97.5431 17.9995 97.543 17.8691C97.5432 17.4527 97.5444 17.0363 97.5457 16.6199C97.546 16.3304 97.5463 16.0409 97.5464 15.7514C97.5471 14.9909 97.5487 14.2304 97.5505 13.4699C97.5522 12.6933 97.5529 11.9167 97.5537 11.14C97.5555 9.61729 97.5584 8.09453 97.5618 6.57178Z" fill="black"/>
<path d="M2.76758 30.3271C2.89197 30.3268 3.01636 30.3266 3.14452 30.3263C3.56256 30.3257 3.98055 30.3275 4.39858 30.3293C4.69775 30.3294 4.99692 30.3294 5.29609 30.3292C6.10944 30.3291 6.92277 30.331 7.73611 30.3333C8.58567 30.3354 9.43523 30.3356 10.2848 30.336C11.8941 30.337 13.5034 30.3397 15.1126 30.343C16.9445 30.3466 18.7764 30.3484 20.6083 30.3501C24.3772 30.3535 28.146 30.3593 31.9148 30.3666C31.9148 31.0164 31.9148 31.6663 31.9148 32.3358C27.9408 32.3435 23.9667 32.3493 19.9927 32.3528C18.1476 32.3545 16.3025 32.3568 14.4574 32.3606C12.8497 32.3639 11.242 32.366 9.63432 32.3667C8.7826 32.3671 7.93089 32.3681 7.07918 32.3705C6.2783 32.3727 5.47743 32.3734 4.67655 32.373C4.38189 32.373 4.08724 32.3737 3.79259 32.375C3.3917 32.3766 2.99086 32.3762 2.58997 32.3753C2.47216 32.3763 2.35435 32.3772 2.23298 32.3782C1.42918 32.3733 1.42918 32.3733 1.06352 32.0076C1.01416 31.6999 1.01416 31.6999 1.01224 31.3512C1.00949 31.2361 1.00674 31.1211 1.00391 31.0025C1.02358 30.901 1.04325 30.7994 1.06352 30.6948C1.65651 30.2995 2.08297 30.3215 2.76758 30.3271Z" fill="#EF4A46"/>
<path d="M83.1211 30.3667C87.0467 30.3514 90.9722 30.3398 94.8979 30.3327C96.7205 30.3293 98.5432 30.3247 100.366 30.3172C101.954 30.3107 103.542 30.3064 105.131 30.305C105.972 30.3041 106.813 30.3021 107.655 30.2973C108.446 30.2929 109.237 30.2915 110.029 30.2925C110.32 30.2923 110.611 30.291 110.901 30.2885C111.298 30.2852 111.694 30.286 112.091 30.2878C112.206 30.2859 112.322 30.284 112.441 30.282C112.986 30.2887 113.276 30.3378 113.722 30.662C113.972 31.0231 113.972 31.0231 113.952 31.6283C113.904 31.8076 113.857 31.987 113.808 32.1718C113.32 32.4159 112.823 32.3579 112.288 32.3557C112.102 32.3559 112.102 32.3559 111.912 32.3561C111.493 32.3564 111.074 32.3555 110.656 32.3546C110.357 32.3545 110.058 32.3546 109.759 32.3546C108.944 32.3547 108.13 32.3537 107.316 32.3526C106.466 32.3516 105.616 32.3515 104.766 32.3513C103.156 32.3508 101.546 32.3494 99.9351 32.3478C98.102 32.3459 96.2689 32.345 94.4358 32.3442C90.6643 32.3425 86.8927 32.3396 83.1211 32.3359C83.1211 31.6861 83.1211 31.0363 83.1211 30.3667Z" fill="#90C73E"/>
<path d="M62.6055 30.3667C69.3747 30.3667 76.1439 30.3667 83.1183 30.3667C83.1183 31.0165 83.1183 31.6664 83.1183 32.3359C76.3491 32.3359 69.5798 32.3359 62.6055 32.3359C62.6055 31.6861 62.6055 31.0362 62.6055 30.3667Z" fill="#DDE23B"/>
<path d="M21.582 30.3667C24.9937 30.3667 28.4054 30.3667 31.9205 30.3667C31.9205 31.0165 31.9205 31.6664 31.9205 32.3359C28.5088 32.3359 25.0971 32.3359 21.582 32.3359C21.582 31.6861 21.582 31.0362 21.582 30.3667Z" fill="#F58A49"/>
<path d="M52.2617 30.3667C55.6734 30.3667 59.0851 30.3667 62.6002 30.3667C62.6002 31.0165 62.6002 31.6664 62.6002 32.3359C59.2426 32.3359 55.8851 32.3359 52.4258 32.3359C52.3717 31.6861 52.3175 31.0362 52.2617 30.3667Z" fill="#F0EC49"/>
<path d="M103.629 30.3668C104.88 30.3519 106.131 30.3399 107.382 30.3328C107.963 30.3293 108.544 30.3247 109.125 30.3173C109.793 30.3088 110.461 30.3056 111.129 30.3027C111.442 30.2976 111.442 30.2976 111.76 30.2924C112.051 30.2923 112.051 30.2923 112.348 30.2923C112.518 30.2908 112.689 30.2893 112.864 30.2878C113.431 30.3881 113.629 30.5641 113.967 31.0232C113.947 31.6283 113.947 31.6283 113.803 32.1719C113.36 32.3937 113.016 32.3557 112.519 32.3546C112.319 32.3546 112.118 32.3546 111.912 32.3546C111.692 32.3538 111.473 32.3529 111.253 32.352C111.029 32.3517 110.805 32.3515 110.581 32.3513C109.992 32.3507 109.402 32.3491 108.812 32.3473C108.211 32.3456 107.609 32.3448 107.007 32.344C105.826 32.3423 104.646 32.3394 103.465 32.336C103.519 31.6862 103.573 31.0363 103.629 30.3668Z" fill="#84C33F"/>
<path d="M72.9414 30.3667C76.2989 30.3667 79.6565 30.3667 83.1158 30.3667C83.1158 31.0165 83.1158 31.6664 83.1158 32.3359C79.7582 32.3359 76.4007 32.3359 72.9414 32.3359C72.9414 31.6861 72.9414 31.0362 72.9414 30.3667Z" fill="#C1D730"/>
<path d="M31.918 30.3667C35.2755 30.3667 38.633 30.3667 42.0923 30.3667C42.0923 31.0165 42.0923 31.6664 42.0923 32.3359C38.7348 32.3359 35.3773 32.3359 31.918 32.3359C31.918 31.6861 31.918 31.0362 31.918 30.3667Z" fill="#FAAF42"/>
<path d="M11.4023 30.3667C14.7599 30.3667 18.1174 30.3667 21.5767 30.3667C21.5767 31.0165 21.5767 31.6664 21.5767 32.3359C18.2192 32.3359 14.8616 32.3359 11.4023 32.3359C11.4023 31.6861 11.4023 31.0362 11.4023 30.3667Z" fill="#F16748"/>
<path d="M83.1211 30.3667C84.4234 30.363 85.7258 30.3599 87.0281 30.3582C87.6328 30.3573 88.2375 30.3561 88.8421 30.3543C89.4252 30.3525 90.0083 30.3515 90.5914 30.3511C90.8143 30.3508 91.0372 30.3502 91.2601 30.3493C91.5714 30.3481 91.8826 30.348 92.1938 30.348C92.3713 30.3477 92.5487 30.3473 92.7316 30.3469C93.1314 30.3667 93.1314 30.3667 93.2955 30.5308C93.2955 31.1265 93.2955 31.7221 93.2955 32.3359C89.9379 32.3359 86.5804 32.3359 83.1211 32.3359C83.1211 31.686 83.1211 31.0362 83.1211 30.3667Z" fill="#A8CE38"/>
</g>
<defs>
<clipPath id="clip0_1800_163">
<rect width="113.231" height="32" fill="white" transform="translate(0.902344 0.5)"/>
</clipPath>
</defs>
</svg>
