<svg width="283" height="33" viewBox="0 0 283 33" fill="none" xmlns="http://www.w3.org/2000/svg">
<g clip-path="url(#clip0_1800_335)">
<path d="M0.463867 32.1975V0.903056H35.4547V7.85739H8.20271V13.1487H31.6747V19.9015H8.20271V32.1723C8.20271 32.1975 0.463867 32.1975 0.463867 32.1975ZM117.543 32.1975V21.5393C117.543 20.607 116.725 20.1786 116.725 20.1786C116.368 19.9519 115.27 19.9015 113.635 19.9015H113.992H97.672V32.2227H89.9331V0.903056H114.069C118.258 0.903056 121.118 1.53298 123.085 3.42274C125.052 5.3881 125.282 7.95817 125.307 10.6038V12.8464C125.358 15.0889 124.132 17.155 122.676 18.3645L122.957 18.4905C123.545 18.7676 123.877 19.1708 123.877 19.1708C124.975 20.5566 124.975 21.7409 124.975 23.2275V32.1723H117.543V32.1975ZM113.354 13.1739C115.27 13.1739 116.368 13.1739 116.828 12.8968C116.828 12.8968 117.594 12.4432 117.645 11.5361V9.46999C117.645 8.5377 116.828 8.10936 116.828 8.10936C116.24 7.80699 115.193 7.83219 112.767 7.83219H97.6975V13.1235H113.686H113.354V13.1739ZM136.673 32.1975V7.88258H129.394V0.903056H158.459V7.85739H144.437V32.1723C144.437 32.1975 136.673 32.1975 136.673 32.1975ZM259.038 32.1975V7.88258H251.759V0.903056H280.825V7.85739H266.803V32.1723C266.803 32.1975 259.038 32.1975 259.038 32.1975ZM162.29 32.1975V0.903056H170.029V32.1723H162.29V32.1975ZM216.666 32.1975V0.903056H247.877V7.85739H224.405V13.1487H240.726V19.9015H224.405V25.1928H248.056V32.1472C248.056 32.1975 216.666 32.1975 216.666 32.1975ZM183.617 32.1975H175.827V0.903056H200.831C200.831 0.903056 205.428 0.726679 208.314 3.54873C208.314 3.54873 211.277 6.01802 211.277 11.9897V32.1723H203.513V11.5109C203.513 11.5109 203.615 9.39439 202.874 8.68888C202.874 8.68888 202.236 7.88258 201.01 7.88258H183.617V32.1975ZM279.011 32.1472C276.866 32.1472 275.18 30.4338 275.18 28.3676C275.18 26.3015 276.917 24.5881 279.011 24.5881C281.106 24.5881 282.842 26.3015 282.842 28.3676C282.817 30.4842 281.131 32.1472 279.011 32.1472ZM279.011 25.0416C277.147 25.0416 275.64 26.5283 275.64 28.418C275.64 30.2574 277.147 31.744 279.011 31.744C280.876 31.744 282.383 30.2574 282.383 28.418C282.408 26.5283 280.876 25.0416 279.011 25.0416ZM277.581 26.1503H279.445C280.084 26.1503 280.722 26.2763 280.825 27.2338C280.825 27.7629 280.697 27.9645 280.288 28.2668C280.748 28.544 280.748 28.6196 280.799 29.3503C280.85 29.8794 280.748 29.9802 280.978 30.333H280.339L280.237 29.8038C280.135 29.2999 280.365 28.544 279.497 28.544H278.117V30.333H277.581V26.1503ZM278.143 26.6542V28.0905H279.522C279.88 28.0905 280.263 27.9897 280.288 27.4605C280.39 26.7298 279.829 26.6542 279.522 26.6542H278.143Z" fill="#231F20"/>
<path d="M38.8779 12.3677H51.7249V20.6827H38.8779V12.3677ZM55.2751 0.550394H67.8922V8.86535H55.2751V0.550394ZM55.2751 24.1346H67.8922V32.4496H55.2751V24.1346ZM71.3913 12.3677H84.2894V20.6827H71.3913V12.3677ZM44.1649 0.550394C41.4831 1.23071 39.3887 4.17874 38.8779 7.95827V8.89055H51.7249V0.550394H44.1649ZM38.8779 24.1346V25.1677C39.3377 28.7709 41.3043 31.6433 43.8328 32.4496H51.7505V24.1346H38.8779ZM84.2894 8.86535V7.93307C83.7786 4.17874 81.6842 1.23071 79.0024 0.5H71.3913V8.81496H84.2894V8.86535ZM79.3345 32.5C81.8375 31.6433 83.8041 28.8213 84.2894 25.2181V24.185H71.3913V32.5H79.3345Z" fill="#EE3124"/>
</g>
<defs>
<clipPath id="clip0_1800_335">
<rect width="282.353" height="32" fill="white" transform="translate(0.463867 0.5)"/>
</clipPath>
</defs>
</svg>
