<svg width="160" height="33" viewBox="0 0 160 33" fill="none" xmlns="http://www.w3.org/2000/svg">
<g clip-path="url(#clip0_1800_114)">
<path d="M38.8756 1.3C34.8756 1.3 33.4356 4.1 33.4356 6.74V8.34H32.6356C31.9956 8.34 31.5156 8.82 31.5156 9.46C31.5156 10.1 31.9956 10.58 32.6356 10.58H33.4356V21.62C33.4356 22.26 33.9156 22.82 34.6356 22.82C35.3556 22.82 35.8356 22.34 35.8356 21.62V10.5H38.3956C39.0356 10.5 39.5156 10.02 39.5156 9.38C39.5156 8.74 39.0356 8.26 38.3956 8.26H35.8356V6.66C35.8356 5.22 36.3956 3.46 38.9556 3.46C39.5956 3.46 40.0756 2.98 40.0756 2.42C39.9956 1.78 39.5156 1.3 38.8756 1.3ZM47.9956 7.94C46.3956 7.86 44.9556 8.58 43.9956 9.86V9.22C43.9956 8.58 43.5156 8.02 42.7956 8.02C42.0756 8.02 41.5956 8.58 41.5956 9.22V21.54C41.5956 22.18 42.0756 22.74 42.7956 22.74C43.5156 22.74 43.9956 22.26 43.9956 21.54V14.74C43.9956 11.86 45.5156 10.18 47.9956 10.18C48.6356 10.18 49.1156 9.7 49.1156 9.06C49.1156 8.42 48.5556 7.94 47.9956 7.94ZM62.1556 14.02C62.1556 12.66 61.7556 11.3 61.0356 10.18C59.9156 8.66 58.0756 7.78 56.1556 7.94C52.0756 7.94 49.7556 10.66 49.7556 15.38C49.7556 20.26 52.0756 22.9 56.4756 22.9C58.2356 22.98 59.9956 22.34 61.3556 21.14C61.5956 20.98 61.7556 20.66 61.7556 20.34C61.7556 19.78 61.2756 19.3 60.7156 19.3C60.4756 19.3 60.2356 19.38 60.0756 19.54C59.1156 20.34 57.8356 20.82 56.5556 20.82C53.9156 20.82 52.2356 19.06 52.1556 16.26H60.7956C62.1556 16.1 62.1556 14.82 62.1556 14.02ZM56.2356 10.02C58.6356 10.02 59.8356 11.38 59.9156 14.02H52.1556C52.3956 11.46 53.8356 10.02 56.2356 10.02ZM69.9956 14.18C68.2356 13.54 66.7956 13.06 66.7956 11.78C66.7956 10.34 68.3956 10.18 69.2756 10.18C70.4756 10.1 71.6756 10.58 72.4756 11.38C72.8756 11.78 73.5956 11.78 73.9956 11.38C74.2356 11.14 74.3156 10.9 74.3156 10.58C74.3156 10.34 74.2356 10.1 74.0756 9.86C72.8756 8.5 71.1156 7.7 69.3556 7.86C66.3956 7.86 64.5556 9.38 64.5556 11.7C64.5556 14.58 67.1156 15.46 69.3556 16.26C71.0356 16.82 72.5556 17.3 72.5556 18.58C72.5556 20.26 70.6356 20.58 69.5156 20.58C68.1556 20.66 66.7956 20.1 65.8356 19.14C65.5956 18.9 65.3556 18.82 65.0356 18.74C64.4756 18.74 63.9956 19.22 63.9956 19.78C63.9956 20.02 64.0756 20.26 64.2356 20.5C65.5956 22.1 67.5156 22.9 69.5156 22.9C72.8756 22.9 74.8756 21.3 74.8756 18.74C74.7156 15.78 72.2356 14.98 69.9956 14.18ZM83.8356 7.86C82.3956 7.78 80.9556 8.42 79.9956 9.54V1.7C79.9956 1.06 79.5156 0.5 78.7956 0.5C78.1556 0.5 77.6756 0.98 77.6756 1.7V21.54C77.6756 22.18 78.1556 22.74 78.7956 22.74C79.4356 22.74 79.9956 22.26 79.9956 21.54V14.1C79.9956 11.38 81.2756 10.02 83.8356 10.02C86.3956 10.02 87.2756 11.14 87.2756 13.86V21.54C87.2756 22.18 87.7556 22.74 88.4756 22.74C89.1156 22.74 89.5956 22.26 89.5956 21.54V13.46C89.5956 9.78 87.6756 7.86 83.8356 7.86ZM108.956 8.1C108.476 8.1 107.996 8.42 107.836 8.9L104.476 18.34L101.756 8.9C101.516 8.26 100.876 8.02 100.236 8.18C99.9156 8.26 99.6756 8.58 99.5156 8.9L96.7956 18.34L93.5956 8.82C93.4356 8.34 93.0356 8.02 92.4756 8.1C91.8356 8.1 91.3556 8.58 91.3556 9.22C91.3556 9.38 91.3556 9.54 91.4356 9.7L95.9156 21.94C96.0756 22.42 96.4756 22.74 97.0356 22.74C97.5156 22.74 97.9956 22.42 98.1556 21.94L100.796 12.98L103.436 21.94C103.596 22.42 104.076 22.74 104.556 22.74C105.036 22.74 105.516 22.42 105.676 21.94L110.156 9.7C110.236 9.54 110.236 9.38 110.236 9.22C110.076 8.58 109.596 8.1 108.956 8.1ZM117.436 7.86C113.196 7.86 110.876 10.5 110.876 15.3C110.876 20.1 113.196 22.82 117.436 22.82C121.676 22.82 123.996 20.18 123.996 15.3C123.996 10.42 121.676 7.86 117.436 7.86ZM117.436 20.66C114.636 20.66 113.196 18.9 113.196 15.3C113.196 11.7 114.636 9.94 117.436 9.94C120.236 9.94 121.596 11.78 121.596 15.3C121.596 18.82 120.236 20.74 117.436 20.66ZM132.956 7.94C131.356 7.86 129.916 8.58 128.956 9.86V9.22C128.956 8.58 128.476 8.02 127.836 8.02C127.196 8.02 126.636 8.5 126.636 9.14V21.46C126.636 22.1 127.116 22.66 127.756 22.66C128.396 22.66 128.956 22.18 128.956 21.54V14.74C128.956 11.86 130.476 10.18 132.956 10.18C133.596 10.18 134.076 9.7 134.076 9.06C134.076 8.42 133.596 7.94 132.956 7.94ZM141.836 14.02L146.636 10.18C146.956 9.94 147.116 9.62 147.116 9.22C147.116 8.58 146.636 8.1 145.996 8.1C145.676 8.1 145.436 8.18 145.196 8.42L138.316 14.02V1.7C138.316 1.06 137.836 0.5 137.196 0.5C136.556 0.5 135.996 0.98 135.996 1.62V21.46C135.996 22.1 136.476 22.66 137.116 22.66C137.756 22.66 138.316 22.18 138.316 21.54V16.74L139.916 15.46L145.196 22.18C145.436 22.5 145.836 22.74 146.156 22.74C146.796 22.74 147.276 22.26 147.276 21.62C147.276 21.38 147.196 21.06 147.036 20.9L141.836 14.02ZM154.956 14.18C153.196 13.54 151.756 13.06 151.756 11.78C151.756 10.34 153.356 10.18 154.236 10.18C155.436 10.1 156.636 10.58 157.436 11.38C157.676 11.62 157.916 11.7 158.236 11.7C158.796 11.62 159.196 11.14 159.196 10.58C159.196 10.34 159.116 10.1 158.956 9.86C157.756 8.5 155.996 7.7 154.236 7.86C151.276 7.86 149.436 9.38 149.436 11.7C149.436 14.58 151.996 15.46 154.236 16.26C155.916 16.82 157.436 17.3 157.436 18.58C157.436 20.26 155.516 20.58 154.396 20.58C153.036 20.66 151.676 20.1 150.716 19.14C150.476 18.9 150.236 18.82 149.916 18.74C149.356 18.74 148.876 19.22 148.876 19.78C148.876 20.02 148.956 20.26 149.116 20.5C150.476 22.02 152.396 22.82 154.476 22.74C157.836 22.74 159.836 21.14 159.836 18.58C159.676 15.78 157.196 14.98 154.956 14.18Z" fill="#4D4D4D"/>
<path d="M0.148438 20.9C0.548438 23.78 1.90844 26.42 3.98844 28.5L8.62844 23.86C8.62844 18.98 11.1884 14.5 15.4284 12.02L0.148438 20.9Z" fill="#9B65C3"/>
<path d="M8.62844 23.8599C6.22844 23.8599 3.90844 23.2199 1.82844 22.0199C1.26844 21.6999 0.708438 21.2999 0.148438 20.8999C0.548438 23.7799 1.90844 26.4199 3.98844 28.4999L8.62844 23.8599Z" fill="#9B65C3"/>
<path d="M8.63219 23.8601L3.99219 28.5001C6.07219 30.5801 8.71219 31.9401 11.5922 32.3401L20.3922 17.0601C17.9922 21.2201 13.5122 23.8601 8.63219 23.8601Z" fill="#BE63C5"/>
<path d="M10.4722 30.6601C9.27219 28.5801 8.63219 26.2601 8.63219 23.8601L3.99219 28.5001C6.07219 30.5801 8.71219 31.9401 11.5922 32.3401C11.1922 31.7801 10.7922 31.2201 10.4722 30.6601Z" fill="#BF63C6"/>
<path d="M25.9922 5.93994L15.4322 12.0199C11.1922 14.4199 6.07219 14.4199 1.83219 12.0199C0.632187 14.0999 -0.0078125 16.4999 -0.0078125 18.8999C-0.0078125 19.5399 0.0721875 20.2599 0.152187 20.8999C0.712187 21.2999 1.27219 21.6999 1.83219 22.0199C3.91219 23.2199 6.23219 23.8599 8.63219 23.8599L26.2322 6.25994C26.1522 6.17994 26.0722 6.09994 25.9922 5.93994Z" fill="#3278B1"/>
<path d="M1.82844 22.02C3.90844 23.22 6.22844 23.86 8.62844 23.86C8.62844 18.98 11.1884 14.5 15.4284 12.02L0.148438 20.82C0.708438 21.3 1.26844 21.7 1.82844 22.02Z" fill="#3278B2"/>
<path d="M1.83219 12.02C0.632187 14.1 -0.0078125 16.5 -0.0078125 18.9C-0.0078125 19.54 0.0721875 20.26 0.152188 20.9L15.4322 12.02C11.2722 14.5 6.07219 14.5 1.83219 12.02Z" fill="#45A4EC"/>
<path d="M26.2359 6.25997C25.9959 6.01997 25.8359 5.85997 25.5959 5.69997C25.1159 5.37997 24.4759 5.21997 23.9159 5.21997H13.5959C8.71594 5.21997 4.23594 7.85997 1.83594 12.02C6.07594 14.42 11.1959 14.42 15.4359 12.02C11.1959 14.42 8.63594 18.98 8.63594 23.86C13.5159 23.86 17.9959 21.3 20.4759 17.06L26.5559 6.49997C26.3959 6.41997 26.3159 6.33997 26.2359 6.25997Z" fill="#19BB7D"/>
<path d="M15.4359 12.0201L25.9959 5.94012C25.8359 5.86012 25.7559 5.70012 25.5959 5.62012L1.83594 12.0201C6.07594 14.5001 11.2759 14.5001 15.4359 12.0201Z" fill="#08C7FB"/>
<path d="M23.8359 5.21997H13.5959C8.71594 5.21997 4.23594 7.85997 1.83594 12.02L25.5959 5.61997C25.0359 5.37997 24.4759 5.21997 23.8359 5.21997Z" fill="#59F2F6"/>
<path d="M20.4709 17.0599L26.5509 6.49993C26.4709 6.41993 26.3909 6.33993 26.3109 6.17993L8.71094 23.7799C8.71094 26.1799 9.35094 28.4999 10.5509 30.5799C10.8709 31.1399 11.2709 31.6999 11.6709 32.2599C12.3109 32.3399 12.9509 32.4199 13.5909 32.4199C15.9909 32.4199 18.3109 31.7799 20.3909 30.5799C17.9909 26.4199 17.9909 21.2199 20.4709 17.0599Z" fill="#DA3757"/>
<path d="M8.63281 23.8601C8.63281 26.2601 9.27281 28.5801 10.4728 30.6601C10.7928 31.2201 11.1928 31.7801 11.5928 32.3401L20.3928 17.0601C17.9928 21.2201 13.5128 23.8601 8.63281 23.8601Z" fill="#D33C4E"/>
<path d="M20.4719 17.0601L11.6719 32.3401C12.3119 32.4201 12.9519 32.5001 13.6719 32.5001C16.0719 32.5001 18.3919 31.8601 20.4719 30.6601C17.9919 26.4201 17.9919 21.2201 20.4719 17.0601Z" fill="#EE5A24"/>
<path d="M26.7928 6.89994C26.5528 6.49994 26.3128 6.17994 25.9928 5.93994L15.4328 12.0199C11.1928 14.4199 8.63281 18.9799 8.63281 23.8599C13.5128 23.8599 17.9928 21.2999 20.4728 17.0599C18.0728 21.2999 18.0728 26.4199 20.4728 30.6599C24.6328 28.2599 27.2728 23.7799 27.2728 18.9799V8.65994C27.2728 8.01994 27.1128 7.45994 26.7928 6.89994Z" fill="#8BDF55"/>
<path d="M25.9928 5.93994L15.4328 12.0199C11.1928 14.4199 8.63281 18.9799 8.63281 23.8599L26.2328 6.25994C26.1528 6.17994 26.0728 6.01994 25.9928 5.93994Z" fill="#25C16F"/>
<path d="M8.63281 23.8599C13.5128 23.8599 17.9928 21.2999 20.4728 17.0599L26.5528 6.49993C26.4728 6.41993 26.3928 6.33993 26.3128 6.17993L8.63281 23.8599Z" fill="#8BDF55"/>
<path d="M26.5519 6.5L20.4719 17.06C18.0719 21.3 18.0719 26.42 20.4719 30.66L26.8719 6.9C26.7119 6.74 26.6319 6.66 26.5519 6.5Z" fill="#FFBB00"/>
<path d="M20.4688 30.6599C24.7087 28.2599 27.2687 23.7799 27.2687 18.8999V8.6599C27.2687 8.0199 27.1087 7.4599 26.7887 6.8999L20.4688 30.6599Z" fill="#FFA800"/>
</g>
<defs>
<clipPath id="clip0_1800_114">
<rect width="160" height="32" fill="white" transform="translate(-0.0078125 0.5)"/>
</clipPath>
</defs>
</svg>
