<svg width="93" height="33" viewBox="0 0 93 33" fill="none" xmlns="http://www.w3.org/2000/svg">
<g clip-path="url(#clip0_1800_348)">
<path d="M19.4594 4.48769C16.3136 4.48769 14.4459 5.81692 13.5611 8.67231L11.3984 15.4662C10.612 17.6815 9.28488 18.6169 6.92558 18.6169H1.51884C0.879865 18.6169 0.290039 19.2077 0.290039 19.8477V23.3431C0.290039 23.9831 0.78156 24.4754 1.46969 24.4754H23.4898C24.178 24.4754 24.7678 23.8846 24.7678 23.1954V5.71846C24.7678 5.02923 24.2763 4.53692 23.5882 4.53692H19.4594V4.48769ZM1.61715 0.5C0.929017 0.5 0.290039 1.14 0.290039 1.82923V11.0846C0.290039 11.8231 0.879865 12.4138 1.61715 12.4138H6.2866C8.40014 12.4138 11.3493 11.9708 12.1849 8.18C12.1849 8.18 12.9713 4.34 13.4628 2.12462C13.5611 1.23846 12.9713 0.5 12.0865 0.5H1.61715Z" fill="#778EB1"/>
<path d="M87.5393 8.08162C87.5393 4.93085 89.6528 3.45393 92.6019 3.35547V5.91547H92.1104C90.7833 5.91547 90.0952 6.99855 90.0952 8.32778V10.3955H92.5036V12.6601H90.0952V25.3616H87.5393V12.6109H85.3274V10.3462H87.5393V8.08162ZM78.6427 16.3524C78.6427 13.7924 77.1682 12.6601 75.3987 12.6601C73.2852 12.6601 71.7123 14.0385 71.7123 16.5001V25.5093H69.1072V16.3524C69.1072 13.7924 67.6327 12.6601 65.8632 12.6601C63.7496 12.6601 62.1768 14.0385 62.1768 16.5001V25.5093H59.67V10.5432H62.2259V12.3155H62.2751C62.9632 10.7893 64.7818 10.1985 66.3056 10.1985C67.7801 10.1985 69.4513 10.5924 70.6309 12.7585C71.5648 10.8878 73.4818 10.1985 75.4478 10.1985C78.6427 10.1985 81.1003 12.1185 81.1003 16.0078V25.4601H78.5444V16.3524H78.6427ZM47.726 17.5832C44.5803 17.5832 43.5481 19.1093 43.5481 20.537C43.5481 21.9647 44.5803 23.4909 47.726 23.4909C50.8718 23.4909 51.904 21.9647 51.904 20.537C51.904 19.1093 50.7735 17.5832 47.726 17.5832ZM51.7565 15.4662C51.7565 13.0047 49.2989 12.4139 47.382 12.4139C46.0057 12.4139 44.6786 12.7585 43.3515 13.4478L42.221 11.3309C44.4329 10.3462 46.2023 10.1985 47.5294 10.1985C51.0684 10.1985 54.3616 11.7247 54.3616 15.2693V25.4601H51.904V23.8847C50.5769 25.2632 49.1515 25.8047 47.2345 25.8047C43.6464 25.8047 40.7956 23.7862 40.7956 20.4385C40.7956 17.6816 43.0566 15.3185 47.1854 15.3185C48.7091 15.3185 50.3803 15.7616 51.7565 17.0416V15.4662ZM35.9295 3.94624C36.9126 3.94624 37.699 4.73393 37.699 5.71855C37.699 6.75239 36.9126 7.54008 35.9295 7.54008C34.9465 7.54008 34.1601 6.75239 34.1601 5.76778C34.1601 4.73393 34.9956 3.94624 35.9295 3.94624ZM34.7499 10.4447H37.3058L37.355 27.2816C37.355 31.1709 34.8482 32.5001 32.0465 32.5001H31.0635V30.0878H32.0465C34.5533 30.0878 34.799 28.7093 34.799 27.3801L34.7499 10.4447Z" fill="black"/>
</g>
<defs>
<clipPath id="clip0_1800_348">
<rect width="92.3077" height="32" fill="white" transform="translate(0.290039 0.5)"/>
</clipPath>
</defs>
</svg>
