<svg width="143" height="33" viewBox="0 0 143 33" fill="none" xmlns="http://www.w3.org/2000/svg">
<mask id="mask0_1800_340" style="mask-type:luminance" maskUnits="userSpaceOnUse" x="0" y="0" width="143" height="33">
<path d="M142.29 0.5H0.816406V32.5H142.29V0.5Z" fill="white"/>
</mask>
<g mask="url(#mask0_1800_340)">
<path d="M7.20225 27.0431V14.0517H3.23175V27.6034C3.23175 28.5128 2.93944 29.1217 2.03816 29.1217C1.72465 29.1246 1.4117 29.0946 1.10442 29.0324L0.925781 32.4508C1.35008 32.521 1.77874 32.5617 2.20868 32.5726C5.895 32.5401 7.23472 30.4046 7.23472 27.0431H7.20225ZM19.0082 27.8551H22.8893V13.9868H18.9432V21.7004C18.9829 22.0799 18.9407 22.4635 18.8197 22.8254C18.6986 23.1873 18.5014 23.519 18.2414 23.7983C17.9813 24.0776 17.6645 24.2979 17.3121 24.4444C16.9598 24.591 16.5802 24.6603 16.1988 24.6478C14.7372 24.6478 14.0958 23.6897 14.0958 22.2525V13.9868H10.1253V23.3649C10.1253 26.3773 11.4732 28.2367 14.0958 28.2367C16.2881 28.2367 17.9851 26.832 18.7727 24.1769H19.065L19.0082 27.8551ZM29.6692 20.1414C29.6369 19.7619 29.6853 19.3797 29.8115 19.0203C29.9375 18.6607 30.1384 18.3321 30.4008 18.0559C30.6632 17.7797 30.9811 17.5622 31.3337 17.4179C31.6862 17.2735 32.0654 17.2055 32.4461 17.2184C33.8752 17.2184 34.5489 18.1846 34.5489 19.5893V27.8551H38.5196V20.1414C38.4836 19.7638 38.5284 19.3829 38.6513 19.024C38.774 18.6651 38.9717 18.3364 39.2314 18.0599C39.4911 17.7834 39.8067 17.5653 40.157 17.4202C40.5077 17.2751 40.8849 17.2063 41.2639 17.2184C42.7254 17.2184 43.3671 18.1846 43.3671 19.5893V27.8551H47.3698V18.4607C47.3698 15.4483 45.9979 13.5889 43.3102 13.5889C41.0284 13.5889 39.4534 15.018 38.6982 17.7299H38.3734C38.203 15.1316 37.0012 13.5889 34.5489 13.5889C32.3568 13.5889 30.6923 14.9855 29.9047 17.6487H29.6124V13.9381H25.7312V27.7901H29.7017L29.6692 20.1414ZM63.5524 20.9534C63.5524 16.1872 61.823 13.6457 58.7861 13.6457C56.5697 13.6457 55.0512 15.1073 54.3202 17.5269H54.0605V14.0193H50.0821V32.3046H54.0605V24.2419H54.2879C54.9942 26.6777 56.4801 28.3016 58.7861 28.3016C61.7985 28.2448 63.6012 25.7034 63.6012 20.9453L63.5524 20.9534ZM56.8617 24.7453C55.1647 24.7453 54.0605 23.4624 54.0605 21.4974V20.4094C54.0605 18.4282 55.1404 17.1615 56.8944 17.1615C58.7861 17.1615 59.6386 18.3632 59.6386 20.9047C59.6386 23.4461 58.8188 24.7371 56.8944 24.7371L56.8617 24.7453ZM74.7979 19.638L78.4762 18.9316C77.981 15.5782 76.2271 13.6214 72.1105 13.6214C67.7016 13.6214 65.014 16.3902 65.014 21.0996C65.014 25.8089 67.7582 28.2529 72.1348 28.2529C76.0809 28.2529 78.0376 26.2393 78.5085 23.0239L74.8548 22.147C74.5624 23.576 73.8887 24.7777 72.1105 24.7777C70.0642 24.7777 69.0736 23.3487 69.0736 20.8885C69.0736 18.2658 70.2104 17.0966 72.0536 17.0966C73.8968 17.0966 74.4812 18.1359 74.8305 19.6299L74.7979 19.638ZM84.7526 9.08254H80.8145V27.8388H84.7852L84.7526 9.08254ZM94.1063 28.2448C98.5153 28.2448 101.203 25.4679 101.203 20.9372C101.203 16.4064 98.426 13.6295 94.1063 13.6295C89.7867 13.6295 86.9451 16.3171 86.9451 20.9372C86.9451 25.5572 89.6408 28.2448 94.139 28.2448H94.1063ZM94.1063 16.9423C96.2988 16.9423 97.2568 18.3714 97.2568 20.8803C97.2568 23.3893 96.3231 24.8589 94.1063 24.8589C91.8899 24.8589 90.9478 23.3974 90.9478 20.8803C90.9478 18.3632 91.9142 16.9423 94.1063 16.9423ZM112.246 27.8388H116.127V13.9868H112.132V21.7004C112.17 22.0804 112.127 22.4641 112.005 22.826C111.883 23.1879 111.685 23.5195 111.424 23.7986C111.164 24.0777 110.846 24.2979 110.494 24.4443C110.141 24.5908 109.761 24.6602 109.379 24.6478C107.926 24.6478 107.277 23.6897 107.277 22.2525V13.9868H103.306V23.3649C103.306 26.3773 104.654 28.2367 107.277 28.2367C109.469 28.2367 111.166 26.832 111.953 24.1769H112.246V27.8388ZM127.754 27.8388H131.725V9.08254H127.746V17.4944H127.486C126.755 15.0586 125.262 13.6133 123.045 13.6133C120.008 13.6133 118.254 16.2115 118.254 21.0265C118.254 25.7034 120.008 28.2448 122.988 28.2448C125.294 28.2448 126.812 26.6209 127.511 24.185H127.746L127.754 27.8388ZM124.953 24.7371C122.996 24.7371 122.143 23.5111 122.143 21.0265C122.143 18.5419 123.021 17.2022 124.92 17.2022C126.674 17.2022 127.754 18.485 127.754 20.5068V21.603C127.746 23.5111 126.617 24.7371 124.953 24.7371ZM7.39711 10.1218C7.39711 10.5458 7.2714 10.9602 7.03585 11.3127C6.80033 11.6652 6.46554 11.94 6.07386 12.1022C5.68214 12.2645 5.25116 12.3069 4.83536 12.2242C4.41953 12.1415 4.03758 11.9373 3.7378 11.6376C3.43801 11.3378 3.23385 10.9559 3.15114 10.54C3.06843 10.1242 3.11089 9.6932 3.27313 9.30152C3.43537 8.90984 3.71012 8.57505 4.06263 8.3395C4.41515 8.10398 4.82956 7.97827 5.25355 7.97827C5.53505 7.97827 5.81378 8.03372 6.07386 8.14144C6.33393 8.24916 6.57023 8.40704 6.76927 8.60611C6.96831 8.80515 7.12622 9.04145 7.23394 9.30152C7.34166 9.5616 7.39711 9.84033 7.39711 10.1218Z" fill="#002B49"/>
<path d="M137.917 24.2336V24.802H136.821V27.652H136.147V24.802H135.059V24.2336H137.917ZM141.611 27.652L141.49 25.6383C141.49 25.3785 141.49 25.0537 141.49 24.6883H141.449C141.36 24.9888 141.262 25.3947 141.156 25.7033L140.547 27.6033H139.841L139.224 25.6546L138.989 24.6883H138.948C138.948 24.9969 138.948 25.3298 138.948 25.6383L138.818 27.652H138.169L138.42 24.2336H139.435L140.028 25.9063C140.101 26.1661 140.166 26.4178 140.255 26.7751C140.345 26.4584 140.418 26.1661 140.499 25.9144L141.091 24.2336H142.066L142.334 27.652H141.611Z" fill="#002B49"/>
</g>
</svg>
