<svg width="118" height="33" viewBox="0 0 118 33" fill="none" xmlns="http://www.w3.org/2000/svg">
<g clip-path="url(#clip0_1800_315)">
<path d="M57.8467 26.201H58.5655L62.2684 31.312V26.201H62.9037V32.3997H62.3016L58.4819 27.1376V32.3997H57.8467V26.201Z" fill="#211C1D"/>
<path d="M64.4795 26.201H68.5745V26.8285H65.1396V28.8776H68.491V29.497H65.1396V31.7973H68.6081V32.3997H64.4795V26.201Z" fill="#211C1D"/>
<path d="M71.8964 26.8285H69.5732V26.201H74.8804V26.8285H72.5569V32.3997H71.8964V26.8285Z" fill="#211C1D"/>
<path d="M75.6826 26.201H76.3597L77.9893 31.3283L79.6525 26.201H80.221L81.8759 31.3283L83.5138 26.201H84.1493L82.16 32.4412H81.5919L79.9201 27.2803L78.2569 32.4412H77.6804L75.6826 26.201Z" fill="#211C1D"/>
<path d="M90.3198 29.3043C90.3198 27.6313 89.5427 26.7283 87.854 26.7283C86.1741 26.7283 85.4053 27.6313 85.4053 29.3043C85.4053 30.9859 86.1741 31.8897 87.854 31.8897C89.5427 31.8897 90.3198 30.9859 90.3198 29.3043ZM84.7451 29.2962C84.7451 27.088 85.8733 26.1006 87.854 26.1006C89.8432 26.1006 90.9799 27.088 90.9799 29.2962C90.9799 31.5129 89.8432 32.5 87.854 32.5C85.8733 32.5 84.7451 31.5129 84.7451 29.2962Z" fill="#211C1D"/>
<path d="M95.0063 29.2709C95.8838 29.2709 96.4269 29.0033 96.4269 28.0245C96.4269 27.0625 95.9005 26.8118 94.9812 26.8118H92.9669V29.2709H95.0063ZM94.8224 29.873H92.9669V32.3997H92.3232V26.201H94.9978C96.4352 26.201 97.0874 26.7783 97.0874 28.008C97.0874 29.0785 96.5776 29.7058 95.4991 29.8478L96.995 32.3997H96.2933L94.8224 29.873Z" fill="#211C1D"/>
<path d="M100.376 29.1121L99.1385 30.4669V32.3997H98.4951V26.201H99.1385V29.6225L102.273 26.201H103.033L100.81 28.6353L103.334 32.3997H102.59L100.376 29.1121Z" fill="#211C1D"/>
<path d="M103.886 31.7724L104.22 31.2707C104.963 31.7388 105.691 31.8981 106.435 31.8981C107.714 31.8981 108.282 31.5384 108.282 30.6847C108.282 29.8064 107.546 29.6813 106.435 29.4807C105.097 29.246 104.195 29.0198 104.195 27.7659C104.195 26.5691 104.963 26.1007 106.435 26.1007C107.405 26.1007 108.098 26.3186 108.591 26.653L108.24 27.1883C107.797 26.8955 107.137 26.7029 106.435 26.7029C105.323 26.7029 104.847 27.0129 104.847 27.7486C104.847 28.5354 105.49 28.6855 106.594 28.8861C107.948 29.1291 108.925 29.3299 108.925 30.6597C108.925 31.8898 108.14 32.4832 106.452 32.4832C105.516 32.4832 104.671 32.2911 103.886 31.7724Z" fill="#211C1D"/>
<path d="M115.392 0.58223C106.685 0.58223 106.315 4.48647 106.315 9.99455V23.5171H108.368V9.99455C108.368 5.84328 108.204 2.51397 115.392 2.51397C116.162 2.51397 116.845 2.55441 117.46 2.62632V0.668488C116.826 0.612886 116.141 0.58223 115.392 0.58223Z" fill="#211C1D"/>
<path d="M13.8467 14.7213V1.03379H15.9412V14.7619C15.9412 18.7082 15.9004 22.037 23.1281 22.037C30.3146 22.037 30.1507 18.7082 30.1507 14.5565V1.03379H32.2039V14.5565C32.2039 20.0648 31.834 23.9692 23.1281 23.9692C14.3804 23.9692 13.8467 20.0648 13.8467 14.7213Z" fill="#211C1D"/>
<path d="M54.0396 9.82995V23.5173H51.9452V9.78934C51.9452 5.84352 51.9859 2.51421 44.7585 2.51421C37.5713 2.51421 37.7362 5.84352 37.7362 9.9948V23.5173H35.6826V9.9948C35.6826 4.48672 36.0526 0.582474 44.7585 0.582474C53.5061 0.582474 54.0396 4.48672 54.0396 9.82995Z" fill="#211C1D"/>
<path d="M57.8467 1.07548H59.8564V23.5171H57.8467V1.07548Z" fill="#211C1D"/>
<path d="M74.1477 13.7015C77.7746 13.7015 79.5767 11.9326 79.5767 8.35876C79.5767 4.78585 77.632 3.08973 74.0578 3.08973H65.6307V13.7015H74.1477ZM63.6201 1.07548H74.1173C79.3227 1.07548 81.6831 3.66499 81.6831 8.26843C81.6831 12.9022 79.3526 15.7195 74.0883 15.7195H65.6307V23.5171H63.6201V1.07548Z" fill="#211C1D"/>
<path d="M86.0806 10.6928H101.357C101.152 6.21282 100.864 2.39059 94.3345 2.39059C88.0517 2.39059 86.3271 5.80224 86.0806 10.6928ZM84.0264 12.2141C84.0264 5.59711 85.9165 0.499777 94.3766 0.499777C103.123 0.499777 103.41 6.37701 103.37 12.5836H86.0395C86.0806 18.0508 87.4351 22.1204 94.5401 22.1204C98.3181 22.1204 100.043 21.0921 101.891 19.7358L103.041 21.2565C100.988 22.7773 98.5653 23.9692 94.5401 23.9692C85.6699 23.9692 84.0264 18.831 84.0264 12.2141Z" fill="#211C1D"/>
<path d="M1.23709 28.387C9.94335 28.387 10.3131 24.4824 10.3131 18.9741V1.03374H8.25934V18.9741C8.25934 23.1249 8.42365 26.4555 1.23709 26.4555C0.965484 26.4555 0.707301 26.4488 0.456055 26.4389L0.456055 28.3765C0.708701 28.383 0.968475 28.387 1.23709 28.387Z" fill="#231F20"/>
<path d="M112.866 20.9606C112.185 20.9606 111.632 21.5146 111.632 22.196C111.632 22.8764 112.185 23.4312 112.866 23.4312C113.546 23.4312 114.1 22.8764 114.1 22.196C114.1 21.5146 113.546 20.9606 112.866 20.9606ZM112.866 23.6145C112.085 23.6145 111.448 22.9781 111.448 22.196C111.448 21.4136 112.085 20.777 112.866 20.777C113.648 20.777 114.283 21.4136 114.283 22.196C114.283 22.9781 113.648 23.6145 112.866 23.6145Z" fill="#211C1D"/>
<path d="M113.014 22.1811C113.237 22.1811 113.364 22.1167 113.364 21.8789C113.364 21.6435 113.24 21.5892 113.008 21.5892H112.509V22.1811H113.014ZM112.964 22.3849H112.509V23.0117H112.292V21.3821H113.017C113.429 21.3821 113.588 21.5513 113.588 21.8729C113.588 22.1359 113.477 22.3177 113.195 22.3701L113.563 23.0117H113.327L112.964 22.3849Z" fill="#211C1D"/>
</g>
<defs>
<clipPath id="clip0_1800_315">
<rect width="117.008" height="32" fill="white" transform="translate(0.456055 0.5)"/>
</clipPath>
</defs>
</svg>
