<svg width="117" height="33" viewBox="0 0 117 33" fill="none" xmlns="http://www.w3.org/2000/svg">
<g clip-path="url(#clip0_1800_235)">
<path d="M14.5186 23.5564C14.5764 23.5564 14.6342 23.5564 14.692 23.5564C14.7498 23.5564 14.8076 23.5564 14.8654 23.5564C14.9232 23.5564 14.981 23.5564 15.0388 23.5564C15.0966 23.5564 15.1544 23.5564 15.2122 23.5564V26.4021H18.7959V23.5564C18.8537 23.5564 18.9115 23.5564 18.9693 23.5564C19.0271 23.5564 19.0849 23.5564 19.1427 23.5564C19.2006 23.5564 19.2584 23.5564 19.3162 23.5564C19.374 23.5564 19.4318 23.5564 19.4896 23.5564V30.2932C19.4318 30.2932 19.374 30.2932 19.3162 30.2932C19.2584 30.2932 19.2006 30.2932 19.1427 30.2932C19.0849 30.2932 19.0271 30.2932 18.9693 30.2932C18.9115 30.2932 18.8537 30.2932 18.7959 30.2932V26.9829H15.2122V30.2932C15.1544 30.2932 15.0966 30.2932 15.0388 30.2932C14.981 30.2932 14.9232 30.2932 14.8654 30.2932C14.8076 30.2932 14.7498 30.2932 14.692 30.2932C14.6342 30.2932 14.5764 30.2932 14.5186 30.2932V23.5564Z" fill="#676767"/>
<path d="M20.9326 25.4729C20.9904 25.4729 21.0482 25.4729 21.106 25.4729C21.1638 25.4729 21.2216 25.4729 21.2794 25.4729C21.3372 25.4729 21.395 25.4729 21.4528 25.4729C21.5106 25.4729 21.5684 25.4729 21.6262 25.4729V28.1444C21.6262 28.4929 21.684 28.7832 21.7418 28.9575C21.7997 29.1898 21.9153 29.364 22.0887 29.4802C22.2621 29.5963 22.4355 29.7125 22.6089 29.7125C22.8401 29.7705 23.0713 29.7705 23.3025 29.7705C23.5337 29.7705 23.7071 29.7705 23.8805 29.7125C24.0539 29.7125 24.2274 29.6544 24.343 29.5963V25.4729C24.4008 25.4729 24.4586 25.4729 24.5164 25.4729C24.5742 25.4729 24.632 25.4729 24.6898 25.4729C24.7476 25.4729 24.8054 25.4729 24.8632 25.4729C24.921 25.4729 24.9788 25.4729 25.0366 25.4729V30.119C24.8054 30.1771 24.5164 30.2351 24.2274 30.2932C23.9383 30.3513 23.5915 30.3513 23.3025 30.3513C23.0135 30.3513 22.6667 30.2932 22.4355 30.2932C22.1465 30.2351 21.9153 30.119 21.684 29.9448C21.4528 29.7705 21.3372 29.5382 21.2216 29.3059C21.106 29.0155 21.0482 28.6671 21.0482 28.2025L20.9326 25.4729Z" fill="#676767"/>
<path d="M26.3654 25.4728C26.4232 25.4728 26.481 25.4728 26.5388 25.4728C26.5966 25.4728 26.6544 25.4728 26.7122 25.4728C26.77 25.4728 26.8278 25.4728 26.8856 25.4728C26.9434 25.4728 27.0012 25.4728 27.059 25.4728C27.059 25.589 27.059 25.7051 27.1168 25.8794C27.1168 26.0536 27.1168 26.1698 27.1168 26.2859C27.1747 26.1698 27.2325 26.0536 27.3481 25.9375C27.4637 25.8213 27.5793 25.7051 27.6949 25.6471C27.8105 25.5309 27.9839 25.4728 28.1573 25.4148C28.3307 25.3567 28.5041 25.3567 28.7353 25.3567C28.9087 25.3567 29.0821 25.3567 29.2555 25.4148C29.3711 25.4728 29.5446 25.5309 29.6024 25.589C29.718 25.6471 29.7758 25.7632 29.8914 25.8794C29.9492 25.9955 30.007 26.1117 30.0648 26.2278C30.1226 26.1117 30.2382 26.0536 30.296 25.9375C30.4116 25.8213 30.4694 25.7632 30.6428 25.6471C30.7584 25.589 30.9318 25.4728 31.0474 25.4148C31.2208 25.3567 31.3942 25.3567 31.5676 25.3567C32.1457 25.3567 32.6081 25.5309 32.8393 25.8213C32.9549 26.1698 33.1283 26.6344 33.1283 27.2151V30.2932C33.0705 30.2932 33.0127 30.2932 32.9549 30.2932C32.8971 30.2932 32.8393 30.2932 32.7815 30.2932C32.7237 30.2932 32.6659 30.2932 32.6081 30.2932C32.5503 30.2932 32.4925 30.2932 32.4347 30.2932V27.4474C32.4347 26.9247 32.3191 26.5763 32.1457 26.344C31.9723 26.0536 31.741 25.9375 31.3942 25.9375C31.163 25.9375 30.9896 25.9955 30.8162 26.0536C30.6428 26.1117 30.5272 26.2278 30.4116 26.4021C30.296 26.5182 30.2382 26.6924 30.1804 26.8667C30.1226 27.0409 30.0648 27.2732 30.0648 27.4474V30.2351C30.007 30.2351 29.9492 30.2351 29.8914 30.2351C29.8336 30.2351 29.7758 30.2351 29.718 30.2351C29.6602 30.2351 29.6024 30.2351 29.5446 30.2351C29.4867 30.2351 29.4289 30.2351 29.3711 30.2351V27.2732C29.3711 26.8086 29.3133 26.4601 29.1399 26.2278C28.9665 25.9955 28.7353 25.8794 28.4463 25.8794C28.2151 25.8794 28.0417 25.9375 27.8683 25.9955C27.6949 26.0536 27.5215 26.2278 27.4059 26.4021C27.2903 26.5763 27.1747 26.8086 27.1168 27.0409C27.059 27.2732 27.0012 27.5636 27.0012 27.854V30.2351C26.9434 30.2351 26.8856 30.2351 26.8278 30.2351C26.77 30.2351 26.7122 30.2351 26.6544 30.2351C26.5966 30.2351 26.5388 30.2351 26.481 30.2351C26.4232 30.2351 26.3654 30.2351 26.3076 30.2351L26.3654 25.4728Z" fill="#676767"/>
<path d="M37.1774 27.099C37.1774 26.6924 37.0618 26.4021 36.8884 26.1698C36.6571 25.9955 36.3681 25.8794 35.9635 25.8794C35.6745 25.8794 35.4433 25.8794 35.2121 25.9375C34.9809 25.9955 34.8075 25.9955 34.6341 26.0536C34.5763 25.9955 34.5763 25.9375 34.5185 25.8213C34.5185 25.7051 34.4607 25.589 34.4607 25.5309C34.6341 25.4728 34.8653 25.4148 35.0965 25.4148C35.3277 25.3567 35.6167 25.3567 35.9057 25.3567C36.5415 25.3567 37.0618 25.4728 37.3508 25.7632C37.6398 26.0536 37.8132 26.4601 37.8132 27.0409V30.2351C37.582 30.2932 37.293 30.3512 36.9462 30.3512C36.5993 30.4093 36.3103 30.4093 35.9635 30.4093C35.3277 30.4093 34.8653 30.2932 34.4607 30.0609C34.1138 29.8286 33.9404 29.4801 33.9404 28.9574C33.9404 28.7251 33.9982 28.4928 34.1138 28.2605C34.2294 28.0282 34.345 27.912 34.5763 27.7378C34.7497 27.6217 34.9809 27.5055 35.2699 27.4474C35.5589 27.3894 35.7901 27.3313 36.1369 27.3313C36.3681 27.3313 36.5993 27.3313 36.7727 27.3313C36.9462 27.3313 37.1196 27.3894 37.2352 27.3894L37.1774 27.099ZM37.1774 27.9701C37.0618 27.9701 36.9462 27.9701 36.7727 27.912C36.5993 27.854 36.4259 27.912 36.3103 27.912C35.7901 27.912 35.3855 28.0282 35.1543 28.2024C34.8653 28.3767 34.7497 28.609 34.7497 28.9574C34.7497 29.1897 34.8075 29.3059 34.8653 29.4801C34.9231 29.5963 35.0387 29.7124 35.2121 29.7705C35.3277 29.8286 35.5011 29.8866 35.6745 29.8866C35.8479 29.8866 36.0213 29.9447 36.1369 29.9447C36.3681 29.9447 36.5415 29.9447 36.7149 29.8866C36.8884 29.8866 37.0618 29.8286 37.2352 29.8286L37.1774 27.9701Z" fill="#676767"/>
<path d="M39.0811 25.4728C39.1389 25.4728 39.1967 25.4728 39.2545 25.4728C39.3123 25.4728 39.3701 25.4728 39.4279 25.4728C39.4857 25.4728 39.5435 25.4728 39.6013 25.4728C39.6591 25.4728 39.7169 25.4728 39.7747 25.4728C39.7747 25.589 39.7747 25.7051 39.8325 25.8794C39.8325 26.0536 39.8325 26.1698 39.8325 26.344C39.8903 26.2278 40.0059 26.1117 40.1215 25.9955C40.2371 25.8794 40.3527 25.7632 40.5261 25.7051C40.6417 25.589 40.8151 25.5309 41.0463 25.4728C41.2197 25.4148 41.451 25.3567 41.6822 25.3567C42.2602 25.3567 42.7226 25.5309 42.9538 25.8213C43.2428 26.1698 43.3584 26.6344 43.3584 27.2151V30.2351C43.3006 30.2351 43.2428 30.2351 43.185 30.2351C43.1272 30.2351 43.0694 30.2351 43.0116 30.2351C42.9538 30.2351 42.896 30.2351 42.8382 30.2351C42.7804 30.2351 42.7226 30.2351 42.6648 30.2351V27.3894C42.6648 26.8667 42.5492 26.4601 42.3758 26.2278C42.2024 25.9955 41.9134 25.8794 41.5666 25.8794C41.3353 25.8794 41.1041 25.9375 40.8729 25.9955C40.6417 26.0536 40.4683 26.2278 40.3527 26.4021C40.1793 26.5763 40.0637 26.7505 40.0059 27.0409C39.8903 27.2732 39.8903 27.5636 39.8903 27.854V30.2351C39.8325 30.2351 39.7747 30.2351 39.7169 30.2351C39.6591 30.2351 39.6013 30.2351 39.5435 30.2351C39.4857 30.2351 39.4279 30.2351 39.3701 30.2351C39.3123 30.2351 39.2545 30.2351 39.1967 30.2351L39.0811 25.4728Z" fill="#676767"/>
<path d="M46.945 27.9701C46.945 28.609 47.1184 29.0736 47.4074 29.364C47.6964 29.6543 48.2166 29.8286 48.8525 29.8286C49.0837 29.8286 49.3727 29.8286 49.5461 29.7705C49.7773 29.7124 50.0085 29.6543 50.1819 29.5963C50.2397 29.6543 50.2397 29.7705 50.2397 29.8286C50.2397 29.9447 50.2975 30.0028 50.2975 30.1189C50.1241 30.177 49.8929 30.2351 49.6039 30.2932C49.3149 30.3512 49.0837 30.3512 48.7369 30.3512C48.2744 30.3512 47.9276 30.2932 47.5808 30.177C47.234 30.0609 47.0028 29.8866 46.7716 29.6543C46.5404 29.422 46.4248 29.1897 46.3092 28.8413C46.1935 28.5509 46.1357 28.2024 46.1357 27.854C46.1357 27.5055 46.1935 27.1571 46.2513 26.8667C46.3091 26.5763 46.4826 26.2859 46.656 26.0536C46.8294 25.8213 47.0606 25.6471 47.3496 25.5309C47.6386 25.4148 47.9854 25.3567 48.39 25.3567C48.7369 25.3567 49.0259 25.4148 49.3149 25.5309C49.6039 25.6471 49.7773 25.7632 49.9507 25.9955C50.1241 26.1698 50.2397 26.4021 50.3553 26.6924C50.4709 26.9828 50.4709 27.2732 50.4709 27.5636C50.4709 27.6217 50.4709 27.6797 50.4709 27.7959C50.4709 27.912 50.4709 27.9701 50.4709 28.0282C50.6443 27.9701 46.945 27.9701 46.945 27.9701ZM50.0085 27.4474C50.0085 27.2732 50.0085 27.0409 49.9507 26.8667C49.8929 26.6924 49.8351 26.5182 49.7195 26.4021C49.6039 26.2859 49.4305 26.1698 49.2571 26.0536C49.0837 25.9375 48.8525 25.9375 48.6212 25.9375C48.1588 25.9375 47.7542 26.0536 47.523 26.344C47.234 26.6344 47.1184 26.9828 47.0606 27.5055L50.0085 27.4474Z" fill="#676767"/>
<path d="M51.6826 25.4729C51.7404 25.4729 51.7982 25.4729 51.856 25.4729C51.9138 25.4729 51.9716 25.4729 52.0294 25.4729C52.0872 25.4729 52.145 25.4729 52.2028 25.4729C52.2606 25.4729 52.3184 25.4729 52.3762 25.4729C52.3762 25.5891 52.3762 25.7052 52.4341 25.8794C52.4341 26.0537 52.4341 26.1698 52.4341 26.286C52.5497 26.0537 52.7809 25.8794 53.0121 25.7052C53.2433 25.531 53.5901 25.4729 53.9947 25.4729C54.0525 25.4729 54.0525 25.4729 54.1103 25.4729C54.1681 25.4729 54.1681 25.4729 54.2259 25.4729C54.2259 25.5891 54.2837 25.7052 54.2837 25.7633C54.2837 25.8794 54.2837 25.9375 54.2259 26.0537C54.1681 26.0537 54.1103 26.0537 54.1103 26.0537C54.1103 26.0537 54.0525 26.0537 53.9947 26.0537C53.5323 26.0537 53.1855 26.1698 52.8965 26.4602C52.6075 26.7506 52.4919 27.1571 52.4919 27.7959V30.2352C52.434 30.2352 52.3762 30.2352 52.3184 30.2352C52.2606 30.2352 52.2028 30.2352 52.145 30.2352C52.0872 30.2352 52.0294 30.2352 51.9716 30.2352C51.9138 30.2352 51.856 30.2352 51.7982 30.2352L51.6826 25.4729Z" fill="#676767"/>
<path d="M54.8076 25.4729C54.8654 25.4729 54.9232 25.4729 54.981 25.4729C55.0388 25.4729 55.0966 25.4729 55.1544 25.4729C55.2122 25.4729 55.27 25.4729 55.3278 25.4729C55.3856 25.4729 55.4434 25.4729 55.5012 25.4729C55.5012 25.5891 55.5012 25.7052 55.5591 25.8794C55.5591 26.0537 55.5591 26.1698 55.5591 26.286C55.6747 26.0537 55.9059 25.8794 56.1371 25.7052C56.3683 25.531 56.7151 25.4729 57.1197 25.4729C57.1775 25.4729 57.1775 25.4729 57.2353 25.4729C57.2931 25.4729 57.2931 25.4729 57.3509 25.4729C57.3509 25.5891 57.4087 25.7052 57.4087 25.7633C57.4087 25.8794 57.4087 25.9375 57.3509 26.0537C57.2931 26.0537 57.2353 26.0537 57.2353 26.0537C57.1775 26.0537 57.1775 26.0537 57.1197 26.0537C56.6573 26.0537 56.3105 26.1698 56.0215 26.4602C55.7325 26.7506 55.6169 27.1571 55.6169 27.7959V30.2352C55.559 30.2352 55.5012 30.2352 55.4434 30.2352C55.3856 30.2352 55.3278 30.2352 55.27 30.2352C55.2122 30.2352 55.1544 30.2352 55.0966 30.2352C55.0388 30.2352 54.981 30.2352 54.9232 30.2352L54.8076 25.4729Z" fill="#676767"/>
<path d="M59.8979 30.4093C59.4932 30.4093 59.2042 30.3513 58.9152 30.2351C58.6262 30.119 58.395 29.9447 58.1638 29.7124C57.9326 29.4801 57.817 29.2478 57.7592 28.8994C57.6436 28.609 57.6436 28.2605 57.6436 27.9121C57.6436 27.5636 57.7014 27.2152 57.7592 26.9248C57.8748 26.6344 57.9904 26.344 58.1638 26.1117C58.3372 25.8794 58.5684 25.7052 58.9152 25.589C59.2042 25.4729 59.551 25.4148 59.8979 25.4148C60.2447 25.4148 60.5915 25.4729 60.8805 25.589C61.1695 25.7052 61.4007 25.8794 61.5741 26.1117C61.7475 26.344 61.9209 26.5763 62.0365 26.9248C62.1521 27.2152 62.2099 27.5636 62.2099 27.9121C62.2099 28.2605 62.1521 28.609 62.0365 28.8994C61.9209 29.1897 61.8053 29.4801 61.5741 29.7124C61.4007 29.9447 61.1695 30.119 60.8805 30.2351C60.5915 30.3513 60.3025 30.4093 59.8979 30.4093ZM59.8979 29.8286C60.4181 29.8286 60.8227 29.6544 61.1117 29.3059C61.4007 28.9574 61.5163 28.4928 61.5163 27.854C61.5163 27.2732 61.4007 26.7505 61.1117 26.4021C60.8227 26.0536 60.4181 25.8794 59.8979 25.8794C59.3776 25.8794 58.973 26.0536 58.684 26.4021C58.395 26.7505 58.2794 27.2152 58.2794 27.854C58.2794 28.4928 58.395 28.9574 58.684 29.3059C58.973 29.6544 59.3776 29.8286 59.8979 29.8286Z" fill="#676767"/>
<path d="M63.2451 25.4729C63.3029 25.4729 63.3607 25.4729 63.4185 25.4729C63.4763 25.4729 63.5341 25.4729 63.5919 25.4729C63.6497 25.4729 63.7075 25.4729 63.7653 25.4729C63.8231 25.4729 63.8809 25.4729 63.9387 25.4729C63.9387 25.5891 63.9387 25.7052 63.9966 25.8794C64.0544 26.0537 63.9966 26.1698 63.9966 26.286C64.1122 26.0537 64.3434 25.8794 64.5746 25.7052C64.8058 25.531 65.1526 25.4729 65.5572 25.4729C65.615 25.4729 65.615 25.4729 65.6728 25.4729C65.7306 25.4729 65.7306 25.4729 65.7884 25.4729C65.7884 25.5891 65.8462 25.7052 65.8462 25.7633C65.8462 25.8794 65.8462 25.9375 65.7884 26.0537C65.7306 26.0537 65.6728 26.0537 65.6728 26.0537C65.6728 26.0537 65.615 26.0537 65.5572 26.0537C65.0948 26.0537 64.748 26.1698 64.459 26.4602C64.17 26.7506 64.0544 27.1571 64.0544 27.7959V30.2352C63.9965 30.2352 63.9387 30.2352 63.8809 30.2352C63.8231 30.2352 63.7653 30.2352 63.7075 30.2352C63.6497 30.2352 63.5919 30.2352 63.5341 30.2352C63.4763 30.2352 63.4185 30.2352 63.3607 30.2352L63.2451 25.4729Z" fill="#676767"/>
<path d="M66.0764 30.2933C66.0764 30.1771 66.0186 30.0029 66.0186 29.8867C66.0186 29.7706 66.0186 29.5963 66.0764 29.4802C66.192 29.4802 66.3654 29.4221 66.481 29.4221C66.6544 29.4221 66.77 29.4221 66.9434 29.4802C66.9434 29.5963 67.0012 29.7706 67.0012 29.8867C67.0012 30.0029 67.0012 30.1771 66.9434 30.2933C66.8278 30.2933 66.6544 30.3513 66.5388 30.3513C66.3654 30.2933 66.192 30.2933 66.0764 30.2933Z" fill="#676767"/>
<path d="M74.749 29.5382C74.8068 29.6544 74.8646 29.7125 74.8646 29.8286C74.9224 29.9448 74.9224 30.0029 74.9802 30.119C74.749 30.2352 74.4599 30.2932 74.1709 30.3513C73.8819 30.4094 73.5351 30.4675 73.1883 30.4675C72.7259 30.4675 72.2635 30.4094 71.8588 30.2352C71.4542 30.0609 71.1074 29.8867 70.8184 29.5963C70.5294 29.3059 70.2982 28.9575 70.1248 28.551C69.9514 28.1444 69.8936 27.6217 69.8936 27.099C69.8936 26.5183 69.9514 26.0537 70.1248 25.5891C70.2982 25.1245 70.5294 24.776 70.8184 24.4856C71.1074 24.1952 71.4542 23.9629 71.8588 23.7887C72.2635 23.6145 72.7259 23.5564 73.2461 23.5564C73.6507 23.5564 73.9975 23.5564 74.2865 23.6145C74.5756 23.6725 74.749 23.7306 74.9224 23.7306C74.9224 23.8468 74.8646 23.9629 74.8646 24.021C74.8646 24.0791 74.8068 24.1952 74.749 24.3114C74.6334 24.3114 74.5756 24.2533 74.4599 24.2533C74.3443 24.2533 74.2865 24.1952 74.1709 24.1952C74.0553 24.1952 73.9397 24.1372 73.7663 24.1372C73.5929 24.1372 73.4195 24.1372 73.2461 24.1372C72.8415 24.1372 72.4947 24.1952 72.1479 24.3114C71.8588 24.4275 71.5698 24.6598 71.3386 24.8921C71.1074 25.1245 70.934 25.4729 70.8184 25.8214C70.7028 26.1698 70.645 26.6344 70.645 27.099C70.645 27.5637 70.7028 28.0283 70.8184 28.3767C70.934 28.7252 71.1652 29.0156 71.3964 29.2479C71.6276 29.4802 71.9166 29.6544 72.2635 29.7706C72.6103 29.8867 72.9571 29.9448 73.3039 29.9448C73.5929 29.9448 73.8819 29.9448 74.1709 29.8867C74.3443 29.6544 74.5756 29.5963 74.749 29.5382Z" fill="#676767"/>
<path d="M77.4057 30.4093C77.001 30.4093 76.712 30.3513 76.423 30.2351C76.134 30.119 75.9028 29.9447 75.6716 29.7124C75.4982 29.4801 75.3248 29.2478 75.267 28.8994C75.1514 28.609 75.1514 28.2605 75.1514 27.9121C75.1514 27.5636 75.2092 27.2152 75.267 26.9248C75.3826 26.6344 75.4982 26.344 75.6716 26.1117C75.845 25.8794 76.0762 25.7052 76.423 25.589C76.712 25.4729 77.0589 25.4148 77.4057 25.4148C77.7525 25.4148 78.0993 25.4729 78.3883 25.589C78.6773 25.7052 78.9085 25.8794 79.0819 26.1117C79.2553 26.344 79.4288 26.5763 79.5444 26.9248C79.66 27.2152 79.7178 27.5636 79.7178 27.9121C79.7178 28.2605 79.66 28.609 79.5444 28.8994C79.4288 29.1897 79.3131 29.4801 79.0819 29.7124C78.9085 29.9447 78.6773 30.119 78.3883 30.2351C78.0993 30.3513 77.8103 30.4093 77.4057 30.4093ZM77.4057 29.8286C77.9259 29.8286 78.3305 29.6544 78.6195 29.3059C78.9085 28.9574 79.0241 28.4928 79.0241 27.854C79.0241 27.2732 78.9085 26.7505 78.6195 26.4021C78.3305 26.0536 77.9259 25.8794 77.4057 25.8794C76.8854 25.8794 76.4808 26.0536 76.1918 26.4021C75.9028 26.7505 75.7872 27.2152 75.7872 27.854C75.7872 28.4928 75.9028 28.9574 76.1918 29.3059C76.4808 29.6544 76.8854 29.8286 77.4057 29.8286Z" fill="#676767"/>
<path d="M80.7607 25.4728C80.8185 25.4728 80.8763 25.4728 80.9342 25.4728C80.992 25.4728 81.0498 25.4728 81.1076 25.4728C81.1654 25.4728 81.2232 25.4728 81.281 25.4728C81.3388 25.4728 81.3966 25.4728 81.4544 25.4728C81.4544 25.589 81.4544 25.7051 81.5122 25.8794C81.57 26.0536 81.5122 26.1698 81.5122 26.344C81.57 26.2278 81.6856 26.1117 81.8012 25.9955C81.9168 25.8794 82.0324 25.7632 82.2058 25.7051C82.3214 25.589 82.4948 25.5309 82.726 25.4728C82.8994 25.4148 83.1306 25.3567 83.3619 25.3567C83.9399 25.3567 84.4023 25.5309 84.6335 25.8213C84.9225 26.1698 85.0381 26.6344 85.0381 27.2151V30.2351C84.9803 30.2351 84.9225 30.2351 84.8647 30.2351C84.8069 30.2351 84.7491 30.2351 84.6913 30.2351C84.6335 30.2351 84.5757 30.2351 84.5179 30.2351C84.4601 30.2351 84.4023 30.2351 84.3445 30.2351V27.3894C84.3445 26.8667 84.2289 26.4601 84.0555 26.2278C83.8821 25.9955 83.5931 25.8794 83.2462 25.8794C83.015 25.8794 82.7838 25.9375 82.5526 25.9955C82.3214 26.0536 82.148 26.2278 82.0324 26.4021C81.859 26.5763 81.7434 26.7505 81.6856 27.0409C81.57 27.2732 81.57 27.5636 81.57 27.854V30.2351C81.5122 30.2351 81.4544 30.2351 81.3966 30.2351C81.3388 30.2351 81.281 30.2351 81.2232 30.2351C81.1654 30.2351 81.1076 30.2351 81.0498 30.2351C80.992 30.2351 80.9342 30.2351 80.8764 30.2351L80.7607 25.4728Z" fill="#676767"/>
<path d="M89.546 30.2351C89.3726 30.2932 89.1992 30.2932 89.0258 30.3513C88.8524 30.3513 88.6212 30.4093 88.4478 30.4093C88.101 30.4093 87.7542 30.3513 87.4651 30.2932C87.1761 30.2351 86.8871 30.0609 86.6559 29.8867C86.4247 29.7124 86.2513 29.4801 86.0779 29.1317C85.9623 28.8413 85.8467 28.4348 85.8467 28.0282C85.8467 27.6217 85.9045 27.2732 86.0201 26.9248C86.1357 26.5763 86.3091 26.344 86.5981 26.1117C86.8293 25.8794 87.1183 25.7052 87.4651 25.589C87.812 25.4729 88.1588 25.4148 88.5634 25.4148C88.7368 25.4148 88.9102 25.4148 89.0836 25.4148C89.257 25.4148 89.3726 25.4148 89.4882 25.4729C89.6038 25.4729 89.7194 25.5309 89.8928 25.5309C90.0085 25.5309 90.1241 25.589 90.2397 25.6471V32.5582C90.1819 32.5582 90.1241 32.5582 90.0663 32.5582C90.0085 32.5582 89.9507 32.5582 89.8928 32.5582C89.835 32.5582 89.7772 32.5582 89.7194 32.5582C89.6616 32.5582 89.6038 32.5582 89.546 32.5582V30.2351ZM89.546 25.9956C89.3148 25.9375 89.1992 25.9375 89.0258 25.9375C88.9102 25.9375 88.7368 25.9375 88.5634 25.9375C88.2166 25.9375 87.9276 25.9956 87.6386 26.1117C87.4073 26.2279 87.1761 26.344 87.0027 26.5763C86.8293 26.7505 86.7137 26.9829 86.5981 27.2732C86.5403 27.5636 86.4825 27.854 86.4825 28.1444C86.4825 28.4348 86.5403 28.7251 86.5981 28.9574C86.7137 29.1897 86.8293 29.364 87.0027 29.4801C87.1761 29.5963 87.3495 29.7124 87.5808 29.8286C87.812 29.8867 88.0432 29.9447 88.3322 29.9447C88.5634 29.9447 88.7946 29.9447 88.968 29.8867C89.1992 29.8286 89.3726 29.8286 89.4882 29.7705L89.546 25.9956Z" fill="#676767"/>
<path d="M91.5107 25.4729C91.5685 25.4729 91.6263 25.4729 91.6842 25.4729C91.742 25.4729 91.7998 25.4729 91.8576 25.4729C91.9154 25.4729 91.9732 25.4729 92.031 25.4729C92.0888 25.4729 92.1466 25.4729 92.2044 25.4729V28.1444C92.2044 28.4929 92.2622 28.7832 92.32 28.9575C92.3778 29.1898 92.4934 29.364 92.6668 29.4802C92.8402 29.5963 93.0136 29.7125 93.187 29.7125C93.4182 29.7705 93.6494 29.7705 93.8806 29.7705C94.1119 29.7705 94.2853 29.7705 94.4587 29.7125C94.6321 29.7125 94.8055 29.6544 94.9211 29.5963V25.4729C94.9789 25.4729 95.0367 25.4729 95.0945 25.4729C95.1523 25.4729 95.2101 25.4729 95.2679 25.4729C95.3257 25.4729 95.3835 25.4729 95.4413 25.4729C95.4991 25.4729 95.5569 25.4729 95.6147 25.4729V30.119C95.3835 30.1771 95.0945 30.2351 94.8055 30.2932C94.5165 30.3513 94.1697 30.3513 93.8806 30.3513C93.5916 30.3513 93.2448 30.2932 93.0136 30.2932C92.7246 30.2351 92.4934 30.119 92.2622 29.9448C92.031 29.7705 91.9154 29.5382 91.7998 29.3059C91.6841 29.0155 91.6263 28.6671 91.6263 28.2025L91.5107 25.4729Z" fill="#676767"/>
<path d="M97.3512 27.9701C97.3512 28.609 97.5246 29.0736 97.8136 29.364C98.1027 29.6543 98.6229 29.8286 99.2587 29.8286C99.4899 29.8286 99.7789 29.8286 99.9523 29.7705C100.184 29.7124 100.357 29.6543 100.588 29.5963C100.646 29.6543 100.646 29.7705 100.646 29.8286C100.646 29.9447 100.704 30.0028 100.704 30.1189C100.53 30.177 100.299 30.2351 100.01 30.2932C99.7211 30.3512 99.4899 30.3512 99.1431 30.3512C98.6807 30.3512 98.3339 30.2932 97.9871 30.177C97.6402 30.0609 97.409 29.8866 97.1778 29.6543C96.9466 29.422 96.831 29.1897 96.7154 28.8413C96.5998 28.4928 96.542 28.2024 96.542 27.854C96.542 27.5055 96.5998 27.1571 96.6576 26.8667C96.7154 26.5763 96.8888 26.2859 97.0622 26.0536C97.2356 25.8213 97.4668 25.6471 97.7558 25.5309C98.0449 25.4148 98.3917 25.3567 98.7963 25.3567C99.1431 25.3567 99.4321 25.4148 99.7211 25.5309C100.01 25.6471 100.184 25.7632 100.357 25.9955C100.53 26.1698 100.646 26.4021 100.762 26.6924C100.877 26.9828 100.877 27.2732 100.877 27.5636C100.877 27.6217 100.877 27.6797 100.877 27.7959C100.877 27.912 100.877 27.9701 100.877 28.0282C101.051 27.9701 97.3512 27.9701 97.3512 27.9701ZM100.415 27.4474C100.415 27.2732 100.415 27.0409 100.357 26.8667C100.299 26.6924 100.241 26.5182 100.126 26.4021C100.01 26.2859 99.8367 26.1698 99.6633 26.0536C99.4899 25.9375 99.2587 25.9375 99.0275 25.9375C98.5651 25.9375 98.1605 26.0536 97.9293 26.344C97.6402 26.6344 97.5246 26.9828 97.4668 27.5055L100.415 27.4474Z" fill="#676767"/>
<path d="M102.089 25.4729C102.147 25.4729 102.204 25.4729 102.262 25.4729C102.32 25.4729 102.378 25.4729 102.436 25.4729C102.493 25.4729 102.551 25.4729 102.609 25.4729C102.667 25.4729 102.725 25.4729 102.782 25.4729C102.782 25.5891 102.782 25.7052 102.84 25.8794C102.84 26.0537 102.84 26.1698 102.84 26.286C102.956 26.0537 103.187 25.8794 103.418 25.7052C103.65 25.531 103.996 25.4729 104.401 25.4729C104.459 25.4729 104.459 25.4729 104.517 25.4729C104.574 25.4729 104.574 25.4729 104.632 25.4729C104.632 25.5891 104.69 25.7052 104.69 25.7633C104.69 25.8794 104.69 25.9375 104.632 26.0537C104.574 26.0537 104.517 26.0537 104.517 26.0537C104.459 26.0537 104.459 26.0537 104.401 26.0537C103.939 26.0537 103.592 26.1698 103.303 26.4602C103.014 26.7506 102.898 27.1571 102.898 27.7959V30.2352C102.84 30.2352 102.782 30.2352 102.725 30.2352C102.667 30.2352 102.609 30.2352 102.551 30.2352C102.493 30.2352 102.436 30.2352 102.378 30.2352C102.32 30.2352 102.262 30.2352 102.204 30.2352L102.089 25.4729Z" fill="#676767"/>
<path d="M105.617 27.9701C105.617 28.609 105.79 29.0736 106.079 29.364C106.368 29.6543 106.889 29.8286 107.524 29.8286C107.756 29.8286 108.045 29.8286 108.218 29.7705C108.449 29.7124 108.68 29.6543 108.854 29.5963C108.912 29.6543 108.912 29.7705 108.912 29.8286C108.912 29.8866 108.969 30.0028 108.969 30.1189C108.796 30.177 108.565 30.2351 108.276 30.2932C107.987 30.3512 107.756 30.3512 107.409 30.3512C106.946 30.3512 106.599 30.2932 106.253 30.177C105.906 30.0609 105.675 29.8866 105.443 29.6543C105.212 29.422 105.097 29.1897 104.981 28.8413C104.865 28.4928 104.808 28.2024 104.808 27.854C104.808 27.5055 104.865 27.1571 104.923 26.8667C104.981 26.5763 105.154 26.2859 105.328 26.0536C105.501 25.8213 105.732 25.6471 106.021 25.5309C106.31 25.4148 106.657 25.3567 107.062 25.3567C107.409 25.3567 107.698 25.4148 107.987 25.5309C108.276 25.6471 108.449 25.7632 108.623 25.9955C108.796 26.1698 108.912 26.4021 109.027 26.6924C109.143 26.9828 109.143 27.2732 109.143 27.5636C109.143 27.6217 109.143 27.6797 109.143 27.7959C109.143 27.912 109.143 27.9701 109.143 28.0282C109.316 27.9701 105.617 27.9701 105.617 27.9701ZM108.623 27.4474C108.623 27.2732 108.623 27.0409 108.565 26.8667C108.507 26.6924 108.449 26.5182 108.334 26.4021C108.218 26.2859 108.045 26.1698 107.871 26.0536C107.698 25.9375 107.467 25.9375 107.235 25.9375C106.773 25.9375 106.368 26.0536 106.137 26.344C105.848 26.6344 105.732 26.9828 105.675 27.5055L108.623 27.4474Z" fill="#676767"/>
<path d="M113.823 23.3821C113.88 23.3821 113.938 23.3821 113.996 23.3821C114.054 23.3821 114.112 23.3821 114.169 23.3821C114.227 23.3821 114.285 23.3821 114.343 23.3821C114.401 23.3821 114.458 23.3821 114.516 23.3821V30.177C114.285 30.2351 114.054 30.2932 113.765 30.3512C113.476 30.4093 113.129 30.4093 112.782 30.4093C112.435 30.4093 112.089 30.3512 111.742 30.2931C111.395 30.2351 111.164 30.0608 110.875 29.8866C110.643 29.7124 110.47 29.422 110.297 29.1316C110.123 28.8412 110.065 28.4347 110.065 27.9701C110.065 27.5636 110.123 27.2151 110.239 26.8667C110.354 26.5182 110.528 26.2859 110.759 26.0536C110.99 25.8213 111.221 25.6471 111.568 25.5309C111.857 25.4147 112.204 25.3567 112.609 25.3567C112.84 25.3567 113.071 25.3567 113.245 25.4147C113.476 25.4728 113.649 25.4728 113.765 25.5309L113.823 23.3821ZM113.823 26.1117C113.707 26.0536 113.534 25.9955 113.302 25.9955C113.071 25.9374 112.898 25.9374 112.667 25.9374C112.378 25.9374 112.089 25.9955 111.857 26.1117C111.626 26.2278 111.453 26.344 111.279 26.5182C111.106 26.6924 110.99 26.9247 110.932 27.157C110.875 27.3893 110.817 27.6797 110.817 27.9701C110.817 28.6089 110.99 29.0735 111.337 29.422C111.684 29.7705 112.146 29.8866 112.782 29.8866C113.013 29.8866 113.245 29.8866 113.418 29.8285C113.649 29.8285 113.765 29.7705 113.88 29.7705V26.1117H113.823Z" fill="#676767"/>
<path d="M115.561 30.2933C115.561 30.1771 115.503 30.0029 115.503 29.8867C115.503 29.7706 115.503 29.5963 115.561 29.4802C115.676 29.4802 115.85 29.4221 115.965 29.4221C116.139 29.4221 116.254 29.4221 116.428 29.4802C116.428 29.5963 116.486 29.7706 116.486 29.8867C116.486 30.0029 116.486 30.1771 116.428 30.2933C116.312 30.2933 116.139 30.3513 116.023 30.3513C115.85 30.2933 115.676 30.2933 115.561 30.2933Z" fill="#676767"/>
<path d="M0.760742 0.790498C0.876347 0.790498 1.04975 0.732422 1.28096 0.732422C1.51217 0.732422 1.68558 0.732422 1.85899 0.732422C2.0324 0.732422 2.2058 0.732422 2.43701 0.732422C2.61042 0.732422 2.78383 0.732422 2.89943 0.790498V21.2914C2.78383 21.2914 2.61042 21.3495 2.43701 21.3495C2.26361 21.3495 2.0902 21.3495 1.85899 21.3495C1.68558 21.3495 1.45437 21.3495 1.28096 21.3495C1.10756 21.3495 0.934149 21.3495 0.818545 21.2914L0.760742 0.790498Z" fill="#F16823"/>
<path d="M17.0607 6.77226C17.2341 6.77226 17.4075 6.71418 17.5232 6.71418C17.6966 6.71418 17.8122 6.71418 17.9856 6.71418C18.159 6.71418 18.2746 6.71418 18.448 6.71418C18.5636 6.71418 18.737 6.71418 18.9104 6.77226C18.9682 7.12071 18.9682 7.52725 19.026 8.04993C19.026 8.57262 19.026 9.03723 19.026 9.38569C19.2572 9.03723 19.4884 8.68877 19.8352 8.34031C20.1821 7.99186 20.5289 7.6434 20.9913 7.35302C21.4537 7.06264 21.9161 6.83033 22.4942 6.6561C23.0722 6.48188 23.708 6.36572 24.3438 6.36572C26.1357 6.36572 27.4652 6.88841 28.2744 7.8757C29.0836 8.863 29.4883 10.2568 29.4883 12.0572V21.2332C29.3726 21.2332 29.1992 21.2913 28.968 21.2913C28.7368 21.2913 28.5634 21.2913 28.4478 21.2913C28.3322 21.2913 28.1588 21.2913 27.9854 21.2913C27.7542 21.2913 27.5808 21.2913 27.4652 21.2332V12.696C27.4652 11.0699 27.1762 9.90837 26.6559 9.21146C26.1357 8.51454 25.3265 8.16609 24.2282 8.16609C23.5346 8.16609 22.841 8.28224 22.2051 8.57262C21.5693 8.863 21.0491 9.21146 20.5867 9.73414C20.1243 10.2568 19.7774 10.8376 19.4884 11.5926C19.1994 12.3476 19.0838 13.1606 19.0838 14.1479V21.3494C18.9682 21.3494 18.7948 21.4075 18.5636 21.4075C18.3324 21.4075 18.159 21.4075 18.0434 21.4075C17.9278 21.4075 17.7544 21.4075 17.5232 21.4075C17.2919 21.4075 17.1185 21.4075 17.0029 21.3494L17.0607 6.77226Z" fill="#F16823"/>
<path d="M47.5186 6.77219C47.6342 6.77219 47.8076 6.71411 47.981 6.71411C48.1544 6.71411 48.3856 6.71411 48.559 6.71411C48.7324 6.71411 48.9058 6.71411 49.137 6.71411C49.3682 6.71411 49.5416 6.71411 49.6572 6.77219L53.1254 19.1424L56.9982 6.77219C57.1716 6.77219 57.345 6.71411 57.5184 6.71411C57.6918 6.71411 57.923 6.71411 58.1542 6.71411C58.3276 6.71411 58.501 6.71411 58.6744 6.71411C58.8478 6.71411 59.0212 6.71411 59.1946 6.77219L63.0674 18.9682L66.5356 6.77219C66.6512 6.77219 66.8246 6.71411 66.998 6.71411C67.1714 6.71411 67.3448 6.71411 67.5182 6.71411C67.6916 6.71411 67.865 6.71411 68.0962 6.71411C68.2696 6.71411 68.443 6.71411 68.5586 6.77219L64.05 21.3493C63.7032 21.4074 63.2986 21.4074 62.9518 21.4074C62.5472 21.4074 62.2004 21.3493 61.8536 21.3493L58.0964 9.32754L54.1658 21.3493C53.819 21.4074 53.4144 21.4074 53.0676 21.4074C52.663 21.4074 52.3162 21.3493 51.9693 21.3493L47.5186 6.77219Z" fill="#F16823"/>
<path d="M71.1654 0.79041C71.3966 0.79041 71.6856 0.732334 72.0324 0.732334C72.4371 0.674258 72.8417 0.674258 73.2463 0.616182C73.6509 0.558105 74.1133 0.558105 74.5758 0.558105C75.0382 0.558105 75.385 0.558105 75.7318 0.558105C78.1595 0.558105 80.0092 0.964639 81.2808 1.83578C82.5525 2.70693 83.1883 4.04268 83.1883 5.84304C83.1883 6.4238 83.0727 6.94649 82.8993 7.46918C82.7259 7.93379 82.4369 8.3984 82.0901 8.80493C81.7433 9.21146 81.3964 9.50185 80.934 9.79223C80.4716 10.0826 80.067 10.2568 79.5468 10.373C80.1826 10.4311 80.8184 10.6053 81.3964 10.8376C81.9745 11.0699 82.4947 11.4184 82.9571 11.8249C83.4195 12.2314 83.7663 12.8122 84.0554 13.451C84.3444 14.0899 84.46 14.8449 84.46 15.7741C84.46 16.8195 84.2288 17.6906 83.8241 18.4456C83.3617 19.2006 82.7837 19.7813 81.9745 20.304C81.1652 20.8267 80.2404 21.1752 79.1999 21.4075C78.1017 21.6398 76.9457 21.7559 75.674 21.7559C75.3272 21.7559 74.9804 21.7559 74.5758 21.7559C74.1711 21.7559 73.7665 21.6979 73.3041 21.6979C72.8995 21.6979 72.4949 21.6398 72.0903 21.5817C71.6856 21.5236 71.3388 21.4655 71.0498 21.4655L71.1654 0.79041ZM76.1942 9.55992C77.8705 9.55992 79.0843 9.21146 79.8358 8.51455C80.5872 7.81763 80.9918 6.94649 80.9918 5.84304C80.9918 4.79767 80.5872 3.9846 79.778 3.28769C78.9687 2.59077 77.6971 2.24232 75.963 2.24232C75.4428 2.24232 74.9226 2.24232 74.4601 2.30039C73.9977 2.35847 73.5931 2.35847 73.3041 2.41654V9.55992H76.1942ZM73.3041 19.7233C73.5931 19.7813 73.9977 19.7813 74.4601 19.8394C74.9226 19.8394 75.4428 19.8975 75.963 19.8975C76.7722 19.8975 77.5237 19.8394 78.3329 19.7233C79.0843 19.6071 79.778 19.3748 80.356 19.0263C80.934 18.6779 81.3964 18.2714 81.8011 17.7487C82.1479 17.226 82.3213 16.5291 82.3213 15.7741C82.3213 14.961 82.1479 14.3222 81.8589 13.7414C81.5698 13.2187 81.1074 12.7541 80.5872 12.4057C80.067 12.0572 79.4312 11.8249 78.7375 11.6507C78.0439 11.4764 77.2347 11.4184 76.4254 11.4184H73.3041V19.7233Z" fill="#F16823"/>
<path d="M89.0244 14.3222C89.0244 16.2387 89.4868 17.6906 90.4695 18.6198C91.4521 19.549 92.8972 20.0136 94.8047 20.0136C95.5561 20.0136 96.3075 19.9556 96.9434 19.8394C97.637 19.7233 98.2728 19.549 98.9086 19.3167C99.0243 19.549 99.0821 19.7813 99.1399 20.0717C99.1977 20.3621 99.2555 20.6525 99.2555 20.8848C98.6774 21.1171 97.9838 21.3494 97.1746 21.4655C96.3653 21.5817 95.4983 21.6398 94.5735 21.6398C93.244 21.6398 92.088 21.4655 91.1053 21.059C90.1227 20.7106 89.3134 20.1879 88.7354 19.491C88.0996 18.794 87.6372 18.039 87.3482 17.1098C87.0592 16.1806 86.8857 15.1933 86.8857 14.0899C86.8857 13.0445 87.0013 11.9991 87.2904 11.0699C87.5794 10.1407 87.984 9.32761 88.562 8.6307C89.14 7.93378 89.8337 7.35302 90.7007 6.94648C91.5677 6.53995 92.6082 6.36572 93.8798 6.36572C94.9203 6.36572 95.7873 6.53995 96.5965 6.83033C97.4058 7.17879 98.0416 7.58532 98.6196 8.16609C99.1399 8.74685 99.5445 9.44376 99.8335 10.2568C100.122 11.0699 100.238 11.941 100.238 12.8703C100.238 13.0445 100.238 13.2768 100.238 13.5091C100.238 13.7995 100.238 13.9737 100.18 14.206L89.0244 14.3222ZM98.215 12.7541C98.215 12.1733 98.1572 11.5926 97.9838 11.0118C97.8104 10.4311 97.5792 9.96645 97.2324 9.50184C96.8856 9.09531 96.4231 8.74685 95.9029 8.45647C95.3827 8.16609 94.6891 8.04993 93.9376 8.04993C92.4926 8.04993 91.3943 8.45647 90.5851 9.26953C89.7759 10.0826 89.3134 11.2441 89.14 12.696L98.215 12.7541Z" fill="#F16823"/>
<path d="M4.34668 10.8377L12.0922 0.790498C12.2656 0.790498 12.439 0.732422 12.6124 0.732422C12.7858 0.732422 12.9592 0.732422 13.1326 0.732422C13.3639 0.732422 13.5951 0.732422 13.7685 0.732422C13.9997 0.732422 14.1731 0.732422 14.4043 0.790498L6.83218 10.6054L15.5604 21.2914C15.3291 21.2914 15.0979 21.3495 14.8667 21.3495C14.6355 21.3495 14.4043 21.3495 14.1731 21.3495C13.9997 21.3495 13.8263 21.3495 13.5951 21.3495C13.4217 21.3495 13.1905 21.3495 13.017 21.2914L4.34668 10.8377Z" fill="#F16823"/>
<path d="M39.4875 21.5816C35.2101 21.5816 31.7998 18.097 31.7998 13.8574C31.7998 9.5598 35.2679 6.1333 39.4875 6.1333C43.7649 6.1333 47.1752 9.61787 47.1752 13.8574C47.2331 18.1551 43.7649 21.5816 39.4875 21.5816ZM43.9383 9.85018C42.8979 8.68866 41.5106 7.99174 39.9499 7.93366C38.3893 7.81751 36.9442 8.3402 35.7882 9.38557C34.7477 10.3148 34.1119 11.5344 33.9385 12.8701L32.898 12.8121L34.4009 15.4836L36.3084 12.9282L35.1523 12.8701C35.3258 11.8248 35.846 10.8956 36.5974 10.1986C37.5222 9.38557 38.6783 8.97904 39.9499 9.03711C41.1638 9.09519 42.3198 9.67595 43.1291 10.6052C43.9383 11.5344 44.3429 12.6959 44.2851 13.9736C44.2273 15.1932 43.6493 16.3547 42.7245 17.1678L43.5337 18.0389C44.6897 16.9936 45.3834 15.5997 45.4412 14.0317C45.499 12.5217 44.9788 11.0117 43.9383 9.85018Z" fill="#F16823"/>
<path d="M101.047 16.8776L100.815 16.5872L110.006 0.848545C110.411 0.732393 110.7 0.674316 110.989 0.674316C111.624 0.674316 111.798 0.732393 112.029 0.848545L103.706 15.2514H110.989V8.97922C111.335 8.92114 111.682 8.92114 112.029 8.92114C112.376 8.92114 112.723 8.92114 113.07 8.97922V15.1934H116.364C116.422 15.5418 116.48 15.658 116.48 15.9484C116.48 16.2387 116.422 16.5291 116.364 16.8195H113.07V21.4075C112.896 21.4656 112.723 21.4656 112.549 21.4656C112.376 21.4656 112.203 21.4656 112.029 21.4656C111.856 21.4656 111.682 21.4656 111.509 21.4656C111.335 21.4656 111.162 21.4656 110.989 21.4075V16.8776H101.047Z" fill="#F16823"/>
</g>
<defs>
<clipPath id="clip0_1800_235">
<rect width="115.663" height="32" fill="white" transform="translate(0.760742 0.5)"/>
</clipPath>
</defs>
</svg>
