<svg width="100" height="33" viewBox="0 0 100 33" fill="none" xmlns="http://www.w3.org/2000/svg">
<g clip-path="url(#clip0_1800_309)">
<path d="M94.2738 4.09106H5.69824V28.9444H94.2738V4.09106Z" fill="white"/>
<path d="M0.487305 32.5V0.5H99.4564V32.5H0.487305ZM21.1325 20.5533H13.2575V7.22H9.63928V23.7533H21.1325V20.5533ZM33.1577 12.98C31.9871 11.5933 30.2844 10.8467 28.1561 10.8467C24.325 10.8467 21.4517 13.7267 21.4517 17.46C21.4517 21.3 24.325 24.0733 28.5818 24.0733C30.923 24.0733 33.3706 22.9 34.4348 21.62L32.2 19.9133C30.7101 20.98 29.8588 21.3 28.5818 21.3C27.4111 21.3 26.4534 20.8733 25.8149 20.2333L34.754 16.5C34.5412 15.1133 34.0091 13.8333 33.1577 12.98ZM48.8012 15.86C48.8012 12.98 46.6729 10.8467 43.6932 10.8467C42.2033 10.8467 40.607 11.4867 39.5428 12.8733V11.06H36.031V23.7533H39.5428V16.5C39.5428 15.22 40.5006 13.8333 42.4161 13.8333C43.906 13.8333 45.3959 14.7933 45.3959 16.5V23.7533H48.9077V15.86H48.8012ZM56.9955 10.8467C53.1644 10.8467 50.1847 13.7267 50.1847 17.46C50.1847 21.1933 53.1644 24.0733 56.9955 24.0733C60.8265 24.0733 63.8062 21.1933 63.8062 17.46C63.8062 13.7267 60.8265 10.8467 56.9955 10.8467ZM73.4903 11.06L70.2978 19.7L67.1052 11.06H63.2741L68.4886 23.7533H72.3197L77.5342 11.06H73.4903ZM83.8129 10.8467C79.9818 10.8467 77.0021 13.7267 77.0021 17.46C77.0021 21.1933 79.9818 24.0733 83.8129 24.0733C87.6439 24.0733 90.6237 21.1933 90.6237 17.46C90.6237 13.7267 87.6439 10.8467 83.8129 10.8467ZM83.8129 20.98C81.8973 20.98 80.4075 19.38 80.4075 17.3533C80.4075 15.22 81.7909 13.7267 83.8129 13.7267C85.7284 13.7267 87.2183 15.3267 87.2183 17.3533C87.2183 19.4867 85.7284 20.98 83.8129 20.98ZM56.9955 20.98C55.0799 20.98 53.5901 19.38 53.5901 17.3533C53.5901 15.22 54.9735 13.7267 56.9955 13.7267C58.911 13.7267 60.4008 15.3267 60.4008 17.3533C60.4008 19.4867 58.911 20.98 56.9955 20.98ZM25.602 14.9C26.2405 14.1533 27.0919 13.62 28.2625 13.62C29.5395 13.62 30.4973 14.3667 30.923 15.4333L24.8571 17.9933C24.6443 16.6067 25.0699 15.6467 25.602 14.9Z" fill="#E60012"/>
</g>
<defs>
<clipPath id="clip0_1800_309">
<rect width="98.9691" height="32" fill="white" transform="translate(0.487305 0.5)"/>
</clipPath>
</defs>
</svg>
