<svg width="182" height="33" viewBox="0 0 182 33" fill="none" xmlns="http://www.w3.org/2000/svg">
<g clip-path="url(#clip0_1800_142)">
<path fill-rule="evenodd" clip-rule="evenodd" d="M173.375 1.40186C184.021 8.83931 179.578 26.0985 168.2 27.9648C182.812 27.9764 187.557 8.07151 173.375 1.40186Z" fill="#FFCD22"/>
<path fill-rule="evenodd" clip-rule="evenodd" d="M162.036 1.29084C174.731 -0.587021 179.935 15.1667 174.381 22.4492C183.572 13.1431 176.218 -3.29281 162.036 1.29084Z" fill="#0078B6"/>
<path fill-rule="evenodd" clip-rule="evenodd" d="M154.544 8.97805C160.803 -0.334948 173.806 5.42815 175.109 14.8406C176.603 3.20802 161.339 -3.23962 154.544 8.97805Z" fill="#009A50"/>
<path fill-rule="evenodd" clip-rule="evenodd" d="M154.239 15.9414C155.761 6.27456 168.283 5.26163 172.795 12.0515C169.107 2.43096 154.483 3.60809 154.239 15.9414Z" fill="#CA2031"/>
<path d="M0.770508 10.7935H5.86225L10.1046 21.9797L14.2434 10.7935H19.2407V27.8885H15.4058V15.8836L10.6985 27.8885H8.95597L4.22562 15.8836V27.8885H0.770508V10.7935Z" fill="#231F20"/>
<path d="M29.6283 26.3805C28.7443 27.701 27.4323 28.1543 25.9545 28.1543C23.5375 28.1543 21.7236 26.9402 21.7236 24.4402C21.7236 21.265 24.6746 20.4116 27.3609 20.4116H29.5914C29.5914 18.7303 29.428 17.5971 27.476 17.5971C26.3826 17.5971 25.303 18.0989 24.9301 19.209L22.2922 18.0527C23.1048 15.8002 25.6276 15.0879 27.8719 15.0879C30.8828 15.0879 32.9982 16.383 32.9982 19.7363V27.886H29.6283V26.3805ZM28.2679 22.4583C27.0364 22.4583 25.0959 22.5508 25.0959 24.2321C25.0959 25.3421 25.9199 25.7376 26.9213 25.7376C28.2702 25.7376 29.5937 25.0253 29.5937 23.5082V22.4583H28.2679Z" fill="#231F20"/>
<path d="M35.9736 15.3816H39.4264V17.3658C40.2275 15.8256 41.9263 15.0879 43.6343 15.0879C46.5392 15.0879 47.7845 17.2016 47.7845 19.9213V27.886H44.3317V20.4255C44.3317 18.8714 43.6343 17.9139 42.0299 17.9139C40.3219 17.9139 39.4264 19.0124 39.4264 20.6706V27.886H35.9736V15.3793V15.3816Z" fill="#231F20"/>
<path d="M57.8548 26.3805C56.9709 27.701 55.6588 28.1543 54.181 28.1543C51.7641 28.1543 49.9502 26.9402 49.9502 24.4402C49.9502 21.265 52.9012 20.4116 55.5875 20.4116H57.818C57.818 18.7303 57.6546 17.5971 55.7026 17.5971C54.6092 17.5971 53.5296 18.0989 53.1567 19.209L50.5188 18.0527C51.3313 15.8002 53.8542 15.0879 56.0985 15.0879C59.1093 15.0879 61.2248 16.383 61.2248 19.7363V27.886H57.8548V26.3805ZM56.4944 22.4583C55.2629 22.4583 53.3224 22.5508 53.3224 24.2321C53.3224 25.3421 54.1465 25.7376 55.1478 25.7376C56.4967 25.7376 57.8203 25.0253 57.8203 23.5082V22.4583H56.4944Z" fill="#231F20"/>
<path d="M66.613 28.2954C67.1355 29.5673 68.4614 29.9651 69.7504 29.9651C71.76 29.9651 72.8764 28.9961 72.8764 26.9055V25.0137C72.0638 26.4152 70.4939 27.3379 68.878 27.3379C65.3446 27.3379 63.4502 24.5119 63.4502 21.1956C63.4502 17.8792 65.5311 15.0879 69.0184 15.0879C70.6343 15.0879 72.0293 15.7077 72.8764 17.2479V15.3793H76.3062V26.9032C76.3062 30.978 73.4012 32.4974 69.7504 32.4974C67.414 32.4974 64.8336 31.8777 63.9037 29.4841L66.6107 28.2931L66.613 28.2954ZM72.9707 21.1724C72.9707 19.2229 72.0293 17.7266 69.9484 17.7266C67.8675 17.7266 66.9721 19.3732 66.9721 21.3575C66.9721 23.1683 67.9596 24.7316 69.9829 24.7316C72.0063 24.7316 72.9707 23.0966 72.9707 21.1701V21.1724Z" fill="#231F20"/>
<path d="M90.747 25.2126C89.7825 27.4675 87.331 28.1543 85.2041 28.1543C81.0907 28.1543 78.5908 25.5965 78.5908 21.591C78.5908 17.8422 81.2403 15.0879 85.0177 15.0879C87.4346 15.0879 89.6076 16.2095 90.5375 18.4967C91.0601 19.7802 91.0601 21.1008 91.0601 22.4074H82.0874C82.1794 24.3338 83.1439 25.689 85.1788 25.689C86.5277 25.689 87.5497 25.3398 88.2011 24.0771L90.747 25.2103V25.2126ZM87.7016 20.2844C87.6096 18.5684 86.7832 17.4815 85.0637 17.4815C83.3442 17.4815 82.3567 18.6725 82.1357 20.2844H87.7039H87.7016Z" fill="#231F20"/>
<path d="M93.7705 10.7935H104.557V12.9188H96.4108V18.1268H103.059V20.2175H96.4108V25.7632H104.965V27.8885H93.7728V10.7935H93.7705Z" fill="#231F20"/>
<path d="M107.692 15.3701H110.167V17.3543C110.91 15.8002 112.561 15.1365 114.246 15.1365C117.268 15.1365 118.686 17.2965 118.686 20.1803V27.8861H116.212V20.2497C116.212 18.3233 115.305 17.2248 113.399 17.2248C111.387 17.2248 110.167 18.4505 110.167 20.4116V27.8837H107.692V15.3654V15.3701Z" fill="#231F20"/>
<path d="M123.676 28.5752C124.328 30.0345 125.944 30.5132 127.408 30.5132C129.698 30.5132 131.288 29.3453 131.288 26.9286V25.0831C130.416 26.554 128.662 27.4305 126.977 27.4305C123.478 27.4305 121.411 24.6622 121.411 21.3945C121.411 18.1267 123.665 15.1365 127.106 15.1365C128.791 15.1365 130.418 15.8141 131.291 17.308V15.3701H133.742V27.0003C133.742 30.8069 130.895 32.4767 127.35 32.4767C125.048 32.4767 122.783 31.7759 121.724 29.4402L123.676 28.5752ZM131.36 21.1725C131.36 18.8714 130.094 17.0976 127.675 17.0976C125.129 17.0976 123.932 19.0587 123.932 21.406C123.932 23.5198 125.315 25.4693 127.546 25.4693C130.009 25.4693 131.358 23.5429 131.358 21.1725H131.36Z" fill="#231F20"/>
<path d="M138.249 10.2661C139.073 10.2661 139.784 10.909 139.784 11.7716C139.784 12.6343 139.087 13.2772 138.249 13.2772C137.411 13.2772 136.716 12.6111 136.716 11.7716C136.716 10.9322 137.413 10.2661 138.249 10.2661ZM137.052 15.4048H139.503V27.8884H137.052V15.4048Z" fill="#231F20"/>
<path d="M143.278 15.3701H145.753V17.3543C146.496 15.8002 148.147 15.1365 149.832 15.1365C152.854 15.1365 154.272 17.2965 154.272 20.1803V27.8861H151.798V20.2497C151.798 18.3233 150.891 17.2248 148.985 17.2248C146.973 17.2248 145.753 18.4505 145.753 20.4116V27.8837H143.278V15.3654V15.3701Z" fill="#231F20"/>
<path d="M168.513 25.0855C167.42 27.2108 165.468 28.122 163.237 28.122C159.308 28.122 156.997 25.319 156.997 21.6766C156.997 18.0342 159.345 15.1365 163.016 15.1365C167.374 15.1365 168.757 18.2424 168.757 22.1415H159.518C159.518 24.4425 160.738 26.1932 163.12 26.1932C164.642 26.1932 165.804 25.4693 166.467 24.209L168.513 25.0855ZM166.306 20.3677C166.177 18.3487 165.132 17.0282 163.109 17.0282C161.085 17.0282 159.865 18.4875 159.587 20.3677H166.304H166.306Z" fill="#231F20"/>
</g>
<defs>
<clipPath id="clip0_1800_142">
<rect width="181.132" height="32" fill="white" transform="translate(0.770508 0.5)"/>
</clipPath>
</defs>
</svg>
