<svg width="151" height="33" viewBox="0 0 151 33" fill="none" xmlns="http://www.w3.org/2000/svg">
<path d="M51.8475 13.5286V26.2143H46.2667V15.3571C46.2667 12.6714 45.0708 11.3571 42.9067 11.3571C40.7427 11.3571 39.4899 12.6714 39.4899 15.3571V26.2714H33.909V6.61429H38.237L39.4329 9.41429C40.7427 7.75714 42.3373 6.27143 45.1847 6.27143C49.3988 6.27143 51.8475 9.07143 51.8475 13.5286ZM11.3008 0.5L0.423828 26.2714H7.99786L18.761 0.5H11.3008ZM22.1778 6.27143L18.3054 15.8714H26.278L22.1778 6.27143ZM20.0708 20.3286L22.5195 26.2143H30.6061L28.1573 20.3286H20.0708ZM71.0958 8.61429C72.5195 10.0429 73.2029 12.2714 73.2029 14.8429V26.2143H68.761L67.8498 24.1C66.54 25.6429 64.6038 26.5571 61.9842 26.5571C58.3396 26.5571 55.3213 24.4429 55.3213 20.5571V20.4429C55.3213 16.2143 58.5673 14.2143 63.2371 14.2143C65.2302 14.2143 66.6539 14.5571 68.0207 15.0143V14.6714C68.0207 12.3286 66.597 11.1286 63.8065 11.1286C61.8134 11.1286 60.3897 11.4714 58.7951 12.1571L57.0298 8.04286C59.1368 7.01429 61.2439 6.5 64.6038 6.5C67.5651 6.38571 69.786 7.18571 71.0958 8.61429ZM67.9637 18.3286C66.9386 17.8714 65.7427 17.5286 64.433 17.5286C62.0981 17.5286 60.5605 18.5571 60.5605 20.2143V20.3286C60.5605 21.8714 61.7564 22.6714 63.5787 22.6714C66.1414 22.6714 67.9068 21.2429 67.9068 19.2429V18.3286H67.9637ZM98.089 16.4429V16.5571C98.089 23.1286 93.8749 26.7286 89.2052 26.7286C86.1869 26.7286 84.4216 25.4143 83.1118 23.8143V32.5H77.5309V6.61429H81.8589L83.0548 9.41429C84.3646 7.64286 86.3008 6.15714 89.1482 6.15714C93.6471 6.27143 98.089 9.87143 98.089 16.4429ZM92.4512 16.4429C92.4512 13.1857 90.2302 10.9571 87.6676 10.9571C85.1049 10.9571 82.884 13.0714 82.884 16.4429V16.5571C82.884 19.8143 84.991 22.0429 87.6676 22.0429C90.2302 22.0429 92.4512 19.9286 92.4512 16.5571V16.4429ZM143.761 6.27143C140.971 6.27143 139.319 7.81429 138.009 9.41429L136.813 6.61429H132.485V26.2143H138.066V15.3571C138.066 12.6714 139.376 11.3571 141.483 11.3571C143.59 11.3571 144.843 12.6714 144.843 15.3571V26.2714H150.538V13.5286C150.424 9.07143 147.975 6.27143 143.761 6.27143ZM126.107 8.61429C127.531 10.0429 128.214 12.2714 128.214 14.8429V26.2143H123.772L122.861 24.1C121.551 25.6429 119.615 26.5571 116.996 26.5571C113.351 26.5571 110.333 24.4429 110.333 20.5571V20.4429C110.333 16.2143 113.579 14.2143 118.248 14.2143C120.242 14.2143 121.665 14.5571 123.032 15.0143V14.6714C123.032 12.3286 121.608 11.1286 118.818 11.1286C116.825 11.1286 115.401 11.4714 113.807 12.1571L112.041 8.04286C114.148 7.01429 116.255 6.5 119.615 6.5C122.52 6.38571 124.74 7.18571 126.107 8.61429ZM122.975 18.3286C121.95 17.8714 120.754 17.5286 119.444 17.5286C117.109 17.5286 115.572 18.5571 115.572 20.2143V20.3286C115.572 21.8714 116.768 22.6714 118.59 22.6714C121.153 22.6714 122.918 21.2429 122.918 19.2429V18.3286H122.975ZM101.449 26.2714H107.03V0.5H101.449V26.2714Z" fill="#0B2265"/>
</svg>
