<svg width="260" height="33" viewBox="0 0 260 33" fill="none" xmlns="http://www.w3.org/2000/svg">
<path d="M242.346 29.9837C242.308 28.8924 242.308 27.7622 242.346 26.6709C242.346 26.4371 242.54 26.2422 242.656 26.0084C242.888 26.1253 243.158 26.2032 243.274 26.3591C243.7 26.9827 244.087 27.5673 244.551 28.3078C244.976 27.6453 245.401 27.0217 245.749 26.4371C246.136 25.8135 246.407 25.7745 246.871 26.2812V30.3345L246.213 30.6073C246.136 30.4124 246.059 30.1786 246.02 29.9447C246.02 29.2432 245.981 28.5417 245.827 27.8401C245.633 28.1129 245.44 28.3858 245.247 28.6586C244.628 29.5939 244.473 29.5939 243.816 28.6586C243.623 28.3468 243.39 28.1129 243.12 27.9181C243.12 28.5806 243.158 29.2822 243.12 29.9447C243.12 30.1786 242.888 30.4124 242.772 30.6462C242.617 30.4124 242.385 30.2175 242.346 29.9837Z" fill="#024DA0"/>
<path d="M238.25 26.7878C238.056 26.7488 237.94 26.554 237.747 26.3981C237.902 26.2811 238.056 26.0473 238.172 26.0473C239.139 26.0083 240.067 26.0083 241.034 26.0473C241.189 26.0473 241.305 26.3201 241.459 26.476C241.305 26.5929 241.15 26.7488 240.995 26.7878C240.647 26.8268 240.338 26.8268 239.99 26.7878V29.7498C239.99 30.0616 239.758 30.6072 239.642 30.6072C239.023 30.6072 239.217 30.0616 239.217 29.7108V26.7878C238.907 26.8268 238.598 26.8268 238.25 26.7878Z" fill="#024DA0"/>
<path d="M223.286 13.9264C222.049 12.8351 220.773 11.7438 219.535 10.6526C219.149 10.4187 219.033 9.95104 219.265 9.60028C219.342 9.48336 219.419 9.36644 219.535 9.32746C222.049 7.14493 224.524 4.92342 227.037 2.77986C227.347 2.54602 227.733 2.39012 228.12 2.39012C230.595 2.35115 233.07 2.39012 235.584 2.39012C236.048 2.39012 236.512 2.39012 236.589 3.1696C236.473 3.36447 236.357 3.55934 236.202 3.71523C232.297 7.14493 228.391 10.5746 224.485 14.0043C224.176 14.3161 223.673 14.3551 223.364 14.0433C223.325 13.9653 223.286 13.9653 223.286 13.9264Z" fill="#024DA0"/>
<path d="M231.748 30.685C230.859 30.6461 229.931 30.6461 229.041 30.685C227.997 30.802 226.992 30.4122 226.257 29.6327C224.091 27.6451 221.848 25.7354 219.644 23.7867C218.948 23.1631 218.948 22.8513 219.644 22.2277C220.804 21.2144 222.003 20.2011 223.125 19.1488C223.473 18.759 224.053 18.6811 224.439 19.0319C224.478 19.0708 224.517 19.1098 224.555 19.1488C228.384 22.5005 232.212 25.8913 236.002 29.243C236.234 29.4379 236.311 29.9056 236.427 30.2563C236.118 30.4512 235.809 30.5681 235.461 30.6461C234.262 30.685 233.024 30.685 231.748 30.685Z" fill="#024DA0"/>
<path d="M205.802 2.70199C210.752 7.02809 215.74 11.3932 220.69 15.7192C221.348 16.3428 221.348 16.6546 220.69 17.2392C215.702 21.6043 210.752 25.9694 205.763 30.3344C205.492 30.5293 205.183 30.6462 204.835 30.6462C203.559 30.6852 202.283 30.6462 201.007 30.6462H197.333C196.985 30.5683 196.676 30.4513 196.366 30.2565C196.521 29.9057 196.56 29.477 196.792 29.2432C200.272 26.1642 203.791 23.0853 207.271 20.0064C208.315 19.11 209.321 18.2136 210.365 17.3172C211.216 16.5767 211.216 16.4208 210.365 15.6803C205.841 11.7049 201.355 7.76859 196.83 3.79326C196.56 3.59839 196.366 3.2866 196.289 2.97481C196.25 2.46815 196.637 2.31226 197.101 2.31226H204.951C205.26 2.35123 205.57 2.46815 205.802 2.70199Z" fill="#A8CB3A"/>
<path d="M187.745 30.6851C187.088 30.6851 186.817 30.4123 186.778 29.7887V3.87112C186.778 2.39011 186.894 2.27319 188.364 2.27319H192.772C193.816 2.27319 193.971 2.46806 193.971 3.48138V29.4769C193.971 30.5682 193.932 30.6461 192.85 30.6461C191.187 30.6851 189.485 30.6461 187.745 30.6851Z" fill="#024DA0"/>
<path d="M184.57 3.71527V27.3724C184.454 30.0616 183.062 31.1918 180.432 30.8021C179.195 30.6072 178.073 30.1005 177.145 29.2821C171.151 24.0206 165.157 18.7592 159.125 13.4977C158.854 13.3028 158.583 13.1469 158.274 12.991C158.158 13.3418 158.08 13.6926 158.042 14.0433V28.9703C158.042 30.4123 157.81 30.6851 156.379 30.6851H152.203C151.236 30.6851 150.888 30.3344 150.888 29.399V5.81985C150.888 3.79322 151.584 2.7799 153.324 2.07837H154.755C157.036 2.42913 158.545 3.98809 160.169 5.39114C165.505 10.107 170.881 14.7838 176.256 19.4607C176.565 19.6556 176.875 19.8115 177.184 19.8894C177.3 19.5776 177.377 19.2658 177.416 18.9151V3.94911C177.416 2.58503 177.687 2.31221 179.001 2.31221C180.316 2.31221 181.786 2.31221 183.178 2.31221C184.222 2.31221 184.57 2.70195 184.57 3.71527Z" fill="#024DA0"/>
<path d="M148.142 29.2041C142.689 21.2145 137.159 13.2249 131.707 5.23525C130.663 3.71527 129.541 2.39016 127.608 2.07837H127.144C125.751 2.31221 124.553 3.05271 123.74 4.22193C118.017 12.5623 112.294 20.9027 106.571 29.2431C106.339 29.5549 106.261 29.9446 106.339 30.2954C106.416 30.4903 106.957 30.6462 107.267 30.6462C109.123 30.6851 111.018 30.6462 112.874 30.6851C113.377 30.7241 113.879 30.4513 114.111 30.0226C115.465 27.996 116.857 26.0083 118.249 23.9816C118.481 23.5919 118.907 23.3581 119.371 23.3581H135.342C135.844 23.3191 136.309 23.5529 136.541 23.9816C137.894 26.0083 139.325 28.0739 140.756 30.1005C140.949 30.4123 141.258 30.6072 141.606 30.6462C143.656 30.6851 145.706 30.6851 147.794 30.6462C148.103 30.6072 148.374 30.4123 148.529 30.1395C148.49 29.7887 148.374 29.477 148.142 29.2041ZM130.74 17.0053H124.205C123.392 17.0053 123.238 16.7715 123.702 16.1089C124.785 14.511 125.867 12.9131 126.95 11.3541C127.26 10.8864 127.569 10.9254 127.84 11.3541C128.922 12.9521 130.044 14.589 131.165 16.1869C131.513 16.7715 131.397 17.0053 130.74 17.0053Z" fill="#024DA0"/>
<path d="M114.193 2.31226C115.546 2.31226 115.817 2.58507 115.817 3.98813V7.22296C115.817 8.31422 115.469 8.66499 114.386 8.66499H105.26C104.061 8.66499 103.984 8.74293 103.984 9.95112V29.1652C103.984 30.3734 103.674 30.6852 102.476 30.6852H98.2991C97.1389 30.6852 96.8296 30.3734 96.8296 29.2042V10.0291C96.8296 8.70396 96.7522 8.66499 95.4761 8.66499H86.4658C85.267 8.66499 84.9189 8.31422 84.9189 7.14501C84.9189 5.97579 84.9189 4.88453 84.9189 3.75429C84.9189 2.62405 85.267 2.31226 86.3884 2.31226H114.193Z" fill="#024DA0"/>
<path d="M57.6152 23.6309C58.7366 24.0207 59.9354 24.2545 61.1342 24.3325C64.6533 24.3714 68.1723 24.3325 71.6914 24.2155C72.4261 24.1766 73.1609 24.0207 73.8569 23.7479C75.0557 23.3191 75.4811 22.6956 75.4811 21.3705V4.06608C75.4811 2.50712 75.6745 2.31226 77.26 2.31226H81.2044C82.3259 2.31226 82.6739 2.66302 82.6739 3.75429V22.2279C82.6739 26.437 80.0056 29.3991 75.5971 30.1396C74.0116 30.4513 72.3875 30.6072 70.7246 30.6072C66.2001 30.6072 61.7143 30.4903 57.1898 30.2955C54.8695 30.2175 52.6653 29.2432 51.0411 27.5673C49.7263 26.2422 49.0302 24.4494 49.0689 22.6176V13.3418V3.71531C49.0689 2.62405 49.3783 2.31226 50.4224 2.31226H54.7535C55.8363 2.31226 56.1844 2.66302 56.223 3.75429V21.4484C56.0683 22.4227 56.6871 23.3581 57.6152 23.6309Z" fill="#024DA0"/>
<path d="M46.7497 3.63732V27.4503C46.5177 30.2564 45.0482 31.3477 42.3026 30.7241C41.1811 30.4903 40.137 29.9446 39.2476 29.1652C33.4083 24.0206 27.5303 18.8761 21.6523 13.7315C21.5363 13.6146 21.4203 13.4977 21.3043 13.4197C21.0336 13.2639 20.7629 13.1469 20.4922 12.991C20.3762 13.2639 20.2988 13.5756 20.2602 13.8874V29.0872C20.2602 30.4123 19.9895 30.7241 18.6747 30.7241C17.3599 30.7241 16.0064 30.6851 14.6529 30.7241C14.0728 30.7631 13.4541 30.4903 13.0674 30.0226V5.0014C13.4541 3.6763 13.9955 2.50708 15.5036 2.07837H16.8571C19.1 2.39016 20.6469 3.91014 22.2324 5.31319C27.6463 10.107 33.0602 14.8618 38.4742 19.5776C38.7448 19.7335 39.0155 19.8894 39.2862 19.9673C39.4023 19.6556 39.5183 19.3438 39.5569 19.032V3.91014C39.5569 2.58503 39.8276 2.31221 41.1424 2.31221H45.3962C46.4017 2.35119 46.7497 2.70195 46.7497 3.63732Z" fill="#024DA0"/>
</svg>
