<svg width="141" height="33" viewBox="0 0 141 33" fill="none" xmlns="http://www.w3.org/2000/svg">
<g clip-path="url(#clip0_1800_195)">
<path d="M15.4047 15.3856C16.0561 13.6241 16.0543 11.6875 15.3997 9.92715C14.9356 8.70109 14.0976 7.65204 13.0043 6.9285C11.9109 6.20496 10.6177 5.84359 9.30769 5.89553H1.55369C1.33006 5.90256 1.118 5.99657 0.962615 6.15753C0.807234 6.3185 0.720795 6.53374 0.721687 6.75745V31.4631C0.72195 31.6838 0.80966 31.8953 0.965605 32.0515C1.12155 32.2076 1.33302 32.2955 1.55369 32.2961C1.77732 32.2967 1.99236 32.21 2.153 32.0544C2.31363 31.8988 2.40717 31.6867 2.41369 31.4631V7.59537H9.30769C10.2766 7.54644 11.2358 7.80839 12.0453 8.34298C12.8548 8.87758 13.4723 9.65685 13.8077 10.5671C14.3103 11.9098 14.3103 13.389 13.8077 14.7317C13.4728 15.6426 12.8555 16.4227 12.046 16.9582C11.2365 17.4937 10.2771 17.7565 9.30769 17.7084H5.50769C5.39609 17.7055 5.28503 17.7249 5.18102 17.7654C5.077 17.8059 4.98212 17.8668 4.90194 17.9445C4.82175 18.0221 4.75787 18.115 4.71404 18.2177C4.67021 18.3204 4.64731 18.4307 4.64669 18.5424V31.4631C4.64669 31.6875 4.73582 31.9027 4.89447 32.0613C5.05313 32.2199 5.26831 32.3091 5.49269 32.3091C5.71706 32.3091 5.93224 32.2199 6.0909 32.0613C6.24956 31.9027 6.33869 31.6875 6.33869 31.4631V19.4263H9.30969C10.619 19.4639 11.908 19.0958 13 18.3724C14.092 17.6491 14.9337 16.6059 15.4097 15.3856" fill="#333333"/>
<path d="M8.9796 13.7877H7.84661C7.63081 13.7952 7.42634 13.8862 7.27632 14.0415C7.12631 14.1968 7.04246 14.4043 7.04246 14.6202C7.04246 14.8361 7.12631 15.0436 7.27632 15.1988C7.42634 15.3541 7.63081 15.4451 7.84661 15.4526H8.9796C9.53334 15.4738 10.0803 15.3249 10.5469 15.0261C11.0135 14.7272 11.3774 14.2926 11.5896 13.7808C11.74 13.4221 11.8174 13.0372 11.8174 12.6483C11.8174 12.2595 11.74 11.8746 11.5896 11.516C11.3779 11.0037 11.0142 10.5686 10.5475 10.2695C10.0808 9.97037 9.53353 9.82156 8.9796 9.84312H5.5046C5.39314 9.84005 5.28219 9.85927 5.17824 9.89963C5.0743 9.93999 4.97945 10.0007 4.89926 10.0782C4.81908 10.1556 4.75516 10.2483 4.71126 10.3508C4.66736 10.4533 4.64436 10.5635 4.6436 10.675C4.6424 10.7884 4.66385 10.9009 4.70669 11.0059C4.74953 11.1109 4.81291 11.2063 4.8931 11.2865C4.97329 11.3667 5.06869 11.43 5.17369 11.4729C5.2787 11.5157 5.3912 11.5372 5.5046 11.536H8.98161C9.19907 11.52 9.41618 11.5711 9.60372 11.6823C9.79127 11.7935 9.94025 11.9595 10.0306 12.1579C10.1503 12.4729 10.1503 12.8208 10.0306 13.1358C9.94754 13.3419 9.80099 13.5162 9.6122 13.6334C9.42341 13.7506 9.20219 13.8047 8.98061 13.7877" fill="#333333"/>
<path d="M25.3494 24.3329C25.291 24.1691 25.182 24.0282 25.0382 23.9304C24.8944 23.8326 24.7232 23.7831 24.5494 23.7889H18.4274C18.2504 23.7787 18.0749 23.8275 17.9287 23.9278C17.7824 24.0281 17.6736 24.1741 17.6194 24.3429L16.8994 26.0757C16.8488 26.1759 16.8203 26.2858 16.816 26.3979C16.8117 26.5101 16.8316 26.6219 16.8744 26.7256C16.9344 26.8882 17.0434 27.0281 17.1863 27.1262C17.3292 27.2243 17.4989 27.2756 17.6722 27.2732C17.8455 27.2708 18.0137 27.2148 18.1538 27.1128C18.2939 27.0108 18.3989 26.8678 18.4544 26.7036L18.9724 25.4528H23.9754L24.5054 26.7307C24.566 26.8886 24.6731 27.0244 24.8125 27.1201C24.952 27.2158 25.1173 27.2669 25.2864 27.2666C25.3843 27.2664 25.4815 27.2506 25.5744 27.2196C25.6813 27.1819 25.7795 27.1231 25.8632 27.0467C25.9469 26.9702 26.0143 26.8777 26.0614 26.7747C26.1113 26.67 26.1394 26.5563 26.144 26.4405C26.1487 26.3246 26.1297 26.209 26.0884 26.1007L25.3494 24.3329Z" fill="#333333"/>
<path d="M22.2736 6.27461C22.2113 6.11275 22.1017 5.97345 21.9589 5.87497C21.8162 5.77648 21.647 5.72339 21.4736 5.72266C21.3025 5.72218 21.1355 5.77444 20.9952 5.87231C20.8549 5.97018 20.7482 6.10892 20.6896 6.26961L12.6176 26.0778C12.5683 26.177 12.5402 26.2854 12.535 26.3961C12.5299 26.5068 12.5478 26.6173 12.5876 26.7207C12.6292 26.8369 12.6964 26.9422 12.7844 27.0288C12.8724 27.1153 12.9787 27.1809 13.0956 27.2206C13.1892 27.2515 13.287 27.2673 13.3856 27.2676C13.5605 27.2716 13.7321 27.2187 13.8743 27.1168C14.0166 27.0149 14.122 26.8696 14.1746 26.7027L21.4846 8.80437L28.7956 26.7027C28.8491 26.8691 28.9549 27.0137 29.0972 27.1151C29.2396 27.2165 29.4109 27.2693 29.5856 27.2656C29.6841 27.2654 29.782 27.2496 29.8756 27.2186C29.9783 27.1836 30.0727 27.1277 30.1527 27.0544C30.2328 26.9811 30.2967 26.892 30.3406 26.7927C30.3909 26.6849 30.4189 26.568 30.4229 26.4491C30.4269 26.3302 30.4067 26.2117 30.3636 26.1008L22.2736 6.27461Z" fill="#333333"/>
<path d="M19.1592 20.6492C19.166 20.8727 19.2597 21.0847 19.4206 21.2401C19.5814 21.3955 19.7965 21.482 20.0202 21.4811H22.9202C23.0315 21.484 23.1424 21.4647 23.2462 21.4243C23.35 21.3839 23.4448 21.3232 23.5249 21.2457C23.605 21.1683 23.6688 21.0756 23.7126 20.9732C23.7565 20.8707 23.7794 20.7606 23.7802 20.6492C23.7845 20.5278 23.7598 20.4071 23.7082 20.2972L22.2742 16.7705C22.214 16.6114 22.1071 16.4741 21.9676 16.3767C21.828 16.2793 21.6623 16.2263 21.4922 16.2246C21.3753 16.2252 21.2597 16.249 21.1522 16.2946C20.9534 16.3815 20.7944 16.5399 20.7068 16.7384C20.6193 16.9369 20.6094 17.1611 20.6792 17.3665C20.6792 17.3785 20.6872 17.3915 20.6912 17.4025L21.6912 19.8163H20.0272C19.8034 19.8154 19.5881 19.902 19.4272 20.0576C19.2664 20.2132 19.1727 20.4255 19.1662 20.6492" fill="#333333"/>
<path d="M43.8062 9.82407H38.8662C38.6456 9.82433 38.4341 9.91206 38.2781 10.068C38.1222 10.224 38.0344 10.4354 38.0342 10.656V26.4365C38.0342 26.6571 38.1218 26.8688 38.2778 27.0248C38.4339 27.1808 38.6455 27.2684 38.8662 27.2684C39.0868 27.2684 39.2984 27.1808 39.4545 27.0248C39.6105 26.8688 39.6982 26.6571 39.6982 26.4365V11.5379H43.8062C44.0338 11.5296 44.249 11.4315 44.4047 11.2652C44.5603 11.0988 44.6439 10.8777 44.6371 10.65C44.6364 10.43 44.5485 10.2192 44.3928 10.0637C44.2371 9.90817 44.0262 9.8206 43.8062 9.82007" fill="#333333"/>
<path d="M34.9451 9.82422H27.0941C26.8735 9.82448 26.6619 9.91218 26.5057 10.0681C26.3496 10.224 26.2616 10.4355 26.2611 10.6561C26.2544 10.8842 26.3382 11.1056 26.4943 11.272C26.6504 11.4384 26.8661 11.5362 27.0941 11.5441H34.0841V26.4357C34.0917 26.6551 34.1841 26.8631 34.3421 27.0156C34.5 27.1682 34.711 27.2535 34.9306 27.2535C35.1502 27.2535 35.3613 27.1682 35.5192 27.0156C35.6771 26.8631 35.7696 26.6551 35.7771 26.4357V10.6541C35.7761 10.4338 35.6879 10.2229 35.5318 10.0674C35.3757 9.91191 35.1644 9.82448 34.9441 9.82422" fill="#333333"/>
<path d="M25.9297 7.56941H46.1017C46.2111 7.56941 46.3194 7.54787 46.4205 7.50601C46.5215 7.46415 46.6133 7.4028 46.6907 7.32545C46.768 7.24811 46.8294 7.15629 46.8713 7.05524C46.9131 6.95418 46.9347 6.84587 46.9347 6.73649C46.9347 6.62711 46.9131 6.5188 46.8713 6.41775C46.8294 6.31669 46.768 6.22487 46.6907 6.14752C46.6133 6.07018 46.5215 6.00882 46.4205 5.96697C46.3194 5.92511 46.2111 5.90356 46.1017 5.90356H25.9297C25.8203 5.90356 25.712 5.92511 25.6109 5.96697C25.5098 6.00882 25.418 6.07018 25.3406 6.14752C25.2633 6.22487 25.202 6.31669 25.1601 6.41775C25.1182 6.5188 25.0967 6.62711 25.0967 6.73649C25.0967 6.84587 25.1182 6.95418 25.1601 7.05524C25.202 7.15629 25.2633 7.24811 25.3406 7.32545C25.418 7.4028 25.5098 7.46415 25.6109 7.50601C25.712 7.54787 25.8203 7.56941 25.9297 7.56941Z" fill="#333333"/>
<path d="M55.8102 11.4029C56.856 11.3746 57.8897 11.6318 58.8002 12.1469C58.9899 12.2435 59.2091 12.2652 59.414 12.2076C59.619 12.1499 59.7947 12.0172 59.9062 11.8359C59.9132 11.8249 59.9192 11.8129 59.9252 11.8009C60.0254 11.6051 60.0477 11.3785 59.9874 11.167C59.9271 10.9554 59.7887 10.7746 59.6003 10.661C58.4511 9.99598 57.1383 9.66685 55.8112 9.71111C54.4938 9.65954 53.1935 10.0239 52.0947 10.7525C50.9959 11.4812 50.1543 12.5371 49.6893 13.7707C49.0033 15.5356 49.0033 17.4934 49.6893 19.2582C50.1564 20.4889 50.9994 21.5413 52.0985 22.2658C53.1976 22.9904 54.4969 23.3505 55.8122 23.2948C57.1436 23.3379 58.4604 23.006 59.6122 22.3369C59.7962 22.2237 59.9297 22.0443 59.9855 21.8357C60.0413 21.627 60.0152 21.4049 59.9123 21.215C59.8647 21.1138 59.7963 21.0237 59.7116 20.9505C59.627 20.8774 59.5279 20.8228 59.4208 20.7903C59.3138 20.7577 59.2012 20.7481 59.0902 20.7618C58.9791 20.7755 58.8722 20.8124 58.7763 20.8701C57.8798 21.4012 56.8497 21.6639 55.8083 21.627C54.8303 21.6824 53.8601 21.4233 53.04 20.8877C52.2198 20.352 51.5927 19.568 51.2503 18.6503C50.7197 17.2762 50.7197 15.7538 51.2503 14.3797C51.5958 13.4637 52.2237 12.6813 53.0433 12.1458C53.8629 11.6103 54.8316 11.3495 55.8093 11.401" fill="#333333"/>
<path d="M59.6542 24.8127C59.5475 24.813 59.4419 24.8341 59.3432 24.8747C58.2258 25.3529 57.0205 25.5913 55.8052 25.5746C51.8422 25.5746 48.7822 23.6338 47.4122 20.2511C46.4643 17.8433 46.4643 15.1657 47.4122 12.7578C48.088 11.1093 49.2592 9.71131 50.7639 8.75713C52.2687 7.80294 54.0327 7.33967 55.8122 7.43134C57.032 7.42745 58.2403 7.66711 59.3662 8.13628C59.466 8.17661 59.5726 8.19699 59.6802 8.19627C59.8771 8.19945 60.0688 8.13338 60.2219 8.0096C60.375 7.88582 60.4798 7.71219 60.5179 7.51904C60.556 7.32588 60.5251 7.12548 60.4304 6.95283C60.3358 6.78018 60.1835 6.64625 60.0002 6.57443C58.6723 6.02356 57.2488 5.73984 55.8112 5.7395C51.1422 5.7395 47.5242 8.07228 45.8862 12.1389C44.7502 14.9485 44.7502 18.0895 45.8862 20.8991C47.5312 24.9497 51.1492 27.2705 55.8122 27.2705C57.252 27.2781 58.6792 27.0019 60.0122 26.4576L60.0442 26.4436C60.2462 26.3498 60.4034 26.1808 60.4823 25.9726C60.5611 25.7644 60.5554 25.5337 60.4662 25.3297C60.396 25.1748 60.2822 25.0436 60.1387 24.9524C59.9952 24.8611 59.8283 24.8136 59.6582 24.8157" fill="#333333"/>
<path d="M63.4766 5.87651C63.2557 5.87677 63.044 5.96461 62.8878 6.12076C62.7317 6.2769 62.6438 6.48861 62.6436 6.70943V26.4366C62.6511 26.656 62.7436 26.864 62.9015 27.0166C63.0594 27.1691 63.2705 27.2544 63.4901 27.2544C63.7097 27.2544 63.9207 27.1691 64.0786 27.0166C64.2365 26.864 64.329 26.656 64.3365 26.4366V6.70943C64.3359 6.59794 64.3131 6.48769 64.2693 6.38515C64.2255 6.28261 64.1616 6.18984 64.0815 6.11227C64.0015 6.0347 63.9068 5.9739 63.8029 5.93341C63.699 5.89293 63.588 5.87358 63.4766 5.87651Z" fill="#333333"/>
<path d="M77.2734 0.50002C77.0528 0.500283 76.8412 0.587985 76.6851 0.743915C76.5289 0.899845 76.441 1.11129 76.4404 1.33194V26.4356C76.4404 26.6601 76.5296 26.8754 76.6884 27.0341C76.8471 27.1928 77.0625 27.282 77.287 27.282C77.5115 27.282 77.7267 27.1928 77.8855 27.0341C78.0442 26.8754 78.1334 26.6601 78.1334 26.4356V1.33194C78.1327 1.22062 78.1097 1.11057 78.0659 1.00821C78.0221 0.905853 77.9585 0.813245 77.8785 0.735794C77.7986 0.658343 77.7039 0.597602 77.6002 0.557121C77.4965 0.516639 77.3847 0.497227 77.2734 0.50002Z" fill="#333333"/>
<path d="M73.3324 17.6834H67.4264C67.1981 17.6837 66.9793 17.7744 66.8179 17.9358C66.6565 18.0972 66.5657 18.3161 66.5654 18.5443V26.4356C66.573 26.6587 66.6671 26.8701 66.8276 27.0253C66.9882 27.1804 67.2026 27.2671 67.4259 27.2671C67.6492 27.2671 67.8637 27.1804 68.0243 27.0253C68.1848 26.8701 68.2788 26.6587 68.2864 26.4356V19.3772H72.4994V26.4356C72.4994 26.6602 72.5887 26.8756 72.7476 27.0344C72.9064 27.1932 73.1218 27.2825 73.3464 27.2825C73.5711 27.2825 73.7865 27.1932 73.9453 27.0344C74.1042 26.8756 74.1935 26.6602 74.1935 26.4356V18.5443C74.1947 18.431 74.1733 18.3186 74.1305 18.2136C74.0877 18.1087 74.0244 18.0134 73.9443 17.9332C73.8643 17.853 73.769 17.7896 73.6641 17.7467C73.5592 17.7038 73.4457 17.6823 73.3324 17.6834Z" fill="#333333"/>
<path d="M73.3325 0.500045C73.1118 0.500309 72.9003 0.588011 72.7441 0.743941C72.588 0.89987 72.5 1.11132 72.4995 1.33197V13.7398H68.2865V6.70946C68.2789 6.48634 68.1848 6.2749 68.0243 6.11975C67.8637 5.9646 67.6493 5.87788 67.426 5.87788C67.2028 5.87788 66.9882 5.9646 66.8276 6.11975C66.6671 6.2749 66.573 6.48634 66.5654 6.70946V14.5987C66.5715 14.825 66.6643 15.0404 66.8245 15.2004C66.9847 15.3604 67.2002 15.4528 67.4265 15.4586H73.3325C73.5605 15.4584 73.7791 15.3677 73.9403 15.2065C74.1015 15.0453 74.1922 14.8267 74.1925 14.5987V1.33197C74.1917 1.22056 74.1687 1.11042 74.1249 1.008C74.081 0.905574 74.0172 0.812919 73.9371 0.735455C73.8571 0.65799 73.7624 0.597272 73.6586 0.556851C73.5547 0.516429 73.4439 0.497118 73.3325 0.500045Z" fill="#333333"/>
<path d="M89.5764 5.73853H81.7663C81.5384 5.7461 81.3227 5.84369 81.1666 6.00992C81.0104 6.17616 80.9266 6.39749 80.9333 6.62544V26.3796C80.9288 26.4928 80.9468 26.6057 80.9864 26.7118C81.026 26.818 81.0864 26.9151 81.1639 26.9977C81.2414 27.0803 81.3346 27.1465 81.4381 27.1927C81.5415 27.2388 81.6531 27.2639 81.7663 27.2665C81.8832 27.2677 81.9992 27.2456 82.1074 27.2015C82.2156 27.1573 82.3139 27.0921 82.3966 27.0095C82.4792 26.9269 82.5447 26.8286 82.5889 26.7205C82.6332 26.6123 82.6554 26.4964 82.6544 26.3796V7.45736H89.5753C90.9128 7.47345 92.1893 8.01939 93.1248 8.97541C94.0603 9.93142 94.5783 11.2194 94.5653 12.5569C94.5735 13.8026 94.1326 15.0095 93.3233 15.9566C93.1816 16.1098 93.1029 16.3108 93.1029 16.5195C93.1029 16.7282 93.1816 16.9293 93.3233 17.0825C93.9562 17.8171 94.3676 18.7162 94.5098 19.6754C94.6521 20.6345 94.5193 21.6143 94.1268 22.501C93.7343 23.3877 93.0982 24.1448 92.2926 24.6844C91.4869 25.2241 90.5447 25.5241 89.5753 25.5497H85.7683C85.6568 25.5467 85.546 25.5661 85.4421 25.6066C85.3382 25.6471 85.2434 25.7079 85.1633 25.7854C85.0832 25.863 85.0193 25.9558 84.9755 26.0583C84.9318 26.1609 84.9089 26.2711 84.9083 26.3826C84.904 26.4979 84.9231 26.613 84.9644 26.7208C85.0058 26.8286 85.0685 26.9268 85.1489 27.0097C85.2292 27.0926 85.3255 27.1583 85.432 27.203C85.5384 27.2476 85.6528 27.2703 85.7683 27.2695H89.5753C91.3687 27.2526 93.0823 26.5252 94.3402 25.2468C95.598 23.9685 96.2976 22.2435 96.2854 20.4501C96.2772 19.0398 95.8414 17.665 95.0354 16.5075C95.8478 15.3521 96.2843 13.9743 96.2854 12.5619C96.2979 10.7684 95.5984 9.04313 94.3405 7.76454C93.0826 6.48595 91.3689 5.75842 89.5753 5.74152" fill="#333333"/>
<path d="M89.2217 13.6849H88.0897C87.8653 13.6849 87.6501 13.774 87.4915 13.9327C87.3328 14.0913 87.2437 14.3065 87.2437 14.5308C87.2437 14.7552 87.3328 14.9703 87.4915 15.129C87.6501 15.2876 87.8653 15.3768 88.0897 15.3768H89.2217C89.5982 15.3868 89.9729 15.3213 90.3237 15.1841C90.6745 15.047 90.9943 14.841 91.2642 14.5782C91.534 14.3155 91.7484 14.0014 91.8949 13.6544C92.0413 13.3074 92.1168 12.9346 92.1168 12.558C92.1168 12.1814 92.0413 11.8086 91.8949 11.4616C91.7484 11.1146 91.534 10.8005 91.2642 10.5378C90.9943 10.2751 90.6745 10.069 90.3237 9.93188C89.9729 9.79473 89.5982 9.72925 89.2217 9.73928H85.7727C85.6595 9.7346 85.5465 9.75255 85.4403 9.79207C85.3341 9.8316 85.2369 9.89191 85.1543 9.96947C85.0717 10.047 85.0053 10.1403 84.9592 10.2438C84.9131 10.3473 84.8882 10.4589 84.8857 10.5722C84.8907 10.8034 84.9866 11.0233 85.1526 11.1843C85.3186 11.3452 85.5415 11.4343 85.7727 11.4321H89.2217C89.3745 11.4242 89.5274 11.4475 89.6709 11.5006C89.8144 11.5536 89.9457 11.6353 90.0566 11.7407C90.1676 11.846 90.2559 11.9729 90.3163 12.1135C90.3767 12.2541 90.4078 12.4055 90.4078 12.5585C90.4078 12.7115 90.3767 12.8629 90.3163 13.0035C90.2559 13.1441 90.1676 13.271 90.0566 13.3763C89.9457 13.4817 89.8144 13.5634 89.6709 13.6165C89.5274 13.6695 89.3745 13.6928 89.2217 13.6849Z" fill="#333333"/>
<path d="M85.7698 19.3224H89.2188C89.3706 19.316 89.5222 19.3404 89.6644 19.3941C89.8066 19.4478 89.9364 19.5296 90.0461 19.6348C90.1559 19.74 90.2432 19.8663 90.3029 20.0061C90.3625 20.1459 90.3932 20.2963 90.3932 20.4483C90.3932 20.6003 90.3625 20.7507 90.3029 20.8905C90.2432 21.0303 90.1559 21.1565 90.0461 21.2617C89.9364 21.3669 89.8066 21.4488 89.6644 21.5025C89.5222 21.5562 89.3706 21.5806 89.2188 21.5742H88.0868C87.8587 21.5742 87.6399 21.6648 87.4786 21.826C87.3174 21.9873 87.2268 22.206 87.2268 22.4341C87.2268 22.6622 87.3174 22.8809 87.4786 23.0422C87.6399 23.2034 87.8587 23.294 88.0868 23.294H89.2188C89.5968 23.3063 89.9734 23.2426 90.3263 23.1064C90.6791 22.9703 91.001 22.7646 91.2727 22.5016C91.5445 22.2386 91.7605 21.9236 91.9081 21.5754C92.0557 21.2273 92.1317 20.8529 92.1317 20.4748C92.1317 20.0966 92.0557 19.7223 91.9081 19.3741C91.7605 19.0259 91.5445 18.711 91.2727 18.448C91.001 18.185 90.6791 17.9793 90.3263 17.8431C89.9734 17.707 89.5968 17.6432 89.2188 17.6556H85.7698C85.6562 17.6487 85.5425 17.6652 85.4355 17.7039C85.3286 17.7427 85.2307 17.8029 85.1479 17.8809C85.0652 17.9588 84.9992 18.0529 84.9541 18.1573C84.909 18.2617 84.8857 18.3742 84.8857 18.488C84.8857 18.6017 84.909 18.7142 84.9541 18.8186C84.9992 18.923 85.0652 19.0171 85.1479 19.0951C85.2307 19.173 85.3286 19.2332 85.4355 19.272C85.5425 19.3107 85.6562 19.3272 85.7698 19.3204" fill="#333333"/>
<path d="M108.53 21.8451C107.612 21.8414 106.712 21.5919 105.923 21.1226C105.134 20.6532 104.485 19.9812 104.044 19.1764C103.964 19.0494 103.853 18.9451 103.721 18.8736C103.589 18.8021 103.441 18.7659 103.291 18.7684C103.149 18.7681 103.01 18.8006 102.883 18.8634C102.87 18.8696 102.858 18.8766 102.847 18.8844C102.66 19.0027 102.524 19.1878 102.469 19.4021C102.413 19.6164 102.441 19.8438 102.547 20.0383C103.316 21.3719 104.503 22.4142 105.925 23.0033C107.348 23.5924 108.925 23.6953 110.411 23.2961C111.898 22.8968 113.211 22.0177 114.147 20.7954C115.082 19.5731 115.588 18.076 115.585 16.5368C115.582 14.9975 115.071 13.5023 114.131 12.2835C113.191 11.0647 111.874 10.1905 110.386 9.79682C108.898 9.40311 107.321 9.51193 105.902 10.1064C104.482 10.7008 103.298 11.7475 102.534 13.084C102.442 13.2711 102.417 13.484 102.463 13.6873C102.509 13.8906 102.623 14.0722 102.786 14.2019C102.815 14.2252 102.846 14.2453 102.88 14.2619C103.004 14.324 103.141 14.3565 103.28 14.3568C103.437 14.3599 103.591 14.3197 103.726 14.2407C103.862 14.1617 103.972 14.0469 104.047 13.9089C104.488 13.1081 105.136 12.4401 105.923 11.974C106.71 11.5079 107.607 11.2607 108.522 11.2581C109.882 11.3229 111.165 11.9089 112.105 12.8945C113.045 13.8802 113.57 15.1898 113.57 16.5516C113.57 17.9135 113.045 19.2231 112.105 20.2087C111.165 21.1944 109.882 21.7804 108.522 21.8451" fill="#333333"/>
<path d="M118.666 18.8014C118.559 18.7684 118.446 18.7569 118.334 18.7677C118.223 18.7785 118.114 18.8114 118.015 18.8644C117.916 18.9174 117.829 18.9895 117.758 19.0765C117.687 19.1636 117.634 19.2638 117.602 19.3714C116.987 21.2882 115.774 22.9581 114.143 24.1374C112.511 25.3167 110.545 25.9437 108.531 25.9268C107.294 25.9396 106.066 25.7069 104.919 25.2421C103.772 24.7774 102.728 24.0899 101.848 23.2193C100.968 22.3487 100.27 21.3124 99.7935 20.1702C99.3169 19.0281 99.0715 17.8027 99.0715 16.5651C99.0715 15.3276 99.3169 14.1022 99.7935 12.9601C100.27 11.8179 100.968 10.7816 101.848 9.91101C102.728 9.04043 103.772 8.35289 104.919 7.88816C106.066 7.42343 107.294 7.19074 108.531 7.20353C110.538 7.185 112.499 7.80629 114.129 8.9773C115.759 10.1483 116.973 11.8081 117.596 13.7159C117.625 13.8236 117.676 13.9244 117.744 14.0125C117.813 14.1007 117.898 14.1744 117.995 14.2294C118.092 14.2844 118.199 14.3197 118.31 14.3332C118.421 14.3466 118.533 14.338 118.64 14.3079C118.747 14.2834 118.848 14.2371 118.937 14.1719C119.025 14.1067 119.099 14.024 119.154 13.9289C119.219 13.8233 119.261 13.7051 119.276 13.5821C119.292 13.4592 119.281 13.3344 119.244 13.216C118.493 10.9674 117.056 9.0112 115.134 7.6235C113.211 6.23581 110.902 5.48664 108.531 5.48169C105.592 5.48169 102.773 6.64925 100.694 8.72752C98.6159 10.8058 97.4482 13.6245 97.4482 16.5637C97.4482 19.5028 98.6159 22.3215 100.694 24.3998C102.773 26.4781 105.592 27.6456 108.531 27.6456C110.905 27.6417 113.218 26.8902 115.141 25.4978C117.064 24.1053 118.499 22.1426 119.243 19.8883C119.31 19.6674 119.286 19.4293 119.178 19.2255C119.07 19.0217 118.886 18.8686 118.666 18.7994" fill="#333333"/>
<path d="M111.214 16.5785C111.214 17.1069 111.058 17.6235 110.764 18.0628C110.47 18.5022 110.053 18.8446 109.565 19.0469C109.077 19.2491 108.539 19.302 108.021 19.1989C107.502 19.0958 107.027 18.8414 106.653 18.4677C106.279 18.0941 106.025 17.618 105.921 17.0997C105.818 16.5814 105.871 16.0443 106.074 15.5561C106.276 15.0679 106.618 14.6506 107.058 14.357C107.497 14.0634 108.014 13.9067 108.542 13.9067C109.251 13.907 109.93 14.1886 110.431 14.6896C110.932 15.1906 111.214 15.87 111.214 16.5785Z" fill="#EF3D3E"/>
<path d="M127.439 12.515C127.522 12.6288 127.63 12.7215 127.755 12.7853C127.88 12.8491 128.019 12.8822 128.159 12.8819C128.306 12.8804 128.449 12.8432 128.578 12.7735C128.707 12.7038 128.817 12.6037 128.898 12.482L132.185 7.18246C132.263 7.05308 132.305 6.90523 132.307 6.75415C132.309 6.60306 132.271 6.4542 132.196 6.3229C132.121 6.1916 132.013 6.08261 131.882 6.00715C131.751 5.93168 131.602 5.89248 131.451 5.89358C131.302 5.89379 131.156 5.93123 131.025 6.00248C130.895 6.07374 130.784 6.17654 130.703 6.30154L128.17 10.4281L125.604 6.28554C125.475 6.10237 125.283 5.97351 125.064 5.92383C124.846 5.87416 124.617 5.9072 124.421 6.01657C124.232 6.13791 124.097 6.32741 124.043 6.54578C123.99 6.76416 124.023 6.99464 124.135 7.18945L127.439 12.515Z" fill="#333333"/>
<path d="M140.587 31.1862L131.304 15.9877L136.76 7.21649C136.768 7.20249 136.777 7.18949 136.782 7.17549C136.878 6.98768 136.908 6.77332 136.867 6.56655C136.845 6.44832 136.796 6.33657 136.725 6.23926C136.654 6.14195 136.563 6.06148 136.457 6.00359C136.33 5.9311 136.186 5.89286 136.039 5.8926C135.894 5.89142 135.751 5.92979 135.626 6.00359C135.501 6.0774 135.398 6.18387 135.329 6.31157L129.572 15.5407C129.563 15.5547 129.554 15.5694 129.547 15.5847C129.478 15.7156 129.445 15.8619 129.449 16.0097C129.453 16.1574 129.495 16.3017 129.57 16.4286L139.133 32.0662C139.214 32.1914 139.325 32.2939 139.457 32.3639C139.588 32.434 139.735 32.4691 139.884 32.4661C140.026 32.4668 140.165 32.4343 140.291 32.3711L140.323 32.3531C140.419 32.296 140.501 32.2201 140.566 32.13C140.632 32.04 140.678 31.9376 140.702 31.8292C140.728 31.7188 140.731 31.6044 140.711 31.4928C140.691 31.3813 140.648 31.275 140.586 31.1802" fill="#333333"/>
<path d="M126.766 15.5817C126.759 15.5677 126.752 15.5547 126.744 15.5417L120.987 6.31256C120.918 6.18467 120.816 6.07801 120.691 6.00402C120.565 5.93003 120.423 5.89151 120.277 5.8926C120.124 5.89266 119.974 5.93449 119.843 6.01358C119.658 6.13454 119.523 6.31963 119.466 6.53343C119.408 6.74724 119.432 6.97477 119.531 7.17248C119.539 7.18768 119.547 7.20238 119.556 7.21647L125.011 15.9867L118.781 26.0587C118.772 26.0727 118.764 26.0877 118.756 26.1027C118.653 26.2919 118.625 26.5132 118.677 26.7223C118.73 26.9314 118.86 27.1129 119.04 27.2306C119.054 27.2391 119.067 27.2468 119.081 27.2536C119.206 27.315 119.342 27.3475 119.481 27.3486C119.63 27.3516 119.777 27.3165 119.908 27.2464C120.039 27.1764 120.15 27.0739 120.23 26.9486L126.73 16.4496C126.812 16.3208 126.858 16.1728 126.863 16.0206C126.869 15.8684 126.835 15.7173 126.763 15.5827" fill="#333333"/>
<path d="M128.899 19.9322C128.893 19.9216 128.886 19.9116 128.879 19.9022C128.796 19.7886 128.687 19.6961 128.562 19.6324C128.437 19.5686 128.299 19.5354 128.159 19.5354C128.018 19.5354 127.88 19.5686 127.754 19.6324C127.629 19.6961 127.521 19.7886 127.438 19.9022L127.417 19.9322L123.651 26.0636C123.59 26.1496 123.547 26.2469 123.523 26.3499C123.5 26.4529 123.497 26.5595 123.514 26.6635C123.533 26.7756 123.575 26.8823 123.638 26.9769C123.701 27.0715 123.783 27.1518 123.879 27.2125C124.07 27.3341 124.3 27.3765 124.521 27.3307C124.742 27.285 124.936 27.1546 125.062 26.9675L128.169 21.982L134.305 32.091C134.382 32.2144 134.49 32.3159 134.618 32.3858C134.745 32.4558 134.889 32.492 135.035 32.491C135.173 32.4906 135.31 32.4581 135.434 32.396C135.467 32.3791 135.498 32.3594 135.526 32.337C135.713 32.1892 135.834 31.9735 135.861 31.7371C135.883 31.5409 135.831 31.3436 135.716 31.1831L128.899 19.9322Z" fill="#333333"/>
</g>
<defs>
<clipPath id="clip0_1800_195">
<rect width="140" height="32" fill="white" transform="translate(0.72168 0.5)"/>
</clipPath>
</defs>
</svg>
