<svg width="43" height="33" viewBox="0 0 43 33" fill="none" xmlns="http://www.w3.org/2000/svg">
<g clip-path="url(#clip0_1800_304)">
<path d="M35.2505 15.0778C35.2505 14.9 35.2505 14.7222 35.2061 14.5444L35.1617 14.3222L33.5183 7.12222C33.1185 5.52222 32.8076 4.81111 30.0094 3.43333C27.8774 2.32222 23.1693 0.5 21.7923 0.5C20.5043 0.5 20.1045 2.18889 18.5944 2.18889C17.1286 2.18889 16.0182 0.944445 14.6413 0.944445C13.3088 0.944445 12.4205 1.83333 11.7542 3.7C11.7542 3.7 9.88875 8.98889 9.66667 9.74445C9.62225 9.87778 9.62225 10.0111 9.62225 10.1889C9.57784 12.2333 17.6616 18.9444 28.4548 18.9444C31.253 18.9444 35.2505 18.3667 35.2505 15.0778Z" fill="#EE0000"/>
<path d="M35.6914 16.4111C36.0911 18.2333 36.0911 18.4111 36.0911 18.6777C36.0911 21.7888 32.5822 23.5222 28.0073 23.5222C17.5695 23.5222 8.46411 17.3888 8.46411 13.3888C8.46411 12.8111 8.59735 12.2777 8.81944 11.7444C5.08846 11.9666 0.24707 12.5888 0.24707 16.8999C0.24707 23.8777 16.8144 32.4999 29.9172 32.4999C39.9553 32.4999 42.4871 27.9666 42.4871 24.3666C42.5315 21.5222 40.0886 18.3222 35.6914 16.4111Z" fill="#EE0000"/>
<path d="M35.1533 14.3223L35.1977 14.5445C35.1977 14.4556 35.1977 14.4112 35.1533 14.3223Z" fill="white"/>
</g>
<defs>
<clipPath id="clip0_1800_304">
<rect width="42.24" height="32" fill="white" transform="translate(0.24707 0.5)"/>
</clipPath>
</defs>
</svg>
