<svg width="219" height="33" viewBox="0 0 219 33" fill="none" xmlns="http://www.w3.org/2000/svg">
<g clip-path="url(#clip0_1800_99)">
<path fill-rule="evenodd" clip-rule="evenodd" d="M53.3095 10.3462C51.1046 10.3462 48.9697 11.1198 47.2897 12.5264V10.5572H41.7949V32.0077H47.4997V18.2934C48.7247 16.6759 50.6496 15.6912 52.6795 15.6209C53.4495 15.5858 54.2195 15.6912 54.9544 15.9726V10.522C54.4294 10.4165 53.8695 10.3462 53.3095 10.3462Z" fill="black"/>
<path fill-rule="evenodd" clip-rule="evenodd" d="M3.57544 25.5023C5.22038 26.8737 7.2853 27.6474 9.42022 27.6122C10.9602 27.6122 12.1501 26.8737 12.1501 25.7836C12.1501 22.5485 1.82551 23.7089 1.82551 16.7814C1.82551 12.6671 5.78036 10.1001 9.9802 10.1001C12.5351 10.1001 15.055 10.8737 17.1899 12.2803L14.53 16.4298C13.3401 15.5155 11.9401 15.0232 10.4352 14.988C8.86024 14.988 7.5303 15.621 7.5303 16.7111C7.5303 19.4891 17.8549 18.399 17.8549 25.8188C17.8549 29.9682 13.8301 32.5001 9.38523 32.5001C6.27034 32.4649 3.29545 31.4452 0.810547 29.6166L3.57544 25.5023Z" fill="black"/>
<path fill-rule="evenodd" clip-rule="evenodd" d="M39.3805 21.1067C39.3805 15.1287 35.2156 10.1353 29.3359 10.1353C23.0011 10.1353 18.9762 15.3397 18.9762 21.3177C18.7313 27.2605 23.2811 32.2539 29.1609 32.5001C29.4759 32.5001 29.7908 32.5001 30.1058 32.5001C33.4307 32.5353 36.6156 31.1287 38.8555 28.6671L35.6006 25.3968C34.2357 26.9089 32.2757 27.8232 30.2458 27.8583C27.3059 27.9638 24.786 25.7133 24.506 22.7594H39.2405C39.3455 22.232 39.3805 21.6693 39.3805 21.1067ZM24.751 18.5396C25.171 16.3594 27.0959 14.777 29.3009 14.777C31.4358 14.777 33.2557 16.3946 33.5007 18.5396H24.751Z" fill="black"/>
<path fill-rule="evenodd" clip-rule="evenodd" d="M68.5701 23.6736L74.4149 10.5923H80.3647L70.565 32.0428H66.6102L56.8105 10.5923H62.7603L68.5701 23.6736Z" fill="black"/>
<path fill-rule="evenodd" clip-rule="evenodd" d="M85.1179 0.5C87.1478 0.535165 88.7578 2.22308 88.7228 4.26264C88.6878 6.3022 87.0078 7.91978 84.9779 7.88462C82.983 7.84945 81.373 6.1967 81.373 4.19231C81.408 2.15275 83.053 0.5 85.0479 0.5C85.0829 0.5 85.1179 0.5 85.1179 0.5Z" fill="black"/>
<path d="M87.9919 10.5923H82.2871V32.0428H87.9919V10.5923Z" fill="black"/>
<path fill-rule="evenodd" clip-rule="evenodd" d="M111.586 27.6472C109.381 30.812 105.741 32.6054 101.926 32.4648C95.7664 32.6054 90.6916 27.7527 90.5166 21.5637C90.3766 15.3747 95.2065 10.2758 101.366 10.0999C101.576 10.0999 101.786 10.0999 101.961 10.0999C105.426 10.0648 108.751 11.6472 110.921 14.39L106.861 18.012C105.706 16.4296 103.886 15.4802 101.961 15.445C98.8113 15.445 96.2214 17.9769 96.2214 21.1769C96.2214 21.2472 96.2214 21.2824 96.2214 21.3527C96.1164 24.4824 98.5663 27.0846 101.681 27.1901C101.821 27.1901 101.961 27.1901 102.101 27.1901C104.166 27.1549 106.056 26.0999 107.176 24.3417L111.586 27.6472Z" fill="black"/>
<path fill-rule="evenodd" clip-rule="evenodd" d="M132.299 28.632C130.094 31.1287 126.909 32.5353 123.55 32.4649C117.67 32.7462 112.665 28.1748 112.42 22.2671C112.42 21.9506 112.42 21.6342 112.42 21.3177C112.42 15.3396 116.445 10.1353 122.78 10.1353C128.659 10.1353 132.824 15.1287 132.824 21.1067C132.824 21.6693 132.789 22.1968 132.684 22.7594H117.95C118.23 25.7133 120.75 27.9287 123.69 27.8583C125.719 27.788 127.679 26.9089 129.044 25.3968L132.299 28.632ZM126.979 18.5396C126.734 16.3946 124.914 14.777 122.78 14.777C120.54 14.777 118.65 16.3594 118.23 18.5396H126.979Z" fill="black"/>
<path fill-rule="evenodd" clip-rule="evenodd" d="M135.1 32.0429V10.5924H140.594V12.3155C142.274 10.9089 144.409 10.1353 146.614 10.1353C149.449 10.1353 152.179 11.4012 153.999 13.5814C155.644 15.7265 156.414 18.399 156.204 21.1067V32.0429H150.499V20.6495C150.674 19.1726 150.184 17.7309 149.239 16.6056C148.364 15.7968 147.209 15.3748 146.019 15.41C143.989 15.4803 142.099 16.4298 140.839 18.0825V32.0429H135.1Z" fill="black"/>
<path fill-rule="evenodd" clip-rule="evenodd" d="M170.832 10.1353C163.938 10.1353 158.338 15.7265 158.303 22.6539C158.303 26.1001 159.703 29.4407 162.223 31.7968C163.098 32.6407 164.463 32.7111 165.442 31.9726C168.592 29.6166 172.932 29.6166 176.082 31.9726C177.062 32.7111 178.427 32.6407 179.302 31.7968C184.307 27.0144 184.517 19.0671 179.757 14.0386C177.447 11.577 174.227 10.1704 170.832 10.1353ZM170.762 28.9484C167.402 29.0539 164.637 26.3814 164.532 23.0407C164.532 22.9353 164.532 22.8298 164.532 22.7243C164.532 19.2781 167.332 16.4649 170.762 16.4649C174.192 16.4649 176.992 19.2781 176.992 22.7243C177.097 26.1001 174.437 28.8781 171.112 28.9836C170.972 28.9484 170.867 28.9484 170.762 28.9484Z" fill="#62D84E"/>
<path fill-rule="evenodd" clip-rule="evenodd" d="M194.492 32.0428H190.257L181.787 10.5923H187.457L192.112 22.8296L196.662 10.5923H201.421L205.936 22.8296L210.626 10.5923H216.331L207.861 32.0428H203.626L199.041 19.8055L194.492 32.0428Z" fill="black"/>
<path d="M216.4 29.6164H215.91V30.5306H215.49V28.0339H216.505C216.96 28.0339 217.31 28.3856 217.31 28.8427C217.31 29.1592 217.1 29.4405 216.82 29.5812L217.38 30.5658H216.925L216.4 29.6164ZM215.91 29.2647H216.505C216.75 29.2647 216.925 29.0889 216.925 28.8427C216.925 28.5966 216.75 28.4207 216.505 28.4207H215.91V29.2647Z" fill="black"/>
<path d="M216.33 27.0142C217.59 27.0142 218.64 28.034 218.64 29.3351C218.64 30.6011 217.625 31.656 216.33 31.656C215.07 31.656 214.02 30.6362 214.02 29.3351C214.055 28.0692 215.07 27.0142 216.33 27.0142ZM216.33 26.6626C214.86 26.6626 213.67 27.8582 213.67 29.3351C213.67 30.812 214.86 32.0077 216.33 32.0077C217.8 32.0077 218.99 30.812 218.99 29.3351C218.99 27.8582 217.8 26.6626 216.33 26.6626Z" fill="black"/>
</g>
<defs>
<clipPath id="clip0_1800_99">
<rect width="218.182" height="32" fill="white" transform="translate(0.810547 0.5)"/>
</clipPath>
</defs>
</svg>
