<svg width="178" height="33" viewBox="0 0 178 33" fill="none" xmlns="http://www.w3.org/2000/svg">
<g clip-path="url(#clip0_1800_135)">
<path d="M32.5383 1.13997C31.1314 0.371967 29.3408 0.947966 28.5734 2.48397L18.0858 25.14C17.83 25.652 17.6382 25.972 17.0626 25.972C16.4871 25.972 16.2952 25.652 16.0395 25.14L5.48789 2.48397C4.78445 0.947966 2.99389 0.371967 1.58701 1.13997C0.180137 1.90797 -0.395402 3.76397 0.308035 5.29997L10.6038 26.292L11.7549 28.66C12.7781 30.772 14.8244 32.052 17.0626 32.052C19.3008 32.052 21.3472 30.772 22.3704 28.66L23.5215 26.292L33.8812 5.29997C34.5207 3.76397 34.0091 1.90797 32.5383 1.13997Z" fill="#00B336"/>
<path d="M172.519 0.820104C170.537 0.820104 168.81 2.0361 167.979 3.7641C165.293 9.2041 157.427 25.4601 157.363 25.5241C157.299 25.6521 157.171 25.9721 156.788 25.9721C156.468 25.9721 156.276 25.5881 156.212 25.4601C153.59 20.0841 148.474 9.3961 145.725 3.8921C144.701 1.7801 142.911 0.756104 141.056 0.756104C138.179 0.756104 135.812 3.1881 135.812 6.5161V28.8521C135.812 30.1961 136.58 31.4761 137.795 31.8601C139.713 32.5001 141.376 30.8361 141.376 28.7881L140.992 7.0281C140.992 6.8361 141.248 6.7081 141.376 6.9001L152.119 28.6601C153.143 30.7721 154.869 31.9881 156.788 31.9881C158.706 31.9881 160.433 30.7081 161.456 28.6601L172.199 6.9001C172.327 6.7081 172.583 6.7721 172.583 7.0281L172.199 28.9161C172.199 30.6441 173.478 32.0521 175.077 31.9881C176.612 31.9241 177.763 30.4521 177.763 28.7881C177.763 28.7881 177.763 12.0841 177.763 6.5161C177.763 3.1881 175.397 0.820104 172.519 0.820104Z" fill="#00B336"/>
<path d="M132.233 27.5081L120.402 4.1481C119.379 2.1001 117.333 0.756104 115.159 0.756104C113.752 0.756104 112.473 1.2681 111.386 2.1641C110.746 2.6761 110.234 3.3801 109.851 4.1481L98.0202 27.3801C98.0202 27.3801 98.0202 27.4441 97.9563 27.4441V27.5081C97.4447 28.5961 97.5726 29.8761 98.2121 30.7721L98.276 30.8361L98.34 30.9001C98.5318 31.1561 98.7876 31.4121 99.1074 31.6041C100.131 32.1801 101.282 32.1161 102.177 31.4761C102.177 31.4761 102.177 31.4761 102.241 31.4761C102.305 31.4121 102.369 31.4121 102.433 31.3481C102.497 31.2841 102.561 31.2841 102.561 31.2201L102.625 31.1561C102.816 30.9641 103.008 30.7081 103.136 30.3881L103.584 29.4921L106.078 24.3081C106.142 24.1801 106.27 24.1161 106.398 24.1161H117.269C118.74 24.1161 119.891 22.8361 119.891 21.3641C119.891 19.8281 118.676 18.6121 117.269 18.6121H109.147C108.955 18.6121 108.892 18.4201 108.955 18.2921L109.531 17.0121L114.007 8.0521V7.9881V7.9241C114.071 7.7961 114.327 7.1561 114.775 7.0281C115.031 6.9641 115.286 6.9641 115.414 7.0281C115.862 7.1561 116.054 7.7321 116.246 8.1161L127.053 30.5161C127.565 31.5401 128.588 32.1161 129.611 32.1161C129.931 32.1161 130.25 32.0521 130.634 31.9241H130.698C130.762 31.8601 130.826 31.8601 130.954 31.7961C130.954 31.7961 131.018 31.7961 131.018 31.7321C131.018 31.7321 131.018 31.7321 131.082 31.7321C131.082 31.7321 131.146 31.7321 131.146 31.6681C131.21 31.6681 131.21 31.6041 131.274 31.6041L131.338 31.5401C131.402 31.4761 131.402 31.4761 131.465 31.4121C131.529 31.3481 131.529 31.3481 131.593 31.2841C131.593 31.2841 131.593 31.2841 131.657 31.2201C132.617 30.3241 132.872 28.7881 132.233 27.5081Z" fill="#00B336"/>
<path d="M40.5312 19.828H60.4832C60.8669 19.828 63.9364 19.572 63.9364 16.116C63.9364 7.476 57.2858 0.5 49.1643 0.5C41.0428 0.5 34.3281 7.476 34.3281 16.052C34.3281 16.244 34.3281 16.756 34.3281 16.884C34.3281 26.676 40.5951 31.988 48.9724 32.436C49.3561 32.436 49.7398 32.5 50.1235 32.5C53.3209 32.5 56.0707 31.668 59.0124 29.812C59.3321 29.62 60.4832 28.852 61.6982 27.316C62.6575 26.1 62.7214 24.244 61.6982 23.284C60.2274 21.876 58.6287 22.644 57.2858 23.796C55.1115 25.652 53.4488 27.06 49.1643 27.06C45.0715 27.06 41.2346 24.756 40.3393 20.148C40.2754 19.956 40.3393 19.828 40.5312 19.828ZM40.2754 14.068C40.8509 9.588 43.9205 5.556 49.1003 5.556C54.2802 5.556 57.5416 9.46 58.0531 14.068C58.0531 14.26 57.9892 14.388 57.7973 14.388H40.5312C40.4033 14.388 40.2754 14.196 40.2754 14.068Z" fill="#00B336"/>
<path d="M73.3358 19.828H93.2879C93.6716 19.828 96.7411 19.572 96.7411 16.116C96.7411 7.53996 90.0905 0.563965 81.905 0.563965C73.7195 0.563965 67.1328 7.47596 67.1328 16.052C67.1328 16.244 67.1328 16.756 67.1328 16.884C67.1328 26.676 73.3998 31.988 81.7771 32.436C82.1608 32.436 82.5445 32.5 82.9282 32.5C86.1256 32.5 88.8754 31.668 91.8171 29.812C92.1368 29.62 93.2879 28.852 94.5029 27.316C95.4622 26.1 95.5261 24.244 94.5029 23.284C93.0321 21.876 91.4334 22.644 90.0904 23.796C87.9162 25.652 86.2535 27.06 81.9689 27.06C77.8762 27.06 74.0393 24.756 73.144 20.148C73.0801 19.956 73.208 19.828 73.3358 19.828ZM73.0801 14.068C73.6556 9.58797 76.7251 5.55596 81.905 5.55596C87.0849 5.55596 90.3462 9.45996 90.8578 14.068C90.8578 14.26 90.7939 14.388 90.602 14.388H73.3358C73.208 14.388 73.0801 14.196 73.0801 14.068Z" fill="#00B336"/>
</g>
<defs>
<clipPath id="clip0_1800_135">
<rect width="177.778" height="32" fill="white" transform="translate(-0.0078125 0.5)"/>
</clipPath>
</defs>
</svg>
