<svg width="188" height="33" viewBox="0 0 188 33" fill="none" xmlns="http://www.w3.org/2000/svg">
<path fill-rule="evenodd" clip-rule="evenodd" d="M14.707 23.7742L37.5591 0.868896C38.0513 0.375407 38.8454 0.375407 39.3376 0.868896L46.7909 8.3364C47.2831 8.82988 47.2831 9.63064 46.7909 10.1195L24.8305 32.1309C24.3382 32.6244 23.5395 32.6244 23.0473 32.1309L14.707 23.7742Z" fill="black"/>
<path fill-rule="evenodd" clip-rule="evenodd" d="M1.09086 10.1241C0.59862 9.63062 0.59862 8.82987 1.09086 8.34104L8.54412 0.873534C9.03636 0.380046 9.83509 0.380046 10.3273 0.873534L21.881 12.4519L12.6446 21.7025L1.09086 10.1241Z" fill="black"/>
<path d="M63.1221 4.70508H67.6823L74.8755 23.872L82.0687 4.70508H86.6289L77.332 29.3236H72.4189L63.1221 4.70508Z" fill="black"/>
<path d="M100.977 26.6885C100.977 26.6885 98.6974 29.6774 93.7843 29.6774C88.17 29.6774 83.842 24.7564 84.7939 19.1605C85.5323 14.8401 89.4284 11.6511 93.8029 11.7442C98.6138 11.8419 102.032 15.6735 102.032 20.3569C102.032 21.4138 101.855 22.2937 101.855 22.2937H89.0523C89.4749 24.2304 91.1559 25.9855 93.9654 25.9855C96.9467 25.9855 98.702 23.8393 98.702 23.8393L100.977 26.6885ZM97.6433 18.951C97.1185 17.0143 95.7114 15.6083 93.4314 15.6083C90.9748 15.6083 89.5724 17.0143 89.0476 18.951H97.6433Z" fill="black"/>
<path d="M105.297 12.0936H109.332V14.5563H109.509C109.509 14.5563 111.264 11.7444 114.422 11.7444H115.123V16.1392C115.123 16.1392 114.598 15.9623 113.721 15.9623C111.264 15.9623 109.337 17.899 109.337 20.8879V29.3284H105.302V12.0936H105.297Z" fill="black"/>
<path d="M117.653 4.70508H121.689V19.6541L128.529 12.0934H133.442L126.95 19.3002L133.79 29.3236H129.23L124.317 22.1122L121.684 25.101V29.3236H117.648V4.70508H117.653Z" fill="black"/>
<path d="M145.73 27.0377H145.554C145.554 27.0377 143.975 29.6774 140.469 29.6774C137.135 29.6774 134.854 27.3915 134.854 24.7518C134.854 21.9398 136.958 19.8262 139.939 19.3001L145.73 18.2433C145.73 17.0143 144.328 15.6036 142.396 15.6036C139.833 15.6036 138.184 17.7126 138.184 17.7126L135.728 15.2498C135.728 15.2498 138.184 11.7349 142.568 11.7349C146.78 11.7349 149.761 14.8308 149.761 18.5925V29.3189H145.726V27.0377H145.73ZM145.73 21.4091L141.695 22.1121C139.591 22.4985 138.89 23.1689 138.89 24.221C138.89 25.2732 139.944 26.33 141.523 26.33C143.803 26.33 145.735 24.3933 145.735 21.9352V21.4091H145.73Z" fill="black"/>
<path d="M166.009 26.8608H165.832C165.832 26.8608 164.253 29.6728 160.218 29.6728C156.183 29.6728 152.5 25.9809 152.5 20.7062C152.5 15.4315 156.183 11.7396 160.218 11.7396C164.253 11.7396 165.832 14.5516 165.832 14.5516H166.009V4.70508H170.044V29.3236H166.009V26.8608ZM166.009 20.7062C166.009 17.8943 163.905 15.7806 161.272 15.7806C158.639 15.7806 156.535 17.8896 156.535 20.7062C156.535 23.5182 158.639 25.6318 161.272 25.6318C163.905 25.6318 166.009 23.5228 166.009 20.7062Z" fill="black"/>
<path d="M183.73 27.0377H183.554C183.554 27.0377 181.975 29.6774 178.469 29.6774C175.135 29.6774 172.854 27.3915 172.854 24.7518C172.854 21.9398 174.958 19.8262 177.939 19.3001L183.73 18.2433C183.73 17.0143 182.328 15.6036 180.396 15.6036C177.837 15.6036 176.184 17.7126 176.184 17.7126L173.728 15.2498C173.728 15.2498 176.184 11.7349 180.568 11.7349C184.78 11.7349 187.761 14.8308 187.761 18.5925V29.3189H183.726V27.0377H183.73ZM183.73 21.4091L179.695 22.1121C177.591 22.4985 176.89 23.1689 176.89 24.221C176.89 25.2732 177.944 26.33 179.523 26.33C181.803 26.33 183.735 24.3933 183.735 21.9352V21.4091H183.73Z" fill="black"/>
</svg>
