<svg width="89" height="89" viewBox="0 0 89 89" fill="none" xmlns="http://www.w3.org/2000/svg">
<path d="M24.0765 34.6755C23.7117 34.6755 23.3618 34.5306 23.1038 34.2726C22.8458 34.0146 22.7008 33.6647 22.7008 33.2998V28.3171C22.7008 27.8851 22.9017 27.4806 23.2456 27.222C24.6488 26.16 25.4522 24.5642 25.4522 22.8446V18.7175C25.4522 15.6827 22.9842 13.2148 19.9495 13.2148C16.9147 13.2148 14.4467 15.6827 14.4467 18.7175V22.8446C14.4467 24.5642 15.2501 26.16 16.6533 27.222C16.8229 27.3503 16.9604 27.5162 17.055 27.7068C17.1495 27.8973 17.1985 28.1071 17.1981 28.3198V33.3026C17.1979 33.4832 17.1621 33.6621 17.0928 33.8289C17.0235 33.9957 16.922 34.1473 16.7942 34.2749C16.6663 34.4025 16.5145 34.5037 16.3476 34.5727C16.1806 34.6416 16.0017 34.6771 15.821 34.6769C15.6404 34.6767 15.4615 34.6409 15.2947 34.5716C15.1278 34.5023 14.9763 34.4008 14.8487 34.273C14.721 34.1451 14.6199 33.9933 14.5509 33.8264C14.4819 33.6594 14.4465 33.4805 14.4467 33.2998V28.9664C13.5803 28.1994 12.8869 27.2569 12.4125 26.2014C11.9382 25.146 11.6937 24.0017 11.6953 22.8446V18.7175C11.6953 14.1667 15.3987 10.4634 19.9495 10.4634C24.5002 10.4634 28.2036 14.1667 28.2036 18.7175V22.8446C28.2036 25.1998 27.2103 27.3926 25.4522 28.9664V33.2998C25.4522 33.6647 25.3073 34.0146 25.0493 34.2726C24.7913 34.5306 24.4414 34.6755 24.0765 34.6755Z" fill="white"/>
<path d="M21.3336 30.9611C20.995 30.9576 20.6695 30.8293 20.4195 30.6008C20.1696 30.3722 20.0127 30.0595 19.979 29.7225C19.9453 29.3856 20.037 29.048 20.2367 28.7744C20.4364 28.5009 20.73 28.3106 21.0612 28.24C22.3002 27.9792 23.4122 27.3012 24.2114 26.3192C25.0106 25.3372 25.4487 24.1107 25.4524 22.8446C25.4524 22.4797 25.5974 22.1298 25.8554 21.8718C26.1133 21.6138 26.4633 21.4689 26.8281 21.4689C27.193 21.4689 27.5429 21.6138 27.8009 21.8718C28.0589 22.1298 28.2038 22.4797 28.2038 22.8446C28.1984 24.7439 27.5406 26.5837 26.3404 28.0558C25.1403 29.5279 23.4708 30.5429 21.6115 30.9309C21.5202 30.9505 21.427 30.9606 21.3336 30.9611ZM29.2328 36.8326C29.0463 36.8329 28.8617 36.7945 28.6908 36.7198L23.5347 34.5049C23.2046 34.3578 22.9456 34.0866 22.8138 33.75C22.682 33.4134 22.6879 33.0385 22.8304 32.7063C22.9728 32.3741 23.2403 32.1113 23.5749 31.9747C23.9096 31.8381 24.2845 31.8387 24.6188 31.9764L29.7748 34.1913C30.0668 34.3156 30.3068 34.5371 30.4541 34.8182C30.6014 35.0992 30.6471 35.4226 30.5833 35.7334C30.5195 36.0443 30.3502 36.3235 30.1041 36.5239C29.858 36.7242 29.5502 36.8332 29.2328 36.8326ZM11.6955 53.4867C11.499 53.4872 11.3046 53.4449 11.126 53.3629L5.85987 50.9692C5.13968 50.6394 4.52911 50.1101 4.10048 49.444C3.67185 48.7779 3.44313 48.0029 3.44141 47.2108V43.3974C3.44141 39.5399 5.72505 36.0732 9.25782 34.5654L15.2751 31.9544C15.4416 31.8768 15.622 31.8333 15.8056 31.8266C15.9892 31.8198 16.1724 31.8499 16.3441 31.9151C16.5159 31.9803 16.6729 32.0792 16.8059 32.206C16.9388 32.3329 17.045 32.4851 17.1181 32.6536C17.1913 32.8222 17.2299 33.0037 17.2318 33.1874C17.2336 33.3711 17.1987 33.5533 17.129 33.7233C17.0592 33.8933 16.9562 34.0476 16.8258 34.1772C16.6955 34.3067 16.5406 34.4088 16.3701 34.4774L10.3474 37.0912C9.11271 37.619 8.06054 38.4983 7.32183 39.6196C6.58311 40.7409 6.19047 42.0546 6.19278 43.3974V47.2108C6.19278 47.7473 6.50919 48.2425 6.99894 48.4654L12.2651 50.8591C12.5509 50.9893 12.7836 51.2134 12.9244 51.4942C13.0652 51.7749 13.1057 52.0954 13.0392 52.4024C12.9726 52.7094 12.8031 52.9843 12.5586 53.1816C12.3142 53.3788 12.0096 53.4865 11.6955 53.4867ZM25.2846 21.2213C22.5204 21.2128 19.8443 20.2485 17.71 18.4919C17.4266 18.2632 17.2455 17.9314 17.2063 17.5694C17.1671 17.2073 17.273 16.8445 17.5009 16.5604C17.7301 16.2766 18.0626 16.0955 18.4253 16.0568C18.788 16.0181 19.1513 16.125 19.4352 16.3541C21.2015 17.7765 23.2981 18.5442 25.4469 18.4699C25.3812 17.0555 24.7735 15.7206 23.75 14.7421C22.7265 13.7637 21.3656 13.2168 19.9497 13.2148C16.9149 13.2148 14.4469 15.6827 14.4469 18.7175V19.7355C14.4469 20.1004 14.302 20.4503 14.044 20.7083C13.786 20.9663 13.4361 21.1112 13.0712 21.1112C12.7064 21.1112 12.3565 20.9663 12.0985 20.7083C11.8405 20.4503 11.6955 20.1004 11.6955 19.7355V18.7175C11.6955 14.1667 15.3989 10.4634 19.9497 10.4634C24.5005 10.4634 28.2038 14.1667 28.2038 18.7175V19.6805C28.204 20.0078 28.0875 20.3245 27.8752 20.5736C27.6628 20.8227 27.3687 20.988 27.0455 21.0397C26.4643 21.1474 25.8755 21.2082 25.2846 21.2213ZM73.6015 34.6755C73.2367 34.6755 72.8868 34.5306 72.6288 34.2726C72.3708 34.0146 72.2258 33.6647 72.2258 33.2998V28.3171C72.2258 27.8851 72.4267 27.4806 72.7706 27.222C74.1738 26.16 74.9772 24.5642 74.9772 22.8446V18.7175C74.9772 15.6827 72.5092 13.2148 69.4745 13.2148C66.4397 13.2148 63.9717 15.6827 63.9717 18.7175V22.8446C63.9717 24.5642 64.7751 26.16 66.1783 27.222C66.3479 27.3503 66.4855 27.5163 66.58 27.7068C66.6745 27.8973 66.7235 28.1071 66.7231 28.3198V33.3026C66.7231 33.6674 66.5782 34.0173 66.3202 34.2753C66.0622 34.5333 65.7123 34.6783 65.3474 34.6783C64.9825 34.6783 64.6326 34.5333 64.3746 34.2753C64.1166 34.0173 63.9717 33.6674 63.9717 33.3026V28.9691C63.1053 28.2021 62.4119 27.2596 61.9375 26.2042C61.4632 25.1487 61.2187 24.0045 61.2203 22.8473V18.7203C61.2203 14.1695 64.9237 10.4661 69.4745 10.4661C74.0252 10.4661 77.7286 14.1695 77.7286 18.7203V22.8473C77.7286 25.2025 76.7354 27.3954 74.9772 28.9691V33.3026C74.9765 33.6669 74.8312 34.0161 74.5733 34.2735C74.3154 34.5309 73.9659 34.6755 73.6015 34.6755Z" fill="white"/>
<path d="M70.8572 30.9614C70.5186 30.9579 70.1931 30.8296 69.9432 30.6011C69.6932 30.3725 69.5364 30.0598 69.5026 29.7228C69.4689 29.3858 69.5606 29.0483 69.7603 28.7747C69.96 28.5012 70.2536 28.3109 70.5848 28.2403C71.8238 27.9795 72.9358 27.3015 73.735 26.3195C74.5343 25.3375 74.9723 24.111 74.976 22.8449C74.976 22.48 75.121 22.1301 75.379 21.8721C75.637 21.6141 75.9869 21.4692 76.3517 21.4692C76.7166 21.4692 77.0665 21.6141 77.3245 21.8721C77.5825 22.1301 77.7274 22.48 77.7274 22.8449C77.722 24.7442 77.0642 26.584 75.8641 28.0561C74.6639 29.5282 72.9944 30.5432 71.1351 30.9312C71.0438 30.9507 70.9506 30.9609 70.8572 30.9614ZM60.5946 36.6595C60.2755 36.6634 59.9651 36.5561 59.7166 36.3559C59.4681 36.1557 59.2971 35.8753 59.2329 35.5627C59.1688 35.2501 59.2155 34.925 59.3651 34.6431C59.5147 34.3612 59.7578 34.1403 60.0526 34.0182L64.8042 31.9767C65.1384 31.839 65.5134 31.8384 65.848 31.975C66.1827 32.1116 66.4502 32.3744 66.5926 32.7066C66.735 33.0388 66.741 33.4137 66.6092 33.7503C66.4774 34.0869 66.2184 34.3581 65.8882 34.5052L61.1366 36.5467C60.9658 36.6217 60.7811 36.6601 60.5946 36.6595ZM77.7274 53.487C77.4148 53.484 77.1126 53.3748 76.8702 53.1774C76.6278 52.98 76.4597 52.7061 76.3935 52.4006C76.3273 52.0951 76.3669 51.7761 76.5058 51.4961C76.6446 51.2161 76.8746 50.9916 77.1579 50.8594L82.424 48.4657C82.6644 48.3556 82.8681 48.1789 83.011 47.9565C83.1539 47.7341 83.2299 47.4754 83.2302 47.2111V43.3977C83.2302 40.6463 81.6014 38.1728 79.0838 37.097L73.0528 34.4777C72.7182 34.3321 72.4551 34.0597 72.321 33.7203C72.1869 33.381 72.1928 33.0023 72.3375 32.6673C72.6401 31.9684 73.438 31.6493 74.1479 31.9547L80.1706 34.5685C81.8987 35.3076 83.3711 36.5389 84.4043 38.1089C85.4376 39.6789 85.9861 41.5182 85.9815 43.3977V47.2111C85.9815 48.8234 85.0323 50.2981 83.5631 50.9694L78.297 53.3631C78.1179 53.444 77.9239 53.4862 77.7274 53.487ZM48.3152 17.111C44.4027 17.111 40.3307 15.7326 38.0856 13.713C37.9513 13.5924 37.8422 13.4464 37.7644 13.2836C37.6865 13.1207 37.6416 12.9441 37.632 12.7639C37.6224 12.5836 37.6484 12.4032 37.7085 12.2331C37.7687 12.0629 37.8617 11.9062 37.9824 11.7719C38.1031 11.6377 38.249 11.5286 38.4119 11.4507C38.5747 11.3729 38.7513 11.3279 38.9316 11.3183C39.1118 11.3088 39.2922 11.3348 39.4624 11.3949C39.6326 11.455 39.7893 11.5481 39.9235 11.6688C42.6364 14.1065 49.1351 15.3804 52.8577 13.3829C53.0169 13.2974 53.1913 13.2442 53.3711 13.2261C53.5508 13.2081 53.7323 13.2256 53.9053 13.2777C54.0783 13.3299 54.2393 13.4155 54.3791 13.5299C54.519 13.6442 54.635 13.785 54.7204 13.9442C54.8059 14.1033 54.8591 14.2778 54.8772 14.4575C54.8952 14.6372 54.8777 14.8188 54.8255 14.9917C54.7734 15.1647 54.6877 15.3257 54.5734 15.4656C54.4591 15.6054 54.3183 15.7214 54.1591 15.8068C52.4615 16.712 50.4117 17.111 48.3152 17.111ZM44.6916 42.1045C40.1271 42.1045 37.7472 38.5442 37.1253 36.6595C37.0257 36.3179 37.0623 35.951 37.2274 35.6359C37.3926 35.3207 37.6734 35.0818 38.011 34.9692C38.3485 34.8567 38.7166 34.8794 39.0378 35.0324C39.359 35.1855 39.6084 35.4571 39.7336 35.7901C39.7914 35.9552 41.0103 39.3504 44.6916 39.3504C48.4032 39.3504 49.7101 35.8506 49.7679 35.7021C49.8894 35.358 50.1426 35.0763 50.4718 34.9189C50.6348 34.841 50.8116 34.7959 50.992 34.7863C51.1724 34.7767 51.3529 34.8027 51.5233 34.8629C51.6937 34.923 51.8505 35.0162 51.9849 35.1369C52.1192 35.2577 52.2285 35.4038 52.3064 35.5668C52.3844 35.7298 52.4294 35.9065 52.439 36.0869C52.4486 36.2674 52.4226 36.4479 52.3625 36.6183C52.2827 36.8439 50.3815 42.1045 44.6916 42.1045Z" fill="white"/>
<path d="M70.8511 53.1098C70.4862 53.1098 70.1363 52.9649 69.8783 52.7069C69.6203 52.4489 69.4754 52.099 69.4754 51.7341V50.9665C69.4774 48.978 68.8632 47.0378 67.7171 45.4128C66.571 43.7878 64.9495 42.5579 63.0757 41.8925L51.5997 37.8204C50.7938 37.5387 50.0954 37.0135 49.601 36.3176C49.1066 35.6216 48.8407 34.7892 48.8401 33.9355V30.5513C48.8401 30.1864 48.985 29.8365 49.243 29.5785C49.501 29.3205 49.8509 29.1756 50.2157 29.1756C50.5806 29.1756 50.9305 29.3205 51.1885 29.5785C51.4465 29.8365 51.5914 30.1864 51.5914 30.5513V33.9355C51.5914 34.5133 51.9629 35.0305 52.5131 35.2231L63.9919 39.2979C66.4024 40.1529 68.4886 41.7341 69.9634 43.8238C71.4381 45.9134 72.2289 48.4089 72.2268 50.9665V51.7369C72.226 52.1013 72.0808 52.4505 71.8229 52.7079C71.565 52.9653 71.2155 53.1098 70.8511 53.1098ZM18.5749 53.1098C18.2101 53.1098 17.8601 52.9649 17.6021 52.7069C17.3442 52.4489 17.1992 52.099 17.1992 51.7341V50.9913C17.1992 50.1328 17.29 49.2717 17.4689 48.4215C17.9172 46.3474 18.8858 44.4215 20.2835 42.825C21.6813 41.2284 23.4623 40.0137 25.4589 39.2952L36.9101 35.2782C37.1788 35.1853 37.4121 35.0112 37.5777 34.7801C37.7433 34.549 37.833 34.2721 37.8345 33.9878V30.5485C37.8345 30.1837 37.9795 29.8338 38.2375 29.5758C38.4955 29.3178 38.8454 29.1729 39.2102 29.1729C39.5751 29.1729 39.925 29.3178 40.183 29.5758C40.441 29.8338 40.5859 30.1837 40.5859 30.5485V33.9878C40.5842 34.8423 40.3173 35.6753 39.822 36.3716C39.3267 37.068 38.6275 37.5935 37.8208 37.8755L26.3778 41.8897C24.8239 42.4484 23.4377 43.3934 22.3499 44.6358C21.262 45.8781 20.5083 47.3769 20.1597 48.991C20.0194 49.6514 19.9506 50.3254 19.9506 50.9913V51.7341C19.9506 52.099 19.8057 52.4489 19.5477 52.7069C19.2897 52.9649 18.9398 53.1098 18.5749 53.1098Z" fill="white"/>
<path d="M44.7068 33.8501C44.3419 33.8501 43.992 33.7052 43.734 33.4472C43.476 33.1892 43.3311 32.8393 43.3311 32.4744C43.3311 32.1096 43.476 31.7597 43.734 31.5017C43.992 31.2437 44.3419 31.0987 44.7068 31.0987C47.5627 31.0987 52.9609 28.5124 52.9609 18.7175V14.5905C52.9609 10.0397 49.2575 6.33634 44.7068 6.33634C40.156 6.33634 36.4526 10.0397 36.4526 14.5905V18.7175C36.4526 23.4609 37.721 27.09 40.1175 29.2113C40.2585 29.3292 40.3745 29.4742 40.4585 29.6377C40.5426 29.8012 40.593 29.9799 40.6069 30.1632C40.6207 30.3465 40.5977 30.5307 40.5391 30.705C40.4805 30.8793 40.3876 31.04 40.2659 31.1778C40.1441 31.3155 39.996 31.4275 39.8303 31.507C39.6645 31.5865 39.4845 31.632 39.3009 31.6408C39.1172 31.6496 38.9337 31.6215 38.7611 31.5582C38.5885 31.4948 38.4304 31.3976 38.2961 31.2721C36.1995 29.4176 33.7013 25.7363 33.7013 18.7175V14.5905C33.7013 8.52093 38.6372 3.58496 44.7068 3.58496C50.7763 3.58496 55.7123 8.52093 55.7123 14.5905V18.7175C55.7123 30.6888 48.5147 33.8501 44.7068 33.8501ZM65.6668 77.8722C65.3567 77.8715 65.0559 77.7662 64.8132 77.5731C64.5706 77.3801 64.4002 77.1108 64.3298 76.8088C64.2594 76.5068 64.2931 76.1899 64.4254 75.9095C64.5577 75.6291 64.7809 75.4015 65.0587 75.2638L71.8629 71.8934C72.0524 71.7998 72.2609 71.7511 72.4723 71.7511C72.6837 71.7511 72.8922 71.7998 73.0817 71.8934L77.528 74.0973L76.8043 69.1888C76.7739 68.9791 76.7924 68.7652 76.8582 68.5638C76.9241 68.3624 77.0356 68.1789 77.184 68.0277L80.659 64.4757L75.7616 63.642C75.553 63.6059 75.3554 63.5223 75.1842 63.3978C75.013 63.2733 74.8726 63.1112 74.7738 62.9239L72.4737 58.5272L70.1708 62.9239C70.072 63.1112 69.9316 63.2733 69.7604 63.3978C69.5891 63.5223 69.3916 63.6059 69.183 63.642L64.2883 64.4757L67.7606 68.0277C68.01 68.2897 68.1462 68.6393 68.1397 69.001C68.1332 69.3627 67.9846 69.7072 67.7259 69.9601C67.4673 70.2129 67.1195 70.3537 66.7578 70.352C66.3961 70.3503 66.0496 70.2062 65.7933 69.9509L60.4859 64.5225C60.3098 64.3433 60.1862 64.1191 60.1287 63.8745C60.0711 63.6299 60.0818 63.3742 60.1596 63.1353C60.2373 62.8963 60.3792 62.6833 60.5697 62.5194C60.7601 62.3555 60.9919 62.2471 61.2398 62.2058L68.0522 61.0447L71.2576 54.9257C71.3753 54.7047 71.551 54.5199 71.7657 54.3911C71.9803 54.2622 72.226 54.1941 72.4764 54.1941C72.7268 54.1941 72.9725 54.2622 73.1872 54.3911C73.4019 54.5199 73.5775 54.7047 73.6953 54.9257L76.8979 61.0447L83.7131 62.2058C83.9604 62.2479 84.1915 62.3569 84.3813 62.5209C84.5712 62.6849 84.7126 62.8977 84.7902 63.1363C84.8679 63.3748 84.8788 63.6301 84.8218 63.8744C84.7648 64.1188 84.6421 64.3429 84.4669 64.5225L79.6328 69.4612L80.6398 76.2956C80.6752 76.544 80.6424 76.7973 80.545 77.0284C80.4476 77.2596 80.2892 77.4599 80.0867 77.608C79.8839 77.7566 79.6441 77.8463 79.3935 77.8671C79.143 77.888 78.8916 77.8393 78.667 77.7263L72.4764 74.6585L66.2831 77.7263C66.0921 77.8232 65.8809 77.8732 65.6668 77.8722ZM36.6617 85.3587C36.464 85.3588 36.2686 85.3163 36.0888 85.2341C35.909 85.1519 35.749 85.0319 35.6197 84.8823C35.4905 84.7327 35.395 84.5569 35.3398 84.3671C35.2846 84.1772 35.2709 83.9777 35.2998 83.7821L36.5049 75.5748L30.705 69.6428C30.5289 69.4636 30.4053 69.2394 30.3478 68.9949C30.2902 68.7502 30.3009 68.4945 30.3787 68.2556C30.4564 68.0167 30.5983 67.8036 30.7887 67.6397C30.9792 67.4758 31.211 67.3674 31.4589 67.3261L39.6415 65.9339L43.4879 58.585C43.9666 57.677 45.4496 57.677 45.9284 58.585L49.7748 65.9339L57.9574 67.3261C58.2047 67.3683 58.4358 67.4772 58.6257 67.6412C58.8156 67.8052 58.9569 68.018 59.0346 68.2566C59.1122 68.4952 59.1231 68.7504 59.0662 68.9948C59.0092 69.2391 58.8864 69.4632 58.7113 69.6428L52.9086 75.5748L54.1165 83.7821C54.1519 84.0305 54.1191 84.2837 54.0217 84.5149C53.9243 84.7461 53.7659 84.9464 53.5634 85.0945C53.3607 85.2431 53.1208 85.3328 52.8703 85.3536C52.6197 85.3745 52.3683 85.3258 52.1437 85.2128L44.7068 81.5287L37.2725 85.2128C37.083 85.3082 36.8739 85.3581 36.6617 85.3587ZM34.5074 69.596L38.9481 74.1385C39.248 74.4467 39.3884 74.8759 39.3278 75.2996L38.4034 81.581L44.096 78.7608C44.2851 78.666 44.4938 78.6166 44.7054 78.6166C44.917 78.6166 45.1257 78.666 45.3148 78.7608L51.0047 81.581L50.0802 75.2996C50.0498 75.0899 50.0682 74.876 50.1341 74.6746C50.2 74.4732 50.3115 74.2898 50.4599 74.1385L54.9034 69.596L48.6385 68.5285C48.4299 68.4923 48.2324 68.4088 48.0611 68.2843C47.8899 68.1598 47.7495 67.9976 47.6507 67.8104L44.7068 62.1838L41.7628 67.8104C41.664 67.9976 41.5237 68.1598 41.3524 68.2843C41.1812 68.4088 40.9837 68.4923 40.775 68.5285L34.5074 69.596ZM23.9696 77.8722C23.7578 77.8717 23.5489 77.8227 23.3588 77.7291L17.1682 74.6613L10.9749 77.7318C10.7498 77.8436 10.4984 77.8916 10.248 77.8706C9.99753 77.8496 9.75764 77.7603 9.55434 77.6126C9.35103 77.4649 9.19208 77.2643 9.09473 77.0326C8.99738 76.8009 8.96536 76.547 9.00214 76.2984L10.0091 69.4639L5.17497 64.5252C4.99884 64.346 4.87528 64.1219 4.81773 63.8773C4.76019 63.6327 4.77088 63.377 4.84864 63.138C4.92639 62.8991 5.06824 62.6861 5.25871 62.5222C5.44918 62.3583 5.68098 62.2498 5.92885 62.2086L12.744 61.0475L15.9494 54.9284C16.0671 54.7075 16.2428 54.5227 16.4575 54.3938C16.6722 54.265 16.9178 54.1969 17.1682 54.1969C17.4186 54.1969 17.6643 54.265 17.879 54.3938C18.0937 54.5227 18.2693 54.7075 18.3871 54.9284L21.5897 61.0475L28.4021 62.2086C28.6494 62.2507 28.8805 62.3596 29.0704 62.5237C29.2603 62.6877 29.4016 62.9005 29.4793 63.139C29.5569 63.3776 29.5678 63.6329 29.5109 63.8772C29.4539 64.1215 29.3311 64.3456 29.156 64.5252L23.8486 69.9509C23.5923 70.2062 23.2458 70.3503 22.8841 70.352C22.5224 70.3537 22.1746 70.2129 21.916 69.9601C21.6573 69.7072 21.5087 69.3627 21.5022 69.001C21.4957 68.6393 21.6319 68.2897 21.8813 68.0277L25.3536 64.4757L20.4589 63.642C20.2501 63.6063 20.0524 63.5229 19.8811 63.3983C19.7098 63.2738 19.5695 63.1115 19.4711 62.9239L17.171 58.5272L14.8681 62.9239C14.7693 63.1112 14.6289 63.2733 14.4577 63.3978C14.2865 63.5223 14.0889 63.6059 13.8803 63.642L8.98288 64.4757L12.4579 68.0277C12.7578 68.3359 12.8981 68.7651 12.8376 69.1888L12.1139 74.0973L16.5629 71.8934C16.7524 71.7998 16.961 71.7511 17.1724 71.7511C17.3837 71.7511 17.5923 71.7998 17.7818 71.8934L24.5832 75.2638C24.8614 75.4017 25.0849 75.6297 25.2171 75.9107C25.3493 76.1917 25.3826 76.5092 25.3115 76.8115C25.2403 77.1138 25.069 77.3831 24.8254 77.5757C24.5818 77.7683 24.2802 77.8728 23.9696 77.8722Z" fill="white"/>
</svg>
