<svg width="89" height="89" viewBox="0 0 89 89" fill="none" xmlns="http://www.w3.org/2000/svg">
<path d="M10.4755 82.7887C10.5127 83.0768 10.6555 83.3409 10.8762 83.5297C11.0969 83.7186 11.3799 83.8188 11.6703 83.811H27.1468C27.3323 83.8193 27.5172 83.7827 27.6856 83.7043C27.8539 83.6259 28.0009 83.508 28.114 83.3606C28.2271 83.2133 28.303 83.0408 28.3352 82.8579C28.3673 82.6749 28.3549 82.4869 28.2989 82.3098L26.319 75.8245L32.4874 71.9285C33.2798 71.4935 34.2077 71.3751 35.084 71.5973C35.1088 71.6037 35.1339 71.6102 35.1591 71.6145L48.0406 73.9876C51.5924 74.6232 55.2544 74.1063 58.4915 72.5123C58.5426 72.4873 58.5918 72.4586 58.6387 72.4264L80.9175 57.1296C81.1703 56.9559 81.3474 56.6923 81.4124 56.3925C81.4775 56.0927 81.4256 55.7794 81.2674 55.5166C80.4247 54.1128 79.073 53.0883 77.4938 52.6564C75.9145 52.2244 74.2295 52.4184 72.7897 53.1978L72.5824 53.3098C70.9608 51.4789 68.2661 50.795 66.1988 51.8431L66.172 51.8572L65.4195 52.2625C64.3129 51.3697 62.9622 50.8323 61.5447 50.7209C60.1272 50.6095 58.7091 50.9293 57.4766 51.6383L52.7067 54.2337H46.3442C44.9897 54.2315 43.6531 53.9247 42.4333 53.3361L41.5499 52.9081C38.9939 51.6643 36.1435 51.1522 33.3144 51.4284C30.4853 51.7046 27.7878 52.7583 25.5205 54.4729C25.4941 54.4929 25.469 54.5135 25.4439 54.5353L23.3105 56.4348C22.592 57.0738 21.7522 57.5615 20.8411 57.8688L19.7 54.0903C19.6266 53.8396 19.4756 53.6186 19.2688 53.459C19.062 53.2994 18.8099 53.2094 18.5487 53.202H8.23106C8.05837 53.2087 7.88899 53.2514 7.73378 53.3274C7.57858 53.4034 7.44098 53.5111 7.32982 53.6434C7.21681 53.7709 7.13221 53.921 7.0816 54.0837C7.03099 54.2464 7.01555 54.418 7.03628 54.5871L10.4755 82.7887ZM67.2997 53.9852C68.2763 53.4981 69.4836 53.8258 70.351 54.5145L62.2131 58.9049L61.9612 59.0378C61.7261 58.4413 61.4161 57.8771 61.0388 57.3588L67.2997 53.9852ZM58.6408 53.7445C58.6504 53.7394 58.6599 53.7341 58.6693 53.7287C59.3239 53.35 60.0611 53.1371 60.8167 53.1084C61.5724 53.0797 62.3236 53.2362 63.005 53.5641L59.239 55.5933C58.5952 55.1426 57.885 54.7953 57.1341 54.5639L58.6408 53.7445ZM24.9113 58.2327L27.0068 56.3671C28.9198 54.9313 31.1918 54.051 33.5728 53.823C35.9538 53.595 38.3515 54.0281 40.5023 55.0746L41.3859 55.5033C42.9325 56.2494 44.627 56.6383 46.3442 56.6412H54.9127C56.0622 56.6424 57.1786 57.0263 58.0858 57.7323C58.9929 58.4384 59.6392 59.4263 59.9226 60.5404L54.0288 60.273C51.7562 60.1702 49.479 60.2753 47.2255 60.5868C46.9132 60.635 46.6324 60.8041 46.4437 61.0576C46.2549 61.3111 46.1735 61.6286 46.2168 61.9416C46.2601 62.2546 46.4248 62.538 46.6753 62.7306C46.9258 62.9233 47.242 63.0097 47.5556 62.9712C49.6637 62.68 51.794 62.5815 53.9199 62.6772L61.2283 63.0079C61.2455 63.0079 61.2646 63.0091 61.2826 63.0091C61.6019 63.0091 61.908 62.8823 62.1338 62.6565C62.3595 62.4308 62.4863 62.1246 62.4863 61.8053C62.4863 61.698 62.4827 61.5914 62.4784 61.4852L63.3449 61.0283L73.9326 55.3164C74.6557 54.9247 75.4831 54.7683 76.2993 54.869C77.1155 54.9697 77.88 55.3225 78.4863 55.8782L57.3478 70.3917C54.5934 71.7284 51.4864 72.1583 48.4725 71.6195L35.6305 69.2547C34.1593 68.8936 32.6059 69.105 31.2849 69.8462C31.2661 69.8568 31.2475 69.8679 31.2293 69.8794L25.589 73.445L21.5427 60.1733C22.7865 59.7637 23.933 59.1033 24.9113 58.2329V58.2327ZM17.6573 55.6094L25.5214 81.4036H12.7361L9.59042 55.6094H17.6573Z" fill="white"/>
<path d="M18.5993 81.0114C19.2455 81.0114 19.8772 80.8198 20.4145 80.4607C20.9518 80.1017 21.3706 79.5915 21.6178 78.9944C21.8651 78.3974 21.9298 77.7405 21.8038 77.1067C21.6777 76.4729 21.3665 75.8907 20.9096 75.4338C20.4527 74.9769 19.8705 74.6657 19.2367 74.5396C18.6029 74.4136 17.946 74.4783 17.349 74.7256C16.752 74.9729 16.2417 75.3916 15.8827 75.9289C15.5237 76.4662 15.332 77.0979 15.332 77.7441C15.333 78.6103 15.6776 79.4408 16.2901 80.0533C16.9026 80.6658 17.7331 81.0104 18.5993 81.0114ZM18.5993 76.8843C18.7693 76.8843 18.9356 76.9347 19.077 77.0292C19.2184 77.1237 19.3286 77.258 19.3936 77.4151C19.4587 77.5722 19.4758 77.7451 19.4426 77.9118C19.4094 78.0786 19.3275 78.2318 19.2073 78.3521C19.087 78.4723 18.9338 78.5542 18.767 78.5874C18.6002 78.6206 18.4274 78.6035 18.2703 78.5385C18.1132 78.4734 17.9789 78.3632 17.8844 78.2218C17.7899 78.0804 17.7395 77.9142 17.7395 77.7441C17.7398 77.5162 17.8304 77.2976 17.9916 77.1364C18.1528 76.9753 18.3713 76.8846 18.5993 76.8843ZM25.2043 28.4123L28.4705 28.7271C28.8414 30.0721 29.3847 31.3634 30.087 32.5689L28.0126 35.0737C27.8212 35.3046 27.7229 35.5986 27.7369 35.8982C27.7509 36.1978 27.8763 36.4814 28.0884 36.6934L32.0054 40.6103C32.2173 40.8223 32.5007 40.9476 32.8002 40.9616C33.0996 40.9757 33.3935 40.8775 33.6244 40.6863L36.135 38.6065C37.3396 39.3068 38.6281 39.8514 39.9698 40.2274L40.2846 43.5051C40.3131 43.8042 40.4515 44.0822 40.6731 44.2851C40.8947 44.488 41.1837 44.6015 41.4842 44.6036H47.0375C47.3379 44.6012 47.6266 44.4874 47.848 44.2844C48.0693 44.0813 48.2075 43.8034 48.2358 43.5044L48.5506 40.2329C49.8956 39.8611 51.1868 39.317 52.3922 38.614L54.8972 40.687C55.1281 40.8781 55.422 40.9761 55.7214 40.9619C56.0208 40.9477 56.3042 40.8224 56.516 40.6103L60.4324 36.6934C60.6445 36.4815 60.7698 36.198 60.7839 35.8985C60.798 35.5991 60.6998 35.3051 60.5086 35.0742L58.4279 32.5625C59.1284 31.3577 59.6732 30.0687 60.0491 28.7266L63.2676 28.4124C63.5652 28.3834 63.8413 28.2446 64.0422 28.0232C64.2431 27.8017 64.3544 27.5134 64.3544 27.2144V21.6609C64.3544 21.3616 64.2429 21.0731 64.0417 20.8516C63.8405 20.6301 63.5641 20.4914 63.2662 20.4627L60 20.148C59.6291 18.803 59.0858 17.5117 58.3835 16.3062L60.4579 13.8012C60.6482 13.5714 60.7463 13.2791 60.7333 12.981C60.7203 12.6829 60.597 12.4003 60.3874 12.1879L56.5208 8.27081C56.3093 8.05676 56.0253 7.92969 55.7248 7.91464C55.4243 7.89958 55.129 7.99763 54.8972 8.18947L52.3865 10.2702C51.182 9.56987 49.8935 9.02522 48.5518 8.64929L48.237 5.41814C48.2068 5.12354 48.0663 4.85125 47.8438 4.65587C47.6212 4.46049 47.333 4.35649 47.037 4.36471H41.4842C41.1886 4.35691 40.901 4.46099 40.6788 4.65615C40.4566 4.85131 40.3164 5.12314 40.286 5.41728L39.971 8.66546C38.6264 9.0332 37.3352 9.57346 36.1293 10.2728L33.6242 8.19394C33.3936 8.00245 33.0999 7.90389 32.8004 7.91754C32.501 7.93118 32.2174 8.05605 32.0052 8.26771L28.0884 12.1834C27.8767 12.3953 27.7515 12.6786 27.7374 12.9779C27.7234 13.2772 27.8214 13.5709 28.0124 13.8018L30.0932 16.3124C29.3928 17.5169 28.8482 18.8055 28.4723 20.1471L25.205 20.462C24.9069 20.4906 24.6301 20.6292 24.4288 20.8509C24.2275 21.0726 24.116 21.3614 24.1161 21.6609V27.214C24.1161 27.5133 24.2276 27.8018 24.4288 28.0234C24.63 28.2449 24.9064 28.3835 25.2043 28.4123ZM26.5236 22.7542L29.5501 22.4619C29.8041 22.4374 30.0438 22.3327 30.2345 22.1631C30.4252 21.9935 30.557 21.7676 30.6109 21.5182C30.9806 19.8593 31.6472 18.281 32.5787 16.8594C32.7174 16.6444 32.784 16.3909 32.7688 16.1355C32.7537 15.8801 32.6576 15.6362 32.4944 15.4392L30.5655 13.1098L32.9328 10.7426L35.2618 12.6715C35.4612 12.8367 35.7086 12.9331 35.9672 12.9466C36.2258 12.96 36.4819 12.8897 36.6973 12.7461C38.1105 11.8111 39.6854 11.1474 41.3415 10.7888C41.5884 10.7427 41.8137 10.6179 41.9838 10.4331C42.1539 10.2483 42.2596 10.0134 42.2852 9.7636L42.5775 6.77148H45.9445L46.2369 9.7636C46.2619 10.0156 46.3671 10.2528 46.5369 10.4406C46.7068 10.6283 46.9324 10.7567 47.1806 10.8067C48.8395 11.1727 50.4183 11.8361 51.8407 12.7648C52.0562 12.9029 52.3101 12.9688 52.5655 12.9528C52.8209 12.9368 53.0646 12.8398 53.2611 12.6759L55.5849 10.75L57.9123 13.1058L55.9768 15.439C55.8117 15.6384 55.7153 15.8858 55.7019 16.1443C55.6885 16.4028 55.7589 16.6588 55.9025 16.8742C56.8373 18.2873 57.501 19.8622 57.8596 21.5182C57.9135 21.7676 58.0453 21.9935 58.236 22.1631C58.4267 22.3327 58.6664 22.4374 58.9204 22.4619L61.9469 22.7542V26.1221L58.968 26.4129C58.7142 26.4376 58.4748 26.5424 58.2844 26.7119C58.094 26.8815 57.9623 27.1072 57.9084 27.3564C57.5392 29.0158 56.8728 30.5946 55.9413 32.0166C55.8026 32.2315 55.736 32.4851 55.7511 32.7406C55.7663 32.996 55.8624 33.2399 56.0256 33.437L57.9553 35.7648L55.5881 38.132L53.2589 36.2031C53.0595 36.0379 52.8121 35.9415 52.5535 35.928C52.2949 35.9146 52.0389 35.9849 51.8234 36.1285C50.4103 37.0637 48.8354 37.7276 47.1792 38.0863C46.929 38.1426 46.703 38.2766 46.5335 38.4691C46.364 38.6616 46.2597 38.9028 46.2355 39.1581L45.9439 42.1962H42.5769L42.2845 39.1581C42.2601 38.9035 42.1556 38.6631 41.986 38.4716C41.8165 38.28 41.5906 38.1471 41.3408 38.092C39.6817 37.7217 38.1032 37.0544 36.6815 36.1223C36.4667 35.9834 36.2131 35.9166 35.9577 35.9315C35.7023 35.9465 35.4583 36.0424 35.2611 36.2054L32.9321 38.1336L30.5655 35.7648L32.4944 33.4356C32.6596 33.2361 32.7561 32.9887 32.7694 32.73C32.7828 32.4714 32.7124 32.2153 32.5687 31.9999C31.6339 30.5867 30.9702 29.0119 30.6116 27.3559C30.5577 27.1065 30.4259 26.8806 30.2352 26.711C30.0445 26.5414 29.8048 26.4367 29.5508 26.4122L26.5243 26.1199L26.5236 22.7542Z" fill="white"/>
<path d="M44.2619 36.453C46.6384 36.453 48.9615 35.7482 50.9375 34.4279C52.9135 33.1076 54.4536 31.231 55.363 29.0354C56.2725 26.8398 56.5104 24.4238 56.0468 22.0929C55.5831 19.7621 54.4387 17.6211 52.7583 15.9407C51.0778 14.2602 48.9368 13.1159 46.6059 12.6523C44.2751 12.1886 41.8591 12.4266 39.6635 13.3361C37.4679 14.2456 35.5913 15.7857 34.271 17.7617C32.9507 19.7377 32.2461 22.0608 32.2461 24.4373C32.2497 27.623 33.5168 30.6772 35.7694 32.9298C38.022 35.1823 41.0762 36.4494 44.2619 36.453ZM44.2619 14.829C46.1622 14.829 48.0199 15.3925 49.6 16.4483C51.1801 17.5041 52.4116 19.0047 53.1388 20.7604C53.866 22.5161 54.0563 24.448 53.6856 26.3118C53.3148 28.1757 52.3997 29.8877 51.056 31.2315C49.7122 32.5752 48.0002 33.4903 46.1364 33.861C44.2725 34.2318 42.3406 34.0415 40.5849 33.3143C38.8292 32.587 37.3286 31.3555 36.2728 29.7754C35.2171 28.1954 34.6535 26.3377 34.6535 24.4373C34.6566 21.89 35.6699 19.448 37.4712 17.6468C39.2724 15.8456 41.7146 14.8324 44.2619 14.8295V14.829Z" fill="white"/>
<path d="M42.1143 28.1112C42.3392 28.3308 42.641 28.4537 42.9552 28.4537C43.2695 28.4537 43.5713 28.3308 43.7961 28.1112L49.5578 22.4859C49.6723 22.3758 49.7639 22.2441 49.8272 22.0985C49.8906 21.9528 49.9245 21.7961 49.927 21.6373C49.9295 21.4785 49.9006 21.3207 49.8419 21.1732C49.7831 21.0256 49.6958 20.8911 49.5848 20.7775C49.4739 20.6638 49.3415 20.5732 49.1954 20.5109C49.0493 20.4487 48.8923 20.4159 48.7335 20.4146C48.5747 20.4133 48.4172 20.4434 48.27 20.5032C48.1229 20.563 47.9891 20.6514 47.8762 20.7632L42.9552 25.5673L40.5978 23.2657C40.485 23.1539 40.3511 23.0656 40.204 23.0058C40.0569 22.9459 39.8994 22.9158 39.7405 22.9171C39.5817 22.9185 39.4247 22.9512 39.2786 23.0135C39.1325 23.0758 39.0002 23.1663 38.8892 23.28C38.7783 23.3937 38.6909 23.5281 38.6322 23.6757C38.5735 23.8233 38.5445 23.981 38.547 24.1398C38.5495 24.2986 38.5834 24.4554 38.6468 24.601C38.7102 24.7467 38.8017 24.8783 38.9162 24.9884L42.1143 28.1112Z" fill="white"/>
</svg>
