<svg width="89" height="89" viewBox="0 0 89 89" fill="none" xmlns="http://www.w3.org/2000/svg">
<g clip-path="url(#clip0_656_192)">
<path d="M56.0941 19.475H52.75C52.5424 19.4751 52.3434 19.5575 52.1966 19.7043C52.0499 19.851 51.9674 20.0501 51.9674 20.2576V33.014C51.9674 33.2215 52.0499 33.4206 52.1966 33.5673C52.3434 33.7141 52.5424 33.7965 52.75 33.7966H65.5063C65.7139 33.7965 65.9129 33.7141 66.0597 33.5673C66.2064 33.4206 66.2889 33.2215 66.2889 33.014V20.2576C66.2889 20.0501 66.2064 19.851 66.0597 19.7043C65.9129 19.5575 65.7139 19.4751 65.5063 19.475H62.1128M56.2683 40.0921H49.7301C49.5226 40.0922 49.3236 40.1747 49.1768 40.3214C49.03 40.4682 48.9476 40.6672 48.9475 40.8747V47.4129C48.9475 47.5157 48.9677 47.6175 49.0071 47.7125C49.0464 47.8074 49.104 47.8937 49.1767 47.9664C49.2494 48.0391 49.3357 48.0967 49.4306 48.136C49.5256 48.1753 49.6274 48.1956 49.7301 48.1955H56.2683C56.3711 48.1956 56.4729 48.1753 56.5678 48.136C56.6628 48.0967 56.7491 48.0391 56.8218 47.9664C56.8944 47.8937 56.9521 47.8074 56.9914 47.7125C57.0307 47.6175 57.051 47.5157 57.0509 47.4129V40.8747C57.0509 40.6672 56.9684 40.4682 56.8217 40.3214C56.6749 40.1747 56.4759 40.0922 56.2683 40.0921ZM66.4243 1.35547H59.8861C59.6785 1.35551 59.4795 1.43798 59.3328 1.58474C59.186 1.73149 59.1035 1.93053 59.1035 2.13807V8.67627C59.1035 8.77905 59.1237 8.88082 59.163 8.97578C59.2023 9.07074 59.26 9.15703 59.3327 9.2297C59.4053 9.30238 59.4916 9.36002 59.5866 9.39934C59.6815 9.43867 59.7833 9.45889 59.8861 9.45887H66.4243C66.5271 9.45889 66.6288 9.43867 66.7238 9.39934C66.8188 9.36002 66.905 9.30238 66.9777 9.2297C67.0504 9.15703 67.108 9.07074 67.1474 8.97578C67.1867 8.88082 67.2069 8.77905 67.2069 8.67627V2.13807C67.2068 1.93053 67.1244 1.73149 66.9776 1.58474C66.8309 1.43798 66.6318 1.35551 66.4243 1.35547ZM80.279 32.3327H73.7406C73.5331 32.3327 73.334 32.4152 73.1873 32.5619C73.0405 32.7087 72.9581 32.9077 72.958 33.1153V39.6535C72.958 39.7562 72.9782 39.858 73.0175 39.953C73.0569 40.0479 73.1145 40.1342 73.1872 40.2069C73.2599 40.2796 73.3461 40.3372 73.4411 40.3765C73.5361 40.4159 73.6378 40.4361 73.7406 40.4361H80.2788C80.3816 40.4361 80.4834 40.4159 80.5783 40.3765C80.6733 40.3372 80.7596 40.2796 80.8322 40.2069C80.9049 40.1342 80.9626 40.0479 81.0019 39.953C81.0412 39.858 81.0614 39.7562 81.0614 39.6535V33.1153C81.0614 33.0125 81.0412 32.9107 81.0019 32.8158C80.9626 32.7208 80.905 32.6346 80.8323 32.5619C80.7596 32.4892 80.6734 32.4316 80.5784 32.3922C80.4835 32.3529 80.3817 32.3327 80.279 32.3327ZM84.0709 11.7417H72.6904C72.5877 11.7417 72.4859 11.7619 72.3909 11.8012C72.296 11.8405 72.2097 11.8982 72.137 11.9708C72.0643 12.0435 72.0067 12.1298 71.9674 12.2248C71.928 12.3197 71.9078 12.4215 71.9078 12.5243V23.9048C71.9078 24.0076 71.928 24.1093 71.9674 24.2043C72.0067 24.2992 72.0643 24.3855 72.137 24.4582C72.2097 24.5309 72.296 24.5885 72.3909 24.6279C72.4859 24.6672 72.5877 24.6874 72.6904 24.6874H84.0709C84.1737 24.6874 84.2755 24.6672 84.3704 24.6279C84.4654 24.5885 84.5517 24.5309 84.6244 24.4582C84.697 24.3855 84.7547 24.2992 84.794 24.2043C84.8333 24.1093 84.8536 24.0076 84.8535 23.9048V12.5243C84.8535 12.3167 84.771 12.1177 84.6243 11.9709C84.4775 11.8242 84.2785 11.7417 84.0709 11.7417ZM38.0638 46.3776C34.1859 46.3776 31.0312 49.5324 31.0312 53.4101C31.0312 57.2881 34.1861 60.4427 38.0638 60.4427C41.9416 60.4427 45.0964 57.2879 45.0964 53.4101C45.0964 49.5324 41.9416 46.3776 38.0638 46.3776Z" stroke="white" stroke-width="2.57944" stroke-miterlimit="10" stroke-linecap="round" stroke-linejoin="round"/>
<path d="M44.121 25.4326V21.7656C44.121 20.7729 43.3162 19.9683 42.3236 19.9683H33.818C32.8253 19.9683 32.0207 20.773 32.0207 21.7656V26.3426C32.0207 27.1429 31.4912 27.8459 30.7223 28.0686C28.8593 28.6086 27.062 29.3538 25.3635 30.2907C25.0222 30.4795 24.6287 30.5522 24.2425 30.4978C23.8562 30.4435 23.4981 30.265 23.2222 29.9894L19.9841 26.7513C19.2822 26.0494 18.1441 26.0494 17.4422 26.7513L11.4278 32.7657C10.7258 33.4677 10.7258 34.6057 11.4278 35.3077L14.6658 38.5457C14.9414 38.8217 15.1198 39.1798 15.1742 39.5661C15.2285 39.9523 15.1558 40.3457 14.9671 40.687C14.0304 42.3856 13.2852 44.1829 12.7452 46.0459C12.6371 46.4201 12.4103 46.7491 12.099 46.9833C11.7877 47.2174 11.4087 47.3441 11.0192 47.3442H6.44189C5.44915 47.3442 4.64453 48.149 4.64453 49.1416V57.6472C4.64453 58.6399 5.44932 59.4447 6.44206 59.4447H11.0188C11.4084 59.4448 11.7874 59.5715 12.0987 59.8057C12.41 60.0398 12.6367 60.3688 12.7448 60.743C13.2849 62.606 14.0301 64.4033 14.9668 66.1017C15.1555 66.4431 15.2282 66.8365 15.1739 67.2227C15.1196 67.609 14.9411 67.9671 14.6655 68.243L11.4274 71.4813C10.7255 72.1832 10.7255 73.3213 11.4274 74.0232L17.4418 80.0376C18.1438 80.7396 19.2818 80.7396 19.9838 80.0376L23.222 76.7996C23.498 76.524 23.8561 76.3455 24.2423 76.2912C24.6286 76.2369 25.022 76.3096 25.3633 76.4984C27.0618 77.4351 28.8591 78.1804 30.7222 78.7204C31.0964 78.8285 31.4254 79.0553 31.6595 79.3666C31.8937 79.6779 32.0204 80.0568 32.0205 80.4464V85.0233C32.0205 86.0161 32.8253 86.8207 33.8178 86.8207H42.3235C43.3162 86.8207 44.1208 86.0159 44.1208 85.0233V80.4464C44.1208 79.646 44.6503 78.9431 45.4191 78.7204C47.2822 78.1804 49.0795 77.4351 50.778 76.4984C51.1193 76.3096 51.5127 76.2369 51.899 76.2912C52.2852 76.3455 52.6433 76.524 52.9193 76.7996L56.1574 80.0376C56.8593 80.7396 57.9974 80.7396 58.6993 80.0376L64.7137 74.0232C65.4157 73.3213 65.4157 72.1832 64.7137 71.4813L61.4756 68.2432C61.2001 67.9672 61.0217 67.609 60.9673 67.2228C60.913 66.8365 60.9858 66.4431 61.1745 66.1017C62.1112 64.4033 62.8565 62.606 63.3965 60.743C63.5046 60.3688 63.7314 60.0399 64.0427 59.8057C64.354 59.5715 64.7329 59.4448 65.1225 59.4447H69.6993C70.692 59.4447 71.4966 58.6399 71.4966 57.6472V49.1416C71.4966 48.1488 70.6918 47.3442 69.6993 47.3442H62.6722C62.4447 47.3442 62.2266 47.4346 62.0658 47.5954C61.9049 47.7562 61.8146 47.9744 61.8146 48.2018V52.5368C61.8146 52.6494 61.7924 52.7609 61.7493 52.865C61.7062 52.969 61.643 53.0636 61.5634 53.1432C61.4838 53.2228 61.3892 53.286 61.2852 53.3291C61.1811 53.3722 61.0696 53.3944 60.957 53.3944H56.2764C55.8148 53.3944 55.4411 53.76 55.4196 54.2212C54.9844 63.511 47.2509 70.8921 37.8234 70.7609C28.4688 70.6307 20.8343 62.9963 20.7041 53.6417C20.5691 43.9361 28.396 36.0261 38.0707 36.0261C39.7889 36.0261 41.4487 36.2762 43.016 36.7412C43.5673 36.9047 44.121 36.4965 44.121 35.9212V31.4512" stroke="white" stroke-width="2.57944" stroke-miterlimit="10" stroke-linecap="round" stroke-linejoin="round"/>
</g>
<defs>
<clipPath id="clip0_656_192">
<rect width="88.0441" height="88.0441" fill="white" transform="translate(0.734375 0.065918)"/>
</clipPath>
</defs>
</svg>
