<svg width="89" height="89" viewBox="0 0 89 89" fill="none" xmlns="http://www.w3.org/2000/svg">
<path d="M13.1508 32.9959L5.49781 29.9033L6.52958 27.3514L14.1812 30.444L13.1508 32.9959ZM13.3489 55.7222L5.75094 58.9482L6.82535 61.4795L14.4233 58.2549L13.3489 55.7222ZM32.6443 13.1584L29.4183 5.56051L26.887 6.63492L30.1116 14.2328L32.6443 13.1584ZM11.2619 42.7124H3.00781V45.4637H11.2619V42.7124ZM61.0151 6.33915L58.4632 5.30738L55.3707 12.9603L57.9226 13.9921L61.0151 6.33915ZM75.2081 32.4538L82.806 29.2279L81.7316 26.6966L74.1337 29.9212L75.2081 32.4538ZM45.6542 2.81738H42.9028V11.0715H45.6542V2.81738ZM14.1234 72.2979L16.0686 74.2431L21.9043 68.4075L19.959 66.4622L14.1234 72.2979ZM74.4336 15.8782L72.4883 13.9329L66.6527 19.7686L68.5979 21.7138L74.4336 15.8782ZM74.3758 57.7321L82.0287 60.8247L83.0591 58.2728L75.4062 55.1802L74.3758 57.7321ZM66.6527 68.4075L72.4883 74.2431L74.4336 72.2979L68.5979 66.4622L66.6527 68.4075ZM77.295 42.7124V45.4637H85.5491V42.7124H77.295ZM62.1624 60.5963V61.972H26.3945V60.5963C26.3945 52.8044 31.4117 46.1791 38.3781 43.7331C35.3145 41.7769 33.273 38.3542 33.273 34.4582C33.273 28.3901 38.2103 23.4527 44.2785 23.4527C50.3466 23.4527 55.284 28.3901 55.284 34.4582C55.284 38.3555 53.2425 41.7769 50.1788 43.7331C57.1453 46.1777 62.1624 52.8044 62.1624 60.5963ZM44.2785 42.7124C48.8306 42.7124 52.5326 39.0104 52.5326 34.4582C52.5326 29.9061 48.8306 26.2041 44.2785 26.2041C39.7263 26.2041 36.0243 29.9061 36.0243 34.4582C36.0243 39.0104 39.7263 42.7124 44.2785 42.7124ZM59.3491 59.2206C58.6517 51.5181 52.1612 45.4637 44.2785 45.4637C36.3958 45.4637 29.9053 51.5181 29.2078 59.2206H59.3491ZM42.9028 85.3587H45.6542V77.1046H42.9028V85.3587ZM27.5418 81.8369L30.0937 82.8687L33.1863 75.2158L30.6344 74.184L27.5418 81.8369ZM55.9127 75.0177L59.1387 82.6156L61.6699 81.5412L58.4453 73.9432L55.9127 75.0177ZM14.1234 15.8768L19.959 21.7138L21.9043 19.7686L16.0686 13.9329L14.1234 15.8768Z" fill="white"/>
</svg>
