<svg width="89" height="89" viewBox="0 0 89 89" fill="none" xmlns="http://www.w3.org/2000/svg">
<path d="M10.3205 87.0398C11.7789 87.0382 13.2108 86.6502 14.4705 85.9153C15.7303 85.1805 16.7728 84.125 17.492 82.8563C21.9011 82.5812 27.3915 80.7199 33.4761 77.41H33.8022C34.4831 82.8302 39.111 87.0398 44.7128 87.0398C50.3146 87.0398 54.9424 82.8302 55.6233 77.41H55.9494C62.6228 81.039 68.4847 82.8907 73.0574 82.8907C76.2202 82.8907 78.7693 82.0089 80.5495 80.2287C84.6463 76.1319 84.0437 68.2121 78.8972 57.8752C79.9118 56.8499 80.4809 55.4657 80.4807 54.0233C80.4807 50.9885 78.0127 48.5205 74.9779 48.5205C74.4717 48.5205 73.9902 48.6113 73.5238 48.7406C72.5329 47.2676 71.505 45.8199 70.4409 44.3989C78.1695 34.0799 82.7423 24.3097 83.1825 17.1685C84.4494 16.4489 85.5032 15.4067 86.2368 14.1478C86.9704 12.8889 87.3576 11.4582 87.3591 10.0012C87.3591 5.44905 83.6571 1.74707 79.105 1.74707C77.6455 1.74832 76.2125 2.13672 74.9521 2.87263C73.6918 3.60854 72.6492 4.66564 71.9308 5.93605C69.2083 6.10251 66.1322 6.86189 62.8086 8.15091C57.6891 4.00495 51.3005 1.7441 44.7128 1.74707C38.1161 1.74364 31.7192 4.01018 26.5963 8.16604C18.7755 5.15328 12.3758 5.05836 8.87607 8.55673C4.77926 12.6535 5.38182 20.5734 10.5283 30.9103C9.51385 31.9363 8.9449 33.3208 8.94485 34.7636C8.94485 37.7984 11.4128 40.2664 14.4476 40.2664C15.4436 40.2664 16.3928 39.9967 17.2196 39.5139C17.7304 41.1126 18.3804 42.6634 19.1621 44.1486C11.45 54.3768 6.70385 64.2859 6.25538 71.6114C4.98497 72.3298 3.92788 73.3724 3.19196 74.6328C2.45605 75.8932 2.06765 77.3262 2.06641 78.7856C2.06641 83.3378 5.76838 87.0398 10.3205 87.0398ZM32.952 53.9861C28.6365 51.8193 25.0061 48.4989 22.4637 44.3934C25.6956 40.244 29.1818 36.2992 32.9025 32.5818C36.6284 28.853 40.5824 25.3594 44.7416 22.121C48.8795 25.3636 52.8145 28.8571 56.5244 32.5818C60.2456 36.2968 63.7345 40.2373 66.9714 44.381C66.926 44.4553 66.8737 44.5255 66.827 44.5984L66.7953 44.6397L66.7981 44.6424C64.2653 48.6324 60.6982 51.861 56.4763 53.9847C56.2485 54.0992 56.057 54.2746 55.9232 54.4916C55.7894 54.7085 55.7184 54.9583 55.7183 55.2132V59.526H50.2155V39.4602L53.9395 35.7362L51.9943 33.791L47.8672 37.9181C47.7393 38.0456 47.6378 38.1972 47.5686 38.3642C47.4995 38.5311 47.464 38.71 47.4641 38.8907V59.526H41.9614V38.8907C41.9616 38.71 41.9261 38.5311 41.8569 38.3642C41.7877 38.1972 41.6862 38.0456 41.5583 37.9181L37.4312 33.791L35.486 35.7362L39.21 39.4602V59.526H33.7072V55.2132C33.7073 54.9588 33.6367 54.7094 33.5033 54.4927C33.37 54.2761 33.1791 54.1007 32.952 53.9861ZM70.8508 30.6365C70.8508 34.5641 69.9759 38.3321 68.3842 41.737C65.2912 37.853 61.981 34.1469 58.4696 30.6365C54.8496 27.0057 51.0205 23.5896 47.0019 20.4055C52.3368 16.4738 57.5631 13.3648 62.2776 11.3342C67.5286 16.1189 70.8508 22.9891 70.8508 30.6365ZM58.4696 62.2774L58.471 65.0288H30.9559V62.2774H58.4696ZM55.7183 67.7801V69.1558H33.7072V67.7801H55.7183ZM58.4696 71.9072L58.471 74.6586H30.9559V71.9072H58.4696ZM44.7128 84.2884C40.6311 84.2884 37.2414 81.3073 36.5824 77.41H52.8431C52.1841 81.3073 48.7944 84.2884 44.7128 84.2884ZM77.7293 54.0233C77.7293 55.5406 76.4953 56.7746 74.9779 56.7746C73.4605 56.7746 72.2265 55.5406 72.2265 54.0233C72.2265 52.5059 73.4605 51.2719 74.9779 51.2719C76.4953 51.2719 77.7293 52.5059 77.7293 54.0233ZM74.9779 59.526C75.5172 59.526 76.0289 59.4242 76.5228 59.2784C80.892 68.1419 81.6871 75.2006 78.6042 78.2849C75.586 81.3018 68.9166 80.6428 60.4149 76.6038C60.9129 76.1044 61.221 75.4166 61.221 74.6586V71.9072C61.221 70.3898 59.987 69.1558 58.4696 69.1558V67.7801C59.987 67.7801 61.221 66.5461 61.221 65.0288V62.2774C61.221 60.76 59.987 59.526 58.4696 59.526V56.0469C62.6 53.8159 66.1236 50.611 68.735 46.7101C69.5548 47.8248 70.3515 48.9563 71.1246 50.1039C70.6026 50.6145 70.1879 51.2242 69.9046 51.8972C69.6214 52.5703 69.4754 53.2931 69.4752 54.0233C69.4752 57.058 71.9431 59.526 74.9779 59.526ZM79.105 4.49845C82.1397 4.49845 84.6077 6.96644 84.6077 10.0012C84.6077 13.036 82.1397 15.504 79.105 15.504C76.0702 15.504 73.6022 13.036 73.6022 10.0012C73.6022 6.96644 76.0702 4.49845 79.105 4.49845ZM79.105 18.2553C79.5218 18.2553 79.9276 18.2141 80.328 18.1549C79.7268 22.8955 77.2079 28.9582 73.1813 35.4982C73.4565 33.8922 73.5973 32.266 73.6022 30.6365C73.6022 22.6741 70.3639 15.4544 65.1362 10.2241C67.2135 9.49495 69.1725 8.98732 70.9527 8.76446C70.888 9.17361 70.854 9.587 70.8508 10.0012C70.8508 14.5534 74.5528 18.2553 79.105 18.2553ZM44.7128 4.49845C50.371 4.49845 55.5986 6.32399 59.8811 9.39178C55.1143 11.5805 49.961 14.7198 44.7141 18.6543C39.4232 14.6923 34.2672 11.5667 29.5293 9.40278C33.95 6.21438 39.2622 4.49851 44.7128 4.49845ZM10.8213 10.502C13.1971 8.12614 18.012 8.05323 24.2824 10.2309C19.1594 15.3589 16.1597 22.2309 15.8824 29.4741C15.4158 29.3396 14.9332 29.2679 14.4476 29.2608C13.9083 29.2608 13.3966 29.3626 12.9027 29.5085C8.53352 20.6449 7.737 13.5863 10.8213 10.502ZM14.4476 37.515C12.9302 37.515 11.6962 36.281 11.6962 34.7636C11.6971 34.275 11.8279 33.7954 12.0752 33.374C12.3226 32.9527 12.6776 32.6047 13.1039 32.3658C13.5301 32.1269 14.0122 32.0058 14.5007 32.0147C14.9893 32.0236 15.4666 32.1624 15.8838 32.4167C15.9705 33.8474 16.1576 35.2547 16.4465 36.6304C16.1923 36.9078 15.8836 37.1295 15.5396 37.2818C15.1956 37.434 14.8238 37.5134 14.4476 37.515ZM18.5747 30.6365C18.5747 22.9918 21.8942 16.1244 27.1438 11.3411C31.7318 13.2946 36.9401 16.3156 42.4553 20.3877C38.4255 23.5767 34.5858 26.9988 30.9559 30.6365C27.443 34.1428 24.1306 37.8442 21.0344 41.7232C19.4126 38.2523 18.5729 34.4676 18.5747 30.6365ZM20.6974 46.7211C23.3085 50.6169 26.8296 53.8178 30.9559 56.0469V59.526C29.4385 59.526 28.2045 60.76 28.2045 62.2774V65.0288C28.2045 66.5461 29.4385 67.7801 30.9559 67.7801V69.1558C29.4385 69.1558 28.2045 70.3898 28.2045 71.9072V74.6586C28.2045 75.4138 28.5113 76.0989 29.0051 76.5969C25.0652 78.4692 21.4939 79.6331 18.4729 80.0128C18.5334 79.6111 18.5747 79.2039 18.5747 78.7856C18.5747 74.2335 14.8727 70.5315 10.3205 70.5315C9.89958 70.5315 9.48825 70.5728 9.08379 70.6347C9.88582 64.224 14.1422 55.6218 20.6974 46.7211ZM10.3205 73.2829C13.3553 73.2829 15.8233 75.7509 15.8233 78.7856C15.8233 81.8204 13.3553 84.2884 10.3205 84.2884C7.28577 84.2884 4.81778 81.8204 4.81778 78.7856C4.81778 75.7509 7.28577 73.2829 10.3205 73.2829Z" fill="white"/>
</svg>
