<svg width="89" height="89" viewBox="0 0 89 89" fill="none" xmlns="http://www.w3.org/2000/svg">
<path d="M77.3188 1.74707H33.8878C29.4815 1.74707 25.8966 5.33194 25.8966 9.73827V20.2602L21.6502 22.4617C20.831 20.4081 19.3313 18.7269 17.4542 17.664C19.5186 16.1901 20.8681 13.7768 20.8681 11.0527C20.8681 6.57505 17.2253 2.93223 12.7476 2.93223C8.26993 2.93223 4.62711 6.57505 4.62711 11.0527C4.62711 13.7763 5.97614 16.189 8.03967 17.6629C5.13181 19.3105 3.16406 22.4316 3.16406 26.0054V46.59C3.16406 48.3944 4.63209 49.8625 6.43648 49.8625H19.0589C20.8635 49.8625 22.3315 48.3944 22.3315 46.59V32.3983L25.8966 30.5499V32.1563C25.8966 36.5627 29.4815 40.1475 33.8878 40.1475H77.3187C81.725 40.1475 85.3099 36.5627 85.3099 32.1563V9.73827C85.3099 5.33194 81.725 1.74707 77.3187 1.74707H77.3188ZM7.37849 11.0527C7.37849 8.09226 9.78714 5.6836 12.7478 5.6836C15.7085 5.6836 18.1169 8.09226 18.1169 11.0527C18.1169 14.0132 15.7083 16.4219 12.7478 16.4219C9.78732 16.4219 7.37849 14.0132 7.37849 11.0527ZM19.0589 47.1111H6.43665C6.15412 47.1111 5.91561 46.8724 5.91561 46.59V26.0054C5.91561 22.2381 8.98047 19.1733 12.7478 19.1733C16.012 19.1733 18.8332 21.5021 19.4557 24.7111L19.8059 26.5172L27.9254 22.3076L27.9292 22.3057L28.6475 21.9334C30.1908 21.1338 30.9958 22.58 31.0826 22.7475C31.2202 23.0126 31.8295 24.3751 30.3195 25.158L19.5803 30.7258L16.2329 32.4612C15.8099 32.6805 15.2952 32.7174 14.8203 32.563C14.361 32.4136 13.9964 32.1082 13.7937 31.7029C13.5942 31.3037 13.5359 30.8766 13.625 30.4675C13.7026 30.111 13.6355 29.7383 13.4384 29.4313C13.2412 29.1243 12.9302 28.9082 12.5738 28.8304C11.8318 28.6693 11.0985 29.1393 10.9367 29.8816C10.7157 30.8962 10.8562 31.9799 11.3329 32.9331C11.8675 34.0027 12.804 34.8002 13.9694 35.1792C14.4341 35.3302 14.9197 35.407 15.4084 35.4069C16.1349 35.4069 16.8556 35.2374 17.4993 34.9036L19.5803 33.8247V46.59C19.5803 46.8726 19.3415 47.1111 19.0589 47.1111ZM82.5587 32.1562C82.5587 35.0454 80.2081 37.396 77.3188 37.396H33.8878C30.9985 37.396 28.648 35.0454 28.648 32.1562V29.1233L31.5856 27.6002C33.72 26.4936 34.3482 24.4929 33.9659 22.7091L42.7909 12.3906C42.9084 12.2533 42.9976 12.0942 43.0535 11.9225C43.1095 11.7507 43.131 11.5696 43.1169 11.3894C43.1029 11.2093 43.0535 11.0338 42.9715 10.8728C42.8896 10.7117 42.7768 10.5684 42.6395 10.4511C42.0625 9.95718 41.1939 10.0249 40.6999 10.6024L32.5216 20.1648C31.5354 19.2484 30.1506 18.7269 28.6482 19.0357V9.73827C28.6482 6.84898 30.9987 4.49845 33.888 4.49845H77.3188C80.2081 4.49845 82.5587 6.84898 82.5587 9.73827V32.1562ZM45.7526 9.66983C45.7526 9.30498 45.8976 8.95507 46.1556 8.69707C46.4136 8.43908 46.7635 8.29415 47.1283 8.29415H59.6602C60.025 8.29415 60.3749 8.43908 60.6329 8.69707C60.8909 8.95507 61.0358 9.30498 61.0358 9.66983C61.0358 10.0347 60.8909 10.3846 60.6329 10.6426C60.3749 10.9006 60.025 11.0455 59.6602 11.0455H47.1283C46.7635 11.0455 46.4136 10.9006 46.1556 10.6426C45.8976 10.3846 45.7526 10.0347 45.7526 9.66983ZM72.7392 9.66966C72.7392 10.0345 72.5942 10.3844 72.3362 10.6424C72.0783 10.9004 71.7283 11.0454 71.3635 11.0454H65.907C65.5421 11.0454 65.1922 10.9004 64.9342 10.6424C64.6762 10.3844 64.5313 10.0345 64.5313 9.66966C64.5313 9.30481 64.6762 8.95489 64.9342 8.6969C65.1922 8.43891 65.5421 8.29397 65.907 8.29397H71.3635C71.7283 8.29397 72.0783 8.43891 72.3362 8.6969C72.5942 8.95489 72.7392 9.30481 72.7392 9.66966ZM44.9938 17.1881C44.9938 16.8233 45.1387 16.4734 45.3967 16.2154C45.6547 15.9574 46.0046 15.8125 46.3695 15.8125H71.2108C71.5756 15.8125 71.9256 15.9574 72.1835 16.2154C72.4415 16.4734 72.5865 16.8233 72.5865 17.1881C72.5865 17.553 72.4415 17.9029 72.1835 18.1609C71.9256 18.4189 71.5756 18.5638 71.2108 18.5638H46.3695C46.0046 18.5638 45.6547 18.4189 45.3967 18.1609C45.1387 17.9029 44.9938 17.553 44.9938 17.1881ZM43.1175 24.7066C43.1175 24.3418 43.2624 23.9919 43.5204 23.7339C43.7784 23.4759 44.1283 23.3309 44.4932 23.3309H60.4342C60.799 23.3309 61.1489 23.4759 61.4069 23.7339C61.6649 23.9919 61.8098 24.3418 61.8098 24.7066C61.8098 25.0715 61.6649 25.4214 61.4069 25.6794C61.1489 25.9374 60.799 26.0823 60.4342 26.0823H44.4932C44.1283 26.0823 43.7784 25.9374 43.5204 25.6794C43.2624 25.4214 43.1175 25.0715 43.1175 24.7066ZM72.5865 24.7065C72.5865 25.0713 72.4415 25.4212 72.1835 25.6792C71.9256 25.9372 71.5756 26.0821 71.2108 26.0821H66.1861C65.8212 26.0821 65.4713 25.9372 65.2133 25.6792C64.9553 25.4212 64.8104 25.0713 64.8104 24.7065C64.8104 24.3416 64.9553 23.9917 65.2133 23.7337C65.4713 23.4757 65.8212 23.3308 66.1861 23.3308H71.2108C71.5756 23.3308 71.9256 23.4757 72.1835 23.7337C72.4415 23.9917 72.5865 24.3416 72.5865 24.7065ZM72.7392 32.2251C72.7392 32.59 72.5942 32.9399 72.3362 33.1979C72.0783 33.4559 71.7283 33.6008 71.3635 33.6008H52.1032C51.7383 33.6008 51.3884 33.4559 51.1304 33.1979C50.8724 32.9399 50.7275 32.59 50.7275 32.2251C50.7275 31.8603 50.8724 31.5103 51.1304 31.2523C51.3884 30.9944 51.7383 30.8494 52.1032 30.8494H71.3635C71.7283 30.8494 72.0783 30.9944 72.3362 31.2523C72.5942 31.5103 72.7392 31.8603 72.7392 32.2251ZM47.4076 32.2249C47.4076 32.5898 47.2626 32.9397 47.0047 33.1977C46.7467 33.4557 46.3968 33.6006 46.0319 33.6006H40.7284C40.3636 33.6006 40.0137 33.4557 39.7557 33.1977C39.4977 32.9397 39.3528 32.5898 39.3528 32.2249C39.3528 31.8601 39.4977 31.5102 39.7557 31.2522C40.0137 30.9942 40.3636 30.8492 40.7284 30.8492H46.0319C46.3968 30.8492 46.7467 30.9942 47.0047 31.2522C47.2626 31.5102 47.4076 31.8601 47.4076 32.2249ZM81.0463 75.7944H78.899C77.643 71.2971 74.3143 67.7463 70.0915 66.108C72.2188 64.5053 73.5971 61.9591 73.5971 59.0964C73.5971 54.2581 69.6609 50.322 64.8228 50.322C59.9846 50.322 56.0483 54.2581 56.0483 59.0964C56.0483 61.9589 57.4266 64.5051 59.5539 66.1078C58.208 66.6302 56.9465 67.3483 55.8103 68.2389C54.1603 66.0923 51.9867 64.4792 49.5212 63.5296C51.6399 61.9262 53.0118 59.3855 53.0118 56.5297C53.0118 51.6914 49.0754 47.7553 44.2373 47.7553C39.3992 47.7553 35.463 51.6914 35.463 56.5297C35.463 59.3853 36.8347 61.9261 38.9533 63.5292C36.4848 64.4799 34.3091 66.0956 32.6583 68.2461C31.5219 67.355 30.2601 66.6364 28.9139 66.1136C31.04 64.5117 32.4174 61.9665 32.4174 59.1054C32.4174 54.2688 28.4826 50.334 23.646 50.334C18.8094 50.334 14.8748 54.2688 14.8748 59.1054C14.8748 61.9665 16.2522 64.5115 18.3781 66.1135C14.1577 67.7511 10.8309 71.2997 9.57529 75.7944H7.42784C5.07679 75.7944 3.16423 77.7071 3.16423 80.0578V84.5166C3.16423 85.9081 4.29643 87.0401 5.68794 87.0401H82.7863C84.1778 87.0401 85.3101 85.9081 85.3101 84.5166V80.0578C85.3101 77.7069 83.3975 75.7944 81.0464 75.7944H81.0463ZM58.7995 59.0964C58.7995 55.7754 61.5015 53.0733 64.8226 53.0733C68.1437 53.0733 70.8455 55.7754 70.8455 59.0964C70.8455 62.4175 68.1464 65.1166 64.8278 65.1194H64.8173C61.4986 65.1165 58.7995 62.4158 58.7995 59.0964ZM64.8226 67.8709H64.8278C69.908 67.8732 74.3714 71.1191 76.0162 75.7945H53.6283C55.2733 71.1189 59.7369 67.8732 64.8171 67.8709H64.8224H64.8226ZM38.214 56.5299C38.214 53.2088 40.9159 50.5068 44.237 50.5068C47.5581 50.5068 50.2601 53.2087 50.2601 56.5299C50.2601 59.8512 47.5624 62.5486 44.245 62.5529H44.2287C40.9112 62.5484 38.2139 59.8482 38.2139 56.5299H38.214ZM44.2289 65.3042L44.2371 65.3044L44.2452 65.3042C48.0677 65.3068 51.5673 67.0974 53.799 70.1424C52.3723 71.7749 51.3291 73.7062 50.746 75.7945H37.7165C37.1341 73.7097 36.093 71.7814 34.6692 70.1508C36.9004 67.1007 40.4026 65.307 44.2292 65.3044L44.2289 65.3042ZM17.626 59.1054C17.626 55.786 20.3265 53.0854 23.6458 53.0854C26.9652 53.0854 29.6658 55.786 29.6658 59.1054C29.6658 62.4247 26.9681 65.1223 23.6512 65.125H23.6407C20.3239 65.1221 17.626 62.4228 17.626 59.1054ZM23.6405 67.8764H23.651C28.728 67.8787 33.1888 71.1222 34.8334 75.7944H12.4579C14.1025 71.1222 18.5635 67.8787 23.6405 67.8764ZM82.5587 84.2887H5.91527V80.0578C5.91527 79.224 6.59365 78.5458 7.42749 78.5458H10.6549L10.66 78.5459L10.6657 78.5458H77.8082L77.8139 78.5459L77.8191 78.5458H81.0463C81.8801 78.5458 82.5585 79.2241 82.5585 80.0578V84.2887H82.5587Z" fill="white"/>
</svg>
