<svg width="89" height="89" viewBox="0 0 89 89" fill="none" xmlns="http://www.w3.org/2000/svg">
<g clip-path="url(#clip0_656_214)">
<path d="M0.83221 82.5653L1.97344 85.1343L42.9284 68.1526L50.0633 69.0089L52.6315 76.8574L49.2069 80.1398C47.9226 81.2812 47.4949 83.1359 48.2084 84.8487L49.6354 88.4161L73.3228 79.1407L72.0387 75.716C71.4679 74.0034 69.8982 73.0049 68.0435 73.0049H63.3339L60.7657 66.8685L67.0444 63.7294C69.0419 62.7304 69.8984 60.447 69.1849 58.4494L61.0513 36.6167C60.1951 34.3335 57.7689 33.3342 55.4855 34.0477C55.4855 34.0477 55.3433 34.0477 55.3433 34.1904L49.3498 36.759L48.4936 34.6185L51.7759 30.766C54.0585 28.1969 55.4855 25.0581 55.9141 21.6333L60.0522 16.6388C62.7635 13.4993 62.1927 8.7904 59.053 6.07859C58.4823 5.65085 57.9117 5.22293 57.3411 4.93736C55.7712 4.22386 54.2014 4.08099 52.4894 4.50944L52.0609 3.22462C51.3474 0.941971 48.7792 -0.199976 46.6387 0.656395L16.5291 11.5015C14.2459 12.3579 13.1043 14.7834 13.9607 16.9239V17.0666L14.6742 18.9217C10.964 20.634 9.25126 24.915 10.5354 28.6255C11.5346 31.4795 14.1028 33.4771 17.0997 33.9049L23.8069 34.6183C26.518 36.6167 29.7997 37.901 33.0823 38.1858L37.791 38.6144L38.6472 40.7549C37.6483 41.3255 36.9348 42.3246 36.6498 43.6089L35.6505 48.4605L0.832031 62.5875L1.83128 65.2988L21.8091 57.308L26.6609 71.8629L0.83221 82.5653ZM69.1849 76.5723L69.4703 77.428L51.2045 84.7058L50.7768 83.8496C50.6341 83.2788 50.7768 82.708 51.0624 82.2803L55.9141 77.7137L62.0498 75.716H67.7578C68.4713 75.716 68.8997 76.001 69.1848 76.5723H69.1849ZM60.1949 73.147L55.0578 74.8598L53.2028 69.4374C54.0585 69.5796 54.772 69.4374 55.4855 69.0089L57.9117 67.8677L60.1949 73.147ZM56.342 36.3311C57.0555 36.0453 57.9117 36.3311 58.1973 37.0446L59.3387 40.0413L52.3465 42.3246L53.2028 45.0359L60.1951 42.7525L61.9069 47.3191L55.2006 49.6017L56.0568 52.3135L62.9062 50.0303L64.6188 54.5962L58.0546 56.7367L58.9108 59.4485L65.6173 57.1653L66.3308 59.02C66.6165 59.7335 66.3308 60.447 65.6173 60.7328L54.3441 66.2978C54.0587 66.4405 53.7736 66.4405 53.4879 66.4405L43.7847 65.2986L38.5045 49.4596L39.5038 44.1795C39.6465 43.7516 39.9315 43.3232 40.36 43.1803L56.342 36.3311ZM56.199 7.50558C58.4823 8.50483 59.6243 11.2159 58.6252 13.6422C58.4825 14.0699 58.1973 14.3557 57.9117 14.7834L56.199 16.9239C56.0568 15.4969 55.7712 14.2126 55.3433 12.7856L53.4879 7.22072C54.4871 7.07784 55.3433 7.22072 56.1992 7.50558H56.199ZM13.3893 27.912C12.5337 25.4858 13.5322 22.9176 15.8156 21.7755L17.8134 26.6278C18.5269 28.3398 19.5258 30.0525 20.6673 31.4795L17.6703 31.1938C15.6727 31.0511 13.9607 29.7668 13.3893 27.912ZM33.6529 35.4747C27.8023 34.9039 22.6648 31.1938 20.5243 25.6285L16.8147 16.2104C16.5291 15.4969 16.8147 14.6407 17.5281 14.3557L47.6371 3.51037C48.0657 3.36749 48.3506 3.36749 48.7792 3.51037C49.064 3.65307 49.3498 3.93811 49.4927 4.36656L52.6315 13.7849C54.3443 19.0644 53.2028 24.7723 49.6354 28.9104L45.2117 34.0477L46.4958 37.4725L41.3587 39.613L39.9317 36.0455L33.6529 35.4747ZM24.5202 56.166L27.8023 54.8818L31.3697 65.7272L34.0807 64.8708L30.371 53.7405L36.079 51.4573L40.9307 65.8699L29.372 70.7217L24.5202 56.166ZM71.3252 25.3429V26.7699H74.1792V25.3429C74.1792 21.3477 77.3189 18.208 81.3141 18.208V15.354C77.3189 15.354 74.1792 12.2152 74.1792 8.21907V6.79209H71.3252V8.21907C71.3252 12.2152 68.1862 15.354 64.1903 15.354V18.208C68.1862 18.208 71.3252 21.3477 71.3252 25.3429ZM72.7522 13.3564C73.6084 14.7834 74.75 15.9253 76.177 16.7812C74.75 17.6374 73.6084 18.7793 72.7522 20.2063C71.896 18.7793 70.7544 17.6374 69.3275 16.781C70.7544 15.9253 71.896 14.7834 72.7522 13.3564Z" fill="white"/>
<path d="M8.53338 53.883V55.31H11.3874V53.883C11.3874 49.8878 14.5271 46.748 18.5223 46.748V43.8941C14.5271 43.8941 11.3874 40.7552 11.3874 36.7591V35.3321H8.53338V36.7591C8.53338 40.7552 5.39436 43.8941 1.39844 43.8941V46.748C5.39436 46.748 8.53338 49.8878 8.53338 53.883ZM9.96036 41.8964C10.8166 43.3234 11.9581 44.4654 13.3851 45.3212C11.9581 46.1774 10.8166 47.3194 9.96036 48.7463C9.10417 47.3194 7.96258 46.1774 6.53559 45.321C7.96258 44.4654 9.10417 43.3234 9.96036 41.8964ZM79.8828 36.7591V35.3321H77.0288V36.7591C77.0288 40.7552 73.8898 43.8941 69.8939 43.8941V46.748C73.8898 46.748 77.0288 49.8878 77.0288 53.883V55.31H79.8828V53.883C79.8828 49.8878 83.0225 46.748 87.0177 46.748V43.8941C83.0225 43.8941 79.8828 40.7552 79.8828 36.7591ZM78.4558 48.7463C77.5996 47.3194 76.458 46.1774 75.031 45.321C76.458 44.4654 77.5996 43.3234 78.4558 41.8964C79.312 43.3234 80.4536 44.4654 81.8805 45.3212C80.4536 46.1774 79.312 47.3194 78.4558 48.7463ZM43.2095 25.7718L45.2073 27.7694C53.0558 19.921 45.7779 7.93431 45.35 7.50586L42.924 9.07572C43.0667 9.07572 49.4881 19.4931 43.2095 25.7718Z" fill="white"/>
</g>
<defs>
<clipPath id="clip0_656_214">
<rect width="88.0441" height="88.0441" fill="white" transform="translate(0.734375 0.371582)"/>
</clipPath>
</defs>
</svg>
