<svg width="89" height="89" viewBox="0 0 89 89" fill="none" xmlns="http://www.w3.org/2000/svg">
<g clip-path="url(#clip0_656_220)">
<path d="M58.0445 58.1507C58.0445 56.6913 57.4648 55.2917 56.4328 54.2597C55.4009 53.2277 54.0012 52.648 52.5418 52.648H34.8367L36.0335 43.1833C36.0403 43.1284 36.0403 43.073 36.0335 43.0182C36.0335 35.3969 30.6408 33.3883 27.7794 33.3883C27.4706 33.3769 27.167 33.4698 26.9174 33.652C26.6679 33.8341 26.4869 34.095 26.4037 34.3926L20.901 53.5009C19.9766 55.3236 18.5429 56.8385 16.7739 57.8619V56.7751C16.7739 56.4102 16.629 56.0603 16.371 55.8023C16.113 55.5443 15.7631 55.3994 15.3982 55.3994H1.64131C1.27646 55.3994 0.926547 55.5443 0.668555 55.8023C0.410563 56.0603 0.265625 56.4102 0.265625 56.7751L0.265625 87.0402C0.265625 87.4051 0.410563 87.755 0.668555 88.013C0.926547 88.271 1.27646 88.4159 1.64131 88.4159H15.3982C15.7631 88.4159 16.113 88.271 16.371 88.013C16.629 87.755 16.7739 87.4051 16.7739 87.0402V86.1185L24.6566 88.4159C24.7795 88.4369 24.9051 88.4369 25.028 88.4159H48.4147C49.4569 88.4012 50.4735 88.0908 51.3462 87.5209C52.2188 86.9509 52.9117 86.1449 53.3441 85.1965C53.7765 84.2481 53.9306 83.1964 53.7886 82.1639C53.6465 81.1313 53.2142 80.1603 52.5418 79.3639C53.2232 78.9537 53.8077 78.4007 54.2548 77.743C54.702 77.0852 55.0013 76.3384 55.132 75.5539C55.2628 74.7693 55.2219 73.9658 55.0122 73.1986C54.8026 72.4314 54.4291 71.7187 53.9175 71.1097C54.5989 70.6996 55.1833 70.1466 55.6305 69.4888C56.0777 68.8311 56.3769 68.0843 56.5077 67.2997C56.6385 66.5152 56.5976 65.7117 56.3879 64.9444C56.1782 64.1772 55.8048 63.4646 55.2932 62.8556C56.1208 62.3778 56.8098 61.6927 57.2923 60.8677C57.7747 60.0428 58.034 59.1064 58.0445 58.1507ZM14.0225 85.6645H3.017V58.1507H14.0225V85.6645ZM48.4147 85.6645H25.2206L16.7739 83.2571V60.737C20.901 59.7878 23.391 54.8766 23.501 54.6427C23.539 54.5626 23.5712 54.4799 23.5973 54.3951L28.7837 36.2635C30.3932 36.6212 33.2546 37.9556 33.2822 42.9356L31.9065 53.8586C31.883 54.0506 31.9002 54.2454 31.9571 54.4303C32.014 54.6152 32.1092 54.786 32.2366 54.9316C32.3671 55.0801 32.528 55.1988 32.7084 55.2795C32.8888 55.3602 33.0845 55.4011 33.2822 55.3994H52.5418C53.2715 55.3994 53.9713 55.6892 54.4873 56.2052C55.0033 56.7212 55.2932 57.421 55.2932 58.1507C55.2932 58.8805 55.0033 59.5803 54.4873 60.0963C53.9713 60.6122 53.2715 60.9021 52.5418 60.9021H45.6634C45.2985 60.9021 44.9486 61.0471 44.6906 61.305C44.4326 61.563 44.2877 61.913 44.2877 62.2778C44.2877 62.6427 44.4326 62.9926 44.6906 63.2506C44.9486 63.5086 45.2985 63.6535 45.6634 63.6535H51.1661C51.8958 63.6535 52.5956 63.9434 53.1116 64.4594C53.6276 64.9753 53.9175 65.6752 53.9175 66.4049C53.9175 67.1346 53.6276 67.8344 53.1116 68.3504C52.5956 68.8664 51.8958 69.1563 51.1661 69.1563H44.2877C43.9228 69.1563 43.5729 69.3012 43.3149 69.5592C43.0569 69.8172 42.912 70.1671 42.912 70.5319C42.912 70.8968 43.0569 71.2467 43.3149 71.5047C43.5729 71.7627 43.9228 71.9076 44.2877 71.9076H49.7904C50.5201 71.9076 51.22 72.1975 51.7359 72.7135C52.2519 73.2295 52.5418 73.9293 52.5418 74.659C52.5418 75.3887 52.2519 76.0885 51.7359 76.6045C51.22 77.1205 50.5201 77.4104 49.7904 77.4104H42.912C42.5471 77.4104 42.1972 77.5553 41.9392 77.8133C41.6812 78.0713 41.5363 78.4212 41.5363 78.7861C41.5363 79.1509 41.6812 79.5008 41.9392 79.7588C42.1972 80.0168 42.5471 80.1618 42.912 80.1618H48.4147C49.1444 80.1618 49.8443 80.4516 50.3602 80.9676C50.8762 81.4836 51.1661 82.1834 51.1661 82.9131C51.1661 83.6429 50.8762 84.3427 50.3602 84.8587C49.8443 85.3746 49.1444 85.6645 48.4147 85.6645ZM18.1496 21.0071H19.5253V22.3828C19.5253 22.7477 19.6702 23.0976 19.9282 23.3556C20.1862 23.6136 20.5361 23.7585 20.901 23.7585C21.2658 23.7585 21.6157 23.6136 21.8737 23.3556C22.1317 23.0976 22.2766 22.7477 22.2766 22.3828V21.0071H23.6523C24.0172 21.0071 24.3671 20.8622 24.6251 20.6042C24.8831 20.3462 25.028 19.9963 25.028 19.6315C25.028 19.2666 24.8831 18.9167 24.6251 18.6587C24.3671 18.4007 24.0172 18.2558 23.6523 18.2558H22.2766V16.8801C22.2766 16.5152 22.1317 16.1653 21.8737 15.9073C21.6157 15.6493 21.2658 15.5044 20.901 15.5044C20.5361 15.5044 20.1862 15.6493 19.9282 15.9073C19.6702 16.1653 19.5253 16.5152 19.5253 16.8801V18.2558H18.1496C17.7847 18.2558 17.4348 18.4007 17.1768 18.6587C16.9188 18.9167 16.7739 19.2666 16.7739 19.6315C16.7739 19.9963 16.9188 20.3462 17.1768 20.6042C17.4348 20.8622 17.7847 21.0071 18.1496 21.0071ZM74.5528 69.1563H73.1771V67.7806C73.1771 67.4157 73.0322 67.0658 72.7742 66.8078C72.5162 66.5498 72.1663 66.4049 71.8014 66.4049C71.4366 66.4049 71.0867 66.5498 70.8287 66.8078C70.5707 67.0658 70.4258 67.4157 70.4258 67.7806V69.1563H69.0501C68.6852 69.1563 68.3353 69.3012 68.0773 69.5592C67.8193 69.8172 67.6744 70.1671 67.6744 70.5319C67.6744 70.8968 67.8193 71.2467 68.0773 71.5047C68.3353 71.7627 68.6852 71.9076 69.0501 71.9076H70.4258V73.2833C70.4258 73.6482 70.5707 73.9981 70.8287 74.2561C71.0867 74.5141 71.4366 74.659 71.8014 74.659C72.1663 74.659 72.5162 74.5141 72.7742 74.2561C73.0322 73.9981 73.1771 73.6482 73.1771 73.2833V71.9076H74.5528C74.9177 71.9076 75.2676 71.7627 75.5256 71.5047C75.7836 71.2467 75.9285 70.8968 75.9285 70.5319C75.9285 70.1671 75.7836 69.8172 75.5256 69.5592C75.2676 69.3012 74.9177 69.1563 74.5528 69.1563Z" fill="white"/>
<path d="M58.0464 0.371818C50.0196 0.371818 42.3215 3.56046 36.6457 9.23628C30.9699 14.9121 27.7813 22.6102 27.7812 30.637C27.7813 31.0018 27.9262 31.3517 28.1842 31.6097C28.4422 31.8677 28.7921 32.0127 29.1569 32.0127C29.5218 32.0127 29.8717 31.8677 30.1297 31.6097C30.3877 31.3517 30.5326 31.0018 30.5326 30.637C30.5343 25.42 32.0191 20.311 34.8139 15.9058C37.6088 11.5006 41.5985 7.98084 46.3177 5.75693C51.0369 3.53301 56.2911 2.69663 61.4676 3.34534C66.6441 3.99404 71.5295 6.1011 75.554 9.42076C79.5785 12.7404 82.5762 17.1359 84.1976 22.0945C85.819 27.0531 85.9972 32.3705 84.7115 37.4266C83.4257 42.4826 80.729 47.0689 76.9358 50.6506C73.1425 54.2322 68.4092 56.6617 63.2878 57.6555C62.9229 57.6902 62.5868 57.8683 62.3533 58.1508C62.1198 58.4333 62.0081 58.797 62.0428 59.1619C62.0774 59.5267 62.2556 59.8629 62.5381 60.0964C62.8206 60.3298 63.1843 60.4415 63.5492 60.4069H63.8105C71.2683 59.0433 77.9427 54.9304 82.5134 48.8818C87.0841 42.8332 89.2183 35.2894 88.4937 27.7427C87.7691 20.1961 84.2386 13.1962 78.6005 8.12773C72.9624 3.05929 65.6274 0.291485 58.0464 0.371818Z" fill="white"/>
<path d="M70.4265 36.1397C70.4265 33.2208 69.267 30.4215 67.203 28.3576C65.1391 26.2937 62.3398 25.1342 59.4209 25.1342H56.6696C55.9399 25.1342 55.24 24.8443 54.7241 24.3283C54.2081 23.8123 53.9182 23.1125 53.9182 22.3828C53.9182 21.6531 54.2081 20.9532 54.7241 20.4373C55.24 19.9213 55.9399 19.6314 56.6696 19.6314H66.2994C67.394 19.6314 68.4437 19.1966 69.2177 18.4226C69.9916 17.6486 70.4265 16.5989 70.4265 15.5043C70.4265 14.4098 69.9916 13.36 69.2177 12.5861C68.4437 11.8121 67.394 11.3773 66.2994 11.3773H62.1723V7.2502C62.1723 6.88535 62.0274 6.53543 61.7694 6.27744C61.5114 6.01945 61.1615 5.87451 60.7966 5.87451H55.2939C54.929 5.87451 54.5791 6.01945 54.3211 6.27744C54.0631 6.53543 53.9182 6.88535 53.9182 7.2502V11.7349C51.3319 12.4109 49.08 14.005 47.583 16.2197C46.0861 18.4344 45.4463 21.1182 45.7833 23.7701C46.1202 26.4219 47.4108 28.8605 49.4141 30.6304C51.4174 32.4003 53.9964 33.3807 56.6696 33.3883H59.4209C60.1507 33.3883 60.8505 33.6782 61.3665 34.1941C61.8825 34.7101 62.1723 35.41 62.1723 36.1397C62.1723 36.8694 61.8825 37.5692 61.3665 38.0852C60.8505 38.6012 60.1507 38.891 59.4209 38.891H49.7911C48.6966 38.891 47.6468 39.3259 46.8729 40.0998C46.0989 40.8738 45.6641 41.9235 45.6641 43.0181C45.6641 44.1127 46.0989 45.1624 46.8729 45.9364C47.6468 46.7104 48.6966 47.1452 49.7911 47.1452H53.9182V51.2722C53.9182 51.6371 54.0631 51.987 54.3211 52.245C54.5791 52.503 54.929 52.6479 55.2939 52.6479H60.7966C61.1615 52.6479 61.5114 52.503 61.7694 52.245C62.0274 51.987 62.1723 51.6371 62.1723 51.2722V46.7875C64.5334 46.1779 66.6251 44.8014 68.1191 42.8742C69.613 40.9469 70.4246 38.5781 70.4265 36.1397ZM60.604 44.2975C60.2735 44.3442 59.9712 44.5095 59.7535 44.7626C59.5359 45.0158 59.4177 45.3394 59.4209 45.6732V49.8965H56.6696V45.7695C56.6696 45.4046 56.5246 45.0547 56.2666 44.7967C56.0087 44.5387 55.6587 44.3938 55.2939 44.3938H49.7911C49.4263 44.3938 49.0764 44.2489 48.8184 43.9909C48.5604 43.7329 48.4154 43.383 48.4154 43.0181C48.4154 42.6533 48.5604 42.3033 48.8184 42.0453C49.0764 41.7874 49.4263 41.6424 49.7911 41.6424H59.4209C60.8804 41.6424 62.28 41.0627 63.312 40.0307C64.344 38.9987 64.9237 37.5991 64.9237 36.1397C64.9237 34.6802 64.344 33.2806 63.312 32.2486C62.28 31.2167 60.8804 30.6369 59.4209 30.6369H56.6696C54.5957 30.6188 52.6046 29.8207 51.0925 28.4012C49.5803 26.9818 48.6579 25.0452 48.5088 22.9766C48.3597 20.908 48.9948 18.859 50.2877 17.2374C51.5806 15.6158 53.4366 14.5403 55.4865 14.2249C55.817 14.1782 56.1193 14.0129 56.337 13.7598C56.5546 13.5067 56.6729 13.1831 56.6696 12.8493V8.62589H59.4209V12.753C59.4209 13.1178 59.5659 13.4677 59.8239 13.7257C60.0819 13.9837 60.4318 14.1286 60.7966 14.1286H66.2994C66.6642 14.1286 67.0142 14.2736 67.2722 14.5316C67.5301 14.7896 67.6751 15.1395 67.6751 15.5043C67.6751 15.8692 67.5301 16.2191 67.2722 16.4771C67.0142 16.7351 66.6642 16.88 66.2994 16.88H56.6696C55.2102 16.88 53.8105 17.4598 52.7785 18.4917C51.7466 19.5237 51.1668 20.9234 51.1668 22.3828C51.1668 23.8422 51.7466 25.2418 52.7785 26.2738C53.8105 27.3058 55.2102 27.8855 56.6696 27.8855H59.4209C61.4948 27.9036 63.4859 28.7018 64.9981 30.1212C66.5102 31.5406 67.4326 33.4773 67.5817 35.5459C67.7308 37.6145 67.0957 39.6634 65.8028 41.285C64.5099 42.9067 62.6539 43.9821 60.604 44.2975Z" fill="white"/>
</g>
<defs>
<clipPath id="clip0_656_220">
<rect width="88.0441" height="88.0441" fill="white" transform="translate(0.257812 0.371582)"/>
</clipPath>
</defs>
</svg>
