<svg width="25" height="21" viewBox="0 0 25 21" fill="none" xmlns="http://www.w3.org/2000/svg">
<path d="M13.7513 19.9037C13.6613 19.8137 13.5898 19.7069 13.5411 19.5893C13.4923 19.4717 13.4672 19.3456 13.4672 19.2183C13.4672 19.091 13.4923 18.9649 13.5411 18.8473C13.5898 18.7297 13.6613 18.6229 13.7513 18.5329L20.8172 11.4683L1.84299 11.4683C1.58606 11.4683 1.33965 11.3662 1.15798 11.1846C0.976301 11.0029 0.874237 10.7565 0.874237 10.4996C0.874237 10.2426 0.976301 9.99623 1.15798 9.81455C1.33965 9.63288 1.58606 9.53081 1.84299 9.53081L20.8172 9.53081L13.7513 2.4662C13.5696 2.28443 13.4674 2.03788 13.4674 1.78081C13.4674 1.52374 13.5696 1.2772 13.7513 1.09542C13.9331 0.913644 14.1797 0.811523 14.4367 0.811523C14.6938 0.811523 14.9404 0.913644 15.1221 1.09542L23.8409 9.81417C23.9309 9.90414 24.0024 10.011 24.0512 10.1286C24.0999 10.2462 24.125 10.3723 24.125 10.4996C24.125 10.6269 24.0999 10.7529 24.0512 10.8705C24.0024 10.9881 23.9309 11.095 23.8409 11.185L15.1221 19.9037C15.0322 19.9938 14.9253 20.0652 14.8077 20.114C14.6901 20.1627 14.564 20.1878 14.4367 20.1878C14.3094 20.1878 14.1834 20.1627 14.0658 20.114C13.9482 20.0652 13.8413 19.9938 13.7513 19.9037Z" fill="#006CFC"/>
</svg>
