<svg width="1920" height="800" viewBox="0 0 1920 800" fill="none" xmlns="http://www.w3.org/2000/svg">
<g clip-path="url(#clip0_877_219)">
<rect width="1920" height="800" fill="white"/>
<g filter="url(#filter0_d_877_219)">
<circle cx="991.084" cy="665.434" r="322.084" fill="white"/>
</g>
<path d="M862.695 655.694C860.032 655.694 857.64 655.076 855.516 653.839C853.424 652.572 851.776 650.876 850.572 648.753L854.993 645.425C856.007 646.819 857.117 647.929 858.321 648.753C859.525 649.577 860.983 649.989 862.695 649.989C864.089 649.989 865.183 649.688 865.975 649.085C866.767 648.452 867.163 647.596 867.163 646.518C867.163 645.599 866.862 644.902 866.26 644.427C865.69 643.919 864.66 643.317 863.17 642.62L859.795 641.099C857.386 640.021 855.516 638.769 854.185 637.343C852.854 635.917 852.188 634.158 852.188 632.066C852.188 630.291 852.632 628.738 853.519 627.407C854.439 626.044 855.69 624.998 857.275 624.27C858.86 623.541 860.635 623.176 862.6 623.176C865.008 623.176 867.084 623.715 868.827 624.792C870.602 625.87 871.981 627.312 872.963 629.119L868.59 632.494C866.973 630.085 864.977 628.881 862.6 628.881C861.49 628.881 860.555 629.15 859.795 629.689C859.066 630.196 858.701 630.941 858.701 631.923C858.701 632.748 858.971 633.413 859.509 633.92C860.08 634.396 861.031 634.934 862.362 635.537L865.927 637.105C868.558 638.278 870.507 639.577 871.775 641.004C873.043 642.398 873.676 644.157 873.676 646.281C873.676 648.182 873.201 649.846 872.25 651.272C871.299 652.699 869.984 653.792 868.304 654.553C866.656 655.313 864.786 655.694 862.695 655.694ZM897.575 651.035H884.74L882.981 655.123H876.087L890.112 623.176H892.251L906.228 655.123H899.334L897.575 651.035ZM891.157 635.156L886.974 645.758H895.341L891.157 635.156ZM910.513 623.747H922.303C924.489 623.747 926.438 624.174 928.15 625.03C929.861 625.854 931.193 627.043 932.143 628.596C933.126 630.117 933.617 631.876 933.617 633.873C933.617 635.869 933.126 637.644 932.143 639.197C931.193 640.718 929.861 641.907 928.15 642.763C926.438 643.618 924.489 644.046 922.303 644.046H916.93V655.123H910.513V623.747ZM922.303 638.436C923.792 638.436 924.949 638.024 925.773 637.2C926.629 636.345 927.057 635.235 927.057 633.873C927.057 632.541 926.629 631.464 925.773 630.64C924.917 629.816 923.76 629.404 922.303 629.404H916.93V638.436H922.303ZM960.56 655.694C957.898 655.694 955.505 655.076 953.382 653.839C951.29 652.572 949.642 650.876 948.438 648.753L952.859 645.425C953.873 646.819 954.982 647.929 956.187 648.753C957.391 649.577 958.849 649.989 960.56 649.989C961.955 649.989 963.048 649.688 963.841 649.085C964.633 648.452 965.029 647.596 965.029 646.518C965.029 645.599 964.728 644.902 964.126 644.427C963.555 643.919 962.525 643.317 961.036 642.62L957.66 641.099C955.252 640.021 953.382 638.769 952.051 637.343C950.72 635.917 950.054 634.158 950.054 632.066C950.054 630.291 950.498 628.738 951.385 627.407C952.304 626.044 953.556 624.998 955.141 624.27C956.726 623.541 958.5 623.176 960.465 623.176C962.874 623.176 964.95 623.715 966.693 624.792C968.468 625.87 969.847 627.312 970.829 629.119L966.455 632.494C964.839 630.085 962.842 628.881 960.465 628.881C959.356 628.881 958.421 629.15 957.66 629.689C956.932 630.196 956.567 630.941 956.567 631.923C956.567 632.748 956.836 633.413 957.375 633.92C957.946 634.396 958.897 634.934 960.228 635.537L963.793 637.105C966.424 638.278 968.373 639.577 969.641 641.004C970.908 642.398 971.542 644.157 971.542 646.281C971.542 648.182 971.067 649.846 970.116 651.272C969.165 652.699 967.85 653.792 966.17 654.553C964.522 655.313 962.652 655.694 960.56 655.694ZM998.383 645.52H981.887C982.267 647.01 983.028 648.166 984.169 648.99C985.341 649.783 986.783 650.179 988.495 650.179C990.808 650.179 992.995 649.387 995.055 647.802L997.717 652.176C994.928 654.521 991.791 655.694 988.305 655.694C985.864 655.694 983.661 655.155 981.696 654.077C979.731 653 978.194 651.526 977.085 649.656C975.976 647.754 975.421 645.663 975.421 643.381C975.421 641.099 975.96 639.023 977.038 637.153C978.115 635.251 979.589 633.762 981.459 632.684C983.36 631.607 985.452 631.068 987.734 631.068C989.889 631.068 991.807 631.559 993.486 632.541C995.166 633.492 996.466 634.808 997.385 636.487C998.335 638.135 998.811 639.974 998.811 642.002C998.811 643.143 998.668 644.316 998.383 645.52ZM987.496 636.25C986.134 636.25 984.945 636.677 983.931 637.533C982.917 638.389 982.235 639.546 981.887 641.004H992.583C992.551 639.546 992.044 638.389 991.062 637.533C990.079 636.677 988.891 636.25 987.496 636.25ZM1018.27 631.591V637.248H1016.56C1014.63 637.248 1013.09 637.771 1011.95 638.817C1010.81 639.831 1010.24 641.352 1010.24 643.381V655.123H1003.82V631.591H1009.71V634.396C1010.51 633.413 1011.46 632.652 1012.57 632.114C1013.68 631.575 1014.88 631.305 1016.18 631.305C1016.97 631.305 1017.67 631.401 1018.27 631.591ZM1045.07 631.591L1033.42 655.694H1031.28L1019.63 631.591H1026.39L1032.33 644.902L1038.27 631.591H1045.07ZM1048.81 631.591H1055.22V655.123H1048.81V631.591ZM1051.99 626.979C1050.85 626.979 1049.88 626.599 1049.09 625.838C1048.3 625.078 1047.9 624.143 1047.9 623.033C1047.9 621.893 1048.3 620.942 1049.09 620.181C1049.88 619.42 1050.85 619.04 1051.99 619.04C1053.13 619.04 1054.1 619.42 1054.89 620.181C1055.71 620.942 1056.13 621.893 1056.13 623.033C1056.13 624.143 1055.71 625.078 1054.89 625.838C1054.1 626.599 1053.13 626.979 1051.99 626.979ZM1072.84 655.694C1070.53 655.694 1068.4 655.155 1066.47 654.077C1064.57 652.968 1063.05 651.478 1061.91 649.608C1060.8 647.707 1060.24 645.615 1060.24 643.333C1060.24 641.051 1060.8 638.975 1061.91 637.105C1063.05 635.235 1064.57 633.762 1066.47 632.684C1068.4 631.607 1070.53 631.068 1072.84 631.068C1075.15 631.068 1077.18 631.591 1078.92 632.637C1080.67 633.651 1082.05 635.061 1083.06 636.868L1078.59 640.338C1077.86 639.26 1077.04 638.421 1076.12 637.818C1075.23 637.216 1074.17 636.915 1072.93 636.915C1071.13 636.915 1069.64 637.533 1068.47 638.769C1067.32 639.974 1066.75 641.495 1066.75 643.333C1066.75 645.203 1067.32 646.756 1068.47 647.992C1069.64 649.196 1071.13 649.799 1072.93 649.799C1074.14 649.799 1075.18 649.513 1076.07 648.943C1076.99 648.341 1077.83 647.501 1078.59 646.423L1083.06 649.846C1082.05 651.653 1080.65 653.079 1078.88 654.125C1077.13 655.171 1075.12 655.694 1072.84 655.694ZM1108.97 645.52H1092.47C1092.85 647.01 1093.61 648.166 1094.75 648.99C1095.93 649.783 1097.37 650.179 1099.08 650.179C1101.39 650.179 1103.58 649.387 1105.64 647.802L1108.3 652.176C1105.51 654.521 1102.38 655.694 1098.89 655.694C1096.45 655.694 1094.25 655.155 1092.28 654.077C1090.32 653 1088.78 651.526 1087.67 649.656C1086.56 647.754 1086.01 645.663 1086.01 643.381C1086.01 641.099 1086.55 639.023 1087.62 637.153C1088.7 635.251 1090.18 633.762 1092.05 632.684C1093.95 631.607 1096.04 631.068 1098.32 631.068C1100.48 631.068 1102.39 631.559 1104.07 632.541C1105.75 633.492 1107.05 634.808 1107.97 636.487C1108.92 638.135 1109.4 639.974 1109.4 642.002C1109.4 643.143 1109.25 644.316 1108.97 645.52ZM1098.08 636.25C1096.72 636.25 1095.53 636.677 1094.52 637.533C1093.5 638.389 1092.82 639.546 1092.47 641.004H1103.17C1103.14 639.546 1102.63 638.389 1101.65 637.533C1100.67 636.677 1099.48 636.25 1098.08 636.25ZM1122.01 655.694C1119.95 655.694 1118.08 655.297 1116.4 654.505C1114.72 653.681 1113.34 652.556 1112.27 651.13L1115.5 647.231C1117.56 649.355 1119.76 650.417 1122.11 650.417C1122.96 650.417 1123.68 650.258 1124.25 649.941C1124.82 649.593 1125.1 649.101 1125.1 648.467C1125.1 647.96 1124.91 647.58 1124.53 647.326C1124.18 647.041 1123.56 646.708 1122.68 646.328L1120.16 645.282C1118 644.395 1116.39 643.412 1115.31 642.335C1114.26 641.257 1113.74 639.847 1113.74 638.104C1113.74 635.885 1114.53 634.158 1116.12 632.922C1117.73 631.686 1119.82 631.068 1122.39 631.068C1125.91 631.068 1128.73 632.24 1130.85 634.586L1127.62 638.532C1126.04 637.042 1124.28 636.297 1122.34 636.297C1121.55 636.297 1120.93 636.44 1120.49 636.725C1120.05 637.01 1119.82 637.422 1119.82 637.961C1119.82 638.405 1120 638.769 1120.35 639.054C1120.73 639.34 1121.38 639.673 1122.3 640.053L1124.58 641.004C1126.86 641.923 1128.52 642.921 1129.57 643.999C1130.65 645.045 1131.19 646.439 1131.19 648.182C1131.19 650.528 1130.32 652.366 1128.57 653.697C1126.86 655.028 1124.67 655.694 1122.01 655.694Z" fill="#006CFC"/>
<rect x="284" y="549.523" width="273.032" height="74.0321" rx="37.016" fill="#006CFC" fill-opacity="0.08"/>
<path d="M316.679 592.401H308.207L306.866 595.539H303.643L311.944 576.399H312.971L321.271 595.539H318.019L316.679 592.401ZM312.457 582.019L309.291 589.806H315.595L312.457 582.019ZM337.259 574.146V595.539H334.464V593.542C333.95 594.265 333.266 594.835 332.41 595.254C331.554 595.653 330.603 595.853 329.557 595.853C328.245 595.853 327.066 595.539 326.021 594.912C324.994 594.265 324.185 593.39 323.596 592.287C323.006 591.165 322.712 589.92 322.712 588.551C322.712 587.182 323.006 585.936 323.596 584.814C324.185 583.692 325.003 582.817 326.049 582.19C327.095 581.543 328.264 581.22 329.557 581.22C330.527 581.22 331.412 581.401 332.21 581.762C333.028 582.104 333.703 582.599 334.235 583.245V574.146H337.259ZM330.071 593.115C330.813 593.115 331.497 592.953 332.125 592.63C332.771 592.287 333.294 591.774 333.693 591.089C334.093 590.405 334.292 589.559 334.292 588.551C334.292 587.543 334.093 586.697 333.693 586.012C333.294 585.327 332.771 584.814 332.125 584.472C331.478 584.129 330.794 583.958 330.071 583.958C329.272 583.958 328.54 584.158 327.875 584.557C327.228 584.938 326.715 585.47 326.334 586.155C325.954 586.839 325.764 587.628 325.764 588.522C325.764 589.416 325.944 590.215 326.306 590.918C326.686 591.603 327.2 592.145 327.846 592.544C328.512 592.924 329.253 593.115 330.071 593.115ZM354.541 581.534L347.78 595.853H346.753L339.965 581.534H343.159L347.267 590.804L351.346 581.534H354.541ZM357.245 581.534H360.24V595.539H357.245V581.534ZM358.757 578.282C358.187 578.282 357.702 578.092 357.302 577.712C356.903 577.331 356.703 576.865 356.703 576.314C356.703 575.762 356.903 575.296 357.302 574.916C357.702 574.517 358.187 574.317 358.757 574.317C359.309 574.317 359.784 574.517 360.183 574.916C360.583 575.296 360.782 575.762 360.782 576.314C360.782 576.865 360.583 577.331 360.183 577.712C359.784 578.092 359.309 578.282 358.757 578.282ZM368.907 595.853C367.709 595.853 366.625 595.606 365.655 595.111C364.686 594.617 363.887 593.961 363.259 593.143L364.971 591.26C365.579 591.907 366.197 592.401 366.825 592.744C367.471 593.086 368.165 593.257 368.907 593.257C369.554 593.257 370.086 593.124 370.504 592.858C370.942 592.592 371.161 592.202 371.161 591.688C371.161 591.27 370.999 590.947 370.676 590.718C370.371 590.49 369.877 590.234 369.192 589.948L367.766 589.349C366.53 588.836 365.608 588.275 364.999 587.666C364.41 587.058 364.115 586.259 364.115 585.27C364.115 584.015 364.581 583.027 365.513 582.304C366.445 581.581 367.624 581.22 369.05 581.22C371.065 581.22 372.682 581.943 373.899 583.388L372.273 585.242C371.836 584.785 371.332 584.434 370.761 584.186C370.191 583.939 369.601 583.816 368.993 583.816C368.403 583.816 367.937 583.93 367.595 584.158C367.253 584.386 367.082 584.719 367.082 585.156C367.082 585.518 367.215 585.812 367.481 586.041C367.766 586.269 368.251 586.525 368.936 586.811L370.276 587.353C371.607 587.904 372.577 588.503 373.186 589.15C373.794 589.777 374.098 590.585 374.098 591.574C374.098 592.924 373.604 593.98 372.615 594.74C371.626 595.482 370.39 595.853 368.907 595.853ZM384.056 595.853C382.705 595.853 381.46 595.53 380.319 594.883C379.197 594.217 378.303 593.324 377.638 592.202C376.991 591.08 376.668 589.853 376.668 588.522C376.668 587.172 376.991 585.945 377.638 584.843C378.303 583.721 379.197 582.836 380.319 582.19C381.46 581.543 382.705 581.22 384.056 581.22C385.425 581.22 386.68 581.543 387.821 582.19C388.962 582.836 389.856 583.721 390.502 584.843C391.168 585.964 391.5 587.191 391.5 588.522C391.5 589.853 391.168 591.08 390.502 592.202C389.856 593.324 388.962 594.217 387.821 594.883C386.68 595.53 385.425 595.853 384.056 595.853ZM384.056 593.086C384.873 593.086 385.615 592.886 386.28 592.487C386.946 592.088 387.469 591.546 387.849 590.861C388.23 590.158 388.42 589.387 388.42 588.551C388.42 587.695 388.23 586.915 387.849 586.212C387.469 585.508 386.946 584.957 386.28 584.557C385.615 584.158 384.883 583.958 384.084 583.958C383.266 583.958 382.525 584.158 381.859 584.557C381.194 584.957 380.671 585.508 380.29 586.212C379.91 586.915 379.72 587.695 379.72 588.551C379.72 589.406 379.91 590.186 380.29 590.89C380.671 591.574 381.184 592.116 381.831 592.516C382.496 592.896 383.238 593.086 384.056 593.086ZM402.949 581.534V584.186H402.036C400.857 584.186 399.878 584.529 399.098 585.213C398.319 585.879 397.929 586.83 397.929 588.066V595.539H394.934V581.534H397.729V583.359C398.224 582.732 398.823 582.247 399.526 581.905C400.249 581.562 401.01 581.391 401.808 581.391C402.227 581.391 402.607 581.439 402.949 581.534ZM418.58 581.534L411.763 597.136C411.174 598.468 410.47 599.437 409.652 600.046C408.835 600.673 407.827 600.987 406.629 600.987C405.849 600.987 405.079 600.892 404.318 600.702V598.163C405.193 598.239 405.745 598.277 405.973 598.277C406.676 598.277 407.275 598.125 407.77 597.821C408.264 597.536 408.683 597.003 409.025 596.224L409.595 594.912L404.005 581.534H407.228L411.25 591.717L415.386 581.534H418.58ZM435.241 595.853C433.701 595.853 432.313 595.492 431.077 594.769C429.841 594.046 428.861 593.048 428.139 591.774L430.278 590.148C430.906 591.061 431.609 591.793 432.389 592.344C433.188 592.877 434.129 593.143 435.213 593.143C436.183 593.143 436.962 592.905 437.552 592.43C438.16 591.955 438.465 591.318 438.465 590.519C438.465 589.853 438.246 589.33 437.809 588.95C437.39 588.57 436.687 588.151 435.698 587.695L433.616 586.725C432.246 586.098 431.172 585.384 430.392 584.586C429.613 583.787 429.223 582.76 429.223 581.505C429.223 580.497 429.489 579.604 430.021 578.824C430.554 578.044 431.267 577.445 432.161 577.027C433.074 576.609 434.072 576.399 435.156 576.399C436.487 576.399 437.685 576.713 438.75 577.341C439.815 577.949 440.642 578.757 441.231 579.765L439.121 581.391C438.626 580.65 438.037 580.089 437.352 579.708C436.687 579.309 435.954 579.109 435.156 579.109C434.357 579.109 433.682 579.309 433.131 579.708C432.579 580.089 432.303 580.65 432.303 581.391C432.303 581.848 432.408 582.228 432.617 582.532C432.826 582.836 433.102 583.093 433.444 583.302C433.787 583.492 434.281 583.749 434.928 584.072L437.038 585.042C438.56 585.746 439.691 586.506 440.433 587.324C441.174 588.142 441.545 589.169 441.545 590.405C441.545 591.489 441.269 592.449 440.718 593.286C440.186 594.103 439.434 594.74 438.465 595.197C437.514 595.634 436.439 595.853 435.241 595.853ZM457.821 589.52H447.381C447.571 590.661 448.075 591.565 448.893 592.23C449.73 592.877 450.747 593.2 451.945 593.2C453.409 593.2 454.769 592.649 456.024 591.546L457.45 593.599C455.853 595.102 453.989 595.853 451.859 595.853C450.433 595.853 449.15 595.539 448.009 594.912C446.868 594.265 445.964 593.39 445.299 592.287C444.652 591.165 444.329 589.92 444.329 588.551C444.329 587.201 444.643 585.964 445.27 584.843C445.917 583.721 446.792 582.836 447.894 582.19C449.016 581.543 450.243 581.22 451.574 581.22C452.81 581.22 453.913 581.505 454.883 582.076C455.872 582.627 456.642 583.388 457.193 584.358C457.764 585.327 458.049 586.421 458.049 587.638C458.049 588.227 457.973 588.855 457.821 589.52ZM451.46 583.759C450.471 583.759 449.606 584.072 448.864 584.7C448.142 585.308 447.666 586.136 447.438 587.182H455.054C455.035 586.117 454.674 585.28 453.97 584.671C453.286 584.063 452.449 583.759 451.46 583.759ZM469.496 581.534V584.186H468.583C467.404 584.186 466.425 584.529 465.645 585.213C464.866 585.879 464.476 586.83 464.476 588.066V595.539H461.481V581.534H464.276V583.359C464.771 582.732 465.37 582.247 466.073 581.905C466.796 581.562 467.556 581.391 468.355 581.391C468.773 581.391 469.154 581.439 469.496 581.534ZM485.127 581.534L478.367 595.853H477.34L470.551 581.534H473.746L477.854 590.804L481.933 581.534H485.127ZM487.832 581.534H490.827V595.539H487.832V581.534ZM489.344 578.282C488.773 578.282 488.289 578.092 487.889 577.712C487.49 577.331 487.29 576.865 487.29 576.314C487.29 575.762 487.49 575.296 487.889 574.916C488.289 574.517 488.773 574.317 489.344 574.317C489.895 574.317 490.371 574.517 490.77 574.916C491.169 575.296 491.369 575.762 491.369 576.314C491.369 576.865 491.169 577.331 490.77 577.712C490.371 578.092 489.895 578.282 489.344 578.282ZM501.69 595.853C500.321 595.853 499.066 595.53 497.925 594.883C496.803 594.236 495.909 593.352 495.244 592.23C494.597 591.108 494.274 589.872 494.274 588.522C494.274 587.172 494.597 585.945 495.244 584.843C495.909 583.721 496.813 582.836 497.954 582.19C499.094 581.543 500.34 581.22 501.69 581.22C502.983 581.22 504.134 581.515 505.142 582.104C506.168 582.675 506.986 583.464 507.595 584.472L505.484 586.126C504.476 584.7 503.221 583.987 501.719 583.987C500.882 583.987 500.131 584.186 499.465 584.586C498.8 584.985 498.277 585.537 497.896 586.24C497.516 586.925 497.326 587.685 497.326 588.522C497.326 589.378 497.516 590.158 497.896 590.861C498.277 591.546 498.8 592.088 499.465 592.487C500.131 592.886 500.882 593.086 501.719 593.086C503.202 593.086 504.457 592.382 505.484 590.975L507.595 592.601C506.967 593.609 506.14 594.408 505.113 594.997C504.105 595.568 502.964 595.853 501.69 595.853ZM523.226 589.52H512.786C512.976 590.661 513.48 591.565 514.298 592.23C515.134 592.877 516.152 593.2 517.35 593.2C518.814 593.2 520.174 592.649 521.429 591.546L522.855 593.599C521.257 595.102 519.394 595.853 517.264 595.853C515.838 595.853 514.554 595.539 513.413 594.912C512.272 594.265 511.369 593.39 510.704 592.287C510.057 591.165 509.734 589.92 509.734 588.551C509.734 587.201 510.048 585.964 510.675 584.843C511.322 583.721 512.196 582.836 513.299 582.19C514.421 581.543 515.648 581.22 516.979 581.22C518.215 581.22 519.318 581.505 520.288 582.076C521.276 582.627 522.047 583.388 522.598 584.358C523.169 585.327 523.454 586.421 523.454 587.638C523.454 588.227 523.378 588.855 523.226 589.52ZM516.865 583.759C515.876 583.759 515.011 584.072 514.269 584.7C513.546 585.308 513.071 586.136 512.843 587.182H520.459C520.44 586.117 520.078 585.28 519.375 584.671C518.69 584.063 517.854 583.759 516.865 583.759ZM531.221 595.853C530.023 595.853 528.939 595.606 527.97 595.111C527 594.617 526.201 593.961 525.574 593.143L527.285 591.26C527.893 591.907 528.511 592.401 529.139 592.744C529.786 593.086 530.48 593.257 531.221 593.257C531.868 593.257 532.4 593.124 532.819 592.858C533.256 592.592 533.475 592.202 533.475 591.688C533.475 591.27 533.313 590.947 532.99 590.718C532.686 590.49 532.191 590.234 531.507 589.948L530.08 589.349C528.844 588.836 527.922 588.275 527.313 587.666C526.724 587.058 526.429 586.259 526.429 585.27C526.429 584.015 526.895 583.027 527.827 582.304C528.759 581.581 529.938 581.22 531.364 581.22C533.38 581.22 534.996 581.943 536.213 583.388L534.587 585.242C534.15 584.785 533.646 584.434 533.075 584.186C532.505 583.939 531.915 583.816 531.307 583.816C530.717 583.816 530.251 583.93 529.909 584.158C529.567 584.386 529.396 584.719 529.396 585.156C529.396 585.518 529.529 585.812 529.795 586.041C530.08 586.269 530.565 586.525 531.25 586.811L532.59 587.353C533.922 587.904 534.891 588.503 535.5 589.15C536.108 589.777 536.413 590.585 536.413 591.574C536.413 592.924 535.918 593.98 534.929 594.74C533.941 595.482 532.705 595.853 531.221 595.853Z" fill="#006CFC"/>
<rect x="1405" y="549" width="301.032" height="74.0321" rx="37.016" fill="#006CFC" fill-opacity="0.08"/>
<path d="M1435.14 595.329C1433.33 595.329 1431.67 594.902 1430.15 594.046C1428.65 593.19 1427.45 592.021 1426.55 590.537C1425.68 589.054 1425.24 587.409 1425.24 585.603C1425.24 583.796 1425.68 582.151 1426.55 580.668C1427.45 579.185 1428.65 578.015 1430.15 577.16C1431.67 576.304 1433.33 575.876 1435.14 575.876C1436.87 575.876 1438.44 576.266 1439.85 577.045C1441.27 577.825 1442.39 578.881 1443.21 580.212L1440.93 581.895C1440.26 580.849 1439.45 580.05 1438.48 579.499C1437.51 578.928 1436.4 578.643 1435.17 578.643C1433.89 578.643 1432.73 578.947 1431.69 579.556C1430.66 580.145 1429.85 580.972 1429.26 582.037C1428.67 583.102 1428.38 584.291 1428.38 585.603C1428.38 586.915 1428.67 588.103 1429.26 589.168C1429.85 590.233 1430.66 591.07 1431.69 591.678C1432.73 592.268 1433.89 592.563 1435.17 592.563C1436.4 592.563 1437.51 592.287 1438.48 591.735C1439.45 591.165 1440.26 590.357 1440.93 589.311L1443.21 590.994C1442.41 592.325 1441.3 593.38 1439.88 594.16C1438.47 594.94 1436.89 595.329 1435.14 595.329ZM1452.85 595.329C1451.5 595.329 1450.26 595.006 1449.12 594.36C1448 593.694 1447.1 592.8 1446.44 591.678C1445.79 590.556 1445.47 589.33 1445.47 587.999C1445.47 586.649 1445.79 585.422 1446.44 584.319C1447.1 583.197 1448 582.313 1449.12 581.666C1450.26 581.02 1451.5 580.697 1452.85 580.697C1454.22 580.697 1455.48 581.02 1456.62 581.666C1457.76 582.313 1458.65 583.197 1459.3 584.319C1459.97 585.441 1460.3 586.668 1460.3 587.999C1460.3 589.33 1459.97 590.556 1459.3 591.678C1458.65 592.8 1457.76 593.694 1456.62 594.36C1455.48 595.006 1454.22 595.329 1452.85 595.329ZM1452.85 592.563C1453.67 592.563 1454.41 592.363 1455.08 591.964C1455.74 591.564 1456.27 591.022 1456.65 590.338C1457.03 589.634 1457.22 588.864 1457.22 588.027C1457.22 587.172 1457.03 586.392 1456.65 585.688C1456.27 584.985 1455.74 584.433 1455.08 584.034C1454.41 583.635 1453.68 583.435 1452.88 583.435C1452.07 583.435 1451.32 583.635 1450.66 584.034C1449.99 584.433 1449.47 584.985 1449.09 585.688C1448.71 586.392 1448.52 587.172 1448.52 588.027C1448.52 588.883 1448.71 589.663 1449.09 590.366C1449.47 591.051 1449.98 591.593 1450.63 591.992C1451.3 592.372 1452.04 592.563 1452.85 592.563ZM1470.72 580.697C1472.36 580.697 1473.64 581.21 1474.57 582.237C1475.5 583.245 1475.97 584.585 1475.97 586.259V595.016H1472.97V586.658C1472.97 585.688 1472.69 584.909 1472.12 584.319C1471.57 583.711 1470.84 583.406 1469.92 583.406C1468.99 583.406 1468.22 583.711 1467.61 584.319C1467.02 584.928 1466.73 585.707 1466.73 586.658V595.016H1463.73V581.01H1466.53V582.379C1467.59 581.258 1468.99 580.697 1470.72 580.697ZM1484.48 595.329C1483.28 595.329 1482.19 595.082 1481.22 594.588C1480.25 594.093 1479.46 593.437 1478.83 592.62L1480.54 590.737C1481.15 591.384 1481.77 591.878 1482.39 592.22C1483.04 592.563 1483.73 592.734 1484.48 592.734C1485.12 592.734 1485.65 592.601 1486.07 592.334C1486.51 592.068 1486.73 591.678 1486.73 591.165C1486.73 590.747 1486.57 590.423 1486.24 590.195C1485.94 589.967 1485.45 589.71 1484.76 589.425L1483.33 588.826C1482.1 588.312 1481.18 587.751 1480.57 587.143C1479.98 586.534 1479.68 585.736 1479.68 584.747C1479.68 583.492 1480.15 582.503 1481.08 581.78C1482.01 581.058 1483.19 580.697 1484.62 580.697C1486.63 580.697 1488.25 581.419 1489.47 582.864L1487.84 584.718C1487.4 584.262 1486.9 583.91 1486.33 583.663C1485.76 583.416 1485.17 583.292 1484.56 583.292C1483.97 583.292 1483.51 583.406 1483.16 583.635C1482.82 583.863 1482.65 584.195 1482.65 584.633C1482.65 584.994 1482.78 585.289 1483.05 585.517C1483.33 585.745 1483.82 586.002 1484.5 586.287L1485.84 586.829C1487.18 587.381 1488.15 587.98 1488.75 588.626C1489.36 589.254 1489.67 590.062 1489.67 591.051C1489.67 592.401 1489.17 593.456 1488.18 594.217C1487.19 594.959 1485.96 595.329 1484.48 595.329ZM1499.11 595.329C1497.95 595.329 1496.9 595.082 1495.97 594.588C1495.04 594.074 1494.31 593.352 1493.78 592.42C1493.24 591.469 1492.98 590.376 1492.98 589.14V581.01H1495.94V589.368C1495.94 590.338 1496.24 591.117 1496.83 591.707C1497.44 592.277 1498.2 592.563 1499.11 592.563C1499.99 592.563 1500.72 592.277 1501.31 591.707C1501.9 591.117 1502.19 590.338 1502.19 589.368V581.01H1505.19V589.14C1505.19 590.376 1504.92 591.469 1504.39 592.42C1503.85 593.352 1503.12 594.074 1502.19 594.588C1501.28 595.082 1500.25 595.329 1499.11 595.329ZM1509.39 573.623H1512.38V595.016H1509.39V573.623ZM1525.04 592.477V595.016C1524.11 595.225 1523.28 595.329 1522.56 595.329C1520.94 595.329 1519.68 594.93 1518.77 594.131C1517.85 593.314 1517.4 592.087 1517.4 590.452V583.606H1515.12V581.01H1517.4V577.331H1520.42V581.01H1524.59V583.606H1520.42V590.195C1520.42 591.089 1520.65 591.716 1521.11 592.078C1521.58 592.439 1522.28 592.62 1523.19 592.62C1523.61 592.62 1524.23 592.572 1525.04 592.477ZM1528.08 581.01H1531.07V595.016H1528.08V581.01ZM1529.59 577.759C1529.02 577.759 1528.54 577.568 1528.14 577.188C1527.74 576.808 1527.54 576.342 1527.54 575.79C1527.54 575.239 1527.74 574.773 1528.14 574.393C1528.54 573.993 1529.02 573.794 1529.59 573.794C1530.14 573.794 1530.62 573.993 1531.02 574.393C1531.42 574.773 1531.62 575.239 1531.62 575.79C1531.62 576.342 1531.42 576.808 1531.02 577.188C1530.62 577.568 1530.14 577.759 1529.59 577.759ZM1542.39 580.697C1544.03 580.697 1545.31 581.21 1546.24 582.237C1547.18 583.245 1547.64 584.585 1547.64 586.259V595.016H1544.65V586.658C1544.65 585.688 1544.36 584.909 1543.79 584.319C1543.24 583.711 1542.51 583.406 1541.59 583.406C1540.66 583.406 1539.89 583.711 1539.28 584.319C1538.69 584.928 1538.4 585.707 1538.4 586.658V595.016H1535.4V581.01H1538.2V582.379C1539.27 581.258 1540.66 580.697 1542.39 580.697ZM1565.56 581.01V593.561C1565.56 595.767 1564.92 597.469 1563.65 598.667C1562.38 599.865 1560.67 600.464 1558.54 600.464C1557.16 600.464 1555.89 600.217 1554.75 599.722C1553.63 599.228 1552.65 598.591 1551.81 597.811L1553.47 595.729C1554.25 596.356 1555.02 596.841 1555.78 597.183C1556.56 597.545 1557.42 597.725 1558.37 597.725C1559.65 597.725 1560.66 597.383 1561.42 596.699C1562.19 596.033 1562.57 595.044 1562.57 593.732V592.734C1562.03 593.38 1561.35 593.875 1560.51 594.217C1559.69 594.559 1558.8 594.73 1557.83 594.73C1556.54 594.73 1555.37 594.436 1554.32 593.846C1553.3 593.238 1552.49 592.401 1551.9 591.336C1551.31 590.271 1551.01 589.064 1551.01 587.713C1551.01 586.363 1551.31 585.156 1551.9 584.091C1552.49 583.026 1553.3 582.199 1554.35 581.609C1555.4 581.001 1556.56 580.697 1557.83 580.697C1558.9 580.697 1559.86 580.906 1560.71 581.324C1561.59 581.723 1562.28 582.284 1562.79 583.007V581.01H1565.56ZM1558.37 592.106C1559.53 592.106 1560.52 591.726 1561.34 590.965C1562.18 590.205 1562.59 589.111 1562.59 587.685C1562.59 586.259 1562.18 585.184 1561.34 584.462C1560.52 583.739 1559.53 583.378 1558.37 583.378C1557.16 583.378 1556.14 583.777 1555.32 584.576C1554.5 585.374 1554.09 586.42 1554.09 587.713C1554.09 589.026 1554.5 590.09 1555.32 590.908C1556.14 591.707 1557.16 592.106 1558.37 592.106ZM1583.85 595.329C1582.31 595.329 1580.92 594.968 1579.68 594.245C1578.45 593.523 1577.47 592.525 1576.74 591.25L1578.88 589.625C1579.51 590.537 1580.21 591.269 1580.99 591.821C1581.79 592.353 1582.73 592.62 1583.82 592.62C1584.79 592.62 1585.57 592.382 1586.16 591.907C1586.77 591.431 1587.07 590.794 1587.07 589.995C1587.07 589.33 1586.85 588.807 1586.41 588.427C1586 588.046 1585.29 587.628 1584.3 587.172L1582.22 586.202C1580.85 585.574 1579.78 584.861 1579 584.062C1578.22 583.264 1577.83 582.237 1577.83 580.982C1577.83 579.974 1578.09 579.08 1578.63 578.301C1579.16 577.521 1579.87 576.922 1580.77 576.504C1581.68 576.085 1582.68 575.876 1583.76 575.876C1585.09 575.876 1586.29 576.19 1587.35 576.817C1588.42 577.426 1589.25 578.234 1589.84 579.242L1587.73 580.868C1587.23 580.126 1586.64 579.565 1585.96 579.185C1585.29 578.785 1584.56 578.586 1583.76 578.586C1582.96 578.586 1582.29 578.785 1581.74 579.185C1581.18 579.565 1580.91 580.126 1580.91 580.868C1580.91 581.324 1581.01 581.704 1581.22 582.009C1581.43 582.313 1581.71 582.57 1582.05 582.779C1582.39 582.969 1582.89 583.226 1583.53 583.549L1585.64 584.519C1587.16 585.222 1588.3 585.983 1589.04 586.801C1589.78 587.618 1590.15 588.645 1590.15 589.881C1590.15 590.965 1589.87 591.926 1589.32 592.762C1588.79 593.58 1588.04 594.217 1587.07 594.673C1586.12 595.111 1585.04 595.329 1583.85 595.329ZM1606.43 588.997H1595.99C1596.18 590.138 1596.68 591.041 1597.5 591.707C1598.33 592.353 1599.35 592.677 1600.55 592.677C1602.01 592.677 1603.37 592.125 1604.63 591.022L1606.05 593.076C1604.46 594.578 1602.59 595.329 1600.46 595.329C1599.04 595.329 1597.75 595.016 1596.61 594.388C1595.47 593.742 1594.57 592.867 1593.9 591.764C1593.26 590.642 1592.93 589.396 1592.93 588.027C1592.93 586.677 1593.25 585.441 1593.88 584.319C1594.52 583.197 1595.4 582.313 1596.5 581.666C1597.62 581.02 1598.85 580.697 1600.18 580.697C1601.41 580.697 1602.52 580.982 1603.49 581.552C1604.48 582.104 1605.25 582.864 1605.8 583.834C1606.37 584.804 1606.65 585.897 1606.65 587.114C1606.65 587.704 1606.58 588.331 1606.43 588.997ZM1600.06 583.235C1599.08 583.235 1598.21 583.549 1597.47 584.176C1596.75 584.785 1596.27 585.612 1596.04 586.658H1603.66C1603.64 585.593 1603.28 584.756 1602.57 584.148C1601.89 583.539 1601.05 583.235 1600.06 583.235ZM1618.1 581.01V583.663H1617.19C1616.01 583.663 1615.03 584.005 1614.25 584.69C1613.47 585.355 1613.08 586.306 1613.08 587.542V595.016H1610.09V581.01H1612.88V582.836C1613.38 582.208 1613.97 581.723 1614.68 581.381C1615.4 581.039 1616.16 580.868 1616.96 580.868C1617.38 580.868 1617.76 580.915 1618.1 581.01ZM1633.73 581.01L1626.97 595.329H1625.95L1619.16 581.01H1622.35L1626.46 590.281L1630.54 581.01H1633.73ZM1636.44 581.01H1639.43V595.016H1636.44V581.01ZM1637.95 577.759C1637.38 577.759 1636.89 577.568 1636.49 577.188C1636.09 576.808 1635.9 576.342 1635.9 575.79C1635.9 575.239 1636.09 574.773 1636.49 574.393C1636.89 573.993 1637.38 573.794 1637.95 573.794C1638.5 573.794 1638.98 573.993 1639.37 574.393C1639.77 574.773 1639.97 575.239 1639.97 575.79C1639.97 576.342 1639.77 576.808 1639.37 577.188C1638.98 577.568 1638.5 577.759 1637.95 577.759ZM1650.3 595.329C1648.93 595.329 1647.67 595.006 1646.53 594.36C1645.41 593.713 1644.51 592.829 1643.85 591.707C1643.2 590.585 1642.88 589.349 1642.88 587.999C1642.88 586.649 1643.2 585.422 1643.85 584.319C1644.51 583.197 1645.42 582.313 1646.56 581.666C1647.7 581.02 1648.94 580.697 1650.3 580.697C1651.59 580.697 1652.74 580.991 1653.75 581.581C1654.77 582.151 1655.59 582.94 1656.2 583.948L1654.09 585.603C1653.08 584.176 1651.83 583.463 1650.32 583.463C1649.49 583.463 1648.74 583.663 1648.07 584.062C1647.4 584.462 1646.88 585.013 1646.5 585.717C1646.12 586.401 1645.93 587.162 1645.93 587.999C1645.93 588.854 1646.12 589.634 1646.5 590.338C1646.88 591.022 1647.4 591.564 1648.07 591.964C1648.74 592.363 1649.49 592.563 1650.32 592.563C1651.81 592.563 1653.06 591.859 1654.09 590.452L1656.2 592.078C1655.57 593.085 1654.74 593.884 1653.72 594.474C1652.71 595.044 1651.57 595.329 1650.3 595.329ZM1671.83 588.997H1661.39C1661.58 590.138 1662.08 591.041 1662.9 591.707C1663.74 592.353 1664.76 592.677 1665.95 592.677C1667.42 592.677 1668.78 592.125 1670.03 591.022L1671.46 593.076C1669.86 594.578 1668 595.329 1665.87 595.329C1664.44 595.329 1663.16 595.016 1662.02 594.388C1660.88 593.742 1659.97 592.867 1659.31 591.764C1658.66 590.642 1658.34 589.396 1658.34 588.027C1658.34 586.677 1658.65 585.441 1659.28 584.319C1659.93 583.197 1660.8 582.313 1661.9 581.666C1663.03 581.02 1664.25 580.697 1665.58 580.697C1666.82 580.697 1667.92 580.982 1668.89 581.552C1669.88 582.104 1670.65 582.864 1671.2 583.834C1671.77 584.804 1672.06 585.897 1672.06 587.114C1672.06 587.704 1671.98 588.331 1671.83 588.997ZM1665.47 583.235C1664.48 583.235 1663.62 583.549 1662.87 584.176C1662.15 584.785 1661.68 585.612 1661.45 586.658H1669.06C1669.04 585.593 1668.68 584.756 1667.98 584.148C1667.3 583.539 1666.46 583.235 1665.47 583.235ZM1679.83 595.329C1678.63 595.329 1677.54 595.082 1676.57 594.588C1675.6 594.093 1674.81 593.437 1674.18 592.62L1675.89 590.737C1676.5 591.384 1677.12 591.878 1677.74 592.22C1678.39 592.563 1679.08 592.734 1679.83 592.734C1680.47 592.734 1681.01 592.601 1681.42 592.334C1681.86 592.068 1682.08 591.678 1682.08 591.165C1682.08 590.747 1681.92 590.423 1681.59 590.195C1681.29 589.967 1680.8 589.71 1680.11 589.425L1678.69 588.826C1677.45 588.312 1676.53 587.751 1675.92 587.143C1675.33 586.534 1675.03 585.736 1675.03 584.747C1675.03 583.492 1675.5 582.503 1676.43 581.78C1677.36 581.058 1678.54 580.697 1679.97 580.697C1681.98 580.697 1683.6 581.419 1684.82 582.864L1683.19 584.718C1682.75 584.262 1682.25 583.91 1681.68 583.663C1681.11 583.416 1680.52 583.292 1679.91 583.292C1679.32 583.292 1678.86 583.406 1678.51 583.635C1678.17 583.863 1678 584.195 1678 584.633C1678 584.994 1678.13 585.289 1678.4 585.517C1678.69 585.745 1679.17 586.002 1679.85 586.287L1681.2 586.829C1682.53 587.381 1683.5 587.98 1684.1 588.626C1684.71 589.254 1685.02 590.062 1685.02 591.051C1685.02 592.401 1684.52 593.456 1683.53 594.217C1682.55 594.959 1681.31 595.329 1679.83 595.329Z" fill="#006CFC"/>
<rect x="768" y="135" width="431.032" height="74.0321" rx="37.016" fill="#006CFC" fill-opacity="0.08"/>
<path d="M789.383 162.19H796.257C797.512 162.19 798.625 162.437 799.595 162.931C800.565 163.407 801.316 164.082 801.848 164.957C802.381 165.831 802.647 166.83 802.647 167.952C802.647 169.074 802.381 170.072 801.848 170.947C801.316 171.821 800.565 172.506 799.595 173C798.625 173.495 797.512 173.742 796.257 173.742H792.407V181.016H789.383V162.19ZM796.2 171.061C797.265 171.061 798.083 170.785 798.653 170.234C799.243 169.663 799.538 168.912 799.538 167.98C799.538 167.048 799.243 166.297 798.653 165.727C798.083 165.156 797.265 164.871 796.2 164.871H792.407V171.061H796.2ZM811.927 181.329C810.577 181.329 809.331 181.006 808.19 180.36C807.068 179.694 806.174 178.8 805.509 177.678C804.862 176.556 804.539 175.33 804.539 173.999C804.539 172.649 804.862 171.422 805.509 170.319C806.174 169.197 807.068 168.313 808.19 167.666C809.331 167.02 810.577 166.697 811.927 166.697C813.296 166.697 814.551 167.02 815.692 167.666C816.833 168.313 817.727 169.197 818.373 170.319C819.039 171.441 819.371 172.668 819.371 173.999C819.371 175.33 819.039 176.556 818.373 177.678C817.727 178.8 816.833 179.694 815.692 180.36C814.551 181.006 813.296 181.329 811.927 181.329ZM811.927 178.563C812.744 178.563 813.486 178.363 814.152 177.964C814.817 177.564 815.34 177.022 815.72 176.338C816.101 175.634 816.291 174.864 816.291 174.027C816.291 173.172 816.101 172.392 815.72 171.688C815.34 170.985 814.817 170.433 814.152 170.034C813.486 169.635 812.754 169.435 811.955 169.435C811.138 169.435 810.396 169.635 809.73 170.034C809.065 170.433 808.542 170.985 808.162 171.688C807.781 172.392 807.591 173.172 807.591 174.027C807.591 174.883 807.781 175.663 808.162 176.366C808.542 177.051 809.055 177.593 809.702 177.992C810.367 178.372 811.109 178.563 811.927 178.563ZM827.141 181.329C825.943 181.329 824.859 181.082 823.889 180.588C822.919 180.093 822.121 179.437 821.493 178.62L823.204 176.737C823.813 177.384 824.431 177.878 825.058 178.22C825.705 178.563 826.399 178.734 827.141 178.734C827.787 178.734 828.32 178.601 828.738 178.334C829.175 178.068 829.394 177.678 829.394 177.165C829.394 176.747 829.233 176.423 828.909 176.195C828.605 175.967 828.111 175.71 827.426 175.425L826 174.826C824.764 174.312 823.841 173.751 823.233 173.143C822.643 172.534 822.349 171.736 822.349 170.747C822.349 169.492 822.815 168.503 823.746 167.78C824.678 167.058 825.857 166.697 827.283 166.697C829.299 166.697 830.915 167.419 832.132 168.864L830.507 170.718C830.069 170.262 829.565 169.91 828.995 169.663C828.424 169.416 827.835 169.292 827.226 169.292C826.637 169.292 826.171 169.406 825.829 169.635C825.486 169.863 825.315 170.195 825.315 170.633C825.315 170.994 825.448 171.289 825.715 171.517C826 171.745 826.485 172.002 827.169 172.287L828.51 172.829C829.841 173.381 830.811 173.98 831.419 174.626C832.028 175.254 832.332 176.062 832.332 177.051C832.332 178.401 831.838 179.456 830.849 180.217C829.86 180.959 828.624 181.329 827.141 181.329ZM844.115 178.477V181.016C843.183 181.225 842.356 181.329 841.633 181.329C840.017 181.329 838.752 180.93 837.839 180.131C836.927 179.314 836.47 178.087 836.47 176.452V169.606H834.188V167.01H836.47V163.331H839.494V167.01H843.658V169.606H839.494V176.195C839.494 177.089 839.722 177.716 840.178 178.078C840.654 178.439 841.348 178.62 842.261 178.62C842.679 178.62 843.297 178.572 844.115 178.477ZM855.345 162.19H858.369V181.016H855.345V162.19ZM878.609 166.697C880.225 166.697 881.49 167.21 882.402 168.237C883.334 169.245 883.8 170.585 883.8 172.259V181.016H880.776V172.687C880.776 171.698 880.51 170.909 879.978 170.319C879.464 169.73 878.761 169.435 877.867 169.435C876.954 169.435 876.213 169.73 875.642 170.319C875.072 170.909 874.786 171.65 874.786 172.544V181.016H871.791V172.687C871.791 171.717 871.525 170.937 870.993 170.348C870.46 169.739 869.747 169.435 868.853 169.435C867.941 169.435 867.199 169.739 866.629 170.348C866.058 170.937 865.773 171.717 865.773 172.687V181.016H862.778V167.01H865.573V168.322C866.068 167.809 866.657 167.41 867.342 167.124C868.026 166.839 868.787 166.697 869.624 166.697C870.593 166.697 871.44 166.896 872.162 167.296C872.885 167.676 873.455 168.208 873.874 168.893C874.387 168.227 875.053 167.695 875.87 167.296C876.707 166.896 877.62 166.697 878.609 166.697ZM895.632 166.697C896.944 166.697 898.123 167.02 899.169 167.666C900.215 168.294 901.033 169.169 901.622 170.291C902.212 171.394 902.506 172.63 902.506 173.999C902.506 175.387 902.212 176.642 901.622 177.764C901.033 178.867 900.215 179.742 899.169 180.388C898.123 181.016 896.944 181.329 895.632 181.329C894.681 181.329 893.797 181.158 892.979 180.816C892.181 180.455 891.506 179.951 890.954 179.304V186.15H887.959V167.01H890.755V168.978C891.268 168.256 891.953 167.695 892.808 167.296C893.664 166.896 894.605 166.697 895.632 166.697ZM895.147 178.591C895.946 178.591 896.669 178.401 897.315 178.021C897.962 177.621 898.475 177.079 898.855 176.395C899.236 175.71 899.426 174.921 899.426 174.027C899.426 173.133 899.236 172.344 898.855 171.66C898.494 170.956 897.981 170.414 897.315 170.034C896.669 169.635 895.946 169.435 895.147 169.435C894.406 169.435 893.712 169.606 893.065 169.948C892.437 170.272 891.924 170.775 891.525 171.46C891.125 172.145 890.926 172.991 890.926 173.999C890.926 175.007 891.125 175.862 891.525 176.566C891.924 177.25 892.437 177.764 893.065 178.106C893.712 178.429 894.406 178.591 895.147 178.591ZM905.954 159.623H908.949V181.016H905.954V159.623ZM925.887 174.997H915.448C915.638 176.138 916.142 177.041 916.959 177.707C917.796 178.353 918.814 178.677 920.012 178.677C921.476 178.677 922.835 178.125 924.09 177.022L925.517 179.076C923.919 180.578 922.056 181.329 919.926 181.329C918.5 181.329 917.216 181.016 916.075 180.388C914.934 179.742 914.031 178.867 913.365 177.764C912.719 176.642 912.396 175.396 912.396 174.027C912.396 172.677 912.709 171.441 913.337 170.319C913.983 169.197 914.858 168.313 915.961 167.666C917.083 167.02 918.31 166.697 919.641 166.697C920.877 166.697 921.98 166.982 922.95 167.552C923.938 168.104 924.708 168.864 925.26 169.834C925.83 170.804 926.116 171.897 926.116 173.114C926.116 173.704 926.04 174.331 925.887 174.997ZM919.527 169.235C918.538 169.235 917.673 169.549 916.931 170.176C916.208 170.785 915.733 171.612 915.505 172.658H923.121C923.102 171.593 922.74 170.756 922.037 170.148C921.352 169.539 920.515 169.235 919.527 169.235ZM945.378 166.697C946.995 166.697 948.259 167.21 949.172 168.237C950.104 169.245 950.57 170.585 950.57 172.259V181.016H947.546V172.687C947.546 171.698 947.28 170.909 946.747 170.319C946.234 169.73 945.53 169.435 944.637 169.435C943.724 169.435 942.982 169.73 942.412 170.319C941.841 170.909 941.556 171.65 941.556 172.544V181.016H938.561V172.687C938.561 171.717 938.295 170.937 937.762 170.348C937.23 169.739 936.517 169.435 935.623 169.435C934.71 169.435 933.969 169.739 933.398 170.348C932.828 170.937 932.542 171.717 932.542 172.687V181.016H929.547V167.01H932.343V168.322C932.837 167.809 933.427 167.41 934.111 167.124C934.796 166.839 935.557 166.697 936.393 166.697C937.363 166.697 938.209 166.896 938.932 167.296C939.654 167.676 940.225 168.208 940.643 168.893C941.157 168.227 941.822 167.695 942.64 167.296C943.477 166.896 944.389 166.697 945.378 166.697ZM967.337 174.997H956.897C957.087 176.138 957.591 177.041 958.408 177.707C959.245 178.353 960.263 178.677 961.461 178.677C962.925 178.677 964.284 178.125 965.539 177.022L966.966 179.076C965.368 180.578 963.505 181.329 961.375 181.329C959.949 181.329 958.665 181.016 957.524 180.388C956.383 179.742 955.48 178.867 954.814 177.764C954.168 176.642 953.845 175.396 953.845 174.027C953.845 172.677 954.158 171.441 954.786 170.319C955.432 169.197 956.307 168.313 957.41 167.666C958.532 167.02 959.759 166.697 961.09 166.697C962.326 166.697 963.429 166.982 964.399 167.552C965.387 168.104 966.158 168.864 966.709 169.834C967.279 170.804 967.565 171.897 967.565 173.114C967.565 173.704 967.489 174.331 967.337 174.997ZM960.976 169.235C959.987 169.235 959.122 169.549 958.38 170.176C957.657 170.785 957.182 171.612 956.954 172.658H964.57C964.551 171.593 964.189 170.756 963.486 170.148C962.801 169.539 961.964 169.235 960.976 169.235ZM977.985 166.697C979.62 166.697 980.904 167.21 981.836 168.237C982.767 169.245 983.233 170.585 983.233 172.259V181.016H980.238V172.658C980.238 171.688 979.953 170.909 979.383 170.319C978.831 169.711 978.099 169.406 977.186 169.406C976.254 169.406 975.484 169.711 974.876 170.319C974.286 170.928 973.992 171.707 973.992 172.658V181.016H970.997V167.01H973.792V168.379C974.857 167.258 976.254 166.697 977.985 166.697ZM995.732 178.477V181.016C994.801 181.225 993.973 181.329 993.251 181.329C991.634 181.329 990.37 180.93 989.457 180.131C988.544 179.314 988.088 178.087 988.088 176.452V169.606H985.806V167.01H988.088V163.331H991.112V167.01H995.276V169.606H991.112V176.195C991.112 177.089 991.34 177.716 991.796 178.078C992.272 178.439 992.966 178.62 993.878 178.62C994.297 178.62 994.915 178.572 995.732 178.477ZM1004.16 166.697C1005.89 166.697 1007.28 167.2 1008.32 168.208C1009.37 169.216 1009.89 170.661 1009.89 172.544V181.016H1007.1V179.447C1006.58 180.055 1005.95 180.521 1005.19 180.844C1004.43 181.168 1003.57 181.329 1002.62 181.329C1001.15 181.329 999.976 180.959 999.082 180.217C998.188 179.475 997.742 178.496 997.742 177.279C997.742 176.062 998.207 175.092 999.139 174.37C1000.07 173.647 1001.33 173.286 1002.9 173.286H1006.87V172.373C1006.87 171.403 1006.6 170.661 1006.07 170.148C1005.56 169.635 1004.83 169.378 1003.87 169.378C1003.09 169.378 1002.4 169.549 1001.79 169.891C1001.18 170.234 1000.58 170.756 999.995 171.46L998.255 169.692C998.959 168.684 999.814 167.933 1000.82 167.438C1001.83 166.944 1002.94 166.697 1004.16 166.697ZM1003.25 179.019C1004.25 179.019 1005.11 178.705 1005.81 178.078C1006.52 177.45 1006.87 176.661 1006.87 175.71V175.453H1003.28C1002.48 175.453 1001.86 175.596 1001.42 175.881C1001 176.167 1000.79 176.594 1000.79 177.165C1000.79 177.754 1001.02 178.211 1001.48 178.534C1001.93 178.857 1002.52 179.019 1003.25 179.019ZM1022.39 178.477V181.016C1021.46 181.225 1020.63 181.329 1019.91 181.329C1018.29 181.329 1017.03 180.93 1016.11 180.131C1015.2 179.314 1014.75 178.087 1014.75 176.452V169.606H1012.46V167.01H1014.75V163.331H1017.77V167.01H1021.93V169.606H1017.77V176.195C1017.77 177.089 1018 177.716 1018.45 178.078C1018.93 178.439 1019.62 178.62 1020.54 178.62C1020.95 178.62 1021.57 178.572 1022.39 178.477ZM1025.43 167.01H1028.42V181.016H1025.43V167.01ZM1026.94 163.759C1026.37 163.759 1025.88 163.568 1025.48 163.188C1025.08 162.808 1024.88 162.342 1024.88 161.79C1024.88 161.239 1025.08 160.773 1025.48 160.393C1025.88 159.993 1026.37 159.794 1026.94 159.794C1027.49 159.794 1027.96 159.993 1028.36 160.393C1028.76 160.773 1028.96 161.239 1028.96 161.79C1028.96 162.342 1028.76 162.808 1028.36 163.188C1027.96 163.568 1027.49 163.759 1026.94 163.759ZM1039.26 181.329C1037.91 181.329 1036.66 181.006 1035.52 180.36C1034.4 179.694 1033.5 178.8 1032.84 177.678C1032.19 176.556 1031.87 175.33 1031.87 173.999C1031.87 172.649 1032.19 171.422 1032.84 170.319C1033.5 169.197 1034.4 168.313 1035.52 167.666C1036.66 167.02 1037.91 166.697 1039.26 166.697C1040.62 166.697 1041.88 167.02 1043.02 167.666C1044.16 168.313 1045.06 169.197 1045.7 170.319C1046.37 171.441 1046.7 172.668 1046.7 173.999C1046.7 175.33 1046.37 176.556 1045.7 177.678C1045.06 178.8 1044.16 179.694 1043.02 180.36C1041.88 181.006 1040.62 181.329 1039.26 181.329ZM1039.26 178.563C1040.07 178.563 1040.82 178.363 1041.48 177.964C1042.15 177.564 1042.67 177.022 1043.05 176.338C1043.43 175.634 1043.62 174.864 1043.62 174.027C1043.62 173.172 1043.43 172.392 1043.05 171.688C1042.67 170.985 1042.15 170.433 1041.48 170.034C1040.82 169.635 1040.08 169.435 1039.28 169.435C1038.47 169.435 1037.72 169.635 1037.06 170.034C1036.39 170.433 1035.87 170.985 1035.49 171.688C1035.11 172.392 1034.92 173.172 1034.92 174.027C1034.92 174.883 1035.11 175.663 1035.49 176.366C1035.87 177.051 1036.38 177.593 1037.03 177.992C1037.7 178.372 1038.44 178.563 1039.26 178.563ZM1057.12 166.697C1058.76 166.697 1060.04 167.21 1060.97 168.237C1061.91 169.245 1062.37 170.585 1062.37 172.259V181.016H1059.38V172.658C1059.38 171.688 1059.09 170.909 1058.52 170.319C1057.97 169.711 1057.24 169.406 1056.32 169.406C1055.39 169.406 1054.62 169.711 1054.01 170.319C1053.42 170.928 1053.13 171.707 1053.13 172.658V181.016H1050.13V167.01H1052.93V168.379C1053.99 167.258 1055.39 166.697 1057.12 166.697ZM1080.5 181.329C1078.96 181.329 1077.57 180.968 1076.33 180.245C1075.1 179.523 1074.12 178.525 1073.39 177.25L1075.53 175.625C1076.16 176.537 1076.86 177.269 1077.64 177.821C1078.44 178.353 1079.38 178.62 1080.47 178.62C1081.44 178.62 1082.22 178.382 1082.81 177.907C1083.42 177.431 1083.72 176.794 1083.72 175.995C1083.72 175.33 1083.5 174.807 1083.06 174.427C1082.65 174.046 1081.94 173.628 1080.95 173.172L1078.87 172.202C1077.5 171.574 1076.43 170.861 1075.65 170.062C1074.87 169.264 1074.48 168.237 1074.48 166.982C1074.48 165.974 1074.74 165.08 1075.28 164.301C1075.81 163.521 1076.52 162.922 1077.42 162.504C1078.33 162.085 1079.33 161.876 1080.41 161.876C1081.74 161.876 1082.94 162.19 1084.01 162.817C1085.07 163.426 1085.9 164.234 1086.49 165.242L1084.38 166.868C1083.88 166.126 1083.29 165.565 1082.61 165.185C1081.94 164.785 1081.21 164.586 1080.41 164.586C1079.61 164.586 1078.94 164.785 1078.39 165.185C1077.83 165.565 1077.56 166.126 1077.56 166.868C1077.56 167.324 1077.66 167.704 1077.87 168.009C1078.08 168.313 1078.36 168.57 1078.7 168.779C1079.04 168.969 1079.54 169.226 1080.18 169.549L1082.29 170.519C1083.82 171.222 1084.95 171.983 1085.69 172.801C1086.43 173.618 1086.8 174.645 1086.8 175.881C1086.8 176.965 1086.53 177.926 1085.97 178.762C1085.44 179.58 1084.69 180.217 1083.72 180.673C1082.77 181.111 1081.7 181.329 1080.5 181.329ZM1096.46 181.329C1095.3 181.329 1094.25 181.082 1093.32 180.588C1092.39 180.074 1091.66 179.352 1091.12 178.42C1090.59 177.469 1090.33 176.376 1090.33 175.14V167.01H1093.29V175.368C1093.29 176.338 1093.59 177.117 1094.18 177.707C1094.79 178.277 1095.55 178.563 1096.46 178.563C1097.33 178.563 1098.07 178.277 1098.66 177.707C1099.24 177.117 1099.54 176.338 1099.54 175.368V167.01H1102.53V175.14C1102.53 176.376 1102.27 177.469 1101.74 178.42C1101.2 179.352 1100.47 180.074 1099.54 180.588C1098.63 181.082 1097.6 181.329 1096.46 181.329ZM1114.41 166.697C1115.72 166.697 1116.9 167.02 1117.95 167.666C1118.99 168.294 1119.81 169.169 1120.4 170.291C1120.99 171.394 1121.28 172.63 1121.28 173.999C1121.28 175.387 1120.99 176.642 1120.4 177.764C1119.81 178.867 1118.99 179.742 1117.95 180.388C1116.9 181.016 1115.72 181.329 1114.41 181.329C1113.46 181.329 1112.57 181.158 1111.76 180.816C1110.96 180.455 1110.28 179.951 1109.73 179.304V186.15H1106.74V167.01H1109.53V168.978C1110.05 168.256 1110.73 167.695 1111.59 167.296C1112.44 166.896 1113.38 166.697 1114.41 166.697ZM1113.92 178.591C1114.72 178.591 1115.45 178.401 1116.09 178.021C1116.74 177.621 1117.25 177.079 1117.63 176.395C1118.01 175.71 1118.2 174.921 1118.2 174.027C1118.2 173.133 1118.01 172.344 1117.63 171.66C1117.27 170.956 1116.76 170.414 1116.09 170.034C1115.45 169.635 1114.72 169.435 1113.92 169.435C1113.18 169.435 1112.49 169.606 1111.84 169.948C1111.21 170.272 1110.7 170.775 1110.3 171.46C1109.9 172.145 1109.7 172.991 1109.7 173.999C1109.7 175.007 1109.9 175.862 1110.3 176.566C1110.7 177.25 1111.21 177.764 1111.84 178.106C1112.49 178.429 1113.18 178.591 1113.92 178.591ZM1132.4 166.697C1133.72 166.697 1134.9 167.02 1135.94 167.666C1136.99 168.294 1137.8 169.169 1138.39 170.291C1138.98 171.394 1139.28 172.63 1139.28 173.999C1139.28 175.387 1138.98 176.642 1138.39 177.764C1137.8 178.867 1136.99 179.742 1135.94 180.388C1134.9 181.016 1133.72 181.329 1132.4 181.329C1131.45 181.329 1130.57 181.158 1129.75 180.816C1128.95 180.455 1128.28 179.951 1127.73 179.304V186.15H1124.73V167.01H1127.53V168.978C1128.04 168.256 1128.72 167.695 1129.58 167.296C1130.44 166.896 1131.38 166.697 1132.4 166.697ZM1131.92 178.591C1132.72 178.591 1133.44 178.401 1134.09 178.021C1134.73 177.621 1135.25 177.079 1135.63 176.395C1136.01 175.71 1136.2 174.921 1136.2 174.027C1136.2 173.133 1136.01 172.344 1135.63 171.66C1135.27 170.956 1134.75 170.414 1134.09 170.034C1133.44 169.635 1132.72 169.435 1131.92 169.435C1131.18 169.435 1130.48 169.606 1129.84 169.948C1129.21 170.272 1128.7 170.775 1128.3 171.46C1127.9 172.145 1127.7 172.991 1127.7 173.999C1127.7 175.007 1127.9 175.862 1128.3 176.566C1128.7 177.25 1129.21 177.764 1129.84 178.106C1130.48 178.429 1131.18 178.591 1131.92 178.591ZM1149.23 181.329C1147.88 181.329 1146.63 181.006 1145.49 180.36C1144.37 179.694 1143.48 178.8 1142.81 177.678C1142.16 176.556 1141.84 175.33 1141.84 173.999C1141.84 172.649 1142.16 171.422 1142.81 170.319C1143.48 169.197 1144.37 168.313 1145.49 167.666C1146.63 167.02 1147.88 166.697 1149.23 166.697C1150.6 166.697 1151.85 167.02 1152.99 167.666C1154.14 168.313 1155.03 169.197 1155.68 170.319C1156.34 171.441 1156.67 172.668 1156.67 173.999C1156.67 175.33 1156.34 176.556 1155.68 177.678C1155.03 178.8 1154.14 179.694 1152.99 180.36C1151.85 181.006 1150.6 181.329 1149.23 181.329ZM1149.23 178.563C1150.05 178.563 1150.79 178.363 1151.45 177.964C1152.12 177.564 1152.64 177.022 1153.02 176.338C1153.4 175.634 1153.59 174.864 1153.59 174.027C1153.59 173.172 1153.4 172.392 1153.02 171.688C1152.64 170.985 1152.12 170.433 1151.45 170.034C1150.79 169.635 1150.06 169.435 1149.26 169.435C1148.44 169.435 1147.7 169.635 1147.03 170.034C1146.37 170.433 1145.84 170.985 1145.46 171.688C1145.08 172.392 1144.89 173.172 1144.89 174.027C1144.89 174.883 1145.08 175.663 1145.46 176.366C1145.84 177.051 1146.36 177.593 1147 177.992C1147.67 178.372 1148.41 178.563 1149.23 178.563ZM1168.12 167.01V169.663H1167.21C1166.03 169.663 1165.05 170.005 1164.27 170.69C1163.49 171.355 1163.1 172.306 1163.1 173.542V181.016H1160.11V167.01H1162.9V168.836C1163.4 168.208 1164 167.723 1164.7 167.381C1165.42 167.039 1166.18 166.868 1166.98 166.868C1167.4 166.868 1167.78 166.915 1168.12 167.01ZM1179.13 178.477V181.016C1178.2 181.225 1177.37 181.329 1176.65 181.329C1175.04 181.329 1173.77 180.93 1172.86 180.131C1171.95 179.314 1171.49 178.087 1171.49 176.452V169.606H1169.21V167.01H1171.49V163.331H1174.51V167.01H1178.68V169.606H1174.51V176.195C1174.51 177.089 1174.74 177.716 1175.2 178.078C1175.67 178.439 1176.37 178.62 1177.28 178.62C1177.7 178.62 1178.32 178.572 1179.13 178.477Z" fill="#006CFC"/>
<path d="M410 269.016C410 248.573 426.573 232 447.016 232H731.016C751.459 232 768.032 248.573 768.032 269.016V269.016C768.032 289.459 751.459 306.032 731.016 306.032H447.016C426.573 306.032 410 289.459 410 269.016V269.016Z" fill="#006CFC" fill-opacity="0.08"/>
<path d="M443.221 278.016L437.858 270.742H434.407V278.016H431.383V259.19H438.257C439.512 259.19 440.625 259.437 441.595 259.931C442.565 260.407 443.316 261.082 443.848 261.957C444.381 262.831 444.647 263.83 444.647 264.952C444.647 266.188 444.324 267.272 443.677 268.203C443.03 269.135 442.146 269.82 441.024 270.257L446.672 278.016H443.221ZM434.407 268.061H438.2C439.246 268.061 440.064 267.775 440.653 267.205C441.243 266.635 441.538 265.893 441.538 264.98C441.538 264.048 441.243 263.297 440.653 262.727C440.064 262.156 439.246 261.871 438.2 261.871H434.407V268.061ZM461.368 271.997H450.928C451.118 273.138 451.622 274.041 452.44 274.707C453.277 275.353 454.294 275.677 455.492 275.677C456.956 275.677 458.316 275.125 459.571 274.022L460.997 276.076C459.4 277.578 457.536 278.329 455.406 278.329C453.98 278.329 452.697 278.016 451.556 277.388C450.415 276.742 449.511 275.867 448.846 274.764C448.199 273.642 447.876 272.396 447.876 271.027C447.876 269.677 448.19 268.441 448.817 267.319C449.464 266.197 450.339 265.313 451.442 264.666C452.564 264.02 453.79 263.697 455.121 263.697C456.357 263.697 457.46 263.982 458.43 264.552C459.419 265.104 460.189 265.864 460.74 266.834C461.311 267.804 461.596 268.897 461.596 270.114C461.596 270.704 461.52 271.331 461.368 271.997ZM455.007 266.235C454.018 266.235 453.153 266.549 452.411 267.176C451.689 267.785 451.213 268.612 450.985 269.658H458.601C458.582 268.593 458.221 267.756 457.517 267.148C456.833 266.539 455.996 266.235 455.007 266.235ZM469.364 278.329C468.166 278.329 467.082 278.082 466.112 277.588C465.142 277.093 464.343 276.437 463.716 275.62L465.427 273.737C466.036 274.384 466.654 274.878 467.281 275.22C467.928 275.563 468.622 275.734 469.364 275.734C470.01 275.734 470.543 275.601 470.961 275.334C471.398 275.068 471.617 274.678 471.617 274.165C471.617 273.747 471.455 273.423 471.132 273.195C470.828 272.967 470.333 272.71 469.649 272.425L468.223 271.826C466.987 271.312 466.064 270.751 465.456 270.143C464.866 269.534 464.572 268.736 464.572 267.747C464.572 266.492 465.037 265.503 465.969 264.78C466.901 264.058 468.08 263.697 469.506 263.697C471.522 263.697 473.138 264.419 474.355 265.864L472.729 267.718C472.292 267.262 471.788 266.91 471.218 266.663C470.647 266.416 470.058 266.292 469.449 266.292C468.86 266.292 468.394 266.406 468.051 266.635C467.709 266.863 467.538 267.195 467.538 267.633C467.538 267.994 467.671 268.289 467.937 268.517C468.223 268.745 468.708 269.002 469.392 269.287L470.733 269.829C472.064 270.381 473.034 270.98 473.642 271.626C474.251 272.254 474.555 273.062 474.555 274.051C474.555 275.401 474.061 276.456 473.072 277.217C472.083 277.959 470.847 278.329 469.364 278.329ZM484.512 278.329C483.162 278.329 481.916 278.006 480.775 277.36C479.653 276.694 478.76 275.8 478.094 274.678C477.448 273.556 477.124 272.33 477.124 270.999C477.124 269.649 477.448 268.422 478.094 267.319C478.76 266.197 479.653 265.313 480.775 264.666C481.916 264.02 483.162 263.697 484.512 263.697C485.881 263.697 487.136 264.02 488.277 264.666C489.418 265.313 490.312 266.197 490.959 267.319C491.624 268.441 491.957 269.668 491.957 270.999C491.957 272.33 491.624 273.556 490.959 274.678C490.312 275.8 489.418 276.694 488.277 277.36C487.136 278.006 485.881 278.329 484.512 278.329ZM484.512 275.563C485.33 275.563 486.071 275.363 486.737 274.964C487.403 274.564 487.925 274.022 488.306 273.338C488.686 272.634 488.876 271.864 488.876 271.027C488.876 270.172 488.686 269.392 488.306 268.688C487.925 267.985 487.403 267.433 486.737 267.034C486.071 266.635 485.339 266.435 484.541 266.435C483.723 266.435 482.981 266.635 482.316 267.034C481.65 267.433 481.127 267.985 480.747 268.688C480.367 269.392 480.176 270.172 480.176 271.027C480.176 271.883 480.367 272.663 480.747 273.366C481.127 274.051 481.641 274.593 482.287 274.992C482.953 275.372 483.694 275.563 484.512 275.563ZM501.381 278.329C500.221 278.329 499.175 278.082 498.243 277.588C497.311 277.074 496.579 276.352 496.047 275.42C495.514 274.469 495.248 273.376 495.248 272.14V264.01H498.214V272.368C498.214 273.338 498.509 274.117 499.099 274.707C499.707 275.277 500.468 275.563 501.381 275.563C502.255 275.563 502.987 275.277 503.577 274.707C504.166 274.117 504.461 273.338 504.461 272.368V264.01H507.456V272.14C507.456 273.376 507.19 274.469 506.657 275.42C506.125 276.352 505.393 277.074 504.461 277.588C503.548 278.082 502.521 278.329 501.381 278.329ZM519.673 264.01V266.663H518.761C517.582 266.663 516.602 267.005 515.823 267.69C515.043 268.355 514.653 269.306 514.653 270.542V278.016H511.658V264.01H514.453V265.836C514.948 265.208 515.547 264.723 516.25 264.381C516.973 264.039 517.734 263.868 518.532 263.868C518.951 263.868 519.331 263.915 519.673 264.01ZM528.608 278.329C527.239 278.329 525.984 278.006 524.843 277.36C523.721 276.713 522.827 275.829 522.162 274.707C521.515 273.585 521.192 272.349 521.192 270.999C521.192 269.649 521.515 268.422 522.162 267.319C522.827 266.197 523.73 265.313 524.871 264.666C526.012 264.02 527.258 263.697 528.608 263.697C529.901 263.697 531.052 263.991 532.059 264.581C533.086 265.151 533.904 265.94 534.513 266.948L532.402 268.603C531.394 267.176 530.139 266.463 528.637 266.463C527.8 266.463 527.049 266.663 526.383 267.062C525.718 267.462 525.195 268.013 524.814 268.717C524.434 269.401 524.244 270.162 524.244 270.999C524.244 271.854 524.434 272.634 524.814 273.338C525.195 274.022 525.718 274.564 526.383 274.964C527.049 275.363 527.8 275.563 528.637 275.563C530.12 275.563 531.375 274.859 532.402 273.452L534.513 275.078C533.885 276.085 533.058 276.884 532.031 277.474C531.023 278.044 529.882 278.329 528.608 278.329ZM550.144 271.997H539.704C539.894 273.138 540.398 274.041 541.215 274.707C542.052 275.353 543.07 275.677 544.268 275.677C545.732 275.677 547.091 275.125 548.346 274.022L549.773 276.076C548.175 277.578 546.312 278.329 544.182 278.329C542.756 278.329 541.472 278.016 540.331 277.388C539.19 276.742 538.287 275.867 537.621 274.764C536.975 273.642 536.652 272.396 536.652 271.027C536.652 269.677 536.965 268.441 537.593 267.319C538.239 266.197 539.114 265.313 540.217 264.666C541.339 264.02 542.566 263.697 543.897 263.697C545.133 263.697 546.236 263.982 547.206 264.552C548.194 265.104 548.965 265.864 549.516 266.834C550.086 267.804 550.372 268.897 550.372 270.114C550.372 270.704 550.296 271.331 550.144 271.997ZM543.783 266.235C542.794 266.235 541.929 266.549 541.187 267.176C540.464 267.785 539.989 268.612 539.761 269.658H547.377C547.358 268.593 546.996 267.756 546.293 267.148C545.608 266.539 544.771 266.235 543.783 266.235ZM571.873 274.878H563.401L562.06 278.016H558.837L567.138 258.876H568.164L576.465 278.016H573.213L571.873 274.878ZM567.651 264.495L564.485 272.282H570.789L567.651 264.495ZM584.836 278.329C583.676 278.329 582.63 278.082 581.698 277.588C580.766 277.074 580.034 276.352 579.502 275.42C578.969 274.469 578.703 273.376 578.703 272.14V264.01H581.67V272.368C581.67 273.338 581.964 274.117 582.554 274.707C583.162 275.277 583.923 275.563 584.836 275.563C585.71 275.563 586.443 275.277 587.032 274.707C587.622 274.117 587.916 273.338 587.916 272.368V264.01H590.911V272.14C590.911 273.376 590.645 274.469 590.113 275.42C589.58 276.352 588.848 277.074 587.916 277.588C587.004 278.082 585.977 278.329 584.836 278.329ZM608.862 264.01V276.561C608.862 278.767 608.225 280.469 606.951 281.667C605.677 282.865 603.975 283.464 601.845 283.464C600.457 283.464 599.192 283.217 598.051 282.722C596.929 282.228 595.95 281.591 595.113 280.811L596.768 278.729C597.547 279.356 598.317 279.841 599.078 280.183C599.858 280.545 600.723 280.725 601.674 280.725C602.948 280.725 603.965 280.383 604.726 279.699C605.486 279.033 605.867 278.044 605.867 276.732V275.734C605.334 276.38 604.65 276.875 603.813 277.217C602.995 277.559 602.102 277.73 601.132 277.73C599.839 277.73 598.669 277.436 597.623 276.846C596.596 276.238 595.788 275.401 595.199 274.336C594.609 273.271 594.315 272.064 594.315 270.713C594.315 269.363 594.609 268.156 595.199 267.091C595.788 266.026 596.606 265.199 597.652 264.609C598.698 264.001 599.858 263.697 601.132 263.697C602.197 263.697 603.157 263.906 604.013 264.324C604.887 264.723 605.582 265.284 606.095 266.007V264.01H608.862ZM601.674 275.106C602.834 275.106 603.823 274.726 604.64 273.965C605.477 273.205 605.895 272.111 605.895 270.685C605.895 269.259 605.477 268.184 604.64 267.462C603.823 266.739 602.834 266.378 601.674 266.378C600.457 266.378 599.439 266.777 598.622 267.576C597.804 268.374 597.395 269.42 597.395 270.713C597.395 272.026 597.804 273.09 598.622 273.908C599.439 274.707 600.457 275.106 601.674 275.106ZM629.022 263.697C630.639 263.697 631.903 264.21 632.816 265.237C633.748 266.245 634.214 267.585 634.214 269.259V278.016H631.19V269.687C631.19 268.698 630.924 267.909 630.392 267.319C629.878 266.73 629.174 266.435 628.281 266.435C627.368 266.435 626.626 266.73 626.056 267.319C625.485 267.909 625.2 268.65 625.2 269.544V278.016H622.205V269.687C622.205 268.717 621.939 267.937 621.406 267.348C620.874 266.739 620.161 266.435 619.267 266.435C618.354 266.435 617.613 266.739 617.042 267.348C616.472 267.937 616.187 268.717 616.187 269.687V278.016H613.191V264.01H615.987V265.322C616.481 264.809 617.071 264.41 617.755 264.124C618.44 263.839 619.201 263.697 620.037 263.697C621.007 263.697 621.853 263.896 622.576 264.296C623.299 264.676 623.869 265.208 624.287 265.893C624.801 265.227 625.466 264.695 626.284 264.296C627.121 263.896 628.034 263.697 629.022 263.697ZM650.981 271.997H640.541C640.731 273.138 641.235 274.041 642.052 274.707C642.889 275.353 643.907 275.677 645.105 275.677C646.569 275.677 647.928 275.125 649.184 274.022L650.61 276.076C649.012 277.578 647.149 278.329 645.019 278.329C643.593 278.329 642.309 278.016 641.168 277.388C640.027 276.742 639.124 275.867 638.458 274.764C637.812 273.642 637.489 272.396 637.489 271.027C637.489 269.677 637.802 268.441 638.43 267.319C639.076 266.197 639.951 265.313 641.054 264.666C642.176 264.02 643.403 263.697 644.734 263.697C645.97 263.697 647.073 263.982 648.043 264.552C649.031 265.104 649.802 265.864 650.353 266.834C650.923 267.804 651.209 268.897 651.209 270.114C651.209 270.704 651.133 271.331 650.981 271.997ZM644.62 266.235C643.631 266.235 642.766 266.549 642.024 267.176C641.301 267.785 640.826 268.612 640.598 269.658H648.214C648.195 268.593 647.833 267.756 647.13 267.148C646.445 266.539 645.608 266.235 644.62 266.235ZM661.629 263.697C663.264 263.697 664.548 264.21 665.48 265.237C666.411 266.245 666.877 267.585 666.877 269.259V278.016H663.882V269.658C663.882 268.688 663.597 267.909 663.027 267.319C662.475 266.711 661.743 266.406 660.83 266.406C659.898 266.406 659.128 266.711 658.52 267.319C657.93 267.928 657.636 268.707 657.636 269.658V278.016H654.641V264.01H657.436V265.379C658.501 264.258 659.898 263.697 661.629 263.697ZM679.376 275.477V278.016C678.445 278.225 677.617 278.329 676.895 278.329C675.278 278.329 674.014 277.93 673.101 277.131C672.188 276.314 671.732 275.087 671.732 273.452V266.606H669.45V264.01H671.732V260.331H674.756V264.01H678.92V266.606H674.756V273.195C674.756 274.089 674.984 274.716 675.44 275.078C675.916 275.439 676.61 275.62 677.522 275.62C677.941 275.62 678.559 275.572 679.376 275.477ZM687.804 263.697C689.534 263.697 690.922 264.2 691.968 265.208C693.014 266.216 693.537 267.661 693.537 269.544V278.016H690.742V276.447C690.228 277.055 689.591 277.521 688.83 277.844C688.07 278.168 687.214 278.329 686.263 278.329C684.799 278.329 683.62 277.959 682.726 277.217C681.832 276.475 681.386 275.496 681.386 274.279C681.386 273.062 681.852 272.092 682.783 271.37C683.715 270.647 684.97 270.286 686.548 270.286H690.513V269.373C690.513 268.403 690.247 267.661 689.715 267.148C689.201 266.635 688.469 266.378 687.518 266.378C686.739 266.378 686.045 266.549 685.436 266.891C684.828 267.234 684.229 267.756 683.639 268.46L681.899 266.692C682.603 265.684 683.458 264.933 684.466 264.438C685.474 263.944 686.587 263.697 687.804 263.697ZM686.891 276.019C687.899 276.019 688.754 275.705 689.458 275.078C690.162 274.45 690.513 273.661 690.513 272.71V272.453H686.919C686.121 272.453 685.503 272.596 685.065 272.881C684.647 273.167 684.438 273.594 684.438 274.165C684.438 274.754 684.666 275.211 685.122 275.534C685.579 275.857 686.168 276.019 686.891 276.019ZM706.034 275.477V278.016C705.102 278.225 704.275 278.329 703.553 278.329C701.936 278.329 700.672 277.93 699.759 277.131C698.846 276.314 698.39 275.087 698.39 273.452V266.606H696.108V264.01H698.39V260.331H701.413V264.01H705.578V266.606H701.413V273.195C701.413 274.089 701.642 274.716 702.098 275.078C702.573 275.439 703.267 275.62 704.18 275.62C704.598 275.62 705.217 275.572 706.034 275.477ZM709.07 264.01H712.065V278.016H709.07V264.01ZM710.582 260.759C710.012 260.759 709.527 260.568 709.127 260.188C708.728 259.808 708.528 259.342 708.528 258.79C708.528 258.239 708.728 257.773 709.127 257.393C709.527 256.993 710.012 256.794 710.582 256.794C711.133 256.794 711.609 256.993 712.008 257.393C712.408 257.773 712.607 258.239 712.607 258.79C712.607 259.342 712.408 259.808 712.008 260.188C711.609 260.568 711.133 260.759 710.582 260.759ZM722.9 278.329C721.55 278.329 720.304 278.006 719.163 277.36C718.041 276.694 717.147 275.8 716.482 274.678C715.835 273.556 715.512 272.33 715.512 270.999C715.512 269.649 715.835 268.422 716.482 267.319C717.147 266.197 718.041 265.313 719.163 264.666C720.304 264.02 721.55 263.697 722.9 263.697C724.269 263.697 725.524 264.02 726.665 264.666C727.806 265.313 728.7 266.197 729.346 267.319C730.012 268.441 730.344 269.668 730.344 270.999C730.344 272.33 730.012 273.556 729.346 274.678C728.7 275.8 727.806 276.694 726.665 277.36C725.524 278.006 724.269 278.329 722.9 278.329ZM722.9 275.563C723.717 275.563 724.459 275.363 725.125 274.964C725.79 274.564 726.313 274.022 726.693 273.338C727.074 272.634 727.264 271.864 727.264 271.027C727.264 270.172 727.074 269.392 726.693 268.688C726.313 267.985 725.79 267.433 725.125 267.034C724.459 266.635 723.727 266.435 722.928 266.435C722.111 266.435 721.369 266.635 720.703 267.034C720.038 267.433 719.515 267.985 719.135 268.688C718.754 269.392 718.564 270.172 718.564 271.027C718.564 271.883 718.754 272.663 719.135 273.366C719.515 274.051 720.028 274.593 720.675 274.992C721.34 275.372 722.082 275.563 722.9 275.563ZM740.766 263.697C742.402 263.697 743.685 264.21 744.617 265.237C745.549 266.245 746.015 267.585 746.015 269.259V278.016H743.02V269.658C743.02 268.688 742.735 267.909 742.164 267.319C741.613 266.711 740.881 266.406 739.968 266.406C739.036 266.406 738.266 266.711 737.657 267.319C737.068 267.928 736.773 268.707 736.773 269.658V278.016H733.778V264.01H736.573V265.379C737.638 264.258 739.036 263.697 740.766 263.697Z" fill="#006CFC"/>
<rect x="1204" y="232" width="309.032" height="74.0321" rx="37.016" fill="#006CFC" fill-opacity="0.08"/>
<path d="M1225.38 259.19H1228.41V266.692H1237.88V259.19H1240.9V278.016H1237.88V269.401H1228.41V278.016H1225.38V259.19ZM1257.93 271.997H1247.49C1247.68 273.138 1248.18 274.041 1249 274.707C1249.84 275.353 1250.86 275.677 1252.05 275.677C1253.52 275.677 1254.88 275.125 1256.13 274.022L1257.56 276.076C1255.96 277.578 1254.1 278.329 1251.97 278.329C1250.54 278.329 1249.26 278.016 1248.12 277.388C1246.98 276.742 1246.07 275.867 1245.41 274.764C1244.76 273.642 1244.44 272.396 1244.44 271.027C1244.44 269.677 1244.75 268.441 1245.38 267.319C1246.03 266.197 1246.9 265.313 1248 264.666C1249.13 264.02 1250.35 263.697 1251.68 263.697C1252.92 263.697 1254.02 263.982 1254.99 264.552C1255.98 265.104 1256.75 265.864 1257.3 266.834C1257.87 267.804 1258.16 268.897 1258.16 270.114C1258.16 270.704 1258.08 271.331 1257.93 271.997ZM1251.57 266.235C1250.58 266.235 1249.72 266.549 1248.97 267.176C1248.25 267.785 1247.78 268.612 1247.55 269.658H1255.16C1255.14 268.593 1254.78 267.756 1254.08 267.148C1253.4 266.539 1252.56 266.235 1251.57 266.235ZM1266.98 263.697C1268.71 263.697 1270.1 264.2 1271.15 265.208C1272.19 266.216 1272.72 267.661 1272.72 269.544V278.016H1269.92V276.447C1269.41 277.055 1268.77 277.521 1268.01 277.844C1267.25 278.168 1266.39 278.329 1265.44 278.329C1263.98 278.329 1262.8 277.959 1261.9 277.217C1261.01 276.475 1260.56 275.496 1260.56 274.279C1260.56 273.062 1261.03 272.092 1261.96 271.37C1262.89 270.647 1264.15 270.286 1265.73 270.286H1269.69V269.373C1269.69 268.403 1269.43 267.661 1268.89 267.148C1268.38 266.635 1267.65 266.378 1266.7 266.378C1265.92 266.378 1265.22 266.549 1264.61 266.891C1264.01 267.234 1263.41 267.756 1262.82 268.46L1261.08 266.692C1261.78 265.684 1262.64 264.933 1263.64 264.438C1264.65 263.944 1265.76 263.697 1266.98 263.697ZM1266.07 276.019C1267.08 276.019 1267.93 275.705 1268.64 275.078C1269.34 274.45 1269.69 273.661 1269.69 272.71V272.453H1266.1C1265.3 272.453 1264.68 272.596 1264.24 272.881C1263.83 273.167 1263.62 273.594 1263.62 274.165C1263.62 274.754 1263.84 275.211 1264.3 275.534C1264.76 275.857 1265.35 276.019 1266.07 276.019ZM1276.88 256.623H1279.88V278.016H1276.88V256.623ZM1292.54 275.477V278.016C1291.61 278.225 1290.78 278.329 1290.06 278.329C1288.44 278.329 1287.18 277.93 1286.26 277.131C1285.35 276.314 1284.89 275.087 1284.89 273.452V266.606H1282.61V264.01H1284.89V260.331H1287.92V264.01H1292.08V266.606H1287.92V273.195C1287.92 274.089 1288.15 274.716 1288.6 275.078C1289.08 275.439 1289.77 275.62 1290.68 275.62C1291.1 275.62 1291.72 275.572 1292.54 275.477ZM1302.62 263.697C1304.22 263.697 1305.48 264.21 1306.41 265.237C1307.35 266.264 1307.81 267.604 1307.81 269.259V278.016H1304.82V269.687C1304.82 268.717 1304.54 267.937 1303.99 267.348C1303.44 266.739 1302.7 266.435 1301.76 266.435C1300.83 266.435 1300.06 266.739 1299.45 267.348C1298.86 267.956 1298.57 268.736 1298.57 269.687V278.016H1295.57V256.623H1298.57V265.408C1299.04 264.857 1299.62 264.438 1300.31 264.153C1301.01 263.849 1301.78 263.697 1302.62 263.697ZM1318.51 278.329C1317.14 278.329 1315.89 278.006 1314.75 277.36C1313.63 276.713 1312.73 275.829 1312.07 274.707C1311.42 273.585 1311.1 272.349 1311.1 270.999C1311.1 269.649 1311.42 268.422 1312.07 267.319C1312.73 266.197 1313.64 265.313 1314.78 264.666C1315.92 264.02 1317.16 263.697 1318.51 263.697C1319.81 263.697 1320.96 263.991 1321.96 264.581C1322.99 265.151 1323.81 265.94 1324.42 266.948L1322.31 268.603C1321.3 267.176 1320.04 266.463 1318.54 266.463C1317.71 266.463 1316.95 266.663 1316.29 267.062C1315.62 267.462 1315.1 268.013 1314.72 268.717C1314.34 269.401 1314.15 270.162 1314.15 270.999C1314.15 271.854 1314.34 272.634 1314.72 273.338C1315.1 274.022 1315.62 274.564 1316.29 274.964C1316.95 275.363 1317.71 275.563 1318.54 275.563C1320.03 275.563 1321.28 274.859 1322.31 273.452L1324.42 275.078C1323.79 276.085 1322.96 276.884 1321.94 277.474C1320.93 278.044 1319.79 278.329 1318.51 278.329ZM1334.77 263.697C1336.36 263.697 1337.63 264.21 1338.56 265.237C1339.49 266.264 1339.96 267.604 1339.96 269.259V278.016H1336.96V269.687C1336.96 268.717 1336.69 267.937 1336.13 267.348C1335.58 266.739 1334.84 266.435 1333.91 266.435C1332.98 266.435 1332.21 266.739 1331.6 267.348C1331.01 267.956 1330.71 268.736 1330.71 269.687V278.016H1327.72V256.623H1330.71V265.408C1331.19 264.857 1331.77 264.438 1332.45 264.153C1333.16 263.849 1333.93 263.697 1334.77 263.697ZM1356.73 271.997H1346.29C1346.48 273.138 1346.99 274.041 1347.81 274.707C1348.64 275.353 1349.66 275.677 1350.86 275.677C1352.32 275.677 1353.68 275.125 1354.94 274.022L1356.36 276.076C1354.77 277.578 1352.9 278.329 1350.77 278.329C1349.35 278.329 1348.06 278.016 1346.92 277.388C1345.78 276.742 1344.88 275.867 1344.21 274.764C1343.57 273.642 1343.24 272.396 1343.24 271.027C1343.24 269.677 1343.56 268.441 1344.18 267.319C1344.83 266.197 1345.7 265.313 1346.81 264.666C1347.93 264.02 1349.16 263.697 1350.49 263.697C1351.72 263.697 1352.83 263.982 1353.8 264.552C1354.79 265.104 1355.56 265.864 1356.11 266.834C1356.68 267.804 1356.96 268.897 1356.96 270.114C1356.96 270.704 1356.89 271.331 1356.73 271.997ZM1350.37 266.235C1349.38 266.235 1348.52 266.549 1347.78 267.176C1347.06 267.785 1346.58 268.612 1346.35 269.658H1353.97C1353.95 268.593 1353.59 267.756 1352.88 267.148C1352.2 266.539 1351.36 266.235 1350.37 266.235ZM1366.93 278.329C1365.56 278.329 1364.3 278.006 1363.16 277.36C1362.04 276.713 1361.15 275.829 1360.48 274.707C1359.83 273.585 1359.51 272.349 1359.51 270.999C1359.51 269.649 1359.83 268.422 1360.48 267.319C1361.15 266.197 1362.05 265.313 1363.19 264.666C1364.33 264.02 1365.58 263.697 1366.93 263.697C1368.22 263.697 1369.37 263.991 1370.38 264.581C1371.4 265.151 1372.22 265.94 1372.83 266.948L1370.72 268.603C1369.71 267.176 1368.46 266.463 1366.95 266.463C1366.12 266.463 1365.37 266.663 1364.7 267.062C1364.04 267.462 1363.51 268.013 1363.13 268.717C1362.75 269.401 1362.56 270.162 1362.56 270.999C1362.56 271.854 1362.75 272.634 1363.13 273.338C1363.51 274.022 1364.04 274.564 1364.7 274.964C1365.37 275.363 1366.12 275.563 1366.95 275.563C1368.44 275.563 1369.69 274.859 1370.72 273.452L1372.83 275.078C1372.2 276.085 1371.38 276.884 1370.35 277.474C1369.34 278.044 1368.2 278.329 1366.93 278.329ZM1376.13 256.623H1379.13V278.016H1376.13V256.623ZM1388.88 278.016H1385.29L1379.21 270.143L1384.69 264.01H1388.4L1382.75 270.172L1388.88 278.016ZM1411.37 278.016L1406.01 270.742H1402.56V278.016H1399.54V259.19H1406.41C1407.67 259.19 1408.78 259.437 1409.75 259.931C1410.72 260.407 1411.47 261.082 1412 261.957C1412.53 262.831 1412.8 263.83 1412.8 264.952C1412.8 266.188 1412.48 267.272 1411.83 268.203C1411.18 269.135 1410.3 269.82 1409.18 270.257L1414.82 278.016H1411.37ZM1402.56 268.061H1406.35C1407.4 268.061 1408.22 267.775 1408.81 267.205C1409.4 266.635 1409.69 265.893 1409.69 264.98C1409.69 264.048 1409.4 263.297 1408.81 262.727C1408.22 262.156 1407.4 261.871 1406.35 261.871H1402.56V268.061ZM1429.52 271.997H1419.08C1419.27 273.138 1419.77 274.041 1420.59 274.707C1421.43 275.353 1422.45 275.677 1423.64 275.677C1425.11 275.677 1426.47 275.125 1427.72 274.022L1429.15 276.076C1427.55 277.578 1425.69 278.329 1423.56 278.329C1422.13 278.329 1420.85 278.016 1419.71 277.388C1418.57 276.742 1417.66 275.867 1417 274.764C1416.35 273.642 1416.03 272.396 1416.03 271.027C1416.03 269.677 1416.34 268.441 1416.97 267.319C1417.62 266.197 1418.49 265.313 1419.59 264.666C1420.72 264.02 1421.94 263.697 1423.27 263.697C1424.51 263.697 1425.61 263.982 1426.58 264.552C1427.57 265.104 1428.34 265.864 1428.89 266.834C1429.46 267.804 1429.75 268.897 1429.75 270.114C1429.75 270.704 1429.67 271.331 1429.52 271.997ZM1423.16 266.235C1422.17 266.235 1421.31 266.549 1420.56 267.176C1419.84 267.785 1419.37 268.612 1419.14 269.658H1426.75C1426.73 268.593 1426.37 267.756 1425.67 267.148C1424.99 266.539 1424.15 266.235 1423.16 266.235ZM1445.57 264.01L1438.81 278.329H1437.79L1431 264.01H1434.19L1438.3 273.281L1442.38 264.01H1445.57ZM1448.28 264.01H1451.27V278.016H1448.28V264.01ZM1449.79 260.759C1449.22 260.759 1448.73 260.568 1448.34 260.188C1447.94 259.808 1447.74 259.342 1447.74 258.79C1447.74 258.239 1447.94 257.773 1448.34 257.393C1448.73 256.993 1449.22 256.794 1449.79 256.794C1450.34 256.794 1450.82 256.993 1451.22 257.393C1451.62 257.773 1451.82 258.239 1451.82 258.79C1451.82 259.342 1451.62 259.808 1451.22 260.188C1450.82 260.568 1450.34 260.759 1449.79 260.759ZM1468.21 271.997H1457.77C1457.96 273.138 1458.47 274.041 1459.28 274.707C1460.12 275.353 1461.14 275.677 1462.34 275.677C1463.8 275.677 1465.16 275.125 1466.42 274.022L1467.84 276.076C1466.24 277.578 1464.38 278.329 1462.25 278.329C1460.82 278.329 1459.54 278.016 1458.4 277.388C1457.26 276.742 1456.36 275.867 1455.69 274.764C1455.04 273.642 1454.72 272.396 1454.72 271.027C1454.72 269.677 1455.03 268.441 1455.66 267.319C1456.31 266.197 1457.18 265.313 1458.29 264.666C1459.41 264.02 1460.63 263.697 1461.97 263.697C1463.2 263.697 1464.3 263.982 1465.27 264.552C1466.26 265.104 1467.03 265.864 1467.58 266.834C1468.15 267.804 1468.44 268.897 1468.44 270.114C1468.44 270.704 1468.36 271.331 1468.21 271.997ZM1461.85 266.235C1460.86 266.235 1460 266.549 1459.26 267.176C1458.53 267.785 1458.06 268.612 1457.83 269.658H1465.45C1465.43 268.593 1465.06 267.756 1464.36 267.148C1463.68 266.539 1462.84 266.235 1461.85 266.235ZM1492.96 264.01L1486.75 278.329H1485.72L1481.33 269.002L1476.93 278.329H1475.91L1469.69 264.01H1472.88L1476.56 273.167L1480.81 263.697H1481.84L1486.15 273.052L1489.77 264.01H1492.96Z" fill="#006CFC"/>
<rect x="1340" y="373" width="188.032" height="74.0321" rx="37.016" fill="#006CFC" fill-opacity="0.08"/>
<path d="M1370.14 419.329C1368.33 419.329 1366.67 418.902 1365.15 418.046C1363.65 417.19 1362.45 416.021 1361.55 414.537C1360.68 413.054 1360.24 411.409 1360.24 409.603C1360.24 407.796 1360.68 406.151 1361.55 404.668C1362.45 403.185 1363.65 402.015 1365.15 401.16C1366.67 400.304 1368.33 399.876 1370.14 399.876C1371.87 399.876 1373.44 400.266 1374.85 401.045C1376.27 401.825 1377.39 402.881 1378.21 404.212L1375.93 405.895C1375.26 404.849 1374.45 404.05 1373.48 403.499C1372.51 402.928 1371.4 402.643 1370.17 402.643C1368.89 402.643 1367.73 402.947 1366.69 403.556C1365.66 404.145 1364.85 404.972 1364.26 406.037C1363.67 407.102 1363.38 408.291 1363.38 409.603C1363.38 410.915 1363.67 412.103 1364.26 413.168C1364.85 414.233 1365.66 415.07 1366.69 415.678C1367.73 416.268 1368.89 416.563 1370.17 416.563C1371.4 416.563 1372.51 416.287 1373.48 415.735C1374.45 415.165 1375.26 414.357 1375.93 413.311L1378.21 414.994C1377.41 416.325 1376.3 417.38 1374.88 418.16C1373.47 418.94 1371.89 419.329 1370.14 419.329ZM1387.85 419.329C1386.5 419.329 1385.26 419.006 1384.12 418.36C1383 417.694 1382.1 416.8 1381.44 415.678C1380.79 414.556 1380.47 413.33 1380.47 411.999C1380.47 410.649 1380.79 409.422 1381.44 408.319C1382.1 407.197 1383 406.313 1384.12 405.666C1385.26 405.02 1386.5 404.697 1387.85 404.697C1389.22 404.697 1390.48 405.02 1391.62 405.666C1392.76 406.313 1393.65 407.197 1394.3 408.319C1394.97 409.441 1395.3 410.668 1395.3 411.999C1395.3 413.33 1394.97 414.556 1394.3 415.678C1393.65 416.8 1392.76 417.694 1391.62 418.36C1390.48 419.006 1389.22 419.329 1387.85 419.329ZM1387.85 416.563C1388.67 416.563 1389.41 416.363 1390.08 415.964C1390.74 415.564 1391.27 415.022 1391.65 414.338C1392.03 413.634 1392.22 412.864 1392.22 412.027C1392.22 411.172 1392.03 410.392 1391.65 409.688C1391.27 408.985 1390.74 408.433 1390.08 408.034C1389.41 407.635 1388.68 407.435 1387.88 407.435C1387.07 407.435 1386.32 407.635 1385.66 408.034C1384.99 408.433 1384.47 408.985 1384.09 409.688C1383.71 410.392 1383.52 411.172 1383.52 412.027C1383.52 412.883 1383.71 413.663 1384.09 414.366C1384.47 415.051 1384.98 415.593 1385.63 415.992C1386.3 416.372 1387.04 416.563 1387.85 416.563ZM1405.72 404.697C1407.36 404.697 1408.64 405.21 1409.57 406.237C1410.5 407.245 1410.97 408.585 1410.97 410.259V419.016H1407.97V410.658C1407.97 409.688 1407.69 408.909 1407.12 408.319C1406.57 407.711 1405.84 407.406 1404.92 407.406C1403.99 407.406 1403.22 407.711 1402.61 408.319C1402.02 408.928 1401.73 409.707 1401.73 410.658V419.016H1398.73V405.01H1401.53V406.379C1402.59 405.258 1403.99 404.697 1405.72 404.697ZM1427.53 405.01L1420.77 419.329H1419.75L1412.96 405.01H1416.15L1420.26 414.281L1424.34 405.01H1427.53ZM1442.29 412.997H1431.85C1432.04 414.138 1432.54 415.041 1433.36 415.707C1434.2 416.353 1435.21 416.677 1436.41 416.677C1437.88 416.677 1439.24 416.125 1440.49 415.022L1441.92 417.076C1440.32 418.578 1438.46 419.329 1436.33 419.329C1434.9 419.329 1433.62 419.016 1432.48 418.388C1431.33 417.742 1430.43 416.867 1429.77 415.764C1429.12 414.642 1428.8 413.396 1428.8 412.027C1428.8 410.677 1429.11 409.441 1429.74 408.319C1430.38 407.197 1431.26 406.313 1432.36 405.666C1433.48 405.02 1434.71 404.697 1436.04 404.697C1437.28 404.697 1438.38 404.982 1439.35 405.552C1440.34 406.104 1441.11 406.864 1441.66 407.834C1442.23 408.804 1442.52 409.897 1442.52 411.114C1442.52 411.704 1442.44 412.331 1442.29 412.997ZM1435.93 407.235C1434.94 407.235 1434.07 407.549 1433.33 408.176C1432.61 408.785 1432.13 409.612 1431.91 410.658H1439.52C1439.5 409.593 1439.14 408.756 1438.44 408.148C1437.75 407.539 1436.92 407.235 1435.93 407.235ZM1453.96 405.01V407.663H1453.05C1451.87 407.663 1450.89 408.005 1450.11 408.69C1449.33 409.355 1448.94 410.306 1448.94 411.542V419.016H1445.95V405.01H1448.74V406.836C1449.24 406.208 1449.84 405.723 1450.54 405.381C1451.26 405.039 1452.02 404.868 1452.82 404.868C1453.24 404.868 1453.62 404.915 1453.96 405.01ZM1460.98 419.329C1459.78 419.329 1458.7 419.082 1457.73 418.588C1456.76 418.093 1455.96 417.437 1455.33 416.62L1457.04 414.737C1457.65 415.384 1458.27 415.878 1458.9 416.22C1459.54 416.563 1460.24 416.734 1460.98 416.734C1461.63 416.734 1462.16 416.601 1462.58 416.334C1463.01 416.068 1463.23 415.678 1463.23 415.165C1463.23 414.747 1463.07 414.423 1462.75 414.195C1462.44 413.967 1461.95 413.71 1461.27 413.425L1459.84 412.826C1458.6 412.312 1457.68 411.751 1457.07 411.143C1456.48 410.534 1456.19 409.736 1456.19 408.747C1456.19 407.492 1456.65 406.503 1457.59 405.78C1458.52 405.058 1459.7 404.697 1461.12 404.697C1463.14 404.697 1464.75 405.419 1465.97 406.864L1464.35 408.718C1463.91 408.262 1463.4 407.91 1462.83 407.663C1462.26 407.416 1461.67 407.292 1461.07 407.292C1460.48 407.292 1460.01 407.406 1459.67 407.635C1459.33 407.863 1459.15 408.195 1459.15 408.633C1459.15 408.994 1459.29 409.289 1459.55 409.517C1459.84 409.745 1460.32 410.002 1461.01 410.287L1462.35 410.829C1463.68 411.381 1464.65 411.98 1465.26 412.626C1465.87 413.254 1466.17 414.062 1466.17 415.051C1466.17 416.401 1465.68 417.456 1464.69 418.217C1463.7 418.959 1462.46 419.329 1460.98 419.329ZM1469.63 405.01H1472.62V419.016H1469.63V405.01ZM1471.14 401.759C1470.57 401.759 1470.08 401.568 1469.68 401.188C1469.28 400.808 1469.08 400.342 1469.08 399.79C1469.08 399.239 1469.28 398.773 1469.68 398.393C1470.08 397.993 1470.57 397.794 1471.14 397.794C1471.69 397.794 1472.16 397.993 1472.56 398.393C1472.96 398.773 1473.16 399.239 1473.16 399.79C1473.16 400.342 1472.96 400.808 1472.56 401.188C1472.16 401.568 1471.69 401.759 1471.14 401.759ZM1483.45 419.329C1482.1 419.329 1480.86 419.006 1479.72 418.36C1478.6 417.694 1477.7 416.8 1477.04 415.678C1476.39 414.556 1476.07 413.33 1476.07 411.999C1476.07 410.649 1476.39 409.422 1477.04 408.319C1477.7 407.197 1478.6 406.313 1479.72 405.666C1480.86 405.02 1482.1 404.697 1483.45 404.697C1484.82 404.697 1486.08 405.02 1487.22 405.666C1488.36 406.313 1489.25 407.197 1489.9 408.319C1490.57 409.441 1490.9 410.668 1490.9 411.999C1490.9 413.33 1490.57 414.556 1489.9 415.678C1489.25 416.8 1488.36 417.694 1487.22 418.36C1486.08 419.006 1484.82 419.329 1483.45 419.329ZM1483.45 416.563C1484.27 416.563 1485.01 416.363 1485.68 415.964C1486.34 415.564 1486.87 415.022 1487.25 414.338C1487.63 413.634 1487.82 412.864 1487.82 412.027C1487.82 411.172 1487.63 410.392 1487.25 409.688C1486.87 408.985 1486.34 408.433 1485.68 408.034C1485.01 407.635 1484.28 407.435 1483.48 407.435C1482.67 407.435 1481.92 407.635 1481.26 408.034C1480.59 408.433 1480.07 408.985 1479.69 409.688C1479.31 410.392 1479.12 411.172 1479.12 412.027C1479.12 412.883 1479.31 413.663 1479.69 414.366C1480.07 415.051 1480.58 415.593 1481.23 415.992C1481.9 416.372 1482.64 416.563 1483.45 416.563ZM1501.32 404.697C1502.96 404.697 1504.24 405.21 1505.17 406.237C1506.1 407.245 1506.57 408.585 1506.57 410.259V419.016H1503.57V410.658C1503.57 409.688 1503.29 408.909 1502.72 408.319C1502.17 407.711 1501.44 407.406 1500.52 407.406C1499.59 407.406 1498.82 407.711 1498.21 408.319C1497.62 408.928 1497.33 409.707 1497.33 410.658V419.016H1494.33V405.01H1497.13V406.379C1498.19 405.258 1499.59 404.697 1501.32 404.697Z" fill="#006CFC"/>
<rect x="462" y="373" width="167.032" height="74.0321" rx="37.016" fill="#006CFC" fill-opacity="0.08"/>
<path d="M490.942 419.329C489.44 419.329 488.099 419.016 486.92 418.388C485.76 417.761 484.847 416.848 484.182 415.65C483.516 414.452 483.183 413.035 483.183 411.4V400.19H486.207V411.599C486.207 413.197 486.644 414.423 487.519 415.279C488.413 416.135 489.554 416.563 490.942 416.563C492.311 416.563 493.433 416.135 494.308 415.279C495.183 414.423 495.62 413.197 495.62 411.599V400.19H498.643V411.4C498.643 413.035 498.311 414.452 497.645 415.65C496.98 416.848 496.057 417.761 494.878 418.388C493.718 419.016 492.406 419.329 490.942 419.329ZM510.522 404.697C511.835 404.697 513.014 405.02 514.059 405.666C515.105 406.294 515.923 407.169 516.512 408.291C517.102 409.394 517.397 410.63 517.397 411.999C517.397 413.387 517.102 414.642 516.512 415.764C515.923 416.867 515.105 417.742 514.059 418.388C513.014 419.016 511.835 419.329 510.522 419.329C509.572 419.329 508.687 419.158 507.87 418.816C507.071 418.455 506.396 417.951 505.844 417.304V424.15H502.849V405.01H505.645V406.978C506.158 406.256 506.843 405.695 507.699 405.296C508.554 404.896 509.496 404.697 510.522 404.697ZM510.038 416.591C510.836 416.591 511.559 416.401 512.205 416.021C512.852 415.621 513.365 415.079 513.746 414.395C514.126 413.71 514.316 412.921 514.316 412.027C514.316 411.133 514.126 410.344 513.746 409.66C513.384 408.956 512.871 408.414 512.205 408.034C511.559 407.635 510.836 407.435 510.038 407.435C509.296 407.435 508.602 407.606 507.955 407.948C507.328 408.272 506.814 408.775 506.415 409.46C506.016 410.145 505.816 410.991 505.816 411.999C505.816 413.007 506.016 413.862 506.415 414.566C506.814 415.25 507.328 415.764 507.955 416.106C508.602 416.429 509.296 416.591 510.038 416.591ZM534.593 405.01V417.561C534.593 419.767 533.956 421.469 532.682 422.667C531.408 423.865 529.706 424.464 527.576 424.464C526.188 424.464 524.923 424.217 523.782 423.722C522.66 423.228 521.681 422.591 520.844 421.811L522.499 419.729C523.278 420.356 524.048 420.841 524.809 421.183C525.589 421.545 526.454 421.725 527.405 421.725C528.679 421.725 529.696 421.383 530.457 420.699C531.217 420.033 531.598 419.044 531.598 417.732V416.734C531.065 417.38 530.381 417.875 529.544 418.217C528.726 418.559 527.833 418.73 526.863 418.73C525.57 418.73 524.4 418.436 523.354 417.846C522.327 417.238 521.519 416.401 520.93 415.336C520.34 414.271 520.045 413.064 520.045 411.713C520.045 410.363 520.34 409.156 520.93 408.091C521.519 407.026 522.337 406.199 523.383 405.609C524.429 405.001 525.589 404.697 526.863 404.697C527.928 404.697 528.888 404.906 529.744 405.324C530.618 405.723 531.312 406.284 531.826 407.007V405.01H534.593ZM527.405 416.106C528.565 416.106 529.553 415.726 530.371 414.965C531.208 414.205 531.626 413.111 531.626 411.685C531.626 410.259 531.208 409.184 530.371 408.462C529.553 407.739 528.565 407.378 527.405 407.378C526.188 407.378 525.17 407.777 524.353 408.576C523.535 409.374 523.126 410.42 523.126 411.713C523.126 413.026 523.535 414.09 524.353 414.908C525.17 415.707 526.188 416.106 527.405 416.106ZM546.938 405.01V407.663H546.025C544.846 407.663 543.867 408.005 543.087 408.69C542.307 409.355 541.917 410.306 541.917 411.542V419.016H538.922V405.01H541.718V406.836C542.212 406.208 542.811 405.723 543.515 405.381C544.237 405.039 544.998 404.868 545.797 404.868C546.215 404.868 546.595 404.915 546.938 405.01ZM554.731 404.697C556.462 404.697 557.85 405.2 558.896 406.208C559.942 407.216 560.465 408.661 560.465 410.544V419.016H557.669V417.447C557.156 418.055 556.519 418.521 555.758 418.844C554.998 419.168 554.142 419.329 553.191 419.329C551.727 419.329 550.548 418.959 549.654 418.217C548.76 417.475 548.313 416.496 548.313 415.279C548.313 414.062 548.779 413.092 549.711 412.37C550.643 411.647 551.898 411.286 553.476 411.286H557.441V410.373C557.441 409.403 557.175 408.661 556.642 408.148C556.129 407.635 555.397 407.378 554.446 407.378C553.666 407.378 552.972 407.549 552.364 407.891C551.755 408.234 551.156 408.756 550.567 409.46L548.827 407.692C549.53 406.684 550.386 405.933 551.394 405.438C552.402 404.944 553.514 404.697 554.731 404.697ZM553.819 417.019C554.826 417.019 555.682 416.705 556.386 416.078C557.089 415.45 557.441 414.661 557.441 413.71V413.453H553.847C553.048 413.453 552.43 413.596 551.993 413.881C551.575 414.167 551.366 414.594 551.366 415.165C551.366 415.754 551.594 416.211 552.05 416.534C552.507 416.857 553.096 417.019 553.819 417.019ZM578.296 397.623V419.016H575.501V417.019C574.987 417.742 574.303 418.312 573.447 418.73C572.591 419.13 571.64 419.329 570.595 419.329C569.282 419.329 568.103 419.016 567.058 418.388C566.031 417.742 565.223 416.867 564.633 415.764C564.044 414.642 563.749 413.396 563.749 412.027C563.749 410.658 564.044 409.413 564.633 408.291C565.223 407.169 566.04 406.294 567.086 405.666C568.132 405.02 569.301 404.697 570.595 404.697C571.564 404.697 572.449 404.877 573.247 405.239C574.065 405.581 574.74 406.075 575.272 406.722V397.623H578.296ZM571.108 416.591C571.85 416.591 572.534 416.429 573.162 416.106C573.808 415.764 574.331 415.25 574.731 414.566C575.13 413.881 575.33 413.035 575.33 412.027C575.33 411.019 575.13 410.173 574.731 409.489C574.331 408.804 573.808 408.291 573.162 407.948C572.515 407.606 571.831 407.435 571.108 407.435C570.309 407.435 569.577 407.635 568.912 408.034C568.265 408.414 567.752 408.947 567.371 409.631C566.991 410.316 566.801 411.105 566.801 411.999C566.801 412.892 566.982 413.691 567.343 414.395C567.723 415.079 568.237 415.621 568.883 416.021C569.549 416.401 570.29 416.591 571.108 416.591ZM595.235 412.997H584.796C584.986 414.138 585.49 415.041 586.307 415.707C587.144 416.353 588.161 416.677 589.359 416.677C590.824 416.677 592.183 416.125 593.438 415.022L594.865 417.076C593.267 418.578 591.404 419.329 589.274 419.329C587.848 419.329 586.564 419.016 585.423 418.388C584.282 417.742 583.379 416.867 582.713 415.764C582.067 414.642 581.743 413.396 581.743 412.027C581.743 410.677 582.057 409.441 582.685 408.319C583.331 407.197 584.206 406.313 585.309 405.666C586.431 405.02 587.657 404.697 588.989 404.697C590.225 404.697 591.328 404.982 592.297 405.552C593.286 406.104 594.056 406.864 594.608 407.834C595.178 408.804 595.464 409.897 595.464 411.114C595.464 411.704 595.387 412.331 595.235 412.997ZM588.874 407.235C587.886 407.235 587.02 407.549 586.279 408.176C585.556 408.785 585.081 409.612 584.853 410.658H592.469C592.449 409.593 592.088 408.756 591.385 408.148C590.7 407.539 589.863 407.235 588.874 407.235ZM603.231 419.329C602.033 419.329 600.949 419.082 599.979 418.588C599.009 418.093 598.211 417.437 597.583 416.62L599.295 414.737C599.903 415.384 600.521 415.878 601.149 416.22C601.795 416.563 602.489 416.734 603.231 416.734C603.878 416.734 604.41 416.601 604.828 416.334C605.266 416.068 605.484 415.678 605.484 415.165C605.484 414.747 605.323 414.423 604.999 414.195C604.695 413.967 604.201 413.71 603.516 413.425L602.09 412.826C600.854 412.312 599.932 411.751 599.323 411.143C598.734 410.534 598.439 409.736 598.439 408.747C598.439 407.492 598.905 406.503 599.837 405.78C600.768 405.058 601.947 404.697 603.374 404.697C605.389 404.697 607.006 405.419 608.223 406.864L606.597 408.718C606.159 408.262 605.656 407.91 605.085 407.663C604.515 407.416 603.925 407.292 603.317 407.292C602.727 407.292 602.261 407.406 601.919 407.635C601.577 407.863 601.405 408.195 601.405 408.633C601.405 408.994 601.539 409.289 601.805 409.517C602.09 409.745 602.575 410.002 603.26 410.287L604.6 410.829C605.931 411.381 606.901 411.98 607.51 412.626C608.118 413.254 608.422 414.062 608.422 415.051C608.422 416.401 607.928 417.456 606.939 418.217C605.95 418.959 604.714 419.329 603.231 419.329Z" fill="#006CFC"/>
<path d="M618.727 665.434C618.727 614.128 629.239 563.365 649.615 516.278L684.207 531.248C665.876 573.609 656.418 619.277 656.418 665.434L618.727 665.434Z" fill="#006CFC"/>
<path d="M657.23 499.788C679.859 453.741 711.683 412.819 750.738 379.547L775.181 408.239C740.046 438.172 711.416 474.987 691.058 516.412L657.23 499.788Z" fill="#006CFC"/>
<path d="M763.176 369.402C803.617 337.829 850.098 314.877 899.752 301.961L909.241 338.439C864.57 350.058 822.753 370.707 786.37 399.112L763.176 369.402Z" fill="#006CFC"/>
<path d="M918.41 297.613C968.658 287.247 1020.5 287.286 1070.73 297.728L1063.06 334.631C1017.87 325.237 971.231 325.202 926.025 334.528L918.41 297.613Z" fill="#006CFC"/>
<path d="M1085.8 301.186C1135.56 313.688 1182.24 336.252 1222.94 367.487L1199.99 397.389C1163.37 369.289 1121.39 348.989 1076.62 337.742L1085.8 301.186Z" fill="#006CFC"/>
<path d="M1235.76 377.778C1275.05 410.765 1307.18 451.453 1330.14 497.333L1296.43 514.204C1275.77 472.928 1246.88 436.323 1211.52 406.647L1235.76 377.778Z" fill="#006CFC"/>
<path d="M1338.59 515.407C1359.09 562.442 1369.73 613.178 1369.86 664.484L1332.17 664.579C1332.05 618.422 1322.48 572.778 1304.04 530.464L1338.59 515.407Z" fill="#006CFC"/>
<path d="M594.701 583.196L636.433 563.8L626.559 616.404L594.701 583.196Z" fill="#006CFC"/>
<path d="M673.321 411.74L719.305 413.538L686.503 455.831L673.321 411.74Z" fill="#006CFC"/>
<path d="M813.606 301.967L854.786 322.508L807.499 347.579L813.606 301.967Z" fill="#006CFC"/>
<path d="M995.185 259.519L1021.27 297.431L967.757 296.471L995.185 259.519Z" fill="#006CFC"/>
<path d="M1174.61 302.159L1182.36 347.521L1134.2 324.171L1174.61 302.159Z" fill="#016CFB"/>
<path d="M1317.91 416.015L1303.04 459.567L1271.89 416.047L1317.91 416.015Z" fill="#006CFC"/>
<path d="M1388.25 579.5L1355.32 611.648L1347.17 558.749L1388.25 579.5Z" fill="#016CFC"/>
</g>
<defs>
<filter id="filter0_d_877_219" x="583.428" y="267.285" width="834.328" height="834.328" filterUnits="userSpaceOnUse" color-interpolation-filters="sRGB">
<feFlood flood-opacity="0" result="BackgroundImageFix"/>
<feColorMatrix in="SourceAlpha" type="matrix" values="0 0 0 0 0 0 0 0 0 0 0 0 0 0 0 0 0 0 127 0" result="hardAlpha"/>
<feOffset dx="9.50802" dy="19.016"/>
<feGaussianBlur stdDeviation="47.5401"/>
<feComposite in2="hardAlpha" operator="out"/>
<feColorMatrix type="matrix" values="0 0 0 0 0.00392157 0 0 0 0 0.403922 0 0 0 0 0.937255 0 0 0 0.16 0"/>
<feBlend mode="normal" in2="BackgroundImageFix" result="effect1_dropShadow_877_219"/>
<feBlend mode="normal" in="SourceGraphic" in2="effect1_dropShadow_877_219" result="shape"/>
</filter>
<clipPath id="clip0_877_219">
<rect width="1920" height="800" fill="white"/>
</clipPath>
</defs>
</svg>
